<?xml version="1.0" encoding="utf-8"?>
<!-- Generator: Adobe Illustrator 18.1.1, SVG Export Plug-In . SVG Version: 6.00 Build 0)  -->
<svg version="1.1" id="Layer_1" xmlns="http://www.w3.org/2000/svg" xmlns:xlink="http://www.w3.org/1999/xlink" x="0px" y="0px"
	 viewBox="0 0 249.6 249.6" enable-background="new 0 0 249.6 249.6" xml:space="preserve">
<g>
	<g>
		<circle fill="#FFFFFF" cx="124.8" cy="124.8" r="92.3"/>
	</g>
	<g>
		<g>
			<g>
				<path d="M124.8,0C55.9,0,0,55.9,0,124.8s55.9,124.8,124.8,124.8s124.8-55.9,124.8-124.8S193.7,0,124.8,0z M124.8,217.2
					c-51,0-92.4-41.3-92.4-92.4s41.3-92.4,92.4-92.4c51,0,92.4,41.3,92.4,92.4S175.8,217.2,124.8,217.2z"/>
			</g>
			<g>
				<path fill="#FFFFFF" d="M41.4,41.2c3.1-0.5,7.6-1.4,13.5-2.5c0.3,0,0.4-0.1,0.5-0.1c0.1-0.1,0-0.3-0.3-0.6L51,33.3
					c-0.2-0.2-0.3-0.3-0.3-0.4c-0.1-0.1,0-0.3,0.2-0.4c0.2-0.1,0.3-0.2,0.4-0.1c0.1,0,0.2,0.2,0.4,0.4l12.1,13.7
					c0.2,0.2,0.3,0.4,0.3,0.4c0.1,0.1,0,0.3-0.2,0.4c-0.2,0.1-0.3,0.2-0.4,0.1c0,0-0.1-0.2-0.3-0.4l-4.9-5.5
					c-0.2-0.2-0.4-0.3-0.7-0.3c-2.5,0.4-6.9,1.2-13.1,2.5c-0.2,0-0.4,0.1-0.5,0.2c-0.1,0.1-0.1,0.3,0.1,0.5l9.7,10.9
					c0.2,0.2,0.3,0.4,0.3,0.4c0.1,0.1,0,0.3-0.1,0.4c-0.2,0.1-0.3,0.2-0.4,0.1c0,0-0.2-0.1-0.4-0.4L40.9,42.2
					c-0.2-0.2-0.3-0.4-0.3-0.4c-0.1-0.1,0-0.3,0.1-0.4C40.9,41.3,41.1,41.2,41.4,41.2z"/>
				<path fill="#FFFFFF" d="M68.3,40.5c-0.1,0.1-0.3,0.2-0.4,0.3c-0.2,0.1-0.4,0.3-0.4,0.5s-0.1,0.4,0.1,0.6
					c0.3,0.4,0.6,0.7,0.8,0.9c0.3,0.1,0.6,0.2,0.9,0.1c0.1,0,0.4-0.2,0.9-0.5c0.5-0.4,1-0.9,1.3-1.7c0-0.1,0.1-0.2,0.2-0.2
					c0.1-0.1,0.2-0.1,0.3,0.1c0.1,0.1,0.1,0.2,0.1,0.4c-0.2,0.8-0.7,1.5-1.5,2c-1,0.6-2,0.9-3.1,0.7s-1.9-0.8-2.6-1.7
					c-0.7-1-0.9-2-0.6-3.2c0.3-1.2,0.9-2.1,2.1-2.9c0.5-0.4,1.1-0.5,1.8-0.5c0.7,0,1.2,0.3,1.6,0.8c0.5,0.8,0.6,1.5,0.4,2.3
					C69.8,39.2,69.2,39.9,68.3,40.5z M68.1,40c0.6-0.4,1-0.9,1.2-1.5c0.2-0.6,0.2-1.2-0.1-1.7c-0.6-0.9-1.4-0.9-2.5-0.2
					c-0.8,0.5-1.2,1.1-1.2,1.8c0.2,0.5,0.5,1.1,1,1.8c0.1,0.2,0.4,0.2,0.8,0.1C67.6,40.2,67.8,40.1,68.1,40z"/>
				<path fill="#FFFFFF" d="M71.4,33.5c0,0-0.1-0.1-0.1-0.1c-0.2-0.3,0-0.6,0.6-0.9c0.7-0.3,1.1-0.4,1.4-0.2
					c0.6,0.5,1.7,1.4,3.3,2.7c0.3,0.2,0.4,0.2,0.4-0.2l-0.2-4.4c0-0.2,0.1-0.3,0.2-0.4c0.1-0.1,0.3,0,0.4,0.1
					c0.8,0.6,2.1,1.5,3.9,2.7c0.1,0.1,0.2,0,0.3,0c0.1-0.1,0.1-0.2,0.1-0.3c-0.1-0.8-0.2-2.3-0.4-4.4c0-0.2,0-0.3,0.2-0.4
					c0.3-0.1,0.5-0.1,0.6,0.2c0,0,0,0.1,0,0.1l0.6,7.5c0,0.2-0.1,0.4-0.2,0.4c-0.1,0.1-0.3,0.1-0.4,0c-0.7-0.5-1.9-1.3-3.6-2.6
					c-0.2-0.2-0.4-0.2-0.5-0.1c-0.2,0.1-0.2,0.3-0.2,0.6c0,0.8,0.1,2.2,0.2,4.2c0,0.2,0,0.4-0.2,0.4c-0.2,0.1-0.3,0-0.5-0.1
					L71.4,33.5z"/>
				<path fill="#FFFFFF" d="M84.8,25.6c-0.1-0.3-0.3-0.3-0.6-0.2c-0.3,0.1-0.4,0.2-0.5,0.2c-0.1,0-0.2-0.1-0.3-0.3
					c-0.1-0.2-0.1-0.3,0.1-0.4c0,0,0.2-0.1,0.5-0.2s0.4-0.3,0.3-0.5L82.6,20c-0.2-0.4,0-0.9,0.6-1.5c0.1-0.2,0.3-0.3,0.5-0.3
					c0.3-0.1,0.6,0,0.7,0.4l1.9,4.8c0.1,0.2,0.3,0.3,0.5,0.2c0.1,0,0.2-0.1,0.3-0.1c0.1-0.1,0.3-0.1,0.4-0.2
					c0.4-0.1,0.6-0.1,0.7,0.2c0.1,0.2-0.1,0.4-0.4,0.6c-0.1,0-0.3,0.1-0.4,0.2c-0.2,0.1-0.3,0.1-0.3,0.1c-0.3,0.1-0.4,0.3-0.3,0.6
					l2.8,7.3c0.1,0.3,0.1,0.5-0.1,0.7c-0.1,0.1-0.3,0.2-0.7,0.3c-0.4,0.1-0.6,0.2-0.7,0.2c-0.3,0-0.5-0.1-0.6-0.4L84.8,25.6z"/>
				<path fill="#FFFFFF" d="M92,27.8c-0.3-1.1-0.2-2.1,0.4-3.1c0.6-1,1.4-1.6,2.5-2c1.1-0.3,2.2-0.2,3.2,0.3c1,0.5,1.7,1.3,2,2.4
					s0.2,2.1-0.4,3.1c-0.6,1-1.4,1.6-2.5,2S95,30.8,94,30.3C93,29.7,92.3,28.9,92,27.8z M93.6,24.6c0.1,0.7,0.2,1.5,0.5,2.6
					c0.3,1.1,0.6,1.9,0.9,2.5c0.4,0.4,1,0.4,1.9,0.2c1-0.3,1.7-0.8,2.1-1.6c0.4-0.8,0.5-1.6,0.2-2.5c-0.3-0.9-0.8-1.6-1.6-2
					c-0.8-0.4-1.7-0.5-2.6-0.2C94.2,23.7,93.7,24.1,93.6,24.6z"/>
				<path fill="#FFFFFF" d="M110.1,22l0.8,4.6c0.1,0.3,0,0.5-0.3,0.6c-0.1,0.1-0.3,0.1-0.7,0.2c-0.4,0.1-0.6,0.1-0.7,0.1
					c-0.3,0-0.4-0.2-0.5-0.5l-1-5.5c-0.1-0.4-0.3-0.7-0.5-0.7c-0.1,0-0.4,0-0.8,0.1c-0.4,0.1-0.8,0.3-1.3,0.8
					c-0.4,0.4-0.6,0.8-0.6,1.1l0.9,4.9c0.1,0.3,0,0.5-0.3,0.6c-0.1,0.1-0.3,0.1-0.7,0.2c-0.4,0.1-0.6,0.1-0.7,0.1
					c-0.3,0-0.4-0.2-0.5-0.5l-1.2-6.5c-0.1-0.3,0-0.5,0.3-0.6c0.1-0.1,0.3-0.1,0.7-0.2c0.4-0.1,0.6-0.1,0.7-0.1
					c0.3,0,0.4,0.2,0.5,0.5c0,0.2,0.1,0.3,0.1,0.3s0.1-0.1,0.3-0.3c0.7-0.7,1.4-1,2.1-1.2c0.8-0.1,1.5,0,2.1,0.4
					C109.6,20.7,110,21.3,110.1,22z"/>
				<path fill="#FFFFFF" d="M132.6,26.5c-0.2,0-0.3-0.1-0.4-0.2c0,0,0-0.2,0-0.5l0.2-10.9c0-0.2-0.1-0.3-0.3-0.3l-9.4-0.2
					c-0.2,0-0.3,0.1-0.3,0.3l-0.2,10.9c0,0.5-0.5,0.7-1.6,0.7c-1.1,0-1.6-0.3-1.6-0.7l0.3-18.3c0-0.5,0.5-0.7,1.6-0.7
					s1.6,0.3,1.6,0.7l-0.1,6.1c0,0.2,0.1,0.3,0.3,0.3l9.5,0.2c0.2,0,0.3-0.1,0.3-0.3l0.1-6c0-0.3,0-0.5,0-0.5c0-0.1,0.2-0.2,0.4-0.2
					s0.3,0.1,0.4,0.2c0,0.1,0,0.2,0,0.5L133,25.8c0,0.3,0,0.5,0,0.5C132.9,26.5,132.8,26.5,132.6,26.5z"/>
				<path fill="#FFFFFF" d="M137.5,27.2c-0.4-0.1-0.6-0.1-0.7-0.2c-0.2-0.1-0.3-0.3-0.3-0.6l0.8-6.5c0-0.3,0.2-0.5,0.4-0.5
					c0.1,0,0.3,0,0.7,0c0.4,0,0.6,0.1,0.7,0.2c0.2,0.1,0.3,0.3,0.3,0.6l-0.8,6.5c0,0.3-0.2,0.5-0.4,0.5
					C138.1,27.3,137.9,27.3,137.5,27.2z M137.9,16.2c0-0.3,0.2-0.5,0.4-0.7c0.2-0.2,0.5-0.3,0.8-0.2c0.3,0,0.5,0.2,0.7,0.4
					c0.2,0.2,0.3,0.5,0.2,0.8c0,0.3-0.2,0.5-0.4,0.7c-0.2,0.2-0.5,0.3-0.8,0.2c-0.3,0-0.5-0.2-0.7-0.4
					C137.9,16.8,137.9,16.6,137.9,16.2z"/>
				<path fill="#FFFFFF" d="M146.8,20.9c0.6,0.1,1.2,0.4,1.6,0.9c0.1,0.1,0.2,0.1,0.2,0c0.1-0.3,0.4-0.4,0.8-0.3c0,0,0.1,0,0.4,0.1
					l0,0c0.3,0.1,0.4,0.1,0.4,0.1c0.5,0.1,0.7,0.4,0.6,0.8l-1.7,8.1c-0.2,0.8-0.7,1.6-1.4,2.2c-0.8,0.6-1.6,1-2.5,1
					c-0.4,0-0.6-0.2-0.5-0.5c0-0.1,0.1-0.2,0.3-0.2c1-0.2,1.6-0.8,1.8-1.7l0.6-2.7c0-0.1-0.1-0.2-0.4,0c-0.7,0.3-1.4,0.3-2.1,0.2
					c-1-0.2-1.8-0.8-2.3-1.6s-0.7-1.8-0.4-2.8c0.3-1.2,0.8-2.2,1.7-2.8C144.6,20.8,145.6,20.6,146.8,20.9z M146.5,21.6
					c-0.9-0.2-1.6,0-2.4,0.5c-0.7,0.5-1.2,1.2-1.4,2.1c-0.2,0.9-0.1,1.7,0.3,2.4c0.4,0.7,1,1.2,1.9,1.3c1,0.2,1.8,0,2.4-0.5l0.9-4.4
					C148,22.2,147.4,21.8,146.5,21.6z"/>
				<path fill="#FFFFFF" d="M161,27.5l-1.5,4.5c-0.1,0.3-0.3,0.4-0.5,0.4c-0.1,0-0.3-0.1-0.7-0.2c-0.4-0.1-0.6-0.2-0.7-0.3
					c-0.2-0.2-0.3-0.4-0.2-0.7l1.8-5.3c0.1-0.4,0.1-0.7-0.1-0.9c-0.1-0.1-0.4-0.2-0.8-0.3c-0.4-0.1-0.9-0.1-1.5,0.1
					c-0.6,0.2-0.9,0.4-1,0.7l-1.6,4.7c-0.1,0.3-0.3,0.4-0.5,0.4c-0.1,0-0.3-0.1-0.7-0.2c-0.4-0.1-0.6-0.2-0.7-0.3
					c-0.2-0.2-0.3-0.4-0.2-0.7l5.8-17.7c0.1-0.3,0.3-0.4,0.5-0.4c0.1,0,0.3,0,0.7,0.2c0.4,0.1,0.6,0.2,0.7,0.3
					c0.2,0.2,0.3,0.4,0.2,0.7l-3.7,11.2c-0.1,0.3,0,0.4,0.3,0.4c0.9-0.2,1.7-0.2,2.4,0c0.7,0.2,1.3,0.7,1.7,1.4
					C161.2,26.1,161.2,26.8,161,27.5z"/>
				<path fill="#FFFFFF" d="M162.8,34c-0.4-0.2-0.6-0.3-0.6-0.3c-0.2-0.2-0.2-0.4-0.1-0.7l7.2-17.1c0.1-0.3,0.3-0.4,0.6-0.4
					c0.1,0,0.3,0.1,0.7,0.2c0.4,0.2,0.6,0.3,0.6,0.3c0.2,0.2,0.2,0.4,0.1,0.7l-7.2,17.1c-0.1,0.3-0.3,0.4-0.6,0.4
					C163.4,34.2,163.2,34.2,162.8,34z"/>
				<path fill="#FFFFFF" d="M173.5,30.4c0.6,0.3,1.1,0.8,1.4,1.5l0,0c0.1-0.3,0.3-0.4,0.6-0.3c0.1,0,0.3,0.1,0.7,0.3
					c0.3,0.2,0.6,0.3,0.6,0.4c0.2,0.2,0.2,0.4,0.1,0.7l-3,5.8c-0.1,0.3-0.3,0.4-0.6,0.3c-0.1,0-0.3-0.1-0.7-0.3
					c-0.4-0.2-0.6-0.3-0.6-0.4c-0.2-0.2-0.2-0.4-0.1-0.7c-0.9,0.2-1.7,0.1-2.5-0.3c-0.9-0.5-1.5-1.2-1.8-2.2c-0.3-1-0.2-1.9,0.3-2.8
					c0.6-1.1,1.4-1.9,2.4-2.2C171.3,29.7,172.4,29.8,173.5,30.4z M173,31c-0.8-0.4-1.6-0.4-2.4-0.1s-1.5,0.9-1.9,1.7
					c-0.4,0.8-0.5,1.6-0.3,2.4c0.2,0.8,0.7,1.4,1.5,1.8c0.9,0.4,1.7,0.5,2.4,0.1l2.1-4C174.2,32,173.8,31.4,173,31z"/>
				<path fill="#FFFFFF" d="M185.4,40.5l-2.6,3.9c-0.2,0.3-0.4,0.3-0.6,0.3c-0.1,0-0.3-0.1-0.6-0.4c-0.3-0.2-0.5-0.4-0.6-0.5
					c-0.2-0.2-0.2-0.4,0-0.7l3.1-4.7c0.2-0.4,0.3-0.6,0.1-0.9c-0.1-0.1-0.3-0.3-0.6-0.5c-0.3-0.2-0.8-0.3-1.5-0.3
					c-0.6,0-1,0.2-1.2,0.4l-2.8,4.1c-0.2,0.3-0.4,0.3-0.6,0.3c-0.1,0-0.3-0.1-0.6-0.4c-0.3-0.2-0.5-0.4-0.6-0.5
					c-0.2-0.2-0.2-0.4,0-0.7l3.7-5.5c0.2-0.3,0.4-0.3,0.6-0.3c0.1,0,0.3,0.1,0.6,0.3c0.3,0.2,0.5,0.4,0.6,0.4c0.2,0.2,0.2,0.4,0,0.7
					c-0.1,0.1-0.1,0.2-0.1,0.3c0,0,0.2,0,0.4,0c1,0,1.7,0.2,2.3,0.6c0.6,0.4,1.1,1,1.3,1.7C185.9,39.2,185.8,39.9,185.4,40.5z"/>
				<path fill="#FFFFFF" d="M189.3,50c0.1-0.2,0.1-0.2,0-0.2c-0.6,0-1.3-0.3-1.8-0.7c-0.9-0.7-1.4-1.7-1.4-2.8c0-1.1,0.3-2,1.1-2.9
					c0.6-0.8,1.5-1.2,2.5-1.4c1-0.1,1.9,0.1,2.6,0.7c0.6,0.5,1,1,1.3,1.6c0.1,0.3,0.3,0.3,0.6,0l7.3-8.8c0.2-0.2,0.4-0.3,0.7-0.2
					c0.1,0,0.3,0.2,0.6,0.4c0.3,0.3,0.5,0.4,0.5,0.5c0.1,0.2,0.1,0.4-0.1,0.7l-11.9,14.3c-0.2,0.2-0.4,0.3-0.7,0.2
					c-0.1,0-0.3-0.2-0.6-0.4C189.4,50.5,189.2,50.2,189.3,50z M191.9,43.2c-0.5-0.5-1.2-0.6-2-0.5c-0.8,0.1-1.5,0.5-2.1,1.2
					c-0.6,0.8-1,1.6-1,2.5c0,0.9,0.3,1.6,1,2.2c0.9,0.7,1.7,0.9,2.5,0.5l2.7-3.3C193.2,44.8,192.8,44,191.9,43.2z"/>
				<path fill="#FFFFFF" d="M200.3,49.9c0.7,0.7,1,1.3,1,2c0,0.1,0,0.2-0.1,0.3c-0.2,0.1-0.3,0.1-0.5,0c-0.1-0.1-0.1-0.2-0.2-0.3
					c-0.1-0.5-0.3-1-0.7-1.4c-0.6-0.6-1-0.7-1.4-0.4c-0.2,0.2-0.1,0.9,0.1,2.2c0.2,1.2,0.3,1.8,0.3,2c0,0.7-0.2,1.2-0.6,1.6
					c-0.5,0.5-1.1,0.7-1.9,0.6s-1.4-0.4-2-1c-0.7-0.7-1.1-1.6-1.1-2.4c0-0.2,0.1-0.3,0.1-0.4c0.2-0.2,0.3-0.2,0.5,0
					c0.1,0.1,0.1,0.2,0.1,0.3c0,0.9,0.2,1.5,0.6,1.8c0.8,0.8,1.5,1.1,1.8,0.7c0.2-0.2,0.2-1.1,0-2.6c-0.1-0.6-0.2-1.2-0.3-1.9
					c0-0.7,0.1-1.2,0.5-1.6c0.4-0.4,1-0.6,1.7-0.5S199.8,49.4,200.3,49.9z"/>
			</g>
			<g>
				<path fill="#FFFFFF" d="M12.9,107.9c0.2,0,0.4-0.2,0.5-0.7l1.6-7c0.1-0.4,0.5-0.6,1.3-0.4c0.7,0.2,1,0.4,0.9,0.8l-1.8,8.3
					c-0.2,0.7-0.4,1-0.7,0.9c-2.3-0.9-3.9-2.4-5.1-4.4c-1.1-2-1.4-4.2-0.9-6.6c0.7-3,2.1-5.2,4.4-6.6c2.3-1.4,4.9-1.8,7.8-1.1
					c2.8,0.6,5.1,2.1,6.7,4.5c1.7,2.4,2.2,5,1.5,7.8c-0.7,3.1-2.2,5.3-4.6,6.4c-0.3,0.1-0.5,0.2-0.6,0.2c-0.3-0.1-0.4-0.2-0.3-0.5
					c0-0.1,0.2-0.3,0.5-0.4c2.4-1.4,3.9-3.2,4.4-5.4c0.5-2.4-0.1-4.4-1.9-6.1C25,96,22.9,95,20.1,94.4c-2.8-0.6-5.2-0.6-7.1,0.2
					c-1.9,0.8-3.2,2.4-3.7,4.7c-0.3,1.4-0.2,3.1,0.5,5C10.6,106.4,11.6,107.6,12.9,107.9z"/>
				<path fill="#FFFFFF" d="M11.5,123.2c0.5,1.4,1.2,2.5,2.1,3.4c1.1,1,2.5,1.5,4,1.6c1.5,0,2.8-0.3,4-1c1.2-0.7,2.1-1.7,2.8-3
					c0.8-1.4,1.2-3.2,1.3-5.3c0-0.7-0.2-1-0.6-1l-18-0.5c-0.5,0-0.7-0.6-0.7-1.6c0-1.1,0.3-1.6,0.8-1.6l18.8,0.5
					c0.5,0,0.7,0.6,0.7,1.6c0,0.3,0,0.5,0,0.7c-0.1,1.2-0.1,2-0.1,2.4c-0.1,1.1-0.3,2.1-0.5,3c-0.4,1.8-1.3,3.4-2.6,4.7
					c-1.6,1.5-3.4,2.3-5.6,2.2c-1.7,0-3.3-0.6-4.5-1.7c-1.2-1-2-2.2-2.5-3.7c-0.1-0.2-0.2-0.2-0.4-0.1c-2.5,1.7-3.8,3.3-3.8,4.6
					c0,0.6-0.1,0.9-0.3,0.9c-0.3,0-0.5-0.3-0.5-0.9c0-1.4,0.8-2.8,2.4-4.1c0.4-0.3,1-0.8,2-1.3c0.2-0.1,0.3-0.3,0.2-0.5
					c-0.1-0.5-0.1-1-0.1-1.5c0-0.7,0.2-1.3,0.7-1.9c0.4-0.6,0.9-0.9,1.4-0.9c0.4,0,0.7,0.2,1,0.5c0.2,0.4,0.4,0.8,0.3,1.2
					c0,1-0.7,1.9-2,2.8C11.5,122.8,11.5,123,11.5,123.2z M12.3,118.9c-0.3,0-0.6,0.2-0.8,0.6c-0.2,0.4-0.4,0.8-0.4,1.2
					c0,0.4,0,0.8,0.1,1.2c0,0.2,0.1,0.2,0.3,0.1c0.9-0.7,1.4-1.4,1.4-2.2C12.9,119.2,12.7,118.9,12.3,118.9z"/>
				<path fill="#FFFFFF" d="M15.8,133.2c2.9-0.5,5.5,0,8,1.6s3.9,3.8,4.4,6.6c0.5,2.9-0.1,5.4-1.7,7.5s-4,3.4-7.1,3.9
					c-2.8,0.5-5.3,0-7.5-1.5c-2.2-1.5-3.6-3.6-4.1-6.4c-0.5-3,0-5.6,1.5-7.7C10.6,135.1,12.9,133.8,15.8,133.2z M16.4,136.6
					c-2.9,0.5-5,1.5-6.4,2.9c-1.5,1.5-2,3.4-1.6,5.7c0.4,2.4,1.7,4.2,3.8,5.5c2.1,1.3,4.4,1.8,6.9,1.3c2.7-0.5,4.9-1.6,6.5-3.4
					c1.7-1.9,2.4-4.2,2-6.7c-0.4-2.4-1.8-4-4-4.9C21.6,136.2,19.2,136.1,16.4,136.6z"/>
				<path fill="#FFFFFF" d="M20.3,157.2c2.7-1.1,5.4-1.2,8.1-0.2c2.7,1,4.6,2.8,5.7,5.4c1.2,2.7,1.1,5.3,0,7.7
					c-1.2,2.4-3.2,4.2-6.1,5.4c-2.6,1.1-5.2,1.2-7.7,0.3s-4.3-2.7-5.4-5.3c-1.2-2.8-1.3-5.4-0.3-7.9
					C15.7,160.1,17.6,158.3,20.3,157.2z M21.6,160.3c-2.7,1.1-4.6,2.5-5.6,4.2c-1.1,1.8-1.2,3.8-0.3,5.9c0.9,2.2,2.6,3.7,4.9,4.5
					s4.7,0.7,7-0.2c2.5-1.1,4.4-2.7,5.6-4.8c1.3-2.3,1.4-4.6,0.4-7c-0.9-2.2-2.6-3.5-5-3.9C26.6,158.8,24.3,159.2,21.6,160.3z"/>
				<path fill="#FFFFFF" d="M33.4,178.9c-0.1-0.2-0.3-0.2-0.6,0l-9.4,6.8c-0.2,0.2-0.4,0.3-0.4,0.3c-0.1,0-0.3,0-0.4-0.2
					c-0.1-0.2-0.1-0.3-0.1-0.4c0,0,0.2-0.2,0.4-0.3L38.2,174c0.3-0.2,0.4-0.3,0.5-0.3s0.2,0.1,0.4,0.2c0.2,0.2,0.2,0.5,0,0.9
					c-3.5,7.3-6,12.5-7.5,15.8c-0.1,0.2-0.1,0.4-0.1,0.5c0.1,0.1,0.2,0.1,0.5,0.1l17.4-2.3c0.3,0,0.6,0,0.7,0.2
					c0.2,0.3,0.1,0.6-0.4,0.9l-15.3,11c-0.4,0.3-0.9,0-1.6-0.9c-0.6-0.9-0.8-1.5-0.4-1.8l10-7.2c0.2-0.2,0.3-0.3,0.3-0.4
					c-0.1-0.1-0.2-0.1-0.4-0.1c-9,1.2-13.8,1.9-14.3,1.9c-0.2,0-0.4,0-0.5-0.1c-0.1-0.1-0.1-0.3,0-0.6c1.8-4,3.7-8.1,5.7-12.5
					C33.5,179.2,33.5,179,33.4,178.9z"/>
				<path fill="#FFFFFF" d="M39.7,207.5c-0.8-0.8-1-1.3-0.6-1.7l13.5-13.2c0.4-0.3,0.9-0.1,1.7,0.6s1,1.3,0.6,1.7l-13.5,13.2
					C41.1,208.5,40.5,208.3,39.7,207.5z"/>
				<path fill="#FFFFFF" d="M58.2,197.8c1.1,3,2.8,7.5,4.9,13.2c0.1,0.3,0.2,0.4,0.2,0.4c0.1,0.1,0.3,0,0.5-0.4l4-5.1
					c0.2-0.2,0.3-0.4,0.3-0.4c0.1-0.1,0.3-0.1,0.4,0.1c0.2,0.1,0.2,0.3,0.2,0.4c0,0.1-0.1,0.2-0.3,0.4l-11.7,14.8
					c-0.2,0.2-0.3,0.4-0.4,0.4c-0.1,0.1-0.3,0.1-0.4-0.1c-0.2-0.1-0.2-0.3-0.2-0.4c0,0,0.1-0.2,0.3-0.4l4.7-5.9
					c0.2-0.2,0.3-0.5,0.2-0.8c-0.9-2.4-2.5-6.7-4.9-12.9c-0.1-0.2-0.2-0.4-0.3-0.5c-0.2-0.1-0.3-0.1-0.5,0.1L46,212.8
					c-0.2,0.2-0.3,0.4-0.4,0.4c-0.1,0.1-0.3,0.1-0.4-0.1c-0.2-0.1-0.2-0.3-0.2-0.4c0,0,0.1-0.2,0.3-0.4L57,197.5
					c0.2-0.2,0.3-0.4,0.4-0.4c0.1-0.1,0.3-0.1,0.4,0.1C57.9,197.2,58.1,197.5,58.2,197.8z"/>
				<path fill="#FFFFFF" d="M81,229.2c0.1-0.2-0.1-0.4-0.5-0.6l-6.4-3.2c-0.4-0.2-0.4-0.7-0.1-1.3c0.3-0.7,0.7-0.9,1-0.7l7.5,3.8
					c0.7,0.3,0.9,0.6,0.7,0.9c-1.5,2-3.3,3.2-5.6,3.8s-4.5,0.3-6.6-0.8c-2.7-1.4-4.5-3.3-5.3-5.9c-0.8-2.5-0.5-5.2,0.8-7.8
					c1.3-2.6,3.3-4.4,6.1-5.4s5.3-0.9,7.9,0.4c2.9,1.5,4.5,3.5,5,6c0.1,0.4,0.1,0.6,0,0.6c-0.1,0.3-0.3,0.3-0.5,0.2
					c-0.1-0.1-0.2-0.2-0.3-0.6c-0.8-2.7-2.2-4.6-4.2-5.6c-2.2-1.1-4.3-1-6.4,0.3c-1.8,1.1-3.3,2.9-4.6,5.5c-1.3,2.6-1.8,4.9-1.5,6.9
					c0.3,2.1,1.5,3.7,3.6,4.7c1.3,0.7,3,0.9,5,0.8C79,231.1,80.4,230.4,81,229.2z"/>
				<path fill="#FFFFFF" d="M106.6,242.1c-0.7-1-1.5-2-2.2-3.1c-0.2-0.3-0.4-0.3-0.6-0.1c-1.9,1.7-4,2.3-6.3,1.8
					c-1.6-0.3-2.8-1.1-3.6-2.4c-0.8-1.3-1.1-2.7-0.7-4.2c0.5-2.3,2.2-3.9,5.3-4.9c0.3-0.1,0.5-0.2,0.5-0.4c0-0.2,0-0.5-0.2-1.1
					c-0.6-1.7-0.8-3-0.6-4.1c0.2-1.2,0.9-2.1,1.9-2.8s2.2-0.9,3.4-0.6c1.2,0.2,2.1,0.8,2.8,1.7c0.7,0.9,1,1.9,0.7,3
					c-0.4,1.8-1.8,3.1-4.3,3.9c-0.3,0.1-0.4,0.3-0.2,0.7c0.9,1.9,1.8,3.8,3,5.7c0.1,0.2,0.2,0.3,0.3,0.3c0.1,0,0.3-0.1,0.5-0.3
					c0.6-0.5,1.2-1.1,1.8-1.6c0.6-0.5,1.2-0.9,1.7-1.2c0.3-0.1,0.5-0.1,0.6,0.1c0.2,0.3,0.1,0.5-0.3,0.7c-1,0.6-2.1,1.4-3.2,2.5
					c-0.3,0.3-0.5,0.5-0.5,0.7s0,0.3,0.1,0.5c0.9,1.5,1.7,2.6,2.4,3.5c0.1,0.2,0.2,0.3,0.2,0.5c0,0.1-0.3,0.4-0.9,0.8
					s-1,0.6-1.3,0.6C106.8,242.3,106.7,242.2,106.6,242.1z M103.5,237.4c-1.5-2.4-2.8-4.8-3.8-7.2c-0.1-0.3-0.4-0.4-0.8-0.3
					c-2.8,0.8-4.4,2.4-4.8,4.6c-0.3,1.3-0.1,2.5,0.7,3.5c0.7,1,1.7,1.7,3.1,2c1.2,0.2,2.2,0.2,3.2-0.2c0.7-0.3,1.5-0.8,2.4-1.6
					C103.6,238,103.7,237.7,103.5,237.4z M102.7,228.2c2-0.6,3.1-1.8,3.5-3.3c0.2-0.8,0-1.6-0.5-2.3c-0.5-0.7-1.2-1.2-2.1-1.4
					c-0.6-0.1-1.2,0-1.8,0.4c-0.5,0.4-0.9,0.9-1,1.5c-0.1,0.6-0.1,1.3,0,1.9c0.1,0.3,0.3,0.9,0.6,1.8s0.6,1.4,0.8,1.4
					C102.3,228.3,102.5,228.2,102.7,228.2z"/>
				<path fill="#FFFFFF" d="M124.4,242.8c0,0.5-0.5,0.8-1.6,0.8c-1.1,0-1.6-0.2-1.7-0.7l-0.6-18.8c0-0.5,0.5-0.8,1.6-0.8
					c0.3,0,0.5,0,0.7,0c1.2,0,2,0,2.4,0c1.1,0,2.1,0.1,3,0.3c1.8,0.3,3.5,1.1,4.8,2.3c1.6,1.5,2.5,3.3,2.5,5.5
					c0.1,2.4-0.7,4.3-2.4,5.8c-1.6,1.4-3.6,2.2-6,2.3c-0.7,0-1.5,0-2.2-0.1c-0.2,0-0.4,0-0.5,0.1s-0.2,0.3-0.2,0.5L124.4,242.8z
					 M123.8,224.8l0.5,13.5c0.1,0.2,0.3,0.3,0.6,0.3c0.6,0.1,1.2,0.1,1.7,0.1c2.2-0.1,4.1-0.8,5.6-1.9c1.7-1.3,2.4-3,2.4-5.1
					c0-1.5-0.5-2.8-1.3-3.9c-0.8-1.1-1.9-2-3.2-2.7c-1.5-0.7-3.3-1-5.4-0.9c-0.6,0-0.9,0-0.9,0.1
					C123.8,224.2,123.8,224.4,123.8,224.8z"/>
				<path fill="#FFFFFF" d="M142.6,228l7.4-1.5c0.3-0.1,0.5-0.1,0.5-0.1c0.1,0,0.2,0.1,0.3,0.4c0,0.2,0,0.4-0.1,0.4
					c0,0-0.2,0.1-0.5,0.1l-7.5,1.5c-0.3,0.1-0.4,0.2-0.4,0.5l2.2,11.3c0,0.2,0.2,0.3,0.4,0.2l7-1.4c0.3-0.1,0.6-0.1,0.6,0
					c0.1,0,0.1,0.2,0.2,0.3c0,0.2,0,0.4-0.1,0.4c0,0-0.2,0.1-0.5,0.1l-8.9,1.8c-1.1,0.2-1.6,0.1-1.7-0.4l-3.7-18.5
					c-0.1-0.5,0.4-0.8,1.5-1l8.5-1.7c0.3-0.1,0.5-0.1,0.5-0.1c0.1,0,0.2,0.1,0.3,0.3s0,0.4-0.1,0.4c0,0-0.2,0-0.5,0.1l-6.5,1.3
					c-0.3,0.1-0.4,0.2-0.4,0.5l0.9,4.6C142,228,142.2,228.1,142.6,228z"/>
				<path fill="#FFFFFF" d="M165.4,215.5l-4.4,1.7l6.6,17.6c0.2,0.5-0.2,0.9-1.3,1.3s-1.6,0.3-1.8-0.1l-6.6-17.6l-4.4,1.7
					c-0.3,0.1-0.4,0.2-0.5,0.2c-0.1,0-0.3-0.1-0.3-0.3c-0.1-0.2-0.1-0.3,0.1-0.4c0,0,0.2-0.1,0.5-0.2l11.9-4.4
					c0.5-0.2,0.7-0.2,0.8,0C166,215.1,165.8,215.3,165.4,215.5z"/>
				<path fill="#FFFFFF" d="M176,208.8c1.7-1.1,3.3-1.8,4.8-1.9c1.8-0.2,3.2,0.5,4.2,1.9c0.6,0.9,0.9,1.9,0.9,2.9
					c0,0.2,0.1,0.3,0.4,0.3c2.4,0,4.1,0.8,5.2,2.5c1.5,2.3,1.7,4.4,0.5,6.5c-0.9,1.6-2.8,3.4-5.6,5.2l-1.2,0.8
					c-0.9,0.6-1.5,0.7-1.8,0.3L173,211.7c-0.3-0.4,0.1-0.9,1-1.5c0.2-0.1,0.5-0.3,1-0.7C175.4,209.2,175.7,209,176,208.8z
					 M186.4,225.4l0.7-0.5c4.8-3.2,6.1-6.4,3.9-9.7c-1.1-1.7-2.8-2.5-5-2.4c-0.2,0-0.4,0.2-0.5,0.4c-0.3,0.8-0.8,1.4-1.6,1.9
					c-1.5,1-2.5,1.1-2.9,0.4s0-1.5,1.4-2.5c0.5-0.4,1.2-0.6,2-0.8c0.4-0.1,0.6-0.3,0.6-0.6c-0.1-0.9-0.3-1.6-0.7-2.2
					c-1.7-2.5-4.5-2.4-8.4,0.2c-0.2,0.1-0.2,0.3-0.1,0.4l10.1,15.3C186.1,225.5,186.2,225.5,186.4,225.4z M184.6,213
					c-0.8,0.2-1.4,0.5-1.8,0.7c-0.9,0.6-1.3,1.1-1.1,1.4c0.2,0.3,0.8,0.2,1.8-0.4c0.7-0.5,1.1-0.9,1.3-1.4
					C184.9,213,184.9,212.9,184.6,213z"/>
				<path fill="#FFFFFF" d="M194,209.5c-2.1-2.1-3.1-4.5-3.2-7.4s0.9-5.3,2.9-7.4c2.1-2.1,4.5-3.1,7.1-2.9c2.6,0.2,5.1,1.4,7.3,3.6
					c2,2,3.1,4.4,3.1,7s-0.9,5-2.9,7c-2.2,2.2-4.6,3.2-7.2,3.2S196.1,211.6,194,209.5z M196.4,207.1c2.1,2.1,4.1,3.3,6,3.6
					c2.1,0.4,3.9-0.3,5.6-1.9c1.7-1.7,2.5-3.8,2.3-6.3c-0.1-2.5-1.1-4.7-2.9-6.4c-1.9-2-4.1-3.1-6.6-3.4c-2.6-0.3-4.8,0.4-6.6,2.2
					c-1.7,1.7-2.3,3.8-1.7,6.1C193.1,203,194.4,205.1,196.4,207.1z"/>
				<path fill="#FFFFFF" d="M223.5,189.5c1.1-1.7,1.3-3.4,0.5-5.3c-0.7-1.7-2.1-3.3-4.1-4.6l-9-5.9c-0.2-0.2-0.3-0.3-0.2-0.6
					c0.2-0.3,0.4-0.3,0.7-0.1l8.5,5.6c2.6,1.7,4.2,3.6,4.9,5.6c0.7,2.1,0.4,4.3-1.1,6.5c-1.8,2.7-4.1,3.9-7,3.6
					c-1.7-0.2-3.4-0.8-5.1-1.9l-8.9-5.9c-0.4-0.3-0.3-0.9,0.3-1.8s1.1-1.2,1.5-0.9l10,6.6c1.6,1.1,3,1.7,4.2,1.8
					C220.7,192.3,222.2,191.4,223.5,189.5z"/>
				<path fill="#FFFFFF" d="M218.5,157.9l-1.9,4.4l17.3,7.4c0.5,0.2,0.5,0.8,0,1.8c-0.4,1-0.9,1.4-1.3,1.2l-17.3-7.4l-1.9,4.4
					c-0.1,0.3-0.2,0.4-0.2,0.5c-0.1,0.1-0.2,0.1-0.4,0c-0.2-0.1-0.3-0.2-0.3-0.3c0-0.1,0.1-0.2,0.2-0.5l5-11.7
					c0.2-0.5,0.4-0.6,0.6-0.6C218.6,157.1,218.7,157.4,218.5,157.9z"/>
				<path fill="#FFFFFF" d="M238.5,158.6c-0.3,1-0.7,1.5-1.2,1.4l-18.1-5.3c-0.5-0.1-0.6-0.7-0.3-1.8c0.3-1,0.7-1.5,1.2-1.4
					l18.1,5.3C238.8,157,238.8,157.6,238.5,158.6z"/>
				<path fill="#FFFFFF" d="M246.8,133c0-0.4,0-0.6,0.2-0.6c0.3-0.1,0.5,0,0.6,0.3c0.1,0.5,0.1,0.9,0,1.3c-0.1,0.9-0.4,1.7-0.9,2.4
					c-0.2,0.3-0.7,0.9-1.5,1.7c-0.5,0.5-0.8,1-1.2,1.4c-0.8,1.2-1.4,2.5-1.9,3.7c-0.7,2.5-2.1,4.3-4,5.6c-2,1.2-4.3,1.7-6.9,1.3
					c-2.9-0.4-5.3-1.7-7.1-3.9c-1.8-2.2-2.6-4.8-2.2-7.6c0.4-3,1.7-5.2,3.9-6.6c2.2-1.5,4.9-2,8-1.6c2.5,0.3,4.5,1.3,6.1,3
					c1.6,1.6,2.5,3.6,2.6,6c0,0.2,0.1,0.3,0.2,0.3c0.1,0,0.2,0,0.3-0.1c0.6-1,1.2-1.7,1.6-2.1c1.3-1.3,2-2.4,2.2-3.5
					C246.8,133.7,246.8,133.4,246.8,133z M231.7,146.8c2.9,0.4,5.2,0.1,7-0.8c1.9-1,3-2.6,3.3-5c0.3-2.4-0.3-4.5-2-6.4
					c-1.6-1.9-3.7-3-6.2-3.4c-2.7-0.4-5.2,0.1-7.3,1.3c-2.3,1.3-3.6,3.3-3.9,5.8c-0.3,2.4,0.5,4.4,2.4,5.9
					C226.6,145.6,228.8,146.4,231.7,146.8z"/>
				<path fill="#FFFFFF" d="M242.5,116.4c-0.1-2-1.1-3.5-2.8-4.5c-1.6-0.9-3.6-1.3-6.1-1.2l-10.7,0.7c-0.3,0-0.4-0.1-0.5-0.4
					c-0.1-0.3,0.1-0.5,0.5-0.5l10.2-0.7c3.1-0.2,5.5,0.3,7.3,1.5c1.9,1.3,2.9,3.2,3.1,5.8c0.2,3.2-0.9,5.6-3.4,7.1
					c-1.5,0.9-3.2,1.4-5.2,1.6l-10.7,0.7c-0.5,0-0.8-0.5-0.8-1.6s0.1-1.6,0.6-1.7l11.9-0.8c1.9-0.1,3.4-0.5,4.4-1.1
					C241.9,120.4,242.7,118.8,242.5,116.4z"/>
				<path fill="#FFFFFF" d="M227.2,102.7l-1.8-7.3c-0.1-0.3-0.1-0.5-0.1-0.5c0-0.1,0.1-0.2,0.3-0.3c0.2-0.1,0.4,0,0.4,0.1
					c0,0,0.1,0.2,0.2,0.5l1.8,7.4c0.1,0.3,0.2,0.4,0.5,0.3l11.2-2.7c0.2,0,0.3-0.2,0.2-0.4l-1.7-6.9c-0.1-0.3-0.1-0.6-0.1-0.6
					s0.1-0.1,0.3-0.2c0.2-0.1,0.4,0,0.4,0.1c0,0,0.1,0.2,0.2,0.5l2.2,8.9c0.3,1.1,0.1,1.6-0.3,1.8l-18.3,4.5
					c-0.5,0.1-0.8-0.4-1.1-1.4l-2-8.4c-0.1-0.3-0.1-0.5-0.1-0.5c0-0.1,0.1-0.2,0.3-0.3c0.2-0.1,0.4,0,0.4,0.1c0,0,0.1,0.2,0.1,0.5
					l1.6,6.4c0.1,0.3,0.2,0.4,0.5,0.3l4.6-1.1C227.1,103.2,227.2,103,227.2,102.7z"/>
			</g>
			<g>
				<g>
					<g>
						<polygon fill="#FFFFFF" points="99.6,71.6 104.4,64.7 114.1,55.4 116.2,52.3 118.4,51.9 119.1,51.5 123.3,51.4 123.1,49.2 
							128.3,51.1 129.5,52.3 131.4,51.7 136.3,51.8 137.4,52.8 140.2,53 141.2,53.3 142.6,54.8 143.2,56.4 147.1,60.5 153.7,68.3 
							158.6,73.7 161.8,77.3 161.8,77.6 160.7,84.7 160.3,101 157.6,110.3 160.1,122.8 160.7,151.7 156,163.4 160,187.9 151,194.9 
							144.1,197.1 132.1,193 130.3,190.3 129.1,185.5 125.8,182.4 121.1,172.4 118.3,184.7 115.9,197.1 108.9,199.7 96,197.1 
							90.4,184.5 90.7,180.1 90.9,174.8 81.6,175.5 74.1,173.6 66.7,164.6 89.4,122 95.1,108.3 101.4,105.6 100.6,87.8 102.5,77.4 
													"/>
					</g>
				</g>
				<g>
					<g>
						<path fill="#FFFFFF" d="M117.3,62.5c0.8,0.3,1.3-0.2,1.7-0.7c0.8-0.9,1.6-1,2.6-0.5c0.6,0.3,1,0,1.3-0.4
							c0.2-0.2,0.4-0.5,0.5-0.8c-0.7-0.9-1.1,0-1.7,0.2c-0.1-0.1-0.2-0.3-0.1-0.4c0.5-0.8,1-1.7,1.6-2.4c0.3-0.3,0.9-0.5,1.5,0
							c1,0.8,1,0.8,2.1-0.1c0.6,0.6,1.2,1.1,1.8,1.7c0.4,0.4,0.9,0.4,1.2,0c0.3-0.4,0.5-0.9,0.5-1.4c0.1-1.5,0.1-3,0.2-4.6
							c0-0.2,0.2-0.4,0.3-0.6c0.2-0.3,0.4-0.6,0.6-0.9c-0.4,0.1-0.8,0.1-1.2,0.2c-0.6-0.3-1.2-0.6-1.9-0.9c-0.1,0.2-0.2,0.5-0.1,0.5
							c0.7,0.8,0.6,1.8,0.9,2.7c0.2,0.7,0.1,1.3-0.4,1.8c-0.3-0.2-0.5-0.3-0.7-0.5c-0.9-0.8-2.1-1.4-1.8-3c0-0.2-0.4-0.6-0.5-0.6
							c-1,0-1.3-0.7-1.6-1.3c-0.3-0.4-0.5-0.9-1-1.5c-0.3,0.5-0.4,0.8-0.5,1.1c-0.2,0.7-0.7,1-1.5,0.8c-0.4-0.1-0.9-0.2-1.3-0.1
							c-0.3,0-0.6,0.3-0.7,0.5c-0.1,0.1,0.2,0.4,0.4,0.6c0.2,0.2,0.4,0.4,0.6,0.6c0.6,0.7,1.2,0.9,2.1,0.5c0.5-0.3,2,0.3,2.3,0.8
							c0.1,0.2,0.1,0.6,0,0.8c-0.4,0.7-2.2,0.8-2.9,0.4c-0.3-0.2-0.7-0.3-1.1-0.3c-0.6,0-2.1-1.4-2-2c0,0,0-0.1,0-0.1
							c0.3-1,0.3-1-0.8-1c-0.3,0-0.6,0-0.9,0c-0.3,0.1-0.6,0.2-0.7,0.4c-0.1,0.3,0.1,0.6,0.2,0.8c0.8,0.8,1.6,1.6,2.4,2.4
							c0.2,0.2,0.3,0.5,0.3,0.7c0,0.1-0.4,0.3-0.5,0.3c-0.8-0.3-1.5-0.1-2.2,0.2c-0.1,0-0.2-0.1-0.2-0.1c0.1-0.4,0.4-1.1,0.3-1.1
							c-0.4-0.3-1-0.6-1.4-0.5c-1.1,0.4-2.2,0.9-3,1.7c-1.4,1.2-2.6,2.6-3.8,3.9c-1.3,1.4-2.8,2.4-3.8,4.1c-0.4,0.7-1.2,1.1-1.7,1.8
							c-0.3,0.4-0.3,0.9-0.4,1.4c0,0.1,0.3,0.4,0.4,0.4c0.6-0.4,1.2-0.7,1.8-1.2c0.3-0.2,0.4-0.6,0.6-0.9c0.7-0.8,1.4-1.7,2.1-2.6
							c0.3,0.2,0.9-0.7,1.5,0c-0.1,0.2-0.2,0.3-0.3,0.4c-1,1-2,2-3,3c-0.2,0.2-0.5,0.5-0.4,0.8c0.1,1.4-1,2.1-1.6,3.1
							c-0.5,0.8-1.1,1.7-1.4,2.5c-0.1,0.3,0.2,1,0.5,1.1c0.6,0.2,0.8-0.4,0.9-0.9c0.1-0.4,0.1-0.8,0.3-1.1c0.7-0.8,1.5-1.6,2.3-2.4
							c0.2-0.2,0.7-0.2,0.8-0.1c0.2,0.2,0.4,0.6,0.4,0.9c-0.5,1.9-1.7,3.3-2.9,4.7c-0.2,0.2-0.6,0.3-0.8,0.3
							c-0.7-0.3-1.3-0.2-1.9,0.4c-0.2,0.2-0.8,0.2-1.2,0.1c-0.2,0-0.3-0.6-0.3-0.9c0.1-0.6,0.3-1.2,0.5-1.8c0.4-0.9,0.9-1.7,1.4-2.6
							c0.1-0.2,0.1-0.7-0.1-0.7c-0.3-0.2-0.8-0.3-1-0.2c-0.5,0.4-1,0.9-1.3,1.4c-0.9,1.8-1.7,3.7-2.5,5.6c-0.2,0.5-0.4,1.1-0.1,1.4
							c0.7-0.3,1.3-0.6,2-0.8c0.8-0.2,1.7-0.2,2.5-0.2c0.1,0,0.3,0.2,0.3,0.4c0,0.9,0.2,1.9-0.9,2.5c-0.2,0.1-0.4,0.4-0.5,0.7
							c-0.7,1.6-1.3,3.2-1.9,4.8c-0.1,0.1-0.1,0.2-0.2,0.4c-1.7,1.9-1.2,4.3-1.4,6.5c0,0.1,0.2,0.2,0.2,0.4c0,0.6,0.3,1.4,0,1.9
							c-0.5,0.9-0.5,0.9,0.4,1.2c0.4,0.1,0.9,0.3,1,0.6c0.4,1,0.5,2.1-0.1,3c-0.3,0.6-0.3,1.1-0.3,1.7c0,1.2,0.6,2.4-0.2,3.5
							c-0.4,0.5-0.9,0.9-1.4,1.4c-0.7,0.7-1.1,1.7-2.2,2.1c-0.5,0.2-0.8,0.6-0.8,1.3c0,0.4-0.4,0.7-0.6,1.1
							c-0.1,0.3-0.4,0.5-0.4,0.8c-0.2,1.5-0.5,2.8-2.1,3.4c-0.2,0.1-0.4,0.4-0.5,0.7c-0.4,2.1-1.8,3.6-3.7,4.5
							c-1.8,0.8-2.3,2.3-2.9,3.8c-0.5,1-1.2,1.7-2.4,1.7c-0.2,0-0.6,0.1-0.7,0.2c-0.4,0.9-0.8,1.8-1,2.8c-0.1,0.5-0.2,0.7-0.7,0.8
							c-1,0.1-2.1,0.1-3.1,0.2c-0.3,0-0.5,0.3-0.8,0.4c0.6,0.8,0.2,1.8,0.5,2.6c0.2,0.6,0,0.7-0.5,0.9c-2.5,0.9-4.1,2.8-5,5.3
							c-0.4,1.2-1.1,2.2-2.1,2.9c-0.5,0.4-1,0.9-1.4,1.4c-0.1,0.1-0.1,0.6,0,0.7c0.7,0.5,1.5,1,2.3,1.5c-0.4,0.7-0.9,1.2-1.2,1.9
							c-0.4,1-1.3,1.9-0.9,3.2c0,0.1-0.1,0.4-0.2,0.4c-0.6,0.1-0.7,0.6-0.8,1.1c-0.5,2.1-0.9,4.3-2.4,6.1c-0.6,0.7-0.3,1,0.6,1.1
							c0.6,0.1,1.4,0.4,1.6,0.8c0.5,1.1,0.9,2.3,1.1,3.5c0.2,1.1,0.2,2.2,1.6,2.4c0.1,0,0.1,0.1,0.2,0.1c0.9,0.5,1.8,1,2.7,1.5
							c0.2,0.1,0.4,0.3,0.7,0.5c0.5,0.3,0.9,0.6,1.4,0.8c0.8,0.3,1.6,0.4,2.1,1.2c0.3,0.4,0.8,0.8,1.2,1.1c0.6,0.4,1.3-0.1,1.1-0.7
							c-0.3-1.2,0.1-2.1,0.9-3c0.1-0.1,0.1-0.4,0.1-0.6c0-0.2-0.2-0.5-0.1-0.7c0.2-1.3,0.8-2.4,2.1-3c0.5-0.2,1-0.7,1.5-1
							c0.5-0.3,1-0.7,1.4-0.6c0.9,0,1.9,0,2.7,0.8c0.2,0.2,0.6,0.2,0.9,0.4c0.2,0.1,0.5,0.2,0.7,0.3c-0.2,0.2-0.3,0.4-0.5,0.6
							c-1.4,1.1-1.6,2.6-0.5,3.6c0.3,0.3,0.7,0.3,1.1,0.5c0.3,0.2,0.5,0.4,0.7,0.7c-0.2,0.2-0.4,0.6-0.7,0.7c-1,0.2-1.5,1-1.9,1.8
							c-0.2,0.4-0.4,0.6-0.9,0.5c-1.4-0.1-1.8,0.4-1.5,1.6c0.2,0.8-0.1,1.3-0.8,1.5c-0.6,0.2-1.3,0.4-1.8,0.2
							c-1.3-0.5-2.5-1.3-3.6-1.9c-0.7-0.4-1.2-1.3-2.2-1.3c-0.6,0-1.2,0.2-1.4,0.8c-0.2,0.5-0.3,1.1,0.4,1.4c0.5,0.3,1,0.6,1.5,0.8
							c1.1,0.4,1.4,0.9,1.5,2.1c0,0.2,0.2,0.6,0.4,0.7c0.9,0.3,1.8,0.5,2.7,0.8c0.8,0.3,1.5,0.7,2.3,0.9c0.8,0.2,1.3,0.4,1.7,1.2
							c0.2,0.3,0.7,0.7,1.1,0.7c0.3,0,0.7-0.4,1-0.8c0.3-0.4,0.5-0.9,0.7-1.4c0.1-0.3,0.2-0.6,0.4-0.9c0.1-0.2,0.2-0.5,0.4-0.7
							c0.8-0.7,1.7-0.5,2.6-0.5c0.1,0,0.4,0.5,0.3,0.8c-0.1,0.6-0.3,1.3-0.5,1.9c-0.5,2.1-1,4.1-0.3,6.2c-0.2,0.5-0.3,1-0.3,1.5
							c0,0.4,0,0.8,0,1.2c0,0.4,0,0.8,0,1.1c0.1,1.2,1,2.2,0.7,3.5c-0.2,0.7,0.7,1.3,1.5,1.2c0.9-0.2,1.7,0.2,2,0.8
							c0.5,0.9,1,1.9,0.9,3.1c-0.1,1,0.8,1.4,1.7,1.1c0.2-0.1,0.5-0.1,0.7-0.1c1.2,0.2,2.6,0,3.7,0.8c0.1,0,0.2,0,0.3,0
							c0.9,0,1.8,0,2.7,0c0.2,0,0.4,0,0.5,0.1c1.1,1.2,2.7,0.4,3.9,0.9c0,0,0.1,0,0.2-0.1c0.6-0.2,1.2-0.4,1.8-0.7
							c0.4-0.2,0.6-0.7,1-0.9c1.1-0.4,2.3-0.8,3.6-0.5c0.4,0.1,0.9,0.1,1.4,0.1c0.2,0,0.6-0.1,0.7-0.3c0.4-1,0.8-2.1,1.2-3.1
							c0-0.1,0-0.3-0.1-0.3c-0.6-0.4-0.4-1-0.3-1.6c0.1-0.6,0.1-1.3,0.2-1.9c0.1-1,0.1-2.1,0.9-3c0.2-0.2,0.2-0.6,0.2-1
							c0-0.8,0-1.6,0-2.5c0-0.1,0.2-0.2,0.2-0.4c0-0.4,0-0.7,0-1.1c0-0.2-0.1-0.4,0-0.7c0.2-0.7,0.4-1.3,0.5-2c0.1-0.6,0.2-1,1-1.1
							c0.5,0,1.1-0.5,1.6-0.4c0.5,0.1,1.3,0.1,1.5,0.9c0.4,1.4,1.6,1.9,2.7,2.6c0.5,0.3,1,0.1,1.4-0.3c0.3-0.4,0.7-0.7,1.1-1
							c0.9-0.6,1-1.1,0.6-2.1c-0.1-0.2-0.1-0.4-0.1-0.6c0.1-0.6,0.2-1.2,0.2-1.9c0-0.1-0.3-0.3-0.5-0.4c-0.2-0.1-0.5,0-0.7,0
							c0.2-1.6,0.3-3.1,1.1-4.5c0.4-0.7,0.6-1.1,1.4-0.9c0.6,0.1,0.6-0.1,0.5-0.8c-0.2-0.9-1.4-1.4-0.9-2.5
							c-0.8-1.1-0.5-2.4-0.5-3.6c0.1-1.3,0.2-2.7,0.6-3.9c0.3-0.9,0.4-1.7,0.4-2.6c0-0.3-0.3-0.5-0.5-0.8c-0.2,0.2-0.5,0.3-0.6,0.6
							c-0.2,0.5-0.3,1-0.5,1.3c-0.7-0.5-1.2-1-1.8-1.4c-0.1-0.1-0.5,0.1-0.6,0.2c-0.1,0.2-0.1,0.5,0,0.7c0.1,0.1,0.3,0.2,0.5,0.3
							c-1.3,1.6-1.3,1.7-0.4,2.5c-1.5,2.2-1.6,4.8-2,7.5c-0.2-0.3-0.4-0.4-0.4-0.6c-0.1-0.8-0.1-1.7-0.2-2.5c-0.1-1-0.2-2.1-0.3-3.1
							c0-0.4-0.3-0.8-0.7-0.4c-0.6,0.7-1.8,1-1.7,2.4c0.1,0.7-0.9,1.4-1.3,1.2c-0.6-0.5-1.3-0.9-1.8-1.5c-0.7-0.9-1.1-1.9-1.7-2.9
							c-0.1,0-0.3,0-0.4,0c-0.1,0.5-0.4,1-0.4,1.4c0.1,0.6,0.4,1.1,0.8,1.6c0.4,0.6,0.8,1,0.8,1.9c0,0.8,0.3,1.6,0.4,2.4
							c0.2,0.9,0.3,1.9,0.4,2.8c0.1,0.8,0.2,1.7,0.2,2.5c0,0.6-0.2,1.2-0.4,2.1c-0.3,0.1-0.7,0.4-1.3,0.5c-1,0.3-1.1,0.5-0.5,1.4
							c0.4,0.6,1,1.2,0.4,2.1c-0.1,0.1,0,0.3,0,0.4c0,0.5-0.1,1,0.1,1.4c0.3,1.2-0.4,2.5,0.5,3.6c0.1,0.1,0,0.4-0.1,0.6
							c-0.5,1.6-1.5,3-2.5,4.4c-0.5,0.6-0.6,1.4-1.5,1.3c-0.4-0.5-0.7-0.9-1-1.3c-0.2-0.3-0.4-0.6-0.5-0.9c-0.2-1-0.2-1.1-1.1-0.7
							c-1,0.4-1.1,0.9-0.6,1.9c0.3,0.5,0.4,1.2,0.4,1.7c0,0.6-0.3,1.2-0.5,1.8c-0.6-0.1-1.2-0.3-2.1-0.5c0,0.6-0.2,1.2,0,1.6
							c0.3,0.5,0.7,1.1,1.5,0.9c0.7-0.2,0.9,0.1,0.8,0.8c-0.2,0.9-0.8,1.4-1.5,1.8c-0.8,0.4-1.1,0.2-1.6-0.5
							c-0.5-0.8-1.1-1.5-1.6-2.3c-0.2-0.3-0.5-0.7-0.5-1c-0.1-1.1,0-2.1,0-3.2c-0.1,0-0.3-0.1-0.4-0.1c-0.2,0.2-0.4,0.5-0.5,0.7
							c-0.1,0.3,0,0.6-0.1,0.9c-0.5,1.4-1,2.8-1.7,4.5c-0.2-0.5-0.4-0.7-0.5-1c-0.1-0.4,0-0.8-0.2-1.1c-0.1-0.3-0.4-0.7-0.6-0.6
							c-0.3,0.1-0.6,0.4-0.7,0.6c-0.2,0.3-0.1,0.6-0.2,0.9c-0.4,0.1-0.7,0.2-1.1,0.2c-1.5,0.3-2.8-0.5-3.2-1.9
							c-0.1-0.4-0.1-0.6,0.4-0.7c1.2-0.4,2-1.6,1.7-2.9c-0.2-0.7-0.3-1.6-1.2-2c-0.1,0.7-0.3,1.3-0.4,2c-0.1,0.6,0,1.3,0,1.9
							c-0.1,0-0.2,0.1-0.3,0.1c-0.2-0.2-0.5-0.5-0.7-0.7c-0.3-0.3-0.7-0.7-1.1-0.7c-0.7,0-1-0.4-1.1-1c-0.2-0.5-0.2-1-0.3-1.5
							c-0.2-1.1-0.4-2.1-1.2-2.9c-0.4-0.4-0.7-1.1-0.8-1.7c-0.1-0.9-0.1-1.8,0-2.6c0.1-1,0.4-2,0.7-3c0.4-1.3,1-2.5,0.8-3.9
							c-0.1-0.8-0.2-1.6-0.2-2.4c0-1.3-0.4-2.5-0.8-3.6c0.5-1,0.9-1.9,1.4-2.8c0.2-0.4,0.1-0.9,0.4-1.2c0.7-0.8,0.4-1.5,0-2.2
							c-0.3-0.6-0.3-1,0-1.6c0.2-0.5,0.6-1,0.2-1.6c-0.6-0.9-0.5-1.3,0.3-2.1c0.1-0.1,0.3-0.6,0.2-0.6c-0.7-0.5-0.3-1.2-0.3-1.7
							c0.1-0.6,0.5-1.1,0.9-1.6c0.3-0.4,0.5-0.7-0.2-0.8c-0.7-0.1-0.9-0.6-0.8-1.2c0.2-1.1,0.5-2.3,0.9-3.4c0.3-0.8,0.4-1.6,0.2-2.4
							c-0.1-0.6,0-1.3,0.2-1.9c0.1-0.5-0.1-0.7-0.5-0.6c-0.6,0.1-1.2,0.1-1.8,0.1c-0.1-0.1-0.1-0.2-0.2-0.2c0.1-0.1,0.3-0.1,0.4-0.2
							c0.2-0.3,0.3-0.7,0.4-1.1c-0.4,0-0.8,0-1.2,0.1c-0.2,0-0.3,0.1-0.7,0.2c0.2-0.5,0.4-0.9,0.6-1.2c0.7-1.4,1.5-2.8,2.2-4.1
							c0.3-0.6,0.6-1.2,0.9-1.7c0.1-0.3,0.2-0.6,0.3-0.8c-0.3,0-0.7-0.2-0.9-0.1c-0.4,0.2-0.8,0.6-1.2,1c-0.7,0.7-1.4,1.4-2.1,2.2
							c-0.1-0.1-0.1-0.1-0.2-0.2c0.2-1.1,0.5-2,1.4-2.8c0.4-0.3,0.6-0.8,0.9-1.2c0.7-1.3,1.3-2.6,2-3.9c0.3-0.5,0.2-0.7-0.3-0.9
							c-0.2-0.1-0.5-0.1-0.7-0.2c-0.8-0.7-0.9-2.5-0.2-3.3c0.9-0.9,1.3-1.9,1.3-3.2c0-0.6,0.4-1.2,0.7-1.8c0.4-0.6,0.9-1,1.4-1.5
							c0.1-0.2,0-0.5,0-0.7c-0.2,0-0.5-0.1-0.7,0c-0.6,0.3-1.3,0.8-1.9,1.2c-0.2-0.3-0.4-0.7-0.6-0.9c-0.1-0.1-0.6-0.1-0.7,0.1
							c-0.4,0.6-0.8,1.3-1.2,1.9c-0.1,0.1-0.3,0.1-0.5,0.2c-0.1-0.2-0.2-0.4-0.2-0.5c-0.2-1.2,1.6-3.4,2.9-3.5c0.3,0,0.6-0.3,1-0.5
							c-0.2-0.2-0.4-0.6-0.6-0.7c-0.4-0.2-0.9-0.1-0.8-0.8c0-0.4-0.1-0.9,0.1-1.3c0.4-0.7,1-1.4,1.4-2.1c0.1-0.2,0.3-0.4,0.3-0.7
							c0.2-1.3,1.1-2.1,2.2-2.7c0.7-0.5,1.7-0.1,2.3,0.5c0.6,0.6,0.3,1.3,0.4,1.9c0.2,0.9,0.4,1.7,0.7,2.6c0.1,0.2,0.2,0.5,0.3,0.7
							c0.3-0.2,0.6-0.3,0.8-0.5c0.2-0.2,0.1-0.5,0.2-0.8c0.4-1.5,0.8-3.1,1.2-4.6c0.3-1,0.5-2.1,0.7-3.1c0.1-0.5,0.1-1,0.1-1.5
							c0-0.7,0-1.4-0.1-2.1c0-0.5-0.1-1.1-0.4-1.3c-0.5-0.5-0.4-0.8-0.1-1.2c0.5-0.6,0.7-1.3-0.1-1.8c-0.1-0.1-0.2-0.3-0.2-0.4
							c-0.4-1.7-0.6-3.4-0.5-5.2c0.1-0.9,0-1.8,0.2-2.6c0.3-1,0.9-1.9,1.5-2.8c0.5-0.8,1-1.6,0.4-2.6c-0.4-0.7-0.5-1.4,0.2-2
							c0.3-0.3,0.4-0.7,0.6-1c0.2-0.3,0.5-0.7,0.8-0.9c0.6-0.2,0.6-0.7,0.8-1.2c0.2-0.7,0.6-1.5,1-2.1c0.3-0.5,0.9-0.8,1.3-1.3
							c1.3-1.9,3.1-3.5,3.2-5.8c0.8-0.5,1.5-0.7,2.1-1.1c0.5-0.3,0.8-0.9,1.3-1.3c0.4-0.4,0.9-0.7,1.4-1.1c0.2,0.9-0.2,1.4-0.7,1.7
							c-1.7,1-2,2.8-2.9,4.3c-0.5,0.9-0.9,2.1-1.6,2.9c-0.5,0.7-0.7,1.5-0.6,2.3c0,0.2,0.2,0.5,0.3,0.5c0.2,0,0.5-0.1,0.6-0.3
							c0.2-0.2,0.2-0.5,0.3-0.8c0.2-0.4,0.3-0.9,0.5-1.3c0.1,0,0.2,0,0.2,0c-0.1,0.9,0.6,1.1,1.1,1.1c1.2,0,2.4,0.1,3.3-1
							c0.2-0.2,0.5-0.3,0.7-0.5c0.1,0.1,0.2,0.2,0.2,0.2c0.3,0.2,0.5,0.4,0.8,0.5c0.2-0.3,0.4-0.6,0.5-0.9c0.1-0.3,0.2-0.7,0.4-0.9
							c0.7-0.8,0.6-1.7,0.6-2.6c0-0.2-0.2-0.4-0.3-0.5c-0.1-0.1-0.4,0-0.4,0.1c-0.4,0.9-1.5,1.4-1.3,2.6c0,0.1-0.1,0.2-0.1,0.3
							c-0.1,0-0.1,0-0.2,0c0-0.7,0-1.4,0-2c0.2-0.2,0.6-0.5,0.8-0.8c0.4-0.8,0.6-1.7,0.9-2.5c0.2-0.6,0.4-1.1,0.5-1.7
							c0.1-0.3,0.1-0.6,0.3-0.9c0.7-1,0.7-1.6,0-2.3c-0.5,0.7-1.1,1.3-1.6,2c-0.5-0.1-1.1-0.1-1.7-0.2c0.1-0.2,0.2-0.5,0.2-0.7
							c0-0.3-0.1-0.5-0.2-0.8c-0.2,0.1-0.5,0.2-0.7,0.4c-0.2,0.1-0.3,0.3-0.6,0.5C117.5,63.3,117.4,62.9,117.3,62.5L117.3,62.5z
							 M160.8,123.2c0.1-0.1,0.2-0.1,0.3-0.2c0.1,0,0.2,0,0.3,0.1c0.3,0,0.6,0.1,0.8,0.1c-0.1-0.3-0.1-0.5-0.2-0.8
							c-0.2-0.6-0.5-1.1-0.7-1.7c-0.4-1.2-0.8-2.4-1.3-3.5c-0.2-0.6-0.4-1.2-0.6-1.7c-0.1-0.4-0.1-0.8-0.3-1.2
							c-0.2-0.4-0.6-0.8-0.9-1.2c-0.5-0.6-0.5-0.7,0.2-1.1c0.5-0.2,1.2-0.5,1.3-0.9c0.4-1.6,0.9-3.2,0.9-4.8c0-0.9-0.1-1.8,0-2.7
							c0.2-1.9,0.5-3.8,1.2-5.5c0.1-0.3,0.2-0.9,0-1.2c-0.5-0.8-0.4-1.6-0.3-2.4c0-0.5-0.1-1.1-0.2-1.6c0-0.2-0.3-0.5-0.2-0.7
							c0.2-0.9-0.1-1.7-0.5-2.4c-0.8-1.3,0.6-2.6-0.3-4c-0.2-0.4,0.1-1.2-0.7-1.2c-0.6,0.1-0.9-0.3-1.4-0.5c0,0-0.1,0-0.2,0.1
							c-0.4,0.4-0.9,0.8-1.3,1.2c-0.6,0.7-1,0.8-1.7,0.3c-0.6-0.5-1.2-0.8-1.9-0.1c0.1-0.5,0.3-1,0.5-1.4c0.2-0.3,0.3-0.6,0.6-0.8
							c0.2-0.2,0.4-0.4,0.7-0.5c0.3-0.1,0.6-0.1,0.9-0.1c0.5-0.1,0.6-0.4,0.3-0.7c-0.6-0.7-1-1.4-1.1-2.3c-0.1-0.7-0.6-1.4-1-2
							c-0.4-0.7-0.7-1.5-1.1-2.2c-0.6-0.9-1.1-1.9-1.7-2.8c-0.1-0.1-0.2-0.3-0.3-0.4c-0.9-0.3-0.6-1-0.7-1.6c0.5-0.1,1-0.2,1.3-0.4
							c0.6-0.4,1-0.9,1.6-1.4c0.5,0.4,1,0.6,1.2,1c0.5,0.7,0.9,1.5,1.4,2.2c0.1,0.1,0,0.4-0.1,0.4c-0.1,0.1-0.4,0.1-0.5,0
							c-0.7-0.5-1.5-0.9-2.1-1.5c-0.7-0.7-1.2-0.5-1.7,0.2c0.2,0.1,0.4,0.1,0.5,0.3c0.7,0.6,1.6,1.1,2.1,1.8c0.8,1,1.6,2,2.9,2.1
							c1.5,0.1,2.3,1.2,3.2,2c0.2,0.2,0.4,0.3,0.7,0.5c0-0.3,0.2-0.7,0.1-1c-0.4-0.8-0.8-1.7-1.4-2.4c-0.8-1.2-2-2.2-2.6-3.5
							c-1.1-2.2-2.9-3.9-4.5-5.7c-0.4-0.4-0.9-0.6-1.4-0.9c-0.6-0.4-1.2-0.9-1.8-1.4c-0.1-0.1-0.1-0.4,0-0.5c0.5-0.5,1.1-1,1.9-0.7
							c0.3,0.1,0.7,0.2,1,0.2c0.2,0,0.4-0.2,0.6-0.3c-0.1-0.2-0.2-0.4-0.4-0.4c-0.4-0.1-0.9-0.1-1.3-0.2c-0.6-0.2-1.5-0.2-1.5-1.2
							c0-0.2-0.3-0.5-0.6-0.6c-0.6-0.2-1.2-0.4-1.8-0.6c-0.3-0.1-0.6-0.2-0.9-0.1c-0.5,0.1-0.8,0.1-0.9-0.5c0-0.2-0.2-0.5-0.3-0.7
							c0.2-0.1,0.4-0.3,0.5-0.4c0.1-0.1,0.2-0.4,0.1-0.4c-0.1-0.1-0.3-0.3-0.5-0.3c-0.7,0.1-1.4,0.3-2.1,0.4
							c0.1,0.1,0.1,0.1,0.2,0.2c-0.2,0.4-0.4,0.7-0.5,1.1c-0.1,0.3-0.3,0.7-0.2,0.8c0.8,0.6,1.1,1.9,2.4,2.1
							c0.9,0.1,1.2,0.7,1.1,1.6c0,0.3,0.2,0.6,0.2,0.9c0.2,0.6,0.5,1.2-0.5,1.4c-0.1,0-0.3,0.2-0.4,0.3c-0.2,0.2-0.3,0.4-0.6,0.5
							c-0.1,0-0.4-0.3-0.4-0.4c0-0.2,0.2-0.5,0.3-0.7c0.5-0.3,0.5-0.6,0.1-1c-1-1-2.1-1.9-3.1-2.9c-0.1-0.1-0.1-0.1-0.2-0.2
							c-0.8-0.9-1.2-2.1-3-1.9c-1.2,0.1-2.5,0.1-3.7,0.5c-0.2,0.1-0.3,0.2-0.5,0.4c0.1,0.2,0.3,0.4,0.4,0.4c0.4,0.1,0.8,0.1,1.2,0.2
							c0.7,0.1,1.3,0.2,2,0.3c0,0.1,0,0.2,0,0.2c-0.3,0.2-0.6,0.4-0.8,0.6c0-0.1,0-0.2,0-0.2c-0.4,0-1-0.2-1.3,0
							c-0.5,0.2,0,0.6,0.1,1c0.1,0.4-0.1,1-0.2,1.5c0,0.1-0.5,0-0.8,0c-0.7-0.1-1.2,0.3-1.1,1.1c0,0.3,0,0.6,0,1
							c-0.5-0.4-0.8-0.7-1.1-0.8c-0.6-0.2-1.3-0.4-2-0.5c-0.5-0.1-1.5,0.7-1.4,1.1c0.2,0.8,0.5,1.5,0.7,2.3c0.2,1,0.4,1.9,0.6,2.9
							c0.1,0.4,0.1,0.8,0.2,1.1c0.4-0.2,0.7-0.4,1.1-0.5c0.1,0,0.1-0.1,0.2-0.2c0.8-0.4,0.8-1,0.5-1.7c-0.1-0.2-0.2-0.5-0.3-0.7
							c-0.2-0.8-0.3-1.5-0.5-2.5c1.4,1.1,1.4,1.1,2.4,0.4c0.8,0.6,1.6,1,2.2,1.6c0.2,0.2,0.5,0.7,0.4,0.9c-0.3,0.6-0.9,1-1.3,1.6
							c-0.2-1.3-1.2-1-2.3-0.5c0.8,1.1,0,1.8-0.7,2.6c0,0.1,0.1,0.1,0.1,0.2c0.3-0.1,0.6-0.2,0.9-0.4c1.3,0.9,1.3,0.9,2.6,0.3
							c0.8,1,0.8,0.9,2.1,0.7c0.2,0,0.5,0,0.6,0.1c0.6,0.8,1.5,1.6,1.8,2.6c0.5,1.3,1.3,2.3,2,3.4c0.5,0.7,1.3,1.2,1,2.3
							c0,0.1,0,0.3,0.1,0.3c0.9,0.4,0.4,1,0.3,1.6c-0.2,0.7-0.5,1.5-0.4,2.2c0.2,0.8,0.9,1.4,1.3,2.1c0.3,0.4,0.6,0.9,0.7,1.4
							c0.1,0.3-0.2,0.7-0.5,0.9c-0.7,0.3-1.6,0.5-2.3,0.8c-0.3,0.1-0.6,0.2-1,0.4c0.2,0.2,0.2,0.4,0.3,0.4c0.7,0.5,1.3,1,2,1.5
							c0.8,0.6,0.8,1.3-0.1,1.8c-0.3,0.1-0.6,0.3-0.8,0.5c-0.8,0.7-0.8,0.7-0.1,1.6c0.1,0.1,0.2,0.4,0.2,0.5
							c0.3,1.6,0.6,3.2,0.8,4.8c0.1,0.6,0.2,1.3,0.3,1.9c0.1,0.6,0.1,1.1,0.1,1.7c0,0.6,0,1.2,0.1,1.8c0,1,0.1,2,0,3
							c0,0.2-0.3,0.4-0.4,0.4c-0.2,0-0.4-0.2-0.5-0.4c-0.1-0.2-0.2-0.4-0.2-0.6c0-0.9,0.2-1.8,0-2.7c-0.1-0.6-0.5-1.3-1-1.8
							c-0.5-0.4-0.9-0.1-1,0.6c-0.2,0.8-0.4,1.7-0.7,2.5c-0.1,0.3-0.5,0.4-0.7,0.6c-0.2-0.2-0.4-0.4-0.5-0.7c-0.2-0.3-0.3-0.8-0.6-1
							c-0.8-0.7-1-1.7-1.3-2.7c-0.1-0.4-0.5-0.7-0.8-1.1c-0.1,0.4-0.1,0.8-0.2,1.4c-0.4,0.4-1,0.3-1.3-0.5c-0.2-0.5-0.2-1.1-0.1-1.6
							c0-0.8,0.1-1.7,0.1-2.5c0-0.7,0.1-1.3,0.7-1.7c0.6-0.4,0.5-1-0.1-1.3c-0.7-0.4-1.1-0.7-0.7-1.6c0.1-0.3-0.1-0.8-0.1-1.2
							c0-0.3,0-0.6,0.1-0.8c0.7-0.8,0.7-1.1,0-2c-0.3-0.4-0.6-1.1-0.5-1.6c0.2-0.5,0.1-0.8-0.2-1.2c-0.2-0.3-0.3-0.7-0.4-1.1
							c-0.5-1.5,0-3.1-0.8-4.5c-0.1-0.1,0.1-0.3,0.1-0.4c-0.1-0.4-0.2-0.8-0.4-1.1c-0.3-0.4-0.8-0.6-0.9-1c-0.3-0.9-0.5-1.8-0.7-2.7
							c-0.2-1.3-0.7-1.7-1.9-1.5c-1,0.2-1.9,0-2.7-0.4c-0.4-0.2-0.6-0.1-0.9,0.2c-0.5,0.5-1.1,1.1-2,0.5c-0.1-0.1-0.4,0-0.5,0
							c-0.4,0.3-0.8,0.6-1.2,0.9c-0.3,0.2-0.7,0.2-1,0.3c0-0.3,0.1-0.7,0.1-1c0-0.1,0.1-0.3,0.1-0.4c0-0.3,0-0.5,0-0.8
							c-0.4,0-0.9-0.1-1.1,0.1c-0.5,0.4-0.8,1-1.1,1.6c-0.1,0.2,0,0.5,0.2,0.7c0.2,0.3,0.6,0.4,0.7,0.7c0.2,0.3,0.4,0.9,0.3,1
							c-0.7,0.6-0.6,1.4-0.8,2.2c-0.3,1.2-0.3,1.2,0.5,1.8c0.1,0.7,0.2,1.3,0.2,1.9c0,0.8,0.2,1.6-0.6,2.2c-0.2,0.2-0.4,0.8-0.2,1
							c0.6,0.9,0,1.4-0.6,1.9c-0.6,0.5-0.8,1.1-0.5,1.9c0.1,0.2,0.1,0.5,0.1,0.7c0,0.1-0.1,0.1-0.1,0.2c-0.7-1-1.3-0.6-1.8,0
							c-0.1,0.1-0.3,0.2-0.4,0.3c-0.7,0.3-0.9,0.8-0.8,1.6c0,0.3-0.2,0.8-0.5,0.9c-0.4,0.3-0.9,0.4-1.4,0.4c-0.5,0.1-1,0.1-1,0.7
							c0,0.3,0.6,0.5,0.9,0.7c0.1,0,0.1,0.1,0.2,0.1c-0.1,0-0.2,0-0.2,0c0,0.6-0.2,1.1-0.1,1.7c0.1,0.7,0.3,1.4,0.4,2.1
							c0,0.3,0,0.7-0.1,0.8c-0.6,0.1-1.3,0.3-1.8,0.1c-0.3-0.1-0.4-0.8-0.6-1.2c-0.2-0.4-0.2-0.9-0.5-1.2c-0.5-0.5-0.6-0.9-0.3-1.6
							c0.1-0.2,0-0.6,0-0.9c-0.3,0-0.6,0.1-0.9,0.1c-0.3,0-0.5,0-0.8,0c-0.4,0-1-0.1-1.2,0.2c-0.2,0.2-0.2,0.8-0.1,1.2
							c0.1,0.8,0.4,1.6,0.5,2.4c0.2,0.9,0.4,1.9,0.6,2.8c0.1,0.3,0.2,0.6,0.3,1c0.4,1.3,0.8,2.7,1.2,4c0,0.1,0.6,0.3,0.6,0.2
							c0.2-0.5,0.7-1.2,0.6-1.6c-0.2-0.6-0.1-1,0.4-1.4c0.5-0.5,1.2-1,0.4-2c0.9-0.3,1.7-0.6,2.5-0.8c0.1,0,0.4,0.4,0.4,0.5
							c-0.1,0.3-0.3,0.7-0.5,0.9c-0.5,0.4-1.2,0.7-1.6,1.2c-0.2,0.2-0.2,0.9,0,1.2c0.2,0.3,0.7,0.4,1.1,0.4c0.9,0,1.3,0.4,1.5,1.2
							c0.1,0.2,0.2,0.5,0.3,0.7c0.5,1,1,2,1.5,3c0.1,0.2,0.4,0.4,0.6,0.5c0.2-0.2,0.4-0.4,0.5-0.6c0.1-0.3,0-0.7-0.1-1
							c-0.2-0.7-0.5-1.5-0.7-2.2c-0.1-0.2,0.1-0.7,0.2-0.8c0.2-0.1,0.6,0,0.9,0.1c0.3,0,0.6,0.1,0.9,0.1c0-0.3,0.1-0.7,0-1
							c-0.1-0.4-0.2-0.8-0.3-1.3c0.1,0,0.2-0.1,0.3-0.1c0.3,0.1,0.5,0.3,0.8,0.3c0.4,0.1,0.9,0,1.3,0.1c0-0.3,0-0.7-0.1-1.2
							c1-0.1,2-0.1,3.1-0.2c-0.1,0.5-0.2,0.7-0.2,1c0,0.2,0.1,0.5,0.2,0.7c0,0.9,0.4,1.1,1.2,0.8c0.1-0.1,0.3-0.2,0.5-0.1
							c0.7,0.3,0.8-0.2,1-0.7c0.1-0.4,0.3-0.7,0.5-1.1c0.1-0.3,0.2-0.7,0.2-1.1c0-1.2,0-1.2,1.2-0.8c-0.4,0.8,0,0.9,0.7,1
							c0.6,0,1.2,0.1,1.7,0.3c1.7,0.6,2.1,1.1,1.9,2.4c0,0.3-0.3,0.5-0.5,0.7c-0.1,0.1-0.4-0.1-0.6-0.2c-0.5-0.3-1.1-0.7-1.2-1.4
							c-0.9,0.1-1.1-0.8-1.6-1.3c-0.2-0.2-0.6-0.3-0.8-0.2c-0.2,0.2-0.3,0.5-0.4,0.8c-0.1,0.2-0.2,0.5-0.3,0.7
							c-0.2,0.6-0.5,1.2-0.4,1.7c0.1,0.5,0,0.7-0.4,0.9c-0.7,0.3-1.3,0.6-2.1,0.3c-0.5-0.2-1,0-1.3,0.6c-0.2,0.5,0.1,0.8,0.5,1.1
							c0.2,0.1,0.4,0.4,0.6,0.6c0.2,0.2,0.5,0.5,0.7,0.5c0.8,0.2,1.7,0.3,2.3,1c0.4,0.5,1,0.2,1.1-0.4c0-0.3,0-0.6,0.1-0.7
							c0.5-0.6,0.4-1.2,0.3-1.9c0-0.3,0.2-0.8,0.4-0.8c0.4-0.1,0.9-0.1,1.3,0.1c0.8,0.3,0.9,1.1,0.2,1.6c-0.2,0.1-0.4,0.3-0.5,0.4
							c-0.1,0.2-0.1,0.5-0.1,0.8c0.3,0,0.6,0.1,0.8,0c0.7-0.3,1.4-0.6,2.1-1c0.2-0.1,0.4-0.4,0.5-0.6c0.1-0.7,0.4-0.8,1-0.7
							c0.4,0.1,0.8,0.3,1.2,0.3c0.8-0.1,0.9,0.3,0.8,1c0,0.5,0,1.2,0.3,1.5c0.6,0.7,1,1.3,1.1,2.2c0.1,0.9,0.6,1.1,1.5,0.9
							c0.7-0.2,1.4-0.8,2.2,0c0.1,0.1,0.6,0,0.9-0.1c0.9-0.2,1.8-0.5,2.8-0.2c0.5,0.1,1.2,0,1.6-0.4c0.8-0.8,1.2-2,0.9-3
							c-0.2-0.9-0.3-1.8-0.3-2.7c0-0.8,0.2-1.3,0.8-1.8c0.8-0.7,1.6-1.3,2.3-2c0.6-0.6,1-1.3,0.8-2.3c-0.2-0.8,0-1.8,0.1-2.6
							c0-0.2,0.5-0.5,0.9-0.5c0.1,0,0.5,0.4,0.5,0.6c-0.1,0.7-0.2,1.4-0.6,1.9c-0.6,0.9-0.1,1.9-0.2,2.9c-0.1,0.4,0.9,1,1.4,1.5
							c0.3,0.3,0.7,0.5,0.9,0.9c0.4,0.6,0.8,1.3,1.1,2c0.3,0.7,0.6,1.5,0.4,2.1c-0.1,0.6-0.1,0.9,0.3,1.3c0.7,0.7,0.6,1.1-0.1,1.7
							c-0.5,0.3-0.5,0.7-0.3,1.2c0.7,1.6,1.5,3.2,2.2,4.7c-0.2,0.3-0.5,0.6-0.5,0.9c0.1,0.9,0.4,1.9,0.5,2.8c0.1,0.5,0.2,1.1,0,1.6
							c-0.4,0.8,0,1.2,0.3,1.8c0.4,0.7,0.4,1.5,0.6,2.3c0,0.1-0.3,0.2-0.5,0.4c-0.3,0.3-0.7,0.5-0.7,0.8c-0.1,0.8-0.5,0.8-1,0.8
							c-0.4,0-0.8-0.2-1.2-0.2c-0.2,0-0.5,0.4-0.5,0.5c0.3,0.6,0.6,1.3,1,1.9c0.1,0.3,0.3,0.5,0.4,0.8c0.2,0.5,0.3,1.1,0.4,1.7
							c-0.1,0.1-0.3,0.2-0.4,0.3c-0.8,0.7-1.5,1.5-2.3,2.2c-0.1,0.1-0.5,0.1-0.7,0c-0.4-0.2-0.6-0.8-1.1-0.3
							c-0.1,0.1,0.3,0.7,0.5,1.1c0,0.1,0.1,0.1,0.2,0.4c-0.5,0.3-1,0.6-1.6,0.8c-0.5,0.2-0.7,0.3-0.5,1c0.4,1.1-0.3,2.5-1.2,2.7
							c-1.1,0.2-1.1,0.3-1,1.5c0,0.2-0.1,0.3-0.1,0.5c0,1-0.9,2.1,0.4,2.8c-0.2,0.7-0.9,1.4,0,2c0.1,0.1,0,0.6-0.2,0.9
							c-0.2,0.3-0.4,0.6-0.6,0.9c-0.7-0.4-1.5-0.4-2.1,0.2c-1.4,1.1-2.7,2.4-4,3.6c-0.2,0.2-0.3,0.6-0.2,0.8c0.2,1-0.3,1.5-1.1,2
							c-0.3,0.2-0.6,0.4-0.8,0.6c-0.5,0-0.8,0-1.1,0.1c-0.6,0.2-1,0.7-1.6,0.9c-0.3,0.1-0.8,0-1.2-0.2c-0.1-0.1-0.2-0.7,0-0.9
							c0.6-0.9,0.1-1.6-0.4-2.3c-0.2-0.2-0.6-0.4-0.8-0.4c-0.2,0.1-0.4,0.5-0.5,0.8c-0.1,0.3,0,0.7-0.1,1.1
							c-0.3,1.2-0.1,2.3,0.3,3.4c0.1,0.2,0.2,0.4,0.1,0.5c-0.8,1.1-0.3,2.1,0.5,2.9c0.3,0.4,0.9,0.5,1.3,0.8c0.1-0.3,0.3-0.7,0.3-1
							c0.1-0.5,0.3-0.7,0.8-0.5c0.5,0.2,1,0.4,1.5-0.1c0.1-0.1,0.3-0.1,0.4,0c0.8,0.3,1.6,0.5,2.4,0.8c0,0.2-0.1,0.6-0.1,0.9
							c0,0,0.4,0.1,0.4,0.1c0.1-0.2,0.1-0.5,0.2-0.7c0.4,0.3,0.8,0.6,1.2,0.8c0.1,0.1,0.4,0,0.5,0c0-0.2,0-0.4-0.1-0.5
							c-0.4-0.7-0.9-1.3-1.3-1.9c-0.3-0.5,0.1-1.1,0.6-1.1c0.7,0,1.5,0,2.2-0.2c1-0.3,1.7,0,2.3,0.7c0.2,0.3,0.5,0.6,0.8,0.8
							c0.7,0.7,1.1,0.7,1.8,0c0.3-0.4,0.6-0.3,0.7,0.2c0.5,1.3,1,2.5,1.5,3.8c0.4,1,0.6,2.1,1.2,3c0.5,0.8,1,1.6,1.1,2.6
							c0.1,1.1,0.5,2.3,0.8,3.4c0.1,0.4,0.3,0.9,0.6,1.3c0.2,0.4,0.8,0.6,0.4,1.2c0,0.1,0.3,0.5,0.4,0.5c0.7,0,0.7,0.5,0.5,0.9
							c-0.4,1.1,0.1,2.1,0.3,3.1c0.1,0.4,0.2,0.7,0.2,1.1c0.1,2-0.7,3.8-1.3,5.7c-0.1,0.3-0.5,0.5-0.7,0.8c-0.2-0.6-0.3-1-0.6-1.4
							c-0.6-0.7-2.7-0.6-3.2,0.2c-0.4,0.6-0.8,0.6-1.3,0.2c-0.7-0.6-1.4-1.3-2.1-1.8c-0.3-0.2-0.7-0.3-1.1-0.5
							c0,0.4-0.1,0.8,0.1,1.1c0.2,0.4,0.3,0.7,0,1.1c-0.2,0.2-0.3,0.5-0.3,0.8c0.1,0.9-0.5,1.3-1.2,1.5c-0.3,0.1-0.6,0.2-0.8,0.4
							c-0.9,0.8-1.9,0.6-2.9,0.5c-0.2,0-0.7-0.3-0.7-0.5c0-1.3-0.6-2.4-1.6-3.3c-0.2-0.2-0.2-0.5-0.3-0.8c-0.3-0.8-0.5-1.6-0.9-2.3
							c-0.2-0.3-0.8-0.5-1.2-0.7c-0.2-0.1-0.6,0.2-0.6,0.4c-0.1,0.3,0,0.8,0.2,0.8c1.1,0.4,1.7,1.2,1.8,2.3c0,0.4,0.1,1.1-0.1,1.3
							c-0.2,0.3-0.9,0.2-1.3,0.2c-0.3,0-0.7,0-1-0.1c-0.7-0.2-1.6,0.2-2.1-0.8c-0.4-0.9-0.9-1.6-0.9-2.7c0-0.9-0.2-1.7,0.2-2.5
							c0,0-0.5-0.5-0.6-0.5c-0.3,0.2-0.7,0.5-0.8,0.8c-0.2,1-0.2,1.9-0.3,2.9c-0.1,0.4-0.2,0.8-0.3,1.3c-0.7-0.4-1.2-0.4-1,0
							c0.3,0.8,0.6,1.6,1.1,2.4c0.3,0.5,0.8,0.8,1.1,1.3c0.4,0.7,1.1,1.2,1.7,0.8c0.6-0.3,0.9,0,1.3,0.2c1.1,0.4,2.3,0.7,3.5,1
							c0.5,0.1,1,0.1,1.4,0.4c1.2,0.8,2.4,1.5,3.8,0.8c0.9-0.4,1.7-0.9,2.6-1.4c0.2-0.1,0.4-0.2,0.6-0.3c0.5-0.1,0.9-0.3,1.4-0.4
							c0.4-0.1,1-0.3,1.3-0.1c1.3,0.6,2.7,0.4,3.8-0.3c1.2-0.7,2.2-1.8,3.3-2.6c0.8-0.6,1.3-1.3,1-2.4c0-0.1,0-0.3,0.1-0.4
							c0.7-1,0.7-2.3,1.7-3.1c0.7-0.6,0.5-1.4-0.2-1.7c-0.7-0.3-0.7-0.7-0.6-1.3c0-0.4,0-0.9-0.1-1.3c-0.3-0.8-0.1-1.4,0.7-1.7
							c0.3-0.1,0.4-0.3,0.7-0.5c0.3-0.2,0.6-0.4,1-0.5c0.6-0.2,1.5-0.3,1.7-0.7c0.4-0.8,1-0.8,1.6-0.6c0.4,0.1,0.8,0.2,1.3,0.2
							c0.6,0,1.4,0,1.7-0.3c0.7-1,1.7-0.5,2.5-0.7c1-0.2,1.9-0.6,2.8-0.9c0.4-0.1,0.7-0.4,1.1-0.6c0.5-0.3,0.9-0.7,0.5-1.4
							c-0.2-0.4-0.2-0.9-0.3-1.4c-0.1-0.5-0.3-1.1-0.3-1.6c-0.1-0.6-0.3-1.2-0.2-1.8c0.5-1.8,0.3-2.4-1-3.7
							c-0.8-0.8-1.8-1.6-1.5-3.1c0.1-0.5,0-1.1-0.9-1.2c-1.3-0.2-2.6-0.6-3.9-0.8c-0.8-0.1-1.1-0.6-1.1-1.3
							c-0.1-0.7,0.2-1.2,1.2-1.1c-0.4-0.3-0.6-0.6-0.9-0.7c-0.8-0.4-1.1-1.2-1-1.9c0.1-1-0.1-1.6-1.2-1.8c0.1-0.2,0.1-0.3,0.1-0.5
							c0.4-1,0.2-1.2-0.9-1.4c-0.2,0-0.5-0.2-0.7-0.4c-0.5-0.6-0.5-1.2,0-1.8c0.3-0.4,0.6-0.8,0.1-1.3c-0.8-0.8-0.8-1.4,0.1-2.1
							c0.4-0.3,0.5-0.6,0.2-1.2c-0.3-0.5-0.6-1.2-0.7-1.8c-0.2-0.9-0.3-1.8,0.6-2.4c0.2-0.1,0.2-0.5,0.2-0.8c0-0.3-0.1-0.6-0.1-0.9
							c0-0.9,0-1.9-0.1-2.8c0-0.4-0.1-0.8-0.4-1.1c-0.3-0.4-0.4-0.6-0.2-1c0.3-0.8,0.3-1.5-0.5-2c-0.1-0.1-0.3-0.3-0.3-0.5
							c0.1-1.2,0.2-2.3,0.5-3.4c0.2-0.9,0.3-1.7-0.1-2.5c-0.1-0.2-0.2-0.5-0.1-0.8c0.2-1.3,0.1-1.6-1-2.4
							C161.2,124.2,161.1,123.7,160.8,123.2z M136.4,76.4c0.1,0.6,0.3,1,0.4,1.5c0.1,0.7,0.1,1.4,0.9,1.7c0.1,0,0.2,0.4,0.2,0.7
							c0,1.5,1,2.8,1.4,4.2c0,0.1,0.2,0.2,0.3,0.2c0.8,0.6,0.6,1.8,1.1,2.6c0.1,0.1-0.1,0.4-0.2,0.5c-0.1,0.2-0.3,0.3-0.4,0.5
							c-0.1,0.2-0.1,0.5-0.1,0.7c0.2,0,0.5,0,0.7,0c0.1,0,0.3-0.2,0.4-0.2c2.1,0.3,2.3-0.9,2.1-2.5c-0.1-0.4-0.1-0.8-0.3-1.1
							c-0.7-1-1.6-1.9-2.3-2.8c-0.7-0.9-1.6-1.7-1.4-3c0-0.3-0.2-0.5-0.3-0.8c-0.2-0.9-0.3-1.8-0.6-2.6c-0.1-0.5-0.3-1-0.5-1.4
							c-0.5,0.2-1,0.4-1.4,0.6c-0.3,0.1-0.6,0.3-0.8,0.2c-0.6-0.3-1.2-0.6-1.8-1c-0.4-0.3-0.8-0.5-1.2,0c-0.4,0.5-0.3,1,0.2,1.4
							c0.7,0.5,1.5,0.9,2.3,1.3c0.1,0.1,0.4,0,0.6-0.1C135.8,76.7,136,76.6,136.4,76.4z M115.6,153.6c-0.1,0-0.1,0-0.2,0
							c0.2-1.5,0.3-3.1,0.5-4.6c0.2-1.7,1.2-3.2,0.8-5c0-0.1,0.1-0.2,0.1-0.3c0.1-0.4,0.2-0.8,0.3-1.2c0.3-2-0.5-4.1,0.3-6.1
							c0.1-0.2-0.3-0.5-0.5-0.8c-0.2,0.2-0.5,0.3-0.5,0.5c-0.2,0.7-0.3,1.4-0.4,2.1c0,0.2-0.1,0.4-0.2,0.4c-0.8,0.3-0.6,0.9-0.5,1.4
							c0.1,0.9,0.3,1.8,0.3,2.7c0,0.6-0.1,1.2-0.2,1.9c-0.1,1.4-0.2,2.8-0.4,4.2c0,0.4-0.3,0.8-0.4,1.2c-0.2,1-0.3,2.1-0.4,3.1
							c0,0.5,0.1,1,0.3,1.4c0,0.1,0.7,0.2,0.7,0.1c0.2-0.3,0.2-0.7,0.3-1.1C115.6,153.7,115.6,153.6,115.6,153.6z M128.4,61.7
							c-0.1,0.1-0.1,0.2-0.2,0.2c-0.5,0-1,0-1.4,0.1c-0.7,0.1-1.4,0.4-2,0.6c-0.1,0-0.1,0.2-0.2,0.3c-0.4,0.6-0.8,1.2-1.2,1.7
							c-0.8,0.9-0.9,1.5-0.5,2.2c0.6,1,1.4,0.4,2.1,0.3c0.9-0.1,1.8-0.4,2.6-0.2c0.9,0.1,0.8-0.2,0.9-0.8c0-1.1,0.1-2.3,0.2-3.4
							C128.6,62.3,128.5,62,128.4,61.7z M114.3,86.1c-0.1,0-0.1,0-0.2-0.1c0.2-0.5,0.2-1.1,0.5-1.5c0.5-0.7,0.8-1.5,0.7-2.4
							c0-0.3-0.2-0.6-0.4-0.9c-0.3,0.2-0.6,0.3-0.9,0.5c-0.2,0.3-0.3,0.7-0.6,0.9c-1.1,1.1-1.2,1.8-0.7,3.2c0.1,0.2,0.1,0.6,0,0.7
							c-1.3,1-1,2.4-1,3.7c0,0.4,0,0.8,0.1,1.1c0.1,0.3,0.5,0.4,0.7,0.6c0.2-0.2,0.4-0.5,0.5-0.7c0.2-0.7,0.3-1.4,0.4-2.1
							C113.8,88.1,114,87.1,114.3,86.1z M130.1,183.7c-0.9-0.6-1,0.5-1.5,0.8c-0.1,0,0.3,0.6,0.4,1c0.1,0.3,0.3,0.6,0.4,0.9
							c0.1,0.5-0.1,1.1,0.2,1.5c0.6,0.7,0.6,1.5,0.6,2.4c0,0.5,0.5,0.9,0.8,1.4c0.3-0.4,0.8-0.8,0.8-1.3c0.2-1.8-0.1-3.7-0.7-5.4
							c-0.2-0.5-0.4-1,0.3-1.3c-0.3-0.3-0.5-0.6-0.8-1.1C130.5,183,130.3,183.4,130.1,183.7z M101.9,156.1c1.1,0.1,1.6,0.7,1.6,1.9
							c0,0.7,0.3,1.4,0.5,2c0.2,0.5,0.6,0.8,0.9,1.2c0.5,0.6,0.9,1.1,1.4,1.6c0.1,0.1,0.4,0.1,0.5,0.1c0.1,0,0.2-0.3,0.1-0.4
							c-0.4-0.6-0.8-1.2-1.1-1.8c-0.1-0.2-0.4-0.5-0.4-0.7c0.2-0.9-0.1-1.7-0.5-2.5c-0.5-1.1-0.7-2.3-1.2-3.4
							c-0.2-0.5-0.7-0.9-1-1.3c-0.1-0.1-0.5-0.2-0.6-0.1c-0.1,0.1-0.2,0.4-0.2,0.6C101.8,154.2,101.9,155.1,101.9,156.1z M107,111.1
							c-0.1,0.1-0.5,0.3-0.4,0.4c0.1,0.6,0.2,1.2,0.5,1.6c0.6,0.7,1.4,1.3,2.1,2c0.4,0.4,0.7,1,1.1,1.4c0.2,0.2,0.6,0.1,0.8,0.1
							c0-0.3,0-0.6-0.1-0.9c-0.1-0.3-0.4-0.5-0.5-0.8c-0.3-0.7-0.5-1.5-0.9-2.2C109.2,111.8,108.4,111,107,111.1z M136.9,153.4
							c-0.8,0.2-0.8,1.1-0.7,1.8c0.1,0.6-0.1,0.9-0.5,1.3c-0.5,0.4-1,0.8-1.1,1.5c1.5,0.2,2.7-0.9,2.6-2.7c0-0.4,0.3-0.8,0.4-1.2
							c0.1-0.3,0.4-0.7,0.4-0.9c-0.2-0.7,0.2-1.1,0.3-1.6c0.4-1.2,0.7-2.5,1.1-3.7c0-0.1-0.2-0.5-0.3-0.5c-0.2,0-0.4,0.2-0.5,0.3
							c-0.2,0.5-0.3,1.1-0.4,1.7c-0.2,0.8-0.4,1.6-0.7,2.4C137.2,152.2,137.1,152.7,136.9,153.4z M133.3,55.4
							c0.2-0.1,0.4-0.2,0.5-0.3c0.6-0.6,1.3-0.5,2-0.7c0.6-0.1,1.1-0.5,1.7-0.8c0.1-0.1,0.2-0.3,0.1-0.4c-0.2-0.5-0.4-0.9-0.7-1.3
							c-0.1-0.2-0.6-0.2-0.8-0.2c-1.3,0.4-2,1.5-2.9,2.5c-0.1,0.2-0.2,0.4-0.2,0.6C133,55.1,133.2,55.3,133.3,55.4z M151,135.5
							c-0.1-0.3-0.2-0.6-0.3-0.6c-0.2,0-0.5,0.1-0.6,0.2c-0.4,0.7-0.8,1.3-1,2c-0.3,0.9-0.4,2-0.7,2.9c-0.2,0.7-0.5,1.2,0.1,1.8
							c0.2,0.1,0.3,0.3,0.5,0.5c0.1-0.3,0.1-0.5,0.2-0.8c0.1-0.4,0.1-0.8,0.3-1.2c0.2-0.6,0.4-1.1,0.6-1.7c0.1-0.2,0-0.5,0.1-0.8
							C150.5,137,150.8,136.2,151,135.5z M138.6,86c-0.3-0.9-0.6-2-0.9-3c-0.1-0.2-0.5-0.4-0.7-0.5c-0.2,0.3-0.5,0.6-0.6,0.9
							c-0.1,0.2,0.2,0.6,0.1,0.8c-0.4,1.3,0.4,2.3,0.6,3.5c0,0.1,0.7,0.2,0.7,0.2C138,87.3,138.3,86.7,138.6,86z M112.3,111.9
							c0.3,0.6,0.4,1,0.7,1.5c0.1,0.2,0.4,0.3,0.5,0.3c0.2-0.1,0.3-0.3,0.3-0.5c0.1-0.7,0.2-1.4,0.4-2.1c0.2-0.6-0.1-0.9-0.6-0.8
							c-1.1,0.3-2.1,0.6-3.1,1c-0.2,0.1-0.4,0.8-0.3,1c0.2,0.5,0.8,0.5,1.3,0.2C111.8,112.4,112,112.2,112.3,111.9z M128,150.4
							c-0.4,0.2-0.8,0.3-0.9,0.5c-0.1,0.3-0.1,0.8-0.1,1.2c-0.1,1.1,0,2.3-1.2,2.9c-0.1,0,0,0.6,0.1,0.7c0.5,0.1,1.2,0.3,1.4,0.1
							c0.4-0.5,0.7-1.1,0.7-1.7C128.1,152.9,128,151.8,128,150.4z M126.8,72.4c0.4,0.2,0.7,0.4,1,0.6c0.2-0.3,0.3-0.5,0.5-0.8
							c0.1-0.2,0.3-0.5,0.4-0.7c0.2-0.9,0.4-1.8,0.6-2.7c0-0.1-0.2-0.2-0.3-0.3c-0.4,0.3-0.7,0.4-1,0.7c-0.2,0.3-0.5,0.7-0.4,1
							C127.8,71,127.5,71.7,126.8,72.4z M147.9,190.4c-0.7-0.8-1.2-1.4-1.7-2c0,0-0.3,0-0.4,0.1c-0.6,0.5-1.2,0.9-1.7,1.4
							c-0.1,0.1,0.1,0.5,0.2,0.5c0.4,0.1,0.8,0.1,1.2,0c0.5-0.1,1-0.3,1.5,0.1C147.1,190.8,147.4,190.5,147.9,190.4z M124.1,74.1
							c0.2,0.3,0.3,0.7,0.5,1c0.4-0.2,0.8-0.4,1.1-0.7c0.3-0.3,0.5-0.8,0.7-1.3c0.1-0.3,0.1-0.7,0-0.8c-0.2-0.2-0.6-0.3-0.8-0.2
							C124.8,72.2,124.2,73.1,124.1,74.1z M117.9,87.8c-0.9,0-1.5,0.7-1.5,1.3c0,0.7-0.4,1.1-0.7,1.6c-0.3,0.5-0.1,1.5,0.3,1.5
							c0.7,0.1,0.9-0.5,1-1C117.3,90.2,117.6,89,117.9,87.8z M158.2,81.7c-0.1,0.1-0.2,0.1-0.3,0.2c0.2,0.3,0.5,0.9,0.7,0.9
							c0.5-0.1,0.9-0.4,1.4-0.7c0,0-0.1-0.5-0.2-0.5c-0.7-0.1-0.7-0.6-0.7-1.1c0-0.3-0.5-0.5-0.8-0.7c-0.1-0.1-0.5,0.1-0.5,0.1
							c0,0.3,0,0.7,0,1C157.9,81.2,158.1,81.4,158.2,81.7z M138.1,122c0.3-0.4,0.6-0.5,0.7-0.8c0.5-0.9,1-1.8,1.4-2.7
							c0.1-0.1-0.3-0.6-0.3-0.6c-0.4,0.2-1,0.3-1.1,0.6c-0.4,0.8-0.7,1.7-0.9,2.6C137.9,121.4,138,121.6,138.1,122z M106.7,85
							c0.1,0,0.3,0,0.4,0c0.2-0.4,0.5-0.7,0.6-1.1c0.3-0.8,0.6-1.6,0.9-2.5c0.1-0.2,0.1-0.5,0.1-0.7c-0.3,0.1-0.7,0.1-0.8,0.3
							c-0.5,1.1-1,2.2-1.5,3.3C106.3,84.4,106.6,84.7,106.7,85z M144.5,132.6c-1.3-0.1-2,0.4-2,1.1c0,0.6,0,1.2,0,1.8
							c0,0.3,0.3,0.5,0.5,0.8c0.2-0.3,0.5-0.5,0.5-0.8C143.5,134.5,143.2,133.5,144.5,132.6z M109.8,82.7c0.1,0.1,0.2,0.3,0.3,0.3
							c0.2,0,0.5,0,0.7-0.2c0.5-0.5,0.9-1.1,1.3-1.7c0.1-0.1,0.1-0.4,0-0.6c0-0.1-0.3-0.1-0.4-0.1C111,80.5,109.8,81.9,109.8,82.7z
							 M142,103.7c0.3-0.5,0.5-2.3,0.1-2.7c-0.1-0.2-0.4-0.4-0.6-0.4c-0.2,0-0.5,0.2-0.5,0.4C140.7,101.8,141.3,103.2,142,103.7z
							 M144.9,148.8c0.2,0.7,0.2,1.4,0.5,2.1c0.1,0.3,0.7,0.3,1.1,0.5c0.1-0.3,0.3-0.6,0.3-0.9c0-0.3-0.3-0.7-0.4-1
							C146.2,148.8,145.4,148.6,144.9,148.8z M147.2,168.8c0.1,0,0.3,0,0.4,0c0.2-0.4,0.5-0.8,0.6-1.3c0.3-1.5-1.3-0.1-1.4-1
							c-0.2,0.2-0.7,0.4-0.6,0.5C146.5,167.6,146.8,168.2,147.2,168.8z M142.8,154.6c0,0-0.2-0.2-0.3-0.3c-0.4,0.4-0.8,0.8-1.1,1.2
							c-0.1,0.2,0.4,0.9,0.6,0.9C143,156.3,142.6,155.4,142.8,154.6z M117.7,159.8c-0.4-0.3-0.7-0.8-0.8-0.7
							c-0.4,0.2-0.8,0.5-1.1,0.9c-0.1,0.1,0.4,0.6,0.6,0.9C116.8,160.5,117.2,160.2,117.7,159.8z M133.6,134.9
							c0.2,0.4,0.4,0.9,0.6,1.3c0.1,0.1,0.6,0,0.8,0.1c0-0.2,0.1-0.5,0-0.7c-0.2-0.3-0.4-0.6-0.6-0.9c-0.1-0.2-0.3-0.3-0.5-0.5
							C133.8,134.3,133.7,134.6,133.6,134.9z M133.8,142.2c-0.2,0.3-0.4,0.5-0.6,0.7c0.1,0.1,0.3,0.4,0.4,0.3
							c0.3-0.1,0.7-0.3,0.7-0.5c0-0.5-0.1-1-0.2-1.5c0-0.1-0.4-0.2-0.6-0.1c-0.1,0.1-0.2,0.4-0.2,0.6
							C133.5,141.9,133.7,142.1,133.8,142.2z M151.2,188.4c0.2-0.1,0.4-0.1,0.5-0.2c0.2-0.2,0.4-0.4,0.5-0.6
							c-0.2-0.1-0.5-0.2-0.7-0.2c-0.3,0-0.6,0-0.9,0c-0.2,0-0.4,0.2-0.5,0.3c0.1,0.2,0.3,0.4,0.4,0.5
							C150.7,188.3,151,188.3,151.2,188.4z M134,60.2c-0.5-0.8-1.1-0.9-1.7-0.7c-0.2,0.1-0.3,0.4-0.4,0.6c0,0.1,0.2,0.4,0.2,0.4
							C132.7,60.4,133.3,60.3,134,60.2z M123,71.6c0.4-0.6,0.8-1.1,1.1-1.6c0,0-0.2-0.3-0.3-0.3c-0.5-0.1-1.4,0.9-1.2,1.4
							C122.7,71.3,122.8,71.4,123,71.6z M141.1,55.4c1,0.4,1,0.4,1.5-0.6c-1,0.5-2.1,0.2-3,0.9C140.5,56.6,140.8,55.9,141.1,55.4z
							 M130,155.8c-0.8-0.3-1.2,0.1-1.4,0.6c-0.1,0.2,0,0.4,0,0.6c0.2,0,0.6,0,0.7-0.1C129.6,156.7,129.8,156.3,130,155.8z
							 M139.9,53.7c0.1,0,0.1,0.1,0.2,0.1c0.4-0.2,0.8-0.3,1.1-0.5c0.1-0.1,0.1-0.4,0.1-0.5c-0.4,0.1-0.8,0.1-1.2,0.2
							C140,53.1,140,53.5,139.9,53.7z M105.8,90.9c-0.2-0.3-0.4-0.5-0.6-0.7c-0.2,0.5-0.4,0.9-0.5,1.4c0,0.1,0.2,0.2,0.3,0.4
							C105.3,91.7,105.5,91.3,105.8,90.9z M106.1,87.9c-0.4,0.5-0.8,1-0.6,2C106.2,89.2,106.4,88.7,106.1,87.9z M133,187.2
							c0.1-0.1,0.3-0.2,0.4-0.2c-0.1-0.4-0.3-0.7-0.4-1.1c-0.3,0.2-0.5,0.3-0.8,0.5C132.5,186.7,132.7,187,133,187.2z M147.9,120.1
							c-0.1,0-0.3,0-0.4,0c0,0.3-0.2,0.7-0.1,0.8c0.3,0.2,0.7,0.2,1.1,0.3C148.3,120.8,148.1,120.5,147.9,120.1z M145.8,147.6
							c0.3-0.4,0.6-0.8,0.9-1.1c-0.2-0.1-0.4-0.2-0.5-0.1C145.7,146.5,145.4,146.7,145.8,147.6z M102.3,151.7
							c0.1-0.1,0.1-0.3,0.2-0.4c-0.2-0.1-0.5-0.3-0.6-0.2c-0.2,0.2-0.4,0.5-0.5,0.8c0,0.1,0.2,0.2,0.3,0.3
							C101.9,152.1,102.1,151.9,102.3,151.7z M153.6,187.3c-0.1,0.1-0.2,0.1-0.3,0.2c0.1,0.3,0.2,0.6,0.4,0.8
							c0.1,0.1,0.4-0.2,0.6-0.3C154,187.8,153.8,187.6,153.6,187.3z"/>
					</g>
					<g>
						<path d="M160.8,123.2c0.3,0.4,0.5,1,0.9,1.3c1.1,0.8,1.2,1.1,1,2.4c0,0.2,0,0.5,0.1,0.8c0.4,0.8,0.3,1.6,0.1,2.5
							c-0.3,1.1-0.4,2.3-0.5,3.4c0,0.1,0.2,0.4,0.3,0.5c0.8,0.5,0.8,1.3,0.5,2c-0.2,0.4-0.2,0.7,0.2,1c0.2,0.3,0.3,0.7,0.4,1.1
							c0.1,0.9,0,1.9,0.1,2.8c0,0.3,0.1,0.6,0.1,0.9c0,0.3,0,0.7-0.2,0.8c-0.9,0.7-0.8,1.5-0.6,2.4c0.1,0.6,0.4,1.3,0.7,1.8
							c0.3,0.5,0.2,0.8-0.2,1.2c-0.9,0.7-0.9,1.3-0.1,2.1c0.5,0.5,0.2,0.9-0.1,1.3c-0.5,0.6-0.4,1.2,0,1.8c0.2,0.2,0.4,0.4,0.7,0.4
							c1.1,0.2,1.2,0.4,0.9,1.4c0,0.1-0.1,0.3-0.1,0.5c1.1,0.2,1.3,0.8,1.2,1.8c-0.1,0.7,0.2,1.5,1,1.9c0.3,0.1,0.5,0.4,0.9,0.7
							c-1-0.1-1.2,0.4-1.2,1.1c0.1,0.7,0.3,1.2,1.1,1.3c1.3,0.2,2.6,0.6,3.9,0.8c0.8,0.1,1,0.7,0.9,1.2c-0.3,1.4,0.6,2.3,1.5,3.1
							c1.3,1.3,1.5,1.9,1,3.7c-0.2,0.5,0.1,1.2,0.2,1.8c0.1,0.5,0.2,1.1,0.3,1.6c0.1,0.5,0.1,1,0.3,1.4c0.4,0.7,0,1.1-0.5,1.4
							c-0.4,0.2-0.7,0.5-1.1,0.6c-0.9,0.3-1.9,0.7-2.8,0.9c-0.8,0.2-1.8-0.3-2.5,0.7c-0.3,0.3-1.1,0.3-1.7,0.3
							c-0.4,0-0.8-0.1-1.3-0.2c-0.7-0.1-1.2-0.2-1.6,0.6c-0.2,0.4-1.1,0.5-1.7,0.7c-0.3,0.1-0.7,0.3-1,0.5c-0.2,0.1-0.4,0.4-0.7,0.5
							c-0.8,0.3-1,0.8-0.7,1.7c0.1,0.4,0.2,0.8,0.1,1.3c-0.1,0.6,0,1,0.6,1.3c0.7,0.3,0.8,1.2,0.2,1.7c-1,0.8-1,2.1-1.7,3.1
							c-0.1,0.1-0.1,0.3-0.1,0.4c0.3,1.1-0.2,1.8-1,2.4c-1.1,0.8-2.1,1.9-3.3,2.6c-1.1,0.6-2.5,0.8-3.8,0.3c-0.4-0.2-0.9,0-1.3,0.1
							c-0.5,0.1-0.9,0.3-1.4,0.4c-0.2,0.1-0.4,0.2-0.6,0.3c-0.9,0.5-1.7,1-2.6,1.4c-1.4,0.6-2.6,0-3.8-0.8c-0.4-0.3-0.9-0.3-1.4-0.4
							c-1.2-0.3-2.3-0.6-3.5-1c-0.4-0.2-0.7-0.5-1.3-0.2c-0.6,0.3-1.2-0.1-1.7-0.8c-0.3-0.5-0.8-0.8-1.1-1.3
							c-0.4-0.8-0.8-1.6-1.1-2.4c-0.1-0.3,0.3-0.4,1,0c0.1-0.5,0.3-0.9,0.3-1.3c0.1-1,0.2-2,0.3-2.9c0.1-0.3,0.5-0.6,0.8-0.8
							c0.1,0,0.6,0.4,0.6,0.5c-0.5,0.8-0.2,1.7-0.2,2.5c0,1.1,0.5,1.9,0.9,2.7c0.5,1,1.4,0.6,2.1,0.8c0.3,0.1,0.6,0.1,1,0.1
							c0.5,0,1.1,0,1.3-0.2c0.2-0.2,0.1-0.9,0.1-1.3c-0.1-1.1-0.7-1.9-1.8-2.3c-0.1-0.1-0.2-0.6-0.2-0.8c0.1-0.2,0.5-0.4,0.6-0.4
							c0.4,0.1,1,0.3,1.2,0.7c0.4,0.7,0.6,1.5,0.9,2.3c0.1,0.3,0.1,0.6,0.3,0.8c0.9,0.9,1.5,1.9,1.6,3.3c0,0.2,0.4,0.5,0.7,0.5
							c1,0.1,2.1,0.3,2.9-0.5c0.2-0.2,0.5-0.3,0.8-0.4c0.7-0.3,1.3-0.6,1.2-1.5c0-0.3,0.1-0.6,0.3-0.8c0.3-0.4,0.2-0.7,0-1.1
							c-0.2-0.3-0.1-0.8-0.1-1.1c0.4,0.1,0.8,0.2,1.1,0.5c0.7,0.6,1.4,1.2,2.1,1.8c0.5,0.4,0.9,0.4,1.3-0.2c0.6-0.8,2.7-0.9,3.2-0.2
							c0.3,0.3,0.4,0.8,0.6,1.4c0.3-0.3,0.6-0.5,0.7-0.8c0.6-1.9,1.4-3.7,1.3-5.7c0-0.4-0.2-0.7-0.2-1.1c-0.2-1-0.7-2-0.3-3.1
							c0.2-0.4,0.1-0.9-0.5-0.9c-0.1,0-0.4-0.4-0.4-0.5c0.4-0.6-0.1-0.8-0.4-1.2c-0.3-0.4-0.5-0.8-0.6-1.3c-0.3-1.1-0.7-2.2-0.8-3.4
							c-0.1-1-0.5-1.8-1.1-2.6c-0.6-0.9-0.8-2-1.2-3c-0.5-1.3-1-2.5-1.5-3.8c-0.2-0.4-0.4-0.5-0.7-0.2c-0.7,0.7-1.1,0.8-1.8,0
							c-0.3-0.3-0.5-0.5-0.8-0.8c-0.6-0.7-1.3-0.9-2.3-0.7c-0.7,0.2-1.5,0.2-2.2,0.2c-0.5,0-0.9,0.7-0.6,1.1
							c0.4,0.7,0.9,1.3,1.3,1.9c0.1,0.1,0,0.4,0.1,0.5c-0.2,0-0.4,0.1-0.5,0c-0.4-0.2-0.8-0.6-1.2-0.8c0,0.2-0.1,0.5-0.2,0.7
							c0,0-0.4,0-0.4-0.1c0-0.3,0-0.7,0.1-0.9c-0.8-0.3-1.6-0.5-2.4-0.8c-0.1,0-0.3,0-0.4,0c-0.5,0.5-1,0.3-1.5,0.1
							c-0.4-0.2-0.7,0-0.8,0.5c0,0.3-0.2,0.7-0.3,1c-0.4-0.2-1-0.4-1.3-0.8c-0.8-0.8-1.3-1.8-0.5-2.9c0.1-0.1,0-0.4-0.1-0.5
							c-0.5-1.1-0.7-2.2-0.3-3.4c0.1-0.3,0-0.7,0.1-1.1c0.1-0.3,0.3-0.7,0.5-0.8c0.2-0.1,0.6,0.1,0.8,0.4c0.5,0.7,1,1.4,0.4,2.3
							c-0.1,0.2-0.1,0.8,0,0.9c0.3,0.2,0.8,0.3,1.2,0.2c0.6-0.2,1.1-0.6,1.6-0.9c0.3-0.1,0.7-0.1,1.1-0.1c0.2-0.1,0.5-0.4,0.8-0.6
							c0.7-0.5,1.2-1,1.1-2c0-0.3,0.1-0.7,0.2-0.8c1.3-1.2,2.7-2.4,4-3.6c0.6-0.5,1.4-0.6,2.1-0.2c0.2-0.3,0.5-0.6,0.6-0.9
							c0.1-0.3,0.3-0.8,0.2-0.9c-0.9-0.7-0.3-1.3,0-2c-1.3-0.8-0.4-1.8-0.4-2.8c0-0.2,0.1-0.3,0.1-0.5c-0.1-1.2,0-1.3,1-1.5
							c0.9-0.2,1.6-1.6,1.2-2.7c-0.2-0.6,0-0.8,0.5-1c0.5-0.2,1.1-0.5,1.6-0.8c-0.1-0.3-0.2-0.3-0.2-0.4c-0.2-0.4-0.6-0.9-0.5-1.1
							c0.5-0.5,0.7,0.1,1.1,0.3c0.2,0.1,0.6,0.2,0.7,0c0.8-0.7,1.5-1.5,2.3-2.2c0.2-0.2,0.4-0.3,0.4-0.3c-0.1-0.6-0.2-1.2-0.4-1.7
							c-0.1-0.3-0.3-0.5-0.4-0.8c-0.3-0.6-0.7-1.2-1-1.9c0-0.1,0.3-0.5,0.5-0.5c0.4,0,0.8,0.1,1.2,0.2c0.6,0.1,1,0,1-0.8
							c0-0.3,0.5-0.6,0.7-0.8c0.1-0.1,0.5-0.3,0.5-0.4c-0.2-0.8-0.2-1.6-0.6-2.3c-0.3-0.6-0.7-1-0.3-1.8c0.2-0.4,0.1-1,0-1.6
							c-0.1-0.9-0.4-1.9-0.5-2.8c0-0.3,0.3-0.6,0.5-0.9c-0.7-1.5-1.4-3.1-2.2-4.7c-0.2-0.5-0.2-0.9,0.3-1.2c0.8-0.6,0.8-1,0.1-1.7
							c-0.4-0.4-0.5-0.7-0.3-1.3c0.1-0.6-0.2-1.4-0.4-2.1c-0.3-0.7-0.7-1.4-1.1-2c-0.2-0.3-0.6-0.6-0.9-0.9
							c-0.5-0.5-1.5-1.1-1.4-1.5c0.1-0.9-0.4-1.9,0.2-2.9c0.4-0.5,0.5-1.3,0.6-1.9c0-0.2-0.4-0.6-0.5-0.6c-0.3,0.1-0.8,0.3-0.9,0.5
							c-0.1,0.9-0.3,1.8-0.1,2.6c0.2,1-0.2,1.7-0.8,2.3c-0.7,0.7-1.5,1.4-2.3,2c-0.6,0.5-0.8,1-0.8,1.8c0,0.9,0.1,1.8,0.3,2.7
							c0.3,1-0.1,2.2-0.9,3c-0.3,0.3-1.1,0.5-1.6,0.4c-1-0.3-1.9,0-2.8,0.2c-0.3,0.1-0.8,0.2-0.9,0.1c-0.7-0.8-1.5-0.2-2.2,0
							c-0.9,0.2-1.4,0-1.5-0.9c-0.1-0.9-0.5-1.6-1.1-2.2c-0.3-0.3-0.3-1-0.3-1.5c0.1-0.7,0-1-0.8-1c-0.4,0-0.8-0.2-1.2-0.3
							c-0.6-0.2-0.9,0-1,0.7c0,0.2-0.2,0.5-0.5,0.6c-0.7,0.4-1.4,0.7-2.1,1c-0.2,0.1-0.5,0-0.8,0c0-0.3,0-0.6,0.1-0.8
							c0.1-0.2,0.3-0.3,0.5-0.4c0.7-0.5,0.6-1.3-0.2-1.6c-0.4-0.1-0.9-0.2-1.3-0.1c-0.2,0.1-0.4,0.6-0.4,0.8
							c0.1,0.7,0.2,1.3-0.3,1.9c-0.1,0.2-0.1,0.5-0.1,0.7c-0.1,0.6-0.7,0.9-1.1,0.4c-0.6-0.7-1.4-0.8-2.3-1
							c-0.3-0.1-0.5-0.3-0.7-0.5c-0.2-0.2-0.4-0.4-0.6-0.6c-0.4-0.3-0.8-0.6-0.5-1.1c0.2-0.6,0.7-0.8,1.3-0.6
							c0.8,0.3,1.4,0.1,2.1-0.3c0.4-0.2,0.5-0.4,0.4-0.9c-0.1-0.5,0.2-1.1,0.4-1.7c0.1-0.3,0.2-0.5,0.3-0.7c0.1-0.3,0.2-0.7,0.4-0.8
							c0.1-0.1,0.6,0.1,0.8,0.2c0.5,0.5,0.6,1.3,1.6,1.3c0.1,0.7,0.7,1.1,1.2,1.4c0.2,0.1,0.5,0.3,0.6,0.2c0.2-0.2,0.5-0.4,0.5-0.7
							c0.2-1.3-0.2-1.8-1.9-2.4c-0.5-0.2-1.1-0.2-1.7-0.3c-0.7,0-1.1-0.2-0.7-1c-1.2-0.4-1.2-0.4-1.2,0.8c0,0.4-0.1,0.7-0.2,1.1
							c-0.1,0.4-0.3,0.7-0.5,1.1c-0.2,0.5-0.3,1-1,0.7c-0.1,0-0.3,0-0.5,0.1c-0.8,0.4-1.1,0.1-1.2-0.8c0-0.2-0.1-0.5-0.2-0.7
							c0-0.2,0.1-0.5,0.2-1c-1.1,0.1-2.1,0.1-3.1,0.2c0,0.5,0.1,0.9,0.1,1.2c-0.4,0-0.9,0-1.3-0.1c-0.3,0-0.5-0.2-0.8-0.3
							c-0.1,0-0.2,0.1-0.3,0.1c0.1,0.4,0.3,0.8,0.3,1.3c0,0.3,0,0.7,0,1c-0.3,0-0.6-0.1-0.9-0.1c-0.3,0-0.7-0.2-0.9-0.1
							c-0.2,0.1-0.3,0.5-0.2,0.8c0.2,0.7,0.5,1.5,0.7,2.2c0.1,0.3,0.2,0.7,0.1,1c0,0.2-0.3,0.4-0.5,0.6c-0.2-0.2-0.5-0.3-0.6-0.5
							c-0.5-1-1-2-1.5-3c-0.1-0.2-0.2-0.5-0.3-0.7c-0.2-0.8-0.6-1.2-1.5-1.2c-0.4,0-0.9-0.2-1.1-0.4c-0.2-0.3-0.2-0.9,0-1.2
							c0.4-0.5,1.1-0.8,1.6-1.2c0.3-0.2,0.4-0.6,0.5-0.9c0-0.1-0.3-0.5-0.4-0.5c-0.8,0.2-1.6,0.5-2.5,0.8c0.8,0.9,0.1,1.4-0.4,2
							c-0.4,0.4-0.5,0.8-0.4,1.4c0.1,0.5-0.4,1.1-0.6,1.6c0,0-0.6-0.1-0.6-0.2c-0.4-1.3-0.8-2.6-1.2-4c-0.1-0.3-0.3-0.6-0.3-1
							c-0.2-0.9-0.4-1.9-0.6-2.8c-0.2-0.8-0.4-1.6-0.5-2.4c-0.1-0.4-0.1-1,0.1-1.2c0.2-0.2,0.8-0.1,1.2-0.2c0.3,0,0.5,0,0.8,0
							c0.3,0,0.6-0.1,0.9-0.1c0,0.3,0.2,0.7,0,0.9c-0.4,0.6-0.3,1.1,0.3,1.6c0.3,0.3,0.3,0.8,0.5,1.2c0.2,0.4,0.3,1.1,0.6,1.2
							c0.6,0.1,1.2,0,1.8-0.1c0.1,0,0.2-0.5,0.1-0.8c-0.1-0.7-0.3-1.4-0.4-2.1c0-0.5,0.1-1.1,0.1-1.7c0.1,0,0.2,0,0.2,0
							c-0.1,0-0.1-0.1-0.2-0.1c-0.3-0.2-0.9-0.4-0.9-0.7c-0.1-0.6,0.5-0.6,1-0.7c0.5-0.1,1-0.2,1.4-0.4c0.3-0.2,0.5-0.6,0.5-0.9
							c-0.1-0.8,0.1-1.3,0.8-1.6c0.2-0.1,0.3-0.2,0.4-0.3c0.6-0.5,1.1-1,1.8,0c0-0.1,0.1-0.1,0.1-0.2c0-0.2,0-0.5-0.1-0.7
							c-0.4-0.8-0.1-1.4,0.5-1.9c0.6-0.5,1.2-1,0.6-1.9c-0.1-0.2,0-0.8,0.2-1c0.8-0.6,0.6-1.4,0.6-2.2c0-0.6-0.1-1.2-0.2-1.9
							c-0.8-0.6-0.7-0.6-0.5-1.8c0.2-0.8,0.1-1.6,0.8-2.2c0.1-0.1-0.1-0.7-0.3-1c-0.2-0.3-0.5-0.4-0.7-0.7c-0.1-0.2-0.3-0.6-0.2-0.7
							c0.3-0.6,0.7-1.1,1.1-1.6c0.2-0.2,0.7-0.1,1.1-0.1c0,0.3,0.1,0.5,0,0.8c0,0.1-0.1,0.3-0.1,0.4c-0.1,0.3-0.1,0.7-0.1,1
							c0.3-0.1,0.7-0.2,1-0.3c0.4-0.3,0.8-0.6,1.2-0.9c0.1-0.1,0.4-0.1,0.5,0c0.9,0.6,1.4,0,2-0.5c0.3-0.3,0.5-0.4,0.9-0.2
							c0.8,0.4,1.7,0.6,2.7,0.4c1.2-0.2,1.7,0.2,1.9,1.5c0.2,0.9,0.4,1.9,0.7,2.7c0.1,0.4,0.6,0.7,0.9,1c0.2,0.3,0.3,0.7,0.4,1.1
							c0,0.1-0.1,0.3-0.1,0.4c0.8,1.4,0.3,3.1,0.8,4.5c0.1,0.4,0.2,0.8,0.4,1.1c0.3,0.4,0.3,0.7,0.2,1.2c-0.1,0.5,0.1,1.2,0.5,1.6
							c0.7,0.8,0.7,1.2,0,2c-0.1,0.2-0.1,0.5-0.1,0.8c0,0.4,0.2,0.9,0.1,1.2c-0.4,0.9,0,1.2,0.7,1.6c0.6,0.3,0.6,0.9,0.1,1.3
							c-0.6,0.5-0.7,1-0.7,1.7c0,0.8-0.1,1.7-0.1,2.5c0,0.5,0,1.1,0.1,1.6c0.3,0.8,0.9,0.9,1.3,0.5c0.1-0.6,0.2-1,0.2-1.4
							c0.3,0.4,0.7,0.7,0.8,1.1c0.3,1,0.5,2,1.3,2.7c0.3,0.2,0.4,0.7,0.6,1c0.1,0.2,0.3,0.5,0.5,0.7c0.3-0.2,0.6-0.4,0.7-0.6
							c0.3-0.8,0.5-1.6,0.7-2.5c0.1-0.7,0.5-1,1-0.6c0.5,0.4,0.9,1.1,1,1.8c0.1,0.9,0,1.8,0,2.7c0,0.2,0,0.4,0.2,0.6
							c0.1,0.2,0.3,0.4,0.5,0.4c0.2,0,0.4-0.3,0.4-0.4c0-1,0-2,0-3c0-0.6,0-1.2-0.1-1.8c0-0.6-0.1-1.1-0.1-1.7
							c-0.1-0.6-0.2-1.3-0.3-1.9c-0.3-1.6-0.5-3.2-0.8-4.8c0-0.2-0.1-0.4-0.2-0.5c-0.7-0.9-0.7-0.9,0.1-1.6c0.2-0.2,0.5-0.4,0.8-0.5
							c0.9-0.5,1-1.2,0.1-1.8c-0.7-0.5-1.3-1-2-1.5c-0.1-0.1-0.2-0.2-0.3-0.4c0.4-0.1,0.7-0.3,1-0.4c0.8-0.3,1.6-0.5,2.3-0.8
							c0.2-0.1,0.5-0.6,0.5-0.9c-0.1-0.5-0.4-0.9-0.7-1.4c-0.4-0.7-1.1-1.3-1.3-2.1c-0.2-0.7,0.1-1.5,0.4-2.2
							c0.2-0.6,0.6-1.2-0.3-1.6c-0.1,0-0.1-0.2-0.1-0.3c0.3-1.1-0.5-1.6-1-2.3c-0.7-1.1-1.5-2.1-2-3.4c-0.4-1-1.2-1.8-1.8-2.6
							c-0.1-0.1-0.4-0.2-0.6-0.1c-1.3,0.3-1.3,0.3-2.1-0.7c-1.3,0.6-1.3,0.6-2.6-0.3c-0.3,0.1-0.6,0.2-0.9,0.4
							c0-0.1-0.1-0.1-0.1-0.2c0.6-0.8,1.5-1.5,0.7-2.6c1-0.5,2.1-0.8,2.3,0.5c0.5-0.5,1-1,1.3-1.6c0.1-0.2-0.2-0.7-0.4-0.9
							c-0.7-0.6-1.4-1-2.2-1.6c-1,0.7-1,0.7-2.4-0.4c0.2,1,0.3,1.8,0.5,2.5c0.1,0.2,0.2,0.5,0.3,0.7c0.3,0.7,0.3,1.3-0.5,1.7
							c-0.1,0-0.1,0.1-0.2,0.2c-0.4,0.2-0.7,0.4-1.1,0.5c-0.1-0.4-0.1-0.8-0.2-1.1c-0.2-1-0.4-1.9-0.6-2.9c-0.2-0.8-0.5-1.5-0.7-2.3
							c-0.1-0.5,0.8-1.3,1.4-1.1c0.7,0.1,1.3,0.3,2,0.5c0.3,0.1,0.6,0.5,1.1,0.8c0-0.4,0-0.7,0-1c-0.1-0.8,0.4-1.2,1.1-1.1
							c0.3,0.1,0.8,0.1,0.8,0c0.1-0.5,0.3-1,0.2-1.5c-0.1-0.4-0.5-0.7-0.1-1c0.3-0.2,0.8,0,1.3,0c0,0.1,0,0.2,0,0.2
							c0.3-0.2,0.6-0.4,0.8-0.6c0-0.1,0-0.2,0-0.2c-0.7-0.1-1.3-0.2-2-0.3c-0.4-0.1-0.8-0.1-1.2-0.2c-0.2,0-0.3-0.3-0.4-0.4
							c0.2-0.1,0.3-0.3,0.5-0.4c1.2-0.4,2.5-0.3,3.7-0.5c1.8-0.2,2.2,1,3,1.9c0.1,0.1,0.1,0.1,0.2,0.2c1,1,2.1,1.9,3.1,2.9
							c0.4,0.4,0.4,0.7-0.1,1c-0.2,0.1-0.3,0.4-0.3,0.7c0,0.1,0.3,0.4,0.4,0.4c0.2-0.1,0.4-0.3,0.6-0.5c0.1-0.1,0.2-0.3,0.4-0.3
							c1-0.2,0.6-0.8,0.5-1.4c-0.1-0.3-0.2-0.6-0.2-0.9c0-0.9-0.3-1.5-1.1-1.6c-1.3-0.2-1.5-1.4-2.4-2.1c-0.1-0.1,0.1-0.5,0.2-0.8
							c0.2-0.4,0.4-0.8,0.5-1.1c-0.1-0.1-0.1-0.1-0.2-0.2c0.7-0.1,1.4-0.3,2.1-0.4c0.1,0,0.4,0.1,0.5,0.3c0.1,0.1,0,0.3-0.1,0.4
							c-0.1,0.2-0.3,0.3-0.5,0.4c0.1,0.2,0.3,0.5,0.3,0.7c0.1,0.6,0.4,0.7,0.9,0.5c0.3-0.1,0.6,0,0.9,0.1c0.6,0.2,1.2,0.4,1.8,0.6
							c0.2,0.1,0.6,0.4,0.6,0.6c0,1,0.8,1,1.5,1.2c0.4,0.1,0.9,0.1,1.3,0.2c0.2,0,0.3,0.3,0.4,0.4c-0.2,0.1-0.4,0.3-0.6,0.3
							c-0.3,0-0.7-0.1-1-0.2c-0.8-0.3-1.4,0.2-1.9,0.7c-0.1,0.1-0.1,0.4,0,0.5c0.6,0.5,1.2,1,1.8,1.4c0.4,0.3,1,0.5,1.4,0.9
							c1.6,1.8,3.4,3.5,4.5,5.7c0.7,1.3,1.8,2.3,2.6,3.5c0.5,0.8,1,1.6,1.4,2.4c0.1,0.2,0,0.6-0.1,1c-0.2-0.2-0.4-0.3-0.7-0.5
							c-1-0.8-1.7-1.9-3.2-2c-1.3-0.1-2.1-1.1-2.9-2.1c-0.6-0.7-1.4-1.2-2.1-1.8c-0.1-0.1-0.3-0.2-0.5-0.3c0.5-0.7,1-0.9,1.7-0.2
							c0.6,0.6,1.4,1,2.1,1.5c0.1,0.1,0.4,0.1,0.5,0c0.1,0,0.2-0.3,0.1-0.4c-0.4-0.8-0.8-1.5-1.4-2.2c-0.3-0.4-0.8-0.6-1.2-1
							c-0.6,0.5-1,1-1.6,1.4c-0.4,0.2-0.9,0.3-1.3,0.4c0.1,0.6-0.2,1.3,0.7,1.6c0.1,0,0.2,0.2,0.3,0.4c0.6,0.9,1.2,1.8,1.7,2.8
							c0.4,0.7,0.8,1.4,1.1,2.2c0.3,0.7,0.9,1.3,1,2c0.1,0.9,0.5,1.6,1.1,2.3c0.3,0.3,0.2,0.6-0.3,0.7c-0.3,0-0.6,0-0.9,0.1
							c-0.3,0.1-0.5,0.3-0.7,0.5c-0.2,0.2-0.4,0.5-0.6,0.8c-0.2,0.4-0.4,0.8-0.5,1.4c0.8-0.7,1.3-0.4,1.9,0.1
							c0.7,0.5,1.1,0.4,1.7-0.3c0.4-0.5,0.9-0.8,1.3-1.2c0,0,0.1-0.1,0.2-0.1c0.5,0.1,0.8,0.5,1.4,0.5c0.8-0.1,0.4,0.8,0.7,1.2
							c0.8,1.3-0.5,2.7,0.3,4c0.4,0.7,0.7,1.5,0.5,2.4c0,0.2,0.2,0.5,0.2,0.7c0.1,0.5,0.2,1.1,0.2,1.6c-0.1,0.8-0.2,1.6,0.3,2.4
							c0.2,0.3,0.1,0.8,0,1.2c-0.7,1.8-1,3.6-1.2,5.5c-0.1,0.9,0,1.8,0,2.7c0,1.6-0.5,3.2-0.9,4.8c-0.1,0.4-0.8,0.7-1.3,0.9
							c-0.7,0.3-0.8,0.5-0.2,1.1c0.3,0.4,0.7,0.8,0.9,1.2c0.2,0.3,0.1,0.8,0.3,1.2c0.2,0.6,0.4,1.2,0.6,1.7c0.4,1.2,0.8,2.4,1.3,3.5
							c0.2,0.6,0.5,1.1,0.7,1.7c0.1,0.3,0.1,0.5,0.2,0.8c-0.3,0-0.6-0.1-0.8-0.1c-0.1,0-0.2,0-0.3-0.1
							C160.9,123.1,160.9,123.2,160.8,123.2z M172.7,169.8c0.1-0.1,0.1-0.2,0.2-0.3c-1.2-0.4-1-1.1-0.8-1.9c0.2-0.8-0.1-1.3-0.8-1.6
							c-0.3-0.1-0.7-0.2-1-0.4c-0.2-0.1-0.5-0.4-0.4-0.6c0.2-0.8-0.3-1.1-0.8-1.4c-0.6-0.4-1.3-0.5-1.9,0.1
							c-0.6,0.5-1.2,0.9-1.7,1.4c-0.8,0.9-1.7,0.8-2.6,0.4c-0.2-0.1-0.4-0.3-0.6-0.2c-1.1,0.3-2.3,0.5-3.4,1
							c-0.9,0.4-1.1,1.1-0.9,2.2c0,0.1-0.1,0.3-0.1,0.4c-0.2,1.5-0.5,2.9-0.1,4.4c0.2,0.9,0.4,1.8,0.4,2.6c0,1.2,0.2,2.3,1.2,3.1
							c0.1,0.1,0.3,0.3,0.3,0.5c0.1,0.6,0.4,0.6,0.9,0.4c0.5-0.1,0.9-0.3,1.4-0.3c1.2,0.1,2.2-1,1.7-2.1c-0.4-0.8-0.9-1.6-1.4-2.3
							c-0.4-0.6-0.3-0.8,0.4-1c0.2,0,0.4-0.1,0.6-0.1c0.6-0.1,0.8,0.1,0.9,0.7c0,0.5,0.2,0.9,0.4,1.3c0.2,0.4,0.6,0.7,0.8,1.1
							c0.4,0.8,0.9,0.7,1.5,0.3c0.4-0.2,0.8-0.3,1.2-0.4c0.4-0.1,0.8-0.1,1.2-0.2c-0.4-2-0.7-2.3-2.3-3c-0.4-0.2-0.7-0.4-1-0.7
							c-0.2-0.2-0.2-0.6-0.2-0.9c0-0.2,0.3-0.3,0.6-0.4c1-0.2,1.7,0.1,2.2,1.1c0.3,0.5,0.5,0.5,0.9,0.3c0.2-0.1,0.3-0.2,0.6-0.3
							c0.1,0.3,0.2,0.5,0.2,0.7c0.1,1.6,0.5,1.8,2.1,1.4c0.2-0.1,0.4-0.2,0.7-0.2c0.6-0.1,0.7-0.5,0.6-1c-0.1-0.5-0.2-1.1-0.4-1.8
							c-0.2,0-0.5-0.1-0.9-0.2c-0.5-0.2-1-0.3-1.5-0.5c-0.2-0.1-0.3-0.4-0.4-0.6c0-0.1,0.3-0.3,0.5-0.4
							C171.5,170.3,172.1,170.1,172.7,169.8z M120.5,100.8c-0.1,0-0.2,0-0.3,0.1c0.3,0.7,0.5,1.4,0.8,2.1c0.2,0.4,0.5,0.8,0.8,0.9
							c0.6,0.3,1.2,0.6,1.8,0.7c0.6,0.1,1.2-0.1,1.8-0.3c0.9-0.3,1.8-0.7,2.7-1.1c0,0,0.1-0.1,0.1-0.1c0.4-1.1,0.8-2.2,1-3.3
							c0.2-1.1,0.1-2.2,0.1-3.3c0-0.9,0-1.8-0.1-2.6c-0.1-0.5-0.3-1-0.6-1.4c-0.1-0.2-0.6-0.2-0.9-0.3c-0.9-0.2-1.8-0.3-2.7-0.5
							c-1.4-0.3-1.7,0-1.9,1.4c-0.2,0.8-0.2,1.7-1,2.2c-0.2,0.1-0.2,0.6-0.3,0.9c-0.2,0.6-0.2,1.3-0.5,1.7
							C120.6,98.8,120.2,99.7,120.5,100.8z M155.2,106.1c-0.2,0.6,0.5,1.4,0.9,1.2c0.5-0.2,1.2-0.3,1-1.2c-0.1-0.3,0.2-0.7,0.2-1.1
							c0-0.4,0-0.8,0-1.1c-0.1-1-0.3-1.9-0.3-2.9c0.1-1.8,0.3-3.7,0.5-5.5c0-0.7,0.1-1.5-0.1-2.1c-0.5-1.3-1.2-2.5-1.9-3.7
							c-0.1-0.2-0.7-0.5-0.8-0.4c-0.4,0.3-0.6,0.7-0.2,1.2c0.2,0.3,0.4,0.7,0.5,1.1c0.3,0.8,0.4,1.8,0.9,2.4
							c0.4,0.5,0.4,0.9,0.3,1.4c-0.2,0.6-0.3,1.3-0.2,1.9c0.2,0.8,0,1.3-0.5,1.7c-0.9,0.8-0.9,1.3,0,2.1c0.4,0.4,0.6,0.7,0.1,1.1
							c-0.2,0.2-0.4,0.4-0.6,0.7c-0.2,0.3-0.3,0.6-0.3,0.9C154.9,104.7,155,105.4,155.2,106.1z M132.1,83.4
							c-0.8,0.1-1.5,0.3-2.2,0.4c-2,0.1-4,0.3-5.7-1.2c-0.2-0.2-0.4-0.4-0.6-0.5c-0.3-0.3-0.7-0.3-0.8,0.2c-0.1,0.6-0.5,1.1,0,1.7
							c0.1,0.2,0.1,0.6,0,0.8c-0.3,0.7,0.1,0.8,0.6,0.9c0.7,0.2,1.5,0.6,2.2,0.8c0.4,0.1,1,0.4,1.3,0.2c0.8-0.5,1.6-0.4,2.5-0.2
							c0.8,0.2,1.1-0.2,1.1-1c0-0.3,0.2-0.7,0.4-0.8c0.3-0.1,0.8,0,1.2,0C132.2,84.3,132.1,83.8,132.1,83.4z M153.1,81.3
							c0.6,0.1,0.9-0.2,0.8-0.8c-0.1-0.9-0.1-1.8-0.7-2.4c-0.3-0.3-0.8-0.7-1-0.6c-0.6,0.3-1.1,0.8-1.6,1.2c-0.4,0.4-0.5,0.9,0,1.4
							C151.2,80.7,152,81.3,153.1,81.3z M141.6,115.2c0.2-0.8,0.4-1.6,0.5-2.4c0-0.2-0.1-0.5-0.3-0.5c-0.8-0.4-1.6-0.8-2.4-1.1
							c-0.2-0.1-0.6,0-0.8,0.2c-0.1,0.1,0,0.5,0.1,0.7c0.4,0.6,1,1.2,1.1,1.9C140,115.2,141,114.9,141.6,115.2z M143.5,67.2
							c0.3,0.9,0.7,1.1,1.7,0.9c0.3,0,0.6,0.1,0.8,0.1c-0.1,0.2-0.3,0.4-0.4,0.6c-0.2,0.4-0.4,0.8-0.3,1.1c0.1,0.3,0.5,0.5,0.9,0.6
							c0.4,0.2,0.9,0.3,1.3,0.4c0.1,0,0.5-0.3,0.5-0.4c-0.3-0.6-0.5-1.4-1-1.9c-0.5-0.5-0.8-1-0.6-1.7c0.1-0.2,0-0.4-0.1-0.7
							C145.3,66.7,144.4,67,143.5,67.2z M142.6,70.4c0.1-0.9-0.6-0.8-1.1-0.9c-0.2-0.1-0.5,0-0.7,0c0.1,0.2,0.2,0.4,0.3,0.6
							c0.1,0.1,0.2,0.3,0.3,0.4c0.2,0.2,0.5,0.4,0.8,0.7C142.3,71,142.4,70.7,142.6,70.4z"/>
					</g>
					<g>
						<path d="M117.3,62.5c0.1,0.4,0.2,0.8,0.3,1.4c0.3-0.3,0.5-0.4,0.6-0.5c0.2-0.1,0.5-0.2,0.7-0.4c0.1,0.3,0.2,0.5,0.2,0.8
							c0,0.3-0.2,0.6-0.2,0.7c0.6,0.1,1.2,0.1,1.7,0.2c0.5-0.6,1-1.3,1.6-2c0.7,0.7,0.7,1.4,0,2.3c-0.2,0.2-0.2,0.6-0.3,0.9
							c-0.2,0.6-0.3,1.1-0.5,1.7c-0.3,0.8-0.6,1.7-0.9,2.5c-0.2,0.3-0.5,0.6-0.8,0.8c0,0.6,0,1.3,0,2c0.1,0,0.1,0,0.2,0
							c0.1-0.1,0.2-0.2,0.1-0.3c-0.2-1.2,0.9-1.7,1.3-2.6c0-0.1,0.4-0.2,0.4-0.1c0.2,0.1,0.3,0.4,0.3,0.5c-0.1,0.9,0,1.9-0.6,2.6
							c-0.2,0.2-0.2,0.6-0.4,0.9c-0.1,0.3-0.3,0.6-0.5,0.9c-0.3-0.2-0.5-0.4-0.8-0.5c-0.1,0-0.1-0.1-0.2-0.2
							c-0.2,0.2-0.6,0.3-0.7,0.5c-0.9,1.1-2.1,1-3.3,1c-0.6,0-1.3-0.2-1.1-1.1c-0.1,0-0.2,0-0.2,0c-0.2,0.4-0.3,0.9-0.5,1.3
							c-0.1,0.3-0.1,0.6-0.3,0.8c-0.1,0.2-0.4,0.3-0.6,0.3c-0.1,0-0.3-0.3-0.3-0.5c-0.1-0.8,0.1-1.7,0.6-2.3c0.7-0.9,1-2,1.6-2.9
							c0.8-1.5,1.2-3.3,2.9-4.3c0.5-0.3,0.9-0.7,0.7-1.7c-0.5,0.4-1,0.7-1.4,1.1c-0.4,0.4-0.8,0.9-1.3,1.3c-0.6,0.4-1.3,0.7-2.1,1.1
							c-0.1,2.2-1.9,3.9-3.2,5.8c-0.3,0.5-0.9,0.8-1.3,1.3c-0.4,0.7-0.8,1.4-1,2.1c-0.1,0.5-0.2,0.9-0.8,1.2
							c-0.3,0.1-0.6,0.5-0.8,0.9c-0.2,0.3-0.3,0.8-0.6,1c-0.7,0.6-0.6,1.3-0.2,2c0.6,1,0.2,1.7-0.4,2.6c-0.6,0.9-1.2,1.8-1.5,2.8
							c-0.3,0.8-0.2,1.7-0.2,2.6c-0.1,1.8,0.1,3.5,0.5,5.2c0,0.2,0.1,0.4,0.2,0.4c0.8,0.6,0.6,1.2,0.1,1.8c-0.3,0.4-0.4,0.8,0.1,1.2
							c0.3,0.3,0.3,0.9,0.4,1.3c0.1,0.7,0.1,1.4,0.1,2.1c0,0.5,0,1-0.1,1.5c-0.2,1-0.4,2.1-0.7,3.1c-0.4,1.5-0.8,3.1-1.2,4.6
							c-0.1,0.3-0.1,0.6-0.2,0.8c-0.2,0.2-0.5,0.4-0.8,0.5c-0.1-0.2-0.2-0.4-0.3-0.7c-0.2-0.9-0.5-1.7-0.7-2.6
							c-0.1-0.6,0.2-1.3-0.4-1.9c-0.6-0.6-1.6-0.9-2.3-0.5c-1,0.7-1.9,1.5-2.2,2.7c0,0.2-0.2,0.5-0.3,0.7c-0.5,0.7-1,1.4-1.4,2.1
							c-0.2,0.3-0.1,0.8-0.1,1.3c-0.1,0.6,0.4,0.6,0.8,0.8c0.3,0.1,0.4,0.5,0.6,0.7c-0.3,0.2-0.6,0.5-1,0.5
							c-1.2,0.1-3.1,2.3-2.9,3.5c0,0.2,0.1,0.3,0.2,0.5c0.2-0.1,0.4-0.1,0.5-0.2c0.4-0.6,0.8-1.3,1.2-1.9c0.1-0.1,0.5-0.2,0.7-0.1
							c0.3,0.3,0.4,0.6,0.6,0.9c0.6-0.4,1.3-0.8,1.9-1.2c0.2-0.1,0.5,0,0.7,0c0,0.2,0.1,0.5,0,0.7c-0.4,0.5-1,1-1.4,1.5
							c-0.3,0.5-0.7,1.2-0.7,1.8c0,1.3-0.3,2.3-1.3,3.2c-0.8,0.8-0.6,2.6,0.2,3.3c0.2,0.1,0.5,0.1,0.7,0.2c0.5,0.2,0.6,0.4,0.3,0.9
							c-0.7,1.3-1.3,2.6-2,3.9c-0.2,0.4-0.5,0.9-0.9,1.2c-0.8,0.8-1.2,1.8-1.4,2.8c0.1,0.1,0.1,0.1,0.2,0.2c0.7-0.7,1.4-1.5,2.1-2.2
							c0.4-0.4,0.7-0.7,1.2-1c0.2-0.1,0.6,0,0.9,0.1c-0.1,0.3-0.2,0.6-0.3,0.8c-0.3,0.6-0.6,1.2-0.9,1.7c-0.7,1.4-1.5,2.7-2.2,4.1
							c-0.2,0.3-0.3,0.7-0.6,1.2c0.4-0.1,0.5-0.2,0.7-0.2c0.4-0.1,0.8-0.1,1.2-0.1c-0.1,0.4-0.2,0.7-0.4,1.1c0,0.1-0.3,0.1-0.4,0.2
							c0.1,0.1,0.1,0.2,0.2,0.2c0.6,0,1.2-0.1,1.8-0.1c0.5,0,0.7,0.1,0.5,0.6c-0.1,0.6-0.3,1.3-0.2,1.9c0.1,0.8,0.1,1.6-0.2,2.4
							c-0.4,1.1-0.7,2.2-0.9,3.4c-0.1,0.6,0.1,1,0.8,1.2c0.7,0.1,0.4,0.5,0.2,0.8c-0.3,0.5-0.8,1-0.9,1.6c-0.1,0.5-0.4,1.2,0.3,1.7
							c0.1,0-0.1,0.5-0.2,0.6c-0.8,0.8-0.9,1.2-0.3,2.1c0.4,0.6,0,1.1-0.2,1.6c-0.3,0.6-0.3,1,0,1.6c0.4,0.7,0.6,1.4,0,2.2
							c-0.3,0.3-0.2,0.8-0.4,1.2c-0.4,0.9-0.9,1.8-1.4,2.8c0.5,1,0.8,2.2,0.8,3.6c0,0.8,0.1,1.6,0.2,2.4c0.2,1.4-0.4,2.6-0.8,3.9
							c-0.3,1-0.6,2-0.7,3c-0.1,0.9-0.1,1.8,0,2.6c0.1,0.6,0.4,1.3,0.8,1.7c0.8,0.8,1,1.9,1.2,2.9c0.1,0.5,0.1,1,0.3,1.5
							c0.2,0.5,0.4,1,1.1,1c0.4,0,0.8,0.4,1.1,0.7c0.3,0.2,0.5,0.5,0.7,0.7c0.1,0,0.2-0.1,0.3-0.1c0-0.6,0-1.3,0-1.9
							c0.1-0.6,0.2-1.3,0.4-2c1,0.4,1.1,1.3,1.2,2c0.3,1.3-0.5,2.5-1.7,2.9c-0.5,0.1-0.5,0.3-0.4,0.7c0.3,1.4,1.6,2.1,3.2,1.9
							c0.3-0.1,0.7-0.1,1.1-0.2c0.1-0.3,0.1-0.7,0.2-0.9c0.2-0.3,0.5-0.6,0.7-0.6c0.2,0,0.5,0.4,0.6,0.6c0.1,0.3,0.1,0.7,0.2,1.1
							c0.1,0.3,0.3,0.5,0.5,1c0.6-1.7,1.2-3.1,1.7-4.5c0.1-0.3,0-0.6,0.1-0.9c0.1-0.3,0.3-0.5,0.5-0.7c0.1,0,0.3,0.1,0.4,0.1
							c0,1.1,0,2.1,0,3.2c0,0.3,0.3,0.7,0.5,1c0.5,0.8,1.2,1.5,1.6,2.3c0.5,0.7,0.8,0.9,1.6,0.5c0.7-0.4,1.4-0.9,1.5-1.8
							c0.1-0.7-0.1-1-0.8-0.8c-0.8,0.2-1.2-0.4-1.5-0.9c-0.2-0.4,0-1,0-1.6c0.9,0.2,1.5,0.4,2.1,0.5c0.2-0.7,0.5-1.2,0.5-1.8
							c0-0.6-0.1-1.2-0.4-1.7c-0.5-1-0.5-1.5,0.6-1.9c0.9-0.4,0.9-0.3,1.1,0.7c0.1,0.3,0.3,0.6,0.5,0.9c0.3,0.4,0.6,0.8,1,1.3
							c0.9,0.1,1.1-0.7,1.5-1.3c1-1.4,1.9-2.8,2.5-4.4c0.1-0.2,0.2-0.5,0.1-0.6c-0.8-1.1-0.1-2.4-0.5-3.6c-0.1-0.4,0-0.9-0.1-1.4
							c0-0.1-0.1-0.3,0-0.4c0.6-0.8,0-1.5-0.4-2.1c-0.6-0.9-0.5-1.1,0.5-1.4c0.5-0.1,1-0.4,1.3-0.5c0.2-0.8,0.4-1.4,0.4-2.1
							c0-0.8-0.1-1.7-0.2-2.5c-0.1-0.9-0.3-1.9-0.4-2.8c-0.1-0.8-0.4-1.6-0.4-2.4c0-0.8-0.3-1.3-0.8-1.9c-0.4-0.5-0.7-1-0.8-1.6
							c-0.1-0.4,0.2-0.9,0.4-1.4c0.1,0,0.3,0,0.4,0c0.6,1,1,2,1.7,2.9c0.5,0.6,1.1,1.1,1.8,1.5c0.4,0.3,1.3-0.5,1.3-1.2
							c-0.1-1.3,1.1-1.6,1.7-2.4c0.3-0.4,0.6,0,0.7,0.4c0.1,1,0.2,2.1,0.3,3.1c0.1,0.8,0.1,1.7,0.2,2.5c0,0.1,0.2,0.3,0.4,0.6
							c0.4-2.7,0.6-5.3,2-7.5c-0.9-0.8-0.9-0.9,0.4-2.5c-0.2-0.1-0.4-0.1-0.5-0.3c-0.1-0.2-0.1-0.5,0-0.7c0.1-0.1,0.5-0.3,0.6-0.2
							c0.6,0.4,1.1,0.9,1.8,1.4c0.1-0.3,0.2-0.9,0.5-1.3c0.1-0.2,0.4-0.4,0.6-0.6c0.2,0.3,0.5,0.5,0.5,0.8c0,0.9-0.1,1.7-0.4,2.6
							c-0.4,1.2-0.5,2.6-0.6,3.9c-0.1,1.2-0.3,2.5,0.5,3.6c-0.5,1.1,0.7,1.6,0.9,2.5c0.1,0.6,0.1,0.9-0.5,0.8
							c-0.9-0.1-1,0.3-1.4,0.9c-0.8,1.4-0.9,2.9-1.1,4.5c0.2,0,0.5-0.1,0.7,0c0.2,0.1,0.5,0.3,0.5,0.4c0,0.6-0.2,1.2-0.2,1.9
							c0,0.2,0,0.4,0.1,0.6c0.4,1,0.3,1.5-0.6,2.1c-0.4,0.3-0.7,0.6-1.1,1c-0.4,0.5-0.9,0.7-1.4,0.3c-1.1-0.7-2.3-1.2-2.7-2.6
							c-0.2-0.8-1-0.8-1.5-0.9c-0.5-0.1-1.1,0.3-1.6,0.4c-0.7,0.1-0.9,0.4-1,1.1c-0.1,0.7-0.4,1.3-0.5,2c0,0.2,0,0.4,0,0.7
							c0,0.4,0,0.7,0,1.1c0,0.1-0.2,0.3-0.2,0.4c0,0.8,0,1.6,0,2.5c0,0.3-0.1,0.7-0.2,1c-0.7,0.9-0.7,1.9-0.9,3
							c-0.1,0.6-0.1,1.3-0.2,1.9c-0.1,0.6-0.3,1.1,0.3,1.6c0.1,0.1,0.1,0.2,0.1,0.3c-0.4,1-0.7,2.1-1.2,3.1
							c-0.1,0.2-0.4,0.3-0.7,0.3c-0.5,0-0.9,0-1.4-0.1c-1.3-0.3-2.4,0.1-3.6,0.5c-0.4,0.1-0.6,0.6-1,0.9c-0.6,0.3-1.2,0.5-1.8,0.7
							c-0.1,0-0.1,0.1-0.2,0.1c-1.3-0.4-2.8,0.3-3.9-0.9c-0.1-0.1-0.3-0.1-0.5-0.1c-0.9,0-1.8,0-2.7,0c-0.1,0-0.2,0-0.3,0
							c-1.1-0.8-2.5-0.6-3.7-0.8c-0.2,0-0.5,0-0.7,0.1c-0.9,0.4-1.8-0.1-1.7-1.1c0.1-1.2-0.4-2.2-0.9-3.1c-0.3-0.6-1.1-1-2-0.8
							c-0.8,0.2-1.7-0.5-1.5-1.2c0.3-1.3-0.6-2.3-0.7-3.5c0-0.4,0-0.8,0-1.1c0-0.4-0.1-0.8,0-1.2c0-0.5,0.1-1,0.3-1.5
							c-0.7-2.1-0.2-4.1,0.3-6.2c0.1-0.6,0.4-1.3,0.5-1.9c0-0.2-0.2-0.8-0.3-0.8c-0.9,0-1.9-0.2-2.6,0.5c-0.2,0.2-0.3,0.5-0.4,0.7
							c-0.1,0.3-0.2,0.6-0.4,0.9c-0.2,0.5-0.4,1-0.7,1.4c-0.2,0.3-0.6,0.8-1,0.8c-0.4,0-1-0.3-1.1-0.7c-0.4-0.8-0.9-1-1.7-1.2
							c-0.8-0.2-1.5-0.6-2.3-0.9c-0.9-0.3-1.8-0.5-2.7-0.8c-0.2-0.1-0.4-0.4-0.4-0.7c-0.1-1.2-0.4-1.6-1.5-2.1
							c-0.5-0.2-1-0.5-1.5-0.8c-0.6-0.3-0.5-0.9-0.4-1.4c0.2-0.6,0.7-0.8,1.4-0.8c1,0,1.5,0.9,2.2,1.3c1.2,0.7,2.4,1.4,3.6,1.9
							c0.5,0.2,1.2-0.1,1.8-0.2c0.7-0.2,1-0.7,0.8-1.5c-0.3-1.3,0.1-1.7,1.5-1.6c0.5,0,0.7-0.1,0.9-0.5c0.4-0.8,0.9-1.5,1.9-1.8
							c0.3-0.1,0.5-0.4,0.7-0.7c-0.2-0.2-0.4-0.5-0.7-0.7c-0.3-0.2-0.8-0.3-1.1-0.5c-1.1-1-0.9-2.5,0.5-3.6c0.2-0.2,0.3-0.4,0.5-0.6
							c-0.2-0.1-0.5-0.2-0.7-0.3c-0.3-0.1-0.7-0.2-0.9-0.4c-0.8-0.7-1.8-0.7-2.7-0.8c-0.5,0-1,0.4-1.4,0.6c-0.5,0.3-0.9,0.8-1.5,1
							c-1.3,0.6-1.9,1.7-2.1,3c0,0.2,0.1,0.4,0.1,0.7c0,0.2,0,0.5-0.1,0.6c-0.8,0.8-1.2,1.7-0.9,3c0.2,0.7-0.5,1.1-1.1,0.7
							c-0.5-0.3-0.9-0.7-1.2-1.1c-0.5-0.8-1.3-0.9-2.1-1.2c-0.5-0.2-1-0.5-1.4-0.8c-0.2-0.1-0.4-0.4-0.7-0.5c-0.9-0.5-1.8-1-2.7-1.5
							c-0.1,0-0.1-0.1-0.2-0.1c-1.4-0.2-1.4-1.3-1.6-2.4c-0.2-1.2-0.6-2.4-1.1-3.5c-0.2-0.4-1-0.7-1.6-0.8c-0.9-0.2-1.2-0.4-0.6-1.1
							c1.5-1.8,1.9-3.9,2.4-6.1c0.1-0.5,0.1-1,0.8-1.1c0.1,0,0.3-0.3,0.2-0.4c-0.4-1.3,0.5-2.2,0.9-3.2c0.2-0.7,0.7-1.2,1.2-1.9
							c-0.8-0.5-1.5-1-2.3-1.5c-0.1-0.1-0.1-0.5,0-0.7c0.4-0.5,0.9-1,1.4-1.4c1-0.8,1.7-1.7,2.1-2.9c0.9-2.5,2.4-4.4,5-5.3
							c0.4-0.2,0.6-0.3,0.5-0.9c-0.3-0.8,0.2-1.8-0.5-2.6c0.3-0.1,0.5-0.4,0.8-0.4c1-0.1,2.1-0.1,3.1-0.2c0.4,0,0.6-0.3,0.7-0.8
							c0.2-1,0.6-1.9,1-2.8c0.1-0.1,0.4-0.2,0.7-0.2c1.1,0,1.9-0.7,2.4-1.7c0.7-1.5,1.2-3,2.9-3.8c1.9-0.8,3.2-2.3,3.7-4.5
							c0.1-0.3,0.2-0.6,0.5-0.7c1.6-0.6,1.9-2,2.1-3.4c0-0.3,0.3-0.5,0.4-0.8c0.2-0.4,0.6-0.7,0.6-1.1c0-0.7,0.3-1.1,0.8-1.3
							c1.1-0.3,1.5-1.4,2.2-2.1c0.5-0.4,1-0.8,1.4-1.4c0.8-1.1,0.2-2.3,0.2-3.5c0-0.6,0-1.1,0.3-1.7c0.6-1,0.5-2,0.1-3
							c-0.1-0.3-0.7-0.5-1-0.6c-0.9-0.3-0.9-0.4-0.4-1.2c0.3-0.5,0-1.3,0-1.9c0-0.1-0.2-0.3-0.2-0.4c0.2-2.2-0.3-4.6,1.4-6.5
							c0.1-0.1,0.2-0.2,0.2-0.4c0.6-1.6,1.3-3.2,1.9-4.8c0.1-0.3,0.2-0.6,0.5-0.7c1-0.6,0.9-1.6,0.9-2.5c0-0.1-0.2-0.4-0.3-0.4
							c-0.8,0-1.7,0-2.5,0.2c-0.7,0.1-1.3,0.5-2,0.8c-0.3-0.4-0.2-0.9,0.1-1.4c0.8-1.9,1.6-3.8,2.5-5.6c0.3-0.6,0.8-1,1.3-1.4
							c0.2-0.1,0.7,0,1,0.2c0.1,0.1,0.2,0.5,0.1,0.7c-0.4,0.9-1,1.7-1.4,2.6c-0.3,0.6-0.4,1.2-0.5,1.8c-0.1,0.3,0.1,0.8,0.3,0.9
							c0.4,0.1,0.9,0.2,1.2-0.1c0.6-0.5,1.1-0.7,1.9-0.4c0.2,0.1,0.6-0.1,0.8-0.3c1.2-1.4,2.4-2.9,2.9-4.7c0.1-0.3-0.1-0.7-0.4-0.9
							c-0.2-0.1-0.7-0.1-0.8,0.1c-0.8,0.7-1.6,1.5-2.3,2.4c-0.2,0.2-0.2,0.7-0.3,1.1c-0.1,0.5-0.3,1.1-0.9,0.9
							c-0.3-0.1-0.6-0.8-0.5-1.1c0.4-0.9,0.9-1.7,1.4-2.5c0.6-1,1.6-1.8,1.6-3.1c0-0.3,0.2-0.6,0.4-0.8c1-1,2-2,3-3
							c0.1-0.1,0.2-0.2,0.3-0.4c-0.6-0.7-1.2,0.2-1.5,0c-0.7,0.9-1.4,1.8-2.1,2.6c-0.2,0.3-0.3,0.6-0.6,0.9
							c-0.5,0.4-1.2,0.8-1.8,1.2c0,0-0.4-0.3-0.4-0.4c0.1-0.5,0.1-1,0.4-1.4c0.5-0.6,1.3-1.1,1.7-1.8c1-1.6,2.6-2.7,3.8-4.1
							c1.2-1.3,2.4-2.7,3.8-3.9c0.9-0.7,2-1.2,3-1.7c0.4-0.1,1,0.2,1.4,0.5c0.1,0-0.2,0.7-0.3,1.1c0,0,0.1,0.1,0.2,0.1
							c0.7-0.3,1.4-0.5,2.2-0.2c0.1,0,0.5-0.2,0.5-0.3c0-0.2-0.1-0.5-0.3-0.7c-0.8-0.8-1.6-1.6-2.4-2.4c-0.2-0.2-0.3-0.6-0.2-0.8
							c0-0.2,0.4-0.3,0.7-0.4c0.3-0.1,0.6,0,0.9,0c1.1,0,1.1,0,0.8,1c0,0,0,0.1,0,0.1c-0.1,0.5,1.4,2,2,2c0.4,0,0.8,0.1,1.1,0.3
							c0.7,0.4,2.4,0.3,2.9-0.4c0.1-0.2,0.1-0.6,0-0.8c-0.3-0.5-1.7-1.1-2.3-0.8c-0.9,0.4-1.5,0.2-2.1-0.5c-0.2-0.2-0.4-0.4-0.6-0.6
							c-0.2-0.2-0.5-0.5-0.4-0.6c0.1-0.2,0.4-0.4,0.7-0.5c0.4-0.1,0.9,0,1.3,0.1c0.7,0.2,1.2-0.1,1.5-0.8c0.1-0.3,0.3-0.6,0.5-1.1
							c0.4,0.7,0.7,1.1,1,1.5c0.4,0.7,0.7,1.4,1.6,1.3c0.2,0,0.6,0.4,0.5,0.6c-0.3,1.5,1,2.1,1.8,3c0.2,0.2,0.4,0.3,0.7,0.5
							c0.5-0.6,0.6-1.1,0.4-1.8c-0.3-0.9-0.2-2-0.9-2.7c-0.1-0.1,0.1-0.3,0.1-0.5c0.7,0.3,1.3,0.6,1.9,0.9c0.4-0.1,0.8-0.1,1.2-0.2
							c-0.2,0.3-0.4,0.6-0.6,0.9c-0.1,0.2-0.3,0.4-0.3,0.6c-0.1,1.5-0.1,3.1-0.2,4.6c0,0.5-0.3,1-0.5,1.4c-0.3,0.5-0.8,0.4-1.2,0
							c-0.6-0.6-1.2-1.1-1.8-1.7c-1,0.9-1.1,0.9-2.1,0.1c-0.5-0.5-1.2-0.3-1.5,0c-0.6,0.7-1.1,1.6-1.6,2.4c0,0.1,0.1,0.2,0.1,0.4
							c0.5-0.3,1-1.1,1.7-0.2c-0.2,0.3-0.3,0.6-0.5,0.8c-0.4,0.4-0.8,0.7-1.3,0.4c-1-0.6-1.8-0.4-2.6,0.5
							C118.6,62.4,118.1,62.8,117.3,62.5c0.1-0.3,0.4-0.6,0.3-0.9c0-0.3-0.3-0.8-0.5-0.8c-0.9,0.1-1.9,0.1-2.7,0.5
							c-1.1,0.5-2.1,1.4-3.1,2.2c-0.5,0.4-0.9,1-1.3,1.5c0.1,0.1,0.1,0.2,0.2,0.2c0.2-0.1,0.5-0.1,0.7-0.2c0.5-0.1,1-0.3,1.5-0.3
							c0.7,0,1-0.4,1.3-0.9C114.6,62.1,115.7,61.4,117.3,62.5z M113.4,192.8c0-0.1,0-0.2,0-0.2c-0.3,0.1-0.7,0.2-0.8,0.4
							c-0.6,1-0.5,2.2-0.2,3.2c0.3,1,0.6,1.1,2.1,0.8c1-0.2,1.8-0.8,1.9-1.6c0.1-0.8-0.4-1.6-0.6-2.4c0-0.1-0.2-0.1-0.3-0.1
							C114.7,192.8,114.1,192.8,113.4,192.8z M87.1,160.9c1.7,0,3.3,0,4.6-1.4c-0.3-0.9-0.3-0.9-1.2-0.6c-0.4,0.1-0.9,0.2-1.3,0.2
							C88.1,159.1,87.5,159.6,87.1,160.9z M114.1,57.5c-0.6,0.3-1.2,0.4-1.5,0.7c-0.4,0.3-0.4,0.9-0.8,1.3c-0.5,0.6-1,1.1-1.6,1.6
							c-0.5,0.5-1.2,0.8-0.9,1.7c0.8-0.8,1.7-1.6,2.5-2.4c0.2-0.1,0.4-0.2,0.6-0.3C113.2,59.6,114.1,59,114.1,57.5z M116.5,71.6
							c0.1-0.3,0.2-0.4,0.3-0.6c0.3-0.6,0.5-1.5,1.5-1.3c0.1,0,0.2-0.3,0.4-0.5c-0.2-0.1-0.5-0.4-0.7-0.4
							C117,69,116.1,70.4,116.5,71.6z M81.6,157.3c0,0.1,0,0.2,0,0.3c0.8,0.3,1.7,0.4,2.6,0c-0.2-0.3-0.4-0.6-0.5-0.8
							C83,157,82.3,157.1,81.6,157.3z M84.5,178.2c0.7-0.4,0.9-0.9,0.6-1.4c0-0.1-0.6,0-0.9,0C84.4,177.3,84.4,177.7,84.5,178.2z"/>
					</g>
					<g>
						<path d="M136.4,76.4c-0.4,0.1-0.7,0.3-0.9,0.3c-0.2,0.1-0.4,0.1-0.6,0.1c-0.8-0.4-1.6-0.8-2.3-1.3c-0.5-0.3-0.6-0.9-0.2-1.4
							c0.4-0.5,0.8-0.3,1.2,0c0.6,0.4,1.1,0.7,1.8,1c0.2,0.1,0.5-0.1,0.8-0.2c0.5-0.2,1-0.4,1.4-0.6c0.2,0.5,0.4,0.9,0.5,1.4
							c0.2,0.9,0.4,1.8,0.6,2.6c0.1,0.3,0.3,0.5,0.3,0.8c-0.1,1.3,0.8,2.1,1.4,3c0.7,1,1.6,1.9,2.3,2.8c0.2,0.3,0.3,0.7,0.3,1.1
							c0.2,1.6,0,2.8-2.1,2.5c-0.1,0-0.2,0.2-0.4,0.2c-0.2,0-0.5,0-0.7,0c0-0.2,0-0.5,0.1-0.7c0.1-0.2,0.3-0.3,0.4-0.5
							c0.1-0.2,0.3-0.4,0.2-0.5c-0.5-0.8-0.2-1.9-1.1-2.6c-0.1-0.1-0.2-0.1-0.3-0.2c-0.3-1.4-1.3-2.7-1.4-4.2c0-0.2-0.1-0.6-0.2-0.7
							c-0.8-0.3-0.8-1-0.9-1.7C136.7,77.5,136.6,77,136.4,76.4z"/>
					</g>
					<g>
						<path d="M115.6,153.6c0,0.1,0,0.1,0,0.2c-0.1,0.4-0.2,0.8-0.3,1.1c0,0.1-0.7,0-0.7-0.1c-0.2-0.5-0.3-1-0.3-1.4
							c0.1-1,0.2-2.1,0.4-3.1c0.1-0.4,0.3-0.8,0.4-1.2c0.2-1.4,0.2-2.8,0.4-4.2c0.1-0.6,0.2-1.3,0.2-1.9c0-0.9-0.2-1.8-0.3-2.7
							c-0.1-0.6-0.2-1.2,0.5-1.4c0.1,0,0.1-0.3,0.2-0.4c0.1-0.7,0.2-1.4,0.4-2.1c0.1-0.2,0.3-0.4,0.5-0.5c0.2,0.3,0.6,0.6,0.5,0.8
							c-0.8,2,0,4.1-0.3,6.1c-0.1,0.4-0.2,0.8-0.3,1.2c0,0.1-0.2,0.2-0.1,0.3c0.4,1.8-0.5,3.3-0.8,5c-0.2,1.5-0.3,3.1-0.5,4.6
							C115.5,153.5,115.6,153.6,115.6,153.6z"/>
					</g>
					<g>
						<path d="M128.4,61.7c0.1,0.3,0.2,0.6,0.2,0.9c0,1.1-0.1,2.3-0.2,3.4c0,0.6,0,0.9-0.9,0.8c-0.9-0.1-1.8,0.1-2.6,0.2
							c-0.7,0.1-1.5,0.7-2.1-0.3c-0.4-0.7-0.3-1.2,0.5-2.2c0.4-0.5,0.8-1.1,1.2-1.7c0.1-0.1,0.1-0.2,0.2-0.3c0.7-0.2,1.3-0.4,2-0.6
							c0.5-0.1,0.9-0.1,1.4-0.1C128.3,61.8,128.3,61.8,128.4,61.7z"/>
					</g>
					<g>
						<path d="M114.3,86.1c-0.3,1-0.5,2-0.8,3.1c-0.2,0.7-0.3,1.4-0.4,2.1c-0.1,0.3-0.3,0.5-0.5,0.7c-0.3-0.2-0.6-0.3-0.7-0.6
							c-0.2-0.3-0.2-0.7-0.1-1.1c0-1.3-0.3-2.7,1-3.7c0.1-0.1,0.1-0.5,0-0.7c-0.5-1.4-0.4-2.1,0.7-3.2c0.2-0.2,0.3-0.7,0.6-0.9
							c0.2-0.2,0.6-0.3,0.9-0.5c0.1,0.3,0.3,0.6,0.4,0.9c0.1,0.9-0.2,1.6-0.7,2.4c-0.3,0.4-0.3,1-0.5,1.5
							C114.1,86.1,114.2,86.1,114.3,86.1z"/>
					</g>
					<g>
						<path d="M130.1,183.7c0.2-0.4,0.3-0.7,0.6-1.2c0.3,0.4,0.6,0.8,0.8,1.1c-0.7,0.3-0.5,0.8-0.3,1.3c0.6,1.8,0.8,3.6,0.7,5.4
							c0,0.4-0.5,0.8-0.8,1.3c-0.3-0.5-0.8-0.9-0.8-1.4c0-0.9,0-1.6-0.6-2.4c-0.3-0.3-0.1-1-0.2-1.5c-0.1-0.3-0.2-0.6-0.4-0.9
							c-0.1-0.3-0.5-0.9-0.4-1C129.1,184.2,129.2,183.1,130.1,183.7z"/>
					</g>
					<g>
						<path d="M101.9,156.1c0-1,0-1.9,0-2.8c0-0.2,0.1-0.5,0.2-0.6c0.1-0.1,0.5,0,0.6,0.1c0.4,0.4,0.8,0.8,1,1.3
							c0.5,1.1,0.7,2.3,1.2,3.4c0.4,0.8,0.7,1.6,0.5,2.5c0,0.2,0.2,0.5,0.4,0.7c0.4,0.6,0.8,1.2,1.1,1.8c0.1,0.1,0,0.4-0.1,0.4
							c-0.2,0-0.4,0-0.5-0.1c-0.5-0.5-1-1.1-1.4-1.6c-0.3-0.4-0.7-0.8-0.9-1.2c-0.3-0.6-0.5-1.3-0.5-2
							C103.5,156.9,102.9,156.2,101.9,156.1z"/>
					</g>
					<g>
						<path d="M107,111.1c1.4,0,2.1,0.7,2.7,1.6c0.4,0.7,0.6,1.5,0.9,2.2c0.1,0.3,0.4,0.5,0.5,0.8c0.1,0.3,0.1,0.6,0.1,0.9
							c-0.3,0-0.7,0.1-0.8-0.1c-0.4-0.4-0.7-1-1.1-1.4c-0.7-0.7-1.5-1.3-2.1-2c-0.3-0.4-0.4-1.1-0.5-1.6
							C106.6,111.3,107,111.1,107,111.1z"/>
					</g>
					<g>
						<path d="M136.9,153.4c0.2-0.7,0.3-1.2,0.4-1.7c0.2-0.8,0.4-1.6,0.7-2.4c0.1-0.6,0.2-1.1,0.4-1.7c0.1-0.2,0.3-0.4,0.5-0.3
							c0.1,0,0.4,0.3,0.3,0.5c-0.3,1.3-0.6,2.5-1.1,3.7c-0.2,0.5-0.6,0.9-0.3,1.6c0.1,0.2-0.2,0.6-0.4,0.9c-0.2,0.4-0.4,0.8-0.4,1.2
							c0.1,1.8-1.1,2.9-2.6,2.7c0.1-0.7,0.7-1.1,1.1-1.5c0.4-0.4,0.6-0.7,0.5-1.3C136.1,154.5,136.1,153.6,136.9,153.4z"/>
					</g>
					<g>
						<path d="M133.3,55.4c-0.1-0.2-0.3-0.3-0.3-0.5c0-0.2,0.1-0.5,0.2-0.6c0.9-1,1.6-2.1,2.9-2.5c0.2-0.1,0.7,0,0.8,0.2
							c0.3,0.4,0.5,0.9,0.7,1.3c0,0.1,0,0.4-0.1,0.4c-0.5,0.3-1.1,0.6-1.7,0.8c-0.7,0.2-1.5,0.1-2,0.7
							C133.7,55.3,133.5,55.3,133.3,55.4z"/>
					</g>
					<g>
						<path d="M151,135.5c-0.3,0.7-0.6,1.5-0.8,2.3c-0.1,0.2,0,0.5-0.1,0.8c-0.2,0.6-0.4,1.1-0.6,1.7c-0.1,0.4-0.2,0.8-0.3,1.2
							c-0.1,0.3-0.1,0.5-0.2,0.8c-0.2-0.2-0.3-0.3-0.5-0.5c-0.6-0.6-0.4-1.1-0.1-1.8c0.3-0.9,0.4-1.9,0.7-2.9c0.2-0.7,0.6-1.4,1-2
							c0.1-0.1,0.4-0.2,0.6-0.2C150.8,134.9,150.9,135.2,151,135.5z"/>
					</g>
					<g>
						<path d="M138.6,86c-0.3,0.7-0.5,1.3-0.8,1.9c0,0-0.7-0.1-0.7-0.2c-0.2-1.2-1-2.2-0.6-3.5c0.1-0.2-0.2-0.6-0.1-0.8
							c0.1-0.3,0.4-0.6,0.6-0.9c0.2,0.2,0.6,0.3,0.7,0.5C138,84,138.3,85.1,138.6,86z"/>
					</g>
					<g>
						<path d="M112.3,111.9c-0.3,0.3-0.5,0.5-0.8,0.7c-0.5,0.3-1,0.2-1.3-0.2c-0.1-0.2,0.1-0.9,0.3-1c1-0.4,2.1-0.8,3.1-1
							c0.5-0.1,0.8,0.1,0.6,0.8c-0.2,0.7-0.2,1.4-0.4,2.1c0,0.2-0.2,0.5-0.3,0.5c-0.1,0-0.4-0.1-0.5-0.3
							C112.8,113,112.6,112.5,112.3,111.9z"/>
					</g>
					<g>
						<path d="M128,150.4c0,1.4,0.1,2.5,0,3.6c-0.1,0.6-0.3,1.3-0.7,1.7c-0.2,0.2-0.9,0-1.4-0.1c-0.1,0-0.2-0.6-0.1-0.7
							c1.3-0.6,1.1-1.8,1.2-2.9c0.1-0.4,0-0.8,0.1-1.2C127.2,150.7,127.6,150.6,128,150.4z"/>
					</g>
					<g>
						<path d="M126.8,72.4c0.7-0.7,1-1.4,0.8-2.2c0-0.3,0.2-0.7,0.4-1c0.2-0.3,0.6-0.5,1-0.7c0.1,0.1,0.3,0.2,0.3,0.3
							c-0.2,0.9-0.4,1.8-0.6,2.7c-0.1,0.3-0.3,0.5-0.4,0.7c-0.2,0.3-0.3,0.5-0.5,0.8C127.5,72.8,127.2,72.6,126.8,72.4z"/>
					</g>
					<g>
						<path d="M147.9,190.4c-0.5,0.1-0.9,0.3-1,0.2c-0.5-0.4-0.9-0.2-1.5-0.1c-0.4,0.1-0.8,0-1.2,0c-0.1,0-0.2-0.5-0.2-0.5
							c0.5-0.5,1.1-1,1.7-1.4c0.1-0.1,0.3-0.2,0.4-0.1C146.7,189,147.2,189.6,147.9,190.4z"/>
					</g>
					<g>
						<path d="M124.1,74.1c0.1-1.1,0.6-1.9,1.5-2c0.3,0,0.7,0.1,0.8,0.2c0.1,0.2,0.1,0.6,0,0.8c-0.2,0.4-0.4,0.9-0.7,1.3
							c-0.3,0.3-0.8,0.5-1.1,0.7C124.4,74.8,124.3,74.5,124.1,74.1z"/>
					</g>
					<g>
						<path d="M117.9,87.8c-0.3,1.2-0.6,2.3-0.9,3.5c-0.1,0.5-0.3,1.1-1,1c-0.4,0-0.6-1-0.3-1.5c0.3-0.5,0.7-0.9,0.7-1.6
							C116.5,88.5,117,87.8,117.9,87.8z"/>
					</g>
					<g>
						<path d="M158.2,81.7c-0.1-0.3-0.3-0.5-0.4-0.8c-0.1-0.3-0.1-0.7,0-1c0-0.1,0.4-0.2,0.5-0.1c0.3,0.2,0.7,0.5,0.8,0.7
							c0,0.5,0,1,0.7,1.1c0.1,0,0.3,0.5,0.2,0.5c-0.4,0.3-0.9,0.6-1.4,0.7c-0.2,0-0.5-0.6-0.7-0.9C158,81.8,158.1,81.7,158.2,81.7z"
							/>
					</g>
					<g>
						<path d="M138.1,122c-0.1-0.3-0.3-0.6-0.2-0.7c0.3-0.9,0.5-1.8,0.9-2.6c0.2-0.3,0.7-0.5,1.1-0.6c0,0,0.4,0.4,0.3,0.6
							c-0.4,0.9-0.9,1.8-1.4,2.7C138.7,121.4,138.5,121.6,138.1,122z"/>
					</g>
					<g>
						<path d="M106.7,85c-0.1-0.2-0.4-0.5-0.3-0.7c0.4-1.1,0.9-2.2,1.5-3.3c0.1-0.2,0.5-0.2,0.8-0.3c0,0.3,0,0.5-0.1,0.7
							c-0.3,0.8-0.5,1.7-0.9,2.5c-0.1,0.4-0.4,0.7-0.6,1.1C107,85,106.8,85,106.7,85z"/>
					</g>
					<g>
						<path d="M144.5,132.6c-1.3,0.8-0.9,1.9-1,2.9c0,0.3-0.3,0.5-0.5,0.8c-0.2-0.3-0.4-0.5-0.5-0.8c-0.1-0.6,0-1.2,0-1.8
							C142.5,133,143.2,132.5,144.5,132.6z"/>
					</g>
					<g>
						<path d="M109.8,82.7c0-0.8,1.1-2.2,1.8-2.3c0.1,0,0.4,0,0.4,0.1c0.1,0.2,0.1,0.5,0,0.6c-0.4,0.6-0.8,1.1-1.3,1.7
							c-0.1,0.1-0.5,0.2-0.7,0.2C110,83.1,109.9,82.8,109.8,82.7z"/>
					</g>
					<g>
						<path d="M142,103.7c-0.7-0.5-1.3-1.9-1-2.7c0.1-0.2,0.3-0.4,0.5-0.4c0.2,0,0.5,0.2,0.6,0.4C142.5,101.4,142.4,103.2,142,103.7
							z"/>
					</g>
					<g>
						<path d="M144.9,148.8c0.5-0.2,1.3,0,1.5,0.6c0.1,0.3,0.4,0.7,0.4,1c0,0.3-0.2,0.6-0.3,0.9c-0.4-0.1-0.9-0.2-1.1-0.5
							C145.2,150.2,145.1,149.5,144.9,148.8z"/>
					</g>
					<g>
						<path d="M147.2,168.8c-0.4-0.6-0.7-1.2-1-1.8c0,0,0.4-0.3,0.6-0.5c0.1,0.9,1.8-0.5,1.4,1c-0.1,0.4-0.4,0.8-0.6,1.3
							C147.5,168.8,147.3,168.8,147.2,168.8z"/>
					</g>
					<g>
						<path d="M142.8,154.6c-0.1,0.8,0.3,1.7-0.8,1.8c-0.2,0-0.7-0.7-0.6-0.9c0.2-0.5,0.7-0.8,1.1-1.2
							C142.6,154.4,142.7,154.5,142.8,154.6z"/>
					</g>
					<g>
						<path d="M117.7,159.8c-0.5,0.4-0.9,0.8-1.3,1.1c-0.2-0.3-0.7-0.8-0.6-0.9c0.3-0.4,0.7-0.7,1.1-0.9
							C117,159,117.4,159.4,117.7,159.8z"/>
					</g>
					<g>
						<path d="M133.6,134.9c0.2-0.3,0.3-0.5,0.4-0.8c0.2,0.2,0.3,0.3,0.5,0.5c0.2,0.3,0.5,0.6,0.6,0.9c0.1,0.2,0,0.5,0,0.7
							c-0.3,0-0.7,0.1-0.8-0.1C133.9,135.8,133.8,135.3,133.6,134.9z"/>
					</g>
					<g>
						<path d="M133.8,142.2c-0.1-0.1-0.3-0.3-0.4-0.4c0-0.2,0-0.5,0.2-0.6c0.1-0.1,0.6,0,0.6,0.1c0.1,0.5,0.2,1,0.2,1.5
							c0,0.2-0.4,0.4-0.7,0.5c-0.1,0-0.3-0.2-0.4-0.3C133.4,142.7,133.6,142.5,133.8,142.2z"/>
					</g>
					<g>
						<path d="M151.2,188.4c-0.3-0.1-0.5-0.1-0.7-0.2c-0.2-0.1-0.3-0.3-0.4-0.5c0.2-0.1,0.3-0.3,0.5-0.3c0.3-0.1,0.6-0.1,0.9,0
							c0.2,0,0.5,0.1,0.7,0.2c-0.2,0.2-0.3,0.5-0.5,0.6C151.6,188.3,151.4,188.3,151.2,188.4z"/>
					</g>
					<g>
						<path d="M134,60.2c-0.7,0.1-1.3,0.3-1.9,0.3c-0.1,0-0.3-0.3-0.2-0.4c0.1-0.2,0.2-0.6,0.4-0.6C132.9,59.3,133.5,59.3,134,60.2z
							"/>
					</g>
					<g>
						<path d="M123,71.6c-0.3-0.3-0.4-0.4-0.4-0.5c-0.1-0.5,0.8-1.5,1.2-1.4c0.1,0,0.3,0.3,0.3,0.3C123.8,70.6,123.5,71.1,123,71.6z
							"/>
					</g>
					<g>
						<path d="M141.1,55.4c-0.4,0.5-0.7,1.2-1.5,0.4c0.9-0.7,2-0.5,3-0.9C142.1,55.8,142.1,55.9,141.1,55.4z"/>
					</g>
					<g>
						<path d="M130,155.8c-0.2,0.4-0.4,0.8-0.7,1.1c-0.1,0.1-0.4,0.1-0.7,0.1c0-0.2-0.1-0.4,0-0.6
							C128.8,155.9,129.2,155.6,130,155.8z"/>
					</g>
					<g>
						<path d="M139.9,53.7c0.1-0.3,0.1-0.7,0.3-0.8c0.4-0.2,0.8-0.2,1.2-0.2c0,0.2,0,0.5-0.1,0.5c-0.3,0.2-0.7,0.4-1.1,0.5
							C140.1,53.8,140,53.8,139.9,53.7z"/>
					</g>
					<g>
						<path d="M105.8,90.9c-0.3,0.4-0.5,0.7-0.7,1c-0.1-0.1-0.4-0.3-0.3-0.4c0.1-0.5,0.3-0.9,0.5-1.4
							C105.4,90.5,105.5,90.7,105.8,90.9z"/>
					</g>
					<g>
						<path d="M106.1,87.9c0.4,0.8,0.1,1.4-0.6,2C105.2,88.9,105.7,88.4,106.1,87.9z"/>
					</g>
					<g>
						<path d="M133,187.2c-0.2-0.3-0.5-0.6-0.7-0.8c0.3-0.2,0.5-0.3,0.8-0.5c0.1,0.4,0.3,0.7,0.4,1.1
							C133.2,187.1,133.1,187.2,133,187.2z"/>
					</g>
					<g>
						<path d="M147.9,120.1c0.2,0.4,0.4,0.7,0.6,1.1c-0.4-0.1-0.7-0.1-1.1-0.3c-0.1-0.1,0-0.5,0.1-0.8
							C147.7,120.1,147.8,120.1,147.9,120.1z"/>
					</g>
					<g>
						<path d="M145.8,147.6c-0.4-0.8-0.1-1.1,0.4-1.2c0.1,0,0.3,0.1,0.5,0.1C146.4,146.8,146.1,147.1,145.8,147.6z"/>
					</g>
					<g>
						<path d="M102.3,151.7c-0.2,0.2-0.4,0.4-0.6,0.6c-0.1-0.1-0.3-0.3-0.3-0.3c0.1-0.3,0.2-0.6,0.5-0.8c0.1-0.1,0.4,0.1,0.6,0.2
							C102.4,151.4,102.4,151.6,102.3,151.7z"/>
					</g>
					<g>
						<path d="M153.6,187.3c0.2,0.2,0.5,0.5,0.7,0.7c-0.2,0.1-0.6,0.3-0.6,0.3c-0.2-0.2-0.3-0.5-0.4-0.8
							C153.3,187.5,153.5,187.4,153.6,187.3z"/>
					</g>
					<g>
						<path fill="#FFFFFF" d="M172.7,169.8c-0.6,0.2-1.2,0.4-1.8,0.7c-0.2,0.1-0.5,0.3-0.5,0.4c0,0.2,0.2,0.5,0.4,0.6
							c0.5,0.2,1,0.4,1.5,0.5c0.3,0.1,0.7,0.2,0.9,0.2c0.2,0.7,0.3,1.2,0.4,1.8c0.1,0.5,0.1,0.9-0.6,1c-0.2,0-0.4,0.1-0.7,0.2
							c-1.6,0.5-2,0.2-2.1-1.4c0-0.2-0.1-0.4-0.2-0.7c-0.3,0.1-0.4,0.3-0.6,0.3c-0.4,0.2-0.7,0.2-0.9-0.3c-0.5-1-1.2-1.3-2.2-1.1
							c-0.2,0.1-0.5,0.2-0.6,0.4c0,0.3,0,0.7,0.2,0.9c0.2,0.3,0.6,0.5,1,0.7c1.7,0.7,1.9,1,2.3,3c-0.4,0.1-0.8,0.1-1.2,0.2
							c-0.4,0.1-0.8,0.2-1.2,0.4c-0.6,0.3-1.1,0.5-1.5-0.3c-0.2-0.4-0.6-0.7-0.8-1.1c-0.2-0.4-0.4-0.9-0.4-1.3
							c-0.1-0.6-0.3-0.8-0.9-0.7c-0.2,0-0.4,0.1-0.6,0.1c-0.7,0.1-0.8,0.4-0.4,1c0.5,0.8,1.1,1.5,1.4,2.3c0.5,1.1-0.5,2.2-1.7,2.1
							c-0.5,0-0.9,0.2-1.4,0.3c-0.5,0.1-0.8,0.1-0.9-0.4c0-0.2-0.1-0.4-0.3-0.5c-1.1-0.8-1.2-1.9-1.2-3.1c0-0.9-0.2-1.8-0.4-2.6
							c-0.4-1.5-0.1-3,0.1-4.4c0-0.1,0.1-0.3,0.1-0.4c-0.2-1.1,0-1.8,0.9-2.2c1.1-0.5,2.2-0.7,3.4-1c0.2,0,0.4,0.2,0.6,0.2
							c1,0.4,1.8,0.5,2.6-0.4c0.5-0.5,1.1-1,1.7-1.4c0.6-0.5,1.3-0.4,1.9-0.1c0.5,0.3,1,0.6,0.8,1.4c0,0.1,0.2,0.4,0.4,0.6
							c0.3,0.2,0.7,0.3,1,0.4c0.7,0.3,1,0.8,0.8,1.6c-0.2,0.8-0.4,1.5,0.8,1.9C172.9,169.6,172.8,169.7,172.7,169.8z M163.8,172.4
							c-0.3,0.2-0.5,0.3-0.6,0.4c-0.1,0.1-0.1,0.5,0,0.5c0.5,0.4,0.9,0.9,1.6,0.6c0.2-0.1,0.4-0.5,0.3-0.6
							C164.8,173,164.3,172.7,163.8,172.4z"/>
					</g>
					<g>
						<path fill="#FFFFFF" d="M120.5,100.8c-0.3-1.1,0.1-1.9,0.8-2.8c0.3-0.4,0.4-1.1,0.5-1.7c0.1-0.3,0.1-0.8,0.3-0.9
							c0.8-0.5,0.9-1.5,1-2.2c0.3-1.4,0.6-1.7,1.9-1.4c0.9,0.2,1.8,0.3,2.7,0.5c0.3,0.1,0.8,0.1,0.9,0.3c0.3,0.4,0.5,0.9,0.6,1.4
							c0.1,0.9,0.1,1.8,0.1,2.6c0,1.1,0.1,2.2-0.1,3.3c-0.2,1.1-0.7,2.2-1,3.3c0,0-0.1,0.1-0.1,0.1c-0.9,0.4-1.8,0.8-2.7,1.1
							c-0.6,0.2-1.2,0.3-1.8,0.3c-0.6-0.1-1.3-0.4-1.8-0.7c-0.4-0.2-0.7-0.6-0.8-0.9c-0.3-0.7-0.6-1.4-0.8-2.1
							C120.3,100.8,120.4,100.8,120.5,100.8z M128.3,96.8c-0.1-0.1-0.4-0.3-0.6-0.3c-0.5,0-1,0.1-1.5,0.2c-0.2,0.1-0.3,0.4-0.4,0.6
							c0.2,0.1,0.3,0.3,0.5,0.3c0.2,0.1,0.5,0.1,0.6,0.2C127.8,98.2,128.3,97.9,128.3,96.8z M124.7,102c0.1,0.1,0.3,0.2,0.4,0.3
							c0.2-0.3,0.5-0.5,0.7-0.8c0-0.1-0.3-0.3-0.4-0.5C125.1,101.4,124.9,101.7,124.7,102z M126.2,99.8c-0.4-0.2-0.6-0.4-0.8-0.4
							c-0.1,0-0.3,0.3-0.4,0.4c0.2,0.1,0.3,0.3,0.5,0.3C125.6,100.2,125.8,100,126.2,99.8z"/>
					</g>
					<g>
						<path fill="#FFFFFF" d="M155.2,106.1c-0.1-0.7-0.3-1.4-0.4-2c0-0.3,0.1-0.6,0.3-0.9c0.1-0.3,0.4-0.5,0.6-0.7
							c0.5-0.4,0.3-0.8-0.1-1.1c-1-0.8-1-1.3,0-2.1c0.5-0.5,0.8-0.9,0.5-1.7c-0.2-0.6,0-1.3,0.2-1.9c0.2-0.6,0.1-0.9-0.3-1.4
							c-0.5-0.7-0.6-1.6-0.9-2.4c-0.1-0.4-0.3-0.8-0.5-1.1c-0.4-0.5-0.2-0.9,0.2-1.2c0.1-0.1,0.7,0.2,0.8,0.4
							c0.7,1.2,1.4,2.4,1.9,3.7c0.2,0.6,0.2,1.4,0.1,2.1c-0.1,1.8-0.4,3.7-0.5,5.5c0,0.9,0.2,1.9,0.3,2.9c0,0.4,0,0.8,0,1.1
							c0,0.4-0.3,0.7-0.2,1.1c0.2,0.9-0.5,1-1,1.2C155.7,107.4,155,106.6,155.2,106.1z"/>
					</g>
					<g>
						<path fill="#FFFFFF" d="M132.1,83.4c0.1,0.5,0.1,0.9,0.2,1.3c-0.5,0-0.9-0.1-1.2,0c-0.2,0.1-0.4,0.5-0.4,0.8
							c0,0.8-0.3,1.2-1.1,1c-0.9-0.2-1.6-0.3-2.5,0.2c-0.3,0.2-0.9-0.1-1.3-0.2c-0.7-0.2-1.5-0.6-2.2-0.8c-0.5-0.2-1-0.2-0.6-0.9
							c0.1-0.2,0.1-0.7,0-0.8c-0.5-0.6-0.1-1.2,0-1.7c0.1-0.5,0.4-0.5,0.8-0.2c0.2,0.2,0.4,0.4,0.6,0.5c1.7,1.5,3.7,1.2,5.7,1.2
							C130.6,83.7,131.3,83.5,132.1,83.4z"/>
					</g>
					<g>
						<path fill="#FFFFFF" d="M153.1,81.3c-1.1,0-1.9-0.6-2.6-1.3c-0.5-0.4-0.4-1,0-1.4c0.5-0.5,1-0.9,1.6-1.2
							c0.2-0.1,0.7,0.3,1,0.6c0.6,0.7,0.6,1.6,0.7,2.4C154,81.2,153.7,81.4,153.1,81.3z"/>
					</g>
					<g>
						<path fill="#FFFFFF" d="M141.6,115.2c-0.6-0.3-1.6,0-1.7-1.2c-0.1-0.7-0.7-1.3-1.1-1.9c-0.1-0.2-0.2-0.6-0.1-0.7
							c0.2-0.2,0.6-0.3,0.8-0.2c0.8,0.3,1.6,0.7,2.4,1.1c0.2,0.1,0.3,0.4,0.3,0.5C142,113.6,141.8,114.3,141.6,115.2z"/>
					</g>
					<g>
						<path fill="#FFFFFF" d="M143.5,67.2c1-0.3,1.9-0.5,2.9-0.8c0,0.3,0.1,0.5,0.1,0.7c-0.3,0.7,0.1,1.2,0.6,1.7
							c0.5,0.5,0.7,1.2,1,1.9c0,0-0.3,0.4-0.5,0.4c-0.5-0.1-0.9-0.2-1.3-0.4c-0.3-0.1-0.8-0.3-0.9-0.6c-0.1-0.3,0.2-0.8,0.3-1.1
							c0.1-0.2,0.3-0.4,0.4-0.6c-0.3,0-0.6-0.2-0.8-0.1C144.2,68.3,143.7,68.1,143.5,67.2z"/>
					</g>
					<g>
						<path fill="#FFFFFF" d="M142.6,70.4c-0.1,0.3-0.3,0.6-0.4,0.8c-0.3-0.2-0.5-0.4-0.8-0.7c-0.1-0.1-0.2-0.2-0.3-0.4
							c-0.1-0.2-0.2-0.4-0.3-0.6c0.2,0,0.5-0.1,0.7,0C142,69.6,142.7,69.5,142.6,70.4z"/>
					</g>
					<g>
						<path fill="#FFFFFF" d="M113.4,192.8c0.6,0,1.3,0,1.9,0c0.1,0,0.3,0.1,0.3,0.1c0.2,0.8,0.7,1.7,0.6,2.4
							c-0.1,0.9-0.9,1.5-1.9,1.6c-1.4,0.3-1.8,0.2-2.1-0.8c-0.3-1-0.4-2.2,0.2-3.2c0.1-0.2,0.5-0.3,0.8-0.4
							C113.4,192.6,113.4,192.7,113.4,192.8z"/>
					</g>
					<g>
						<path fill="#FFFFFF" d="M117.3,62.5c-1.6-1.1-2.7-0.4-3.6,1.2c-0.3,0.6-0.6,1-1.3,0.9c-0.5,0-1,0.2-1.5,0.3
							c-0.2,0.1-0.5,0.1-0.7,0.2c-0.1-0.1-0.1-0.2-0.2-0.2c0.4-0.5,0.8-1.1,1.3-1.5c1-0.8,2-1.6,3.1-2.2c0.8-0.4,1.8-0.4,2.7-0.5
							c0.1,0,0.5,0.5,0.5,0.8C117.7,61.9,117.5,62.2,117.3,62.5C117.3,62.5,117.3,62.5,117.3,62.5z"/>
					</g>
					<g>
						<path fill="#FFFFFF" d="M87.1,160.9c0.3-1.3,1-1.7,2.1-1.8c0.4,0,0.9-0.1,1.3-0.2c0.9-0.3,0.9-0.3,1.2,0.6
							C90.5,160.9,88.8,160.9,87.1,160.9z"/>
					</g>
					<g>
						<path fill="#FFFFFF" d="M114.1,57.5c0,1.5-0.9,2.1-1.8,2.7c-0.2,0.1-0.4,0.2-0.6,0.3c-0.8,0.8-1.6,1.6-2.5,2.4
							c-0.3-0.9,0.4-1.3,0.9-1.7c0.6-0.5,1.1-1,1.6-1.6c0.3-0.4,0.4-1,0.8-1.3C112.9,57.9,113.5,57.8,114.1,57.5z"/>
					</g>
					<g>
						<path fill="#FFFFFF" d="M116.5,71.6c-0.4-1.2,0.5-2.7,1.6-2.7c0.2,0,0.4,0.3,0.7,0.4c-0.1,0.2-0.3,0.5-0.4,0.5
							c-1-0.2-1.2,0.6-1.5,1.3C116.7,71.2,116.6,71.4,116.5,71.6z"/>
					</g>
					<g>
						<path fill="#FFFFFF" d="M81.6,157.3c0.7-0.1,1.4-0.3,2.2-0.5c0.1,0.2,0.3,0.4,0.5,0.8c-1,0.4-1.8,0.3-2.6,0
							C81.6,157.5,81.6,157.4,81.6,157.3z"/>
					</g>
					<g>
						<path fill="#FFFFFF" d="M84.5,178.2c-0.1-0.5-0.2-0.9-0.2-1.3c0.3,0,0.8-0.1,0.9,0C85.4,177.3,85.3,177.8,84.5,178.2z"/>
					</g>
					<g>
						<path d="M163.8,172.4c0.5,0.3,1,0.6,1.4,1c0,0-0.2,0.5-0.3,0.6c-0.7,0.4-1.2-0.2-1.6-0.6c-0.1-0.1-0.1-0.4,0-0.5
							C163.3,172.7,163.6,172.6,163.8,172.4z"/>
					</g>
					<g>
						<path d="M128.3,96.8c0,1.2-0.5,1.4-1.3,1c-0.2-0.1-0.4-0.1-0.6-0.2c-0.2-0.1-0.3-0.2-0.5-0.3c0.1-0.2,0.2-0.5,0.4-0.6
							c0.5-0.1,1-0.2,1.5-0.2C128,96.4,128.2,96.7,128.3,96.8z"/>
					</g>
					<g>
						<path d="M124.7,102c0.2-0.3,0.4-0.6,0.6-1c0.2,0.2,0.5,0.4,0.4,0.5c-0.2,0.3-0.4,0.5-0.7,0.8
							C124.9,102.2,124.8,102.1,124.7,102z"/>
					</g>
					<g>
						<path d="M126.2,99.8c-0.4,0.2-0.6,0.3-0.8,0.3c-0.2,0-0.3-0.2-0.5-0.3c0.1-0.1,0.3-0.4,0.4-0.4
							C125.5,99.4,125.7,99.6,126.2,99.8z"/>
					</g>
				</g>
			</g>
			<g>
				<g>
					<g>
						<path fill="#FFFFFF" d="M225.1,74.8c0.4,1.7-1.5,2.1-2.3,1.9c-0.8-0.2-2.5-0.3-2.5-0.3s-1.7,0-2.5,0.3
							c-0.8,0.2-2.7-0.1-2.3-1.9c0.4-1.7,2-1.6,2.5-4c0.4-2.3,2.3-2.2,2.3-2.2s1.9-0.1,2.3,2.2C223.1,73.1,224.7,73.1,225.1,74.8
							L225.1,74.8z M222,68.5c1,0.3,2.1-0.5,2.5-1.8c0.4-1.3-0.2-2.5-1.2-2.8c-1-0.3-2.1,0.5-2.5,1.8C220.5,67,221,68.2,222,68.5
							L222,68.5z M226.2,68.1c-1-0.4-2.2,0.3-2.7,1.5c-0.5,1.2-0.1,2.5,0.9,2.9c1,0.4,2.2-0.3,2.7-1.5
							C227.5,69.8,227.1,68.4,226.2,68.1L226.2,68.1z M218.5,68.5c1-0.3,1.5-1.6,1.2-2.8c-0.4-1.3-1.5-2.1-2.5-1.8
							c-1,0.3-1.5,1.6-1.2,2.8C216.4,68,217.5,68.8,218.5,68.5L218.5,68.5z M216.2,72.5c1-0.4,1.4-1.7,0.9-2.9
							c-0.5-1.2-1.7-1.9-2.7-1.5c-1,0.4-1.4,1.7-0.9,2.9C214,72.2,215.2,72.9,216.2,72.5L216.2,72.5z M216.2,72.5"/>
					</g>
				</g>
			</g>
			<g>
				<g>
					<g>
						<path fill="#FFFFFF" d="M35.3,74.8c0.4,1.7-1.5,2.1-2.3,1.9c-0.8-0.2-2.5-0.3-2.5-0.3s-1.7,0-2.5,0.3
							c-0.8,0.2-2.7-0.1-2.3-1.9c0.4-1.7,2-1.6,2.5-4c0.4-2.3,2.3-2.2,2.3-2.2s1.9-0.1,2.3,2.2C33.3,73.1,34.9,73.1,35.3,74.8
							L35.3,74.8z M32.2,68.5c1,0.3,2.1-0.5,2.5-1.8c0.4-1.3-0.2-2.5-1.2-2.8c-1-0.3-2.1,0.5-2.5,1.8C30.7,67,31.2,68.2,32.2,68.5
							L32.2,68.5z M36.4,68.1c-1-0.4-2.2,0.3-2.7,1.5c-0.5,1.2-0.1,2.5,0.9,2.9c1,0.4,2.2-0.3,2.7-1.5
							C37.8,69.8,37.4,68.4,36.4,68.1L36.4,68.1z M28.8,68.5c1-0.3,1.5-1.6,1.2-2.8c-0.4-1.3-1.5-2.1-2.5-1.8
							c-1,0.3-1.5,1.6-1.2,2.8C26.7,68,27.8,68.8,28.8,68.5L28.8,68.5z M26.4,72.5c1-0.4,1.4-1.7,0.9-2.9c-0.5-1.2-1.7-1.9-2.7-1.5
							c-1,0.4-1.4,1.7-0.9,2.9C24.3,72.2,25.5,72.9,26.4,72.5L26.4,72.5z M26.4,72.5"/>
					</g>
				</g>
			</g>
		</g>
	</g>
</g>
</svg>
