<?xml version="1.0" encoding="utf-8"?>
<!-- Generator: Adobe Illustrator 18.1.1, SVG Export Plug-In . SVG Version: 6.00 Build 0)  -->
<svg version="1.1" id="Layer_1" xmlns="http://www.w3.org/2000/svg" xmlns:xlink="http://www.w3.org/1999/xlink" x="0px" y="0px"
	 viewBox="0 0 61.7 61.7" enable-background="new 0 0 61.7 61.7" xml:space="preserve">
<g>
	<circle fill="#BC29CC" cx="30.8" cy="30.8" r="30.8"/>
	<g>
		<path fill="#FFFFFF" d="M21.8,27.8c0.3,0.2,1.1,0.8,2.6,1.8c1.4,1,2.5,1.8,3.3,2.3c0.1,0.1,0.3,0.2,0.5,0.4
			c0.3,0.2,0.5,0.4,0.7,0.5c0.2,0.1,0.4,0.3,0.7,0.4c0.3,0.2,0.5,0.3,0.7,0.3c0.2,0.1,0.4,0.1,0.6,0.1h0c0.2,0,0.4,0,0.6-0.1
			c0.2-0.1,0.5-0.2,0.7-0.3c0.3-0.2,0.5-0.3,0.7-0.4c0.2-0.1,0.4-0.3,0.7-0.5c0.3-0.2,0.4-0.3,0.5-0.4c0.8-0.5,2.7-1.9,5.9-4.1
			c0.6-0.4,1.1-0.9,1.5-1.5c0.4-0.6,0.6-1.2,0.6-1.9c0-0.6-0.2-1-0.6-1.4c-0.4-0.4-0.9-0.6-1.4-0.6H21.6c-0.6,0-1.1,0.2-1.5,0.7
			c-0.3,0.4-0.5,1-0.5,1.6c0,0.5,0.2,1.1,0.7,1.7C20.8,26.9,21.3,27.4,21.8,27.8L21.8,27.8z M21.8,27.8"/>
		<path fill="#FFFFFF" d="M40.8,29.1c-2.7,1.9-4.8,3.3-6.2,4.3c-0.5,0.4-0.9,0.6-1.2,0.8c-0.3,0.2-0.7,0.4-1.2,0.6
			c-0.5,0.2-1,0.3-1.4,0.3h0c-0.4,0-0.9-0.1-1.4-0.3c-0.5-0.2-0.9-0.4-1.2-0.6c-0.3-0.2-0.7-0.5-1.2-0.8c-1.1-0.8-3.2-2.3-6.2-4.3
			c-0.5-0.3-0.9-0.7-1.3-1.1v9.9c0,0.6,0.2,1,0.6,1.4c0.4,0.4,0.9,0.6,1.4,0.6h18.4c0.6,0,1-0.2,1.4-0.6c0.4-0.4,0.6-0.9,0.6-1.4V28
			C41.7,28.4,41.3,28.8,40.8,29.1L40.8,29.1z M40.8,29.1"/>
	</g>
</g>
</svg>
