<?xml version="1.0" encoding="utf-8"?>
<!-- Generator: Adobe Illustrator 18.1.1, SVG Export Plug-In . SVG Version: 6.00 Build 0)  -->
<svg version="1.1" id="Layer_1" xmlns="http://www.w3.org/2000/svg" xmlns:xlink="http://www.w3.org/1999/xlink" x="0px" y="0px"
	 viewBox="0 0 61.7 61.7" enable-background="new 0 0 61.7 61.7" xml:space="preserve">
<g>
	<circle fill="#BC29CC" cx="30.8" cy="30.8" r="30.8"/>
	<g>
		<g>
			<path fill="#FFFFFF" d="M36.6,19.6l-2.9,0c-3.3,0-5.4,2.2-5.4,5.5v2.5h-2.9c-0.3,0-0.5,0.2-0.5,0.5v3.7c0,0.3,0.2,0.5,0.5,0.5
				h2.9v9.3c0,0.3,0.2,0.5,0.5,0.5h3.8c0.3,0,0.5-0.2,0.5-0.5v-9.3h3.4c0.3,0,0.5-0.2,0.5-0.5l0-3.7c0-0.1,0-0.2-0.1-0.3
				c-0.1-0.1-0.2-0.1-0.3-0.1H33v-2.2c0-1,0.2-1.6,1.6-1.6l2,0c0.3,0,0.5-0.2,0.5-0.5v-3.4C37,19.8,36.8,19.6,36.6,19.6L36.6,19.6z
				 M36.6,19.6"/>
		</g>
	</g>
</g>
</svg>
