<?xml version="1.0" encoding="utf-8"?>
<!-- Generator: Adobe Illustrator 18.1.1, SVG Export Plug-In . SVG Version: 6.00 Build 0)  -->
<svg version="1.1" id="Layer_1" xmlns="http://www.w3.org/2000/svg" xmlns:xlink="http://www.w3.org/1999/xlink" x="0px" y="0px"
	 viewBox="0 0 61.7 61.7" enable-background="new 0 0 61.7 61.7" xml:space="preserve">
<g>
	<circle fill="#BC29CC" cx="30.8" cy="30.8" r="30.8"/>
	<g>
		<path fill="#FFFFFF" d="M31.4,24.5v-4.9h-3.1c-0.1,0.2-0.1,0.4-0.1,0.6c0,0.1-0.1,0.2-0.1,0.3c-0.3,1.8-1.3,3.1-2.8,3.8
			c-0.5,0.2-0.9,0.3-1.4,0.2v3.9h2.3c0,5.5,0,8.4,0,8.5v0.3c0.3,2.4,1.5,3.9,3.8,4.4c0.9,0.3,1.9,0.4,2.8,0.4c1.3,0,2.5-0.3,3.7-0.6
			v-4.6c-0.7,0.2-1.4,0.4-1.9,0.6c-1.1,0.3-2.1,0.1-2.8-0.6c-0.1-0.1-0.2-0.3-0.2-0.4c-0.1-0.6-0.2-1.2-0.2-1.8v-6.1h5v-3.9H31.4z
			 M31.4,24.5"/>
	</g>
</g>
</svg>
