<?xml version="1.0" encoding="utf-8"?>
<!-- Generator: Adobe Illustrator 18.1.1, SVG Export Plug-In . SVG Version: 6.00 Build 0)  -->
<svg version="1.1" id="Layer_1" xmlns="http://www.w3.org/2000/svg" xmlns:xlink="http://www.w3.org/1999/xlink" x="0px" y="0px"
	 viewBox="0 0 61.7 61.7" enable-background="new 0 0 61.7 61.7" xml:space="preserve">
<g>
	<circle fill="#D89ECC" cx="30.8" cy="30.8" r="30.8"/>
	<g>
		<g>
			<path fill="#FFFFFF" d="M33,33.7c-0.4,0.4-0.1,1.1-0.1,1.1l2.8,4.8c0,0,0.5,0.6,0.9,0.6c0.4,0,0.8-0.3,0.8-0.3l2.3-3.2
				c0,0,0.2-0.4,0.2-0.8c0-0.5-0.8-0.6-0.8-0.6l-5.3-1.7C33.8,33.5,33.3,33.3,33,33.7L33,33.7z M32.7,31.3c0.3,0.5,1,0.3,1,0.3
				L39,30c0,0,0.7-0.3,0.8-0.7c0.1-0.4-0.1-0.9-0.1-0.9l-2.5-3c0,0-0.2-0.4-0.7-0.4c-0.5,0-0.8,0.6-0.8,0.6l-3,4.7
				C32.7,30.4,32.4,30.8,32.7,31.3L32.7,31.3z M30.2,29.4c0.6-0.2,0.7-1.1,0.7-1.1l0-7.6c0,0-0.1-0.9-0.5-1.2
				c-0.7-0.4-0.9-0.2-1-0.2l-4.4,1.6c0,0-0.4,0.1-0.7,0.5c-0.3,0.5,0.3,1.3,0.3,1.3l4.6,6.3C29.2,29.1,29.6,29.6,30.2,29.4
				L30.2,29.4z M29.1,32.5c0-0.6-0.7-0.9-0.7-0.9l-4.7-2.4c0,0-0.7-0.3-1-0.1c-0.3,0.2-0.5,0.4-0.5,0.7l-0.3,3.8c0,0,0,0.7,0.1,1
				c0.2,0.4,1,0.1,1,0.1l5.5-1.2C28.7,33.3,29.1,33.3,29.1,32.5L29.1,32.5z M30.5,34.5c-0.5-0.2-1,0.3-1,0.3l-3.7,4.1
				c0,0-0.5,0.6-0.3,1c0.1,0.4,0.3,0.5,0.6,0.7l3.7,1.2c0,0,0.5,0.1,0.8,0c0.5-0.1,0.4-0.9,0.4-0.9l0.1-5.5
				C30.9,35.3,30.9,34.8,30.5,34.5L30.5,34.5z M30.5,34.5"/>
		</g>
	</g>
</g>
</svg>
