<?xml version="1.0" encoding="utf-8"?>
<!-- Generator: Adobe Illustrator 18.1.1, SVG Export Plug-In . SVG Version: 6.00 Build 0)  -->
<svg version="1.1" id="Layer_1" xmlns="http://www.w3.org/2000/svg" xmlns:xlink="http://www.w3.org/1999/xlink" x="0px" y="0px"
	 viewBox="0 0 18.2 16.8" enable-background="new 0 0 18.2 16.8" xml:space="preserve">
<g>
	<g>
		<path fill="#FFFFFF" d="M2.8,2.5c-0.5-2.2,1.9-2.7,3-2.4c1.1,0.3,3.3,0.3,3.3,0.3s2.2,0,3.3-0.3c1.1-0.3,3.5,0.2,3,2.4
			c-0.5,2.2-2.6,2.1-3.2,5.2c-0.6,3-3.1,2.8-3.1,2.8s-2.5,0.2-3.1-2.8C5.5,4.7,3.3,4.8,2.8,2.5L2.8,2.5z M6.9,10.7
			c-1.3-0.4-2.8,0.7-3.3,2.3c-0.5,1.7,0.2,3.3,1.5,3.7c1.3,0.4,2.8-0.7,3.3-2.3C8.9,12.7,8.2,11.1,6.9,10.7L6.9,10.7z M1.4,11.3
			c1.3,0.5,2.8-0.4,3.5-2C5.5,7.7,5,6,3.8,5.5C2.5,5,0.9,5.9,0.3,7.5C-0.4,9.1,0.1,10.8,1.4,11.3L1.4,11.3z M11.4,10.7
			c-1.3,0.4-2,2-1.5,3.7c0.5,1.7,1.9,2.7,3.3,2.3c1.3-0.4,2-2,1.5-3.7C14.1,11.4,12.7,10.3,11.4,10.7L11.4,10.7z M14.5,5.5
			c-1.3,0.5-1.8,2.2-1.1,3.8c0.7,1.6,2.2,2.5,3.5,2c1.3-0.5,1.8-2.2,1.1-3.8C17.3,5.9,15.7,5,14.5,5.5L14.5,5.5z M14.5,5.5"/>
	</g>
</g>
</svg>
