<?xml version="1.0" encoding="utf-8"?>
<!-- Generator: Adobe Illustrator 18.1.1, SVG Export Plug-In . SVG Version: 6.00 Build 0)  -->
<svg version="1.1" id="Layer_1" xmlns="http://www.w3.org/2000/svg" xmlns:xlink="http://www.w3.org/1999/xlink" x="0px" y="0px"
	 viewBox="0 0 16.4 15.1" enable-background="new 0 0 16.4 15.1" xml:space="preserve">
<g>
	<g>
		<path d="M13.8,12.8c0.4,2-1.7,2.5-2.7,2.2c-1-0.3-2.9-0.3-2.9-0.3s-2,0-2.9,0.3c-1,0.3-3.2-0.2-2.7-2.2c0.4-2,2.4-1.9,2.9-4.6
			C6,5.5,8.2,5.7,8.2,5.7s2.2-0.2,2.8,2.5C11.5,10.9,13.4,10.8,13.8,12.8L13.8,12.8z M10.2,5.5c1.2,0.3,2.5-0.6,2.9-2.1
			c0.4-1.5-0.2-3-1.4-3.3c-1.2-0.3-2.5,0.6-2.9,2.1C8.4,3.7,9,5.1,10.2,5.5L10.2,5.5z M15.1,4.9C14,4.5,12.6,5.3,12,6.7
			c-0.6,1.4-0.1,3,1,3.5c1.1,0.5,2.5-0.3,3.1-1.8C16.7,7,16.3,5.4,15.1,4.9L15.1,4.9z M6.2,5.5C7.4,5.1,8,3.7,7.5,2.2
			C7.1,0.7,5.8-0.3,4.6,0.1C3.4,0.4,2.8,1.9,3.2,3.4C3.7,4.9,5,5.8,6.2,5.5L6.2,5.5z M3.4,10.2c1.1-0.5,1.6-2,1-3.5
			c-0.6-1.4-2-2.2-3.1-1.8c-1.1,0.5-1.6,2-1,3.5C0.8,9.8,2.2,10.6,3.4,10.2L3.4,10.2z M3.4,10.2"/>
	</g>
</g>
</svg>
