<?xml version="1.0" encoding="utf-8"?>
<!-- Generator: Adobe Illustrator 18.1.1, SVG Export Plug-In . SVG Version: 6.00 Build 0)  -->
<svg version="1.1" id="Layer_1" xmlns="http://www.w3.org/2000/svg" xmlns:xlink="http://www.w3.org/1999/xlink" x="0px" y="0px"
	 viewBox="0 0 118.7 158.5" enable-background="new 0 0 118.7 158.5" xml:space="preserve">
<g>
	<g>
		<polygon fill="#FFFFFF" points="38.4,23.4 43.5,16.2 53.7,6.5 55.9,3.2 58.2,2.8 58.9,2.4 63.3,2.2 63.1,0 68.5,2 69.8,3.2 
			71.8,2.6 76.9,2.7 78.1,3.8 80.9,3.9 82.1,4.3 83.5,5.9 84.1,7.6 88.2,11.8 95.1,20 99.8,25.6 102.6,29.4 102.6,29.8 102,37.2 
			101.8,54.3 99.1,64 101.8,77.1 102.4,107.3 97.5,119.6 101.8,145.2 92.3,152.6 85.1,155 72.5,150.6 70.6,147.8 69.3,142.8 
			65.9,139.5 61,129 58.1,141.9 55.5,155 48.2,157.7 34.7,155 28.9,141.7 29.1,137.1 29.4,131.5 19.6,132.3 11.8,130.3 3.9,120.9 
			27.8,76.2 33.7,61.9 40.4,59.1 39.5,40.5 41.5,29.6 		"/>
	</g>
	<g>
		<path fill="#FFFFFF" d="M57,14c0.8,0.3,1.3-0.2,1.8-0.7c0.8-0.9,1.7-1.1,2.7-0.5c0.6,0.3,1,0,1.4-0.4c0.2-0.2,0.4-0.5,0.6-0.8
			c-0.7-0.9-1.2,0-1.7,0.2c-0.1-0.2-0.2-0.3-0.2-0.4c0.5-0.9,1-1.8,1.7-2.6c0.3-0.4,1-0.5,1.6,0c1.1,0.9,1.1,0.9,2.2-0.1
			c0.6,0.6,1.3,1.2,1.9,1.8c0.4,0.4,0.9,0.5,1.2,0c0.3-0.4,0.5-1,0.6-1.5c0.1-1.6,0.1-3.2,0.2-4.8c0-0.2,0.2-0.4,0.3-0.6
			c0.2-0.3,0.4-0.6,0.6-1c-0.4,0.1-0.8,0.1-1.2,0.2c-0.6-0.3-1.3-0.6-2-0.9c-0.1,0.2-0.2,0.5-0.1,0.6c0.8,0.8,0.6,1.9,0.9,2.9
			c0.2,0.8,0.1,1.3-0.4,1.9c-0.3-0.2-0.5-0.3-0.7-0.5c-0.9-0.9-2.2-1.5-1.9-3.1C66.4,3.4,66,3,65.8,3c-1,0-1.3-0.7-1.7-1.4
			c-0.3-0.5-0.6-0.9-1-1.6c-0.3,0.6-0.5,0.9-0.6,1.2C62.3,2,61.8,2.2,61,2c-0.4-0.1-0.9-0.2-1.3-0.1c-0.3,0-0.6,0.3-0.7,0.5
			c-0.1,0.1,0.2,0.5,0.4,0.7c0.2,0.2,0.5,0.4,0.6,0.6c0.6,0.7,1.3,1,2.2,0.5c0.6-0.3,2.1,0.3,2.4,0.9c0.1,0.2,0.1,0.6,0,0.8
			c-0.5,0.7-2.3,0.9-3,0.4C61.2,6.1,60.8,6,60.4,6c-0.6,0-2.2-1.5-2.1-2.1c0,0,0-0.1,0-0.1c0.3-1.1,0.3-1.1-0.9-1
			c-0.3,0-0.6,0-0.9,0c-0.3,0.1-0.7,0.2-0.7,0.4c-0.1,0.3,0.1,0.7,0.3,0.9C57,5,57.8,5.8,58.7,6.6c0.2,0.2,0.3,0.5,0.3,0.7
			c0,0.1-0.4,0.4-0.5,0.3c-0.8-0.3-1.6-0.1-2.3,0.2c-0.1,0-0.2-0.1-0.2-0.1c0.1-0.5,0.4-1.1,0.3-1.2c-0.4-0.3-1.1-0.7-1.4-0.5
			c-1.1,0.5-2.3,1-3.2,1.8c-1.4,1.2-2.7,2.7-4,4.1c-1.3,1.4-3,2.6-4,4.3c-0.4,0.7-1.3,1.2-1.8,1.8c-0.3,0.4-0.4,1-0.4,1.5
			c0,0.1,0.3,0.4,0.4,0.4c0.6-0.4,1.3-0.8,1.8-1.2c0.3-0.2,0.4-0.6,0.6-0.9c0.7-0.9,1.4-1.8,2.2-2.7c0.3,0.2,1-0.8,1.6,0
			c-0.1,0.2-0.2,0.3-0.3,0.4c-1.1,1-2.1,2.1-3.2,3.1c-0.2,0.2-0.5,0.6-0.5,0.8c0.1,1.4-1,2.2-1.6,3.3c-0.5,0.9-1.1,1.7-1.5,2.7
			c-0.1,0.3,0.2,1,0.5,1.1c0.6,0.2,0.8-0.4,0.9-0.9c0.1-0.4,0.1-0.8,0.3-1.1c0.8-0.9,1.6-1.7,2.4-2.5c0.2-0.2,0.7-0.2,0.9-0.1
			c0.2,0.2,0.5,0.7,0.4,0.9c-0.5,1.9-1.8,3.5-3.1,4.9c-0.2,0.2-0.6,0.4-0.8,0.3c-0.8-0.3-1.3-0.2-2,0.4c-0.2,0.2-0.9,0.2-1.2,0.1
			c-0.2-0.1-0.3-0.6-0.3-0.9c0.1-0.6,0.3-1.3,0.6-1.8c0.4-0.9,1-1.8,1.4-2.7c0.1-0.2,0.1-0.7-0.1-0.8c-0.3-0.2-0.8-0.3-1-0.2
			c-0.5,0.4-1,0.9-1.3,1.5c-0.9,1.9-1.7,3.9-2.6,5.9c-0.2,0.6-0.4,1.1-0.1,1.5c0.8-0.3,1.4-0.7,2.1-0.8c0.8-0.2,1.7-0.2,2.6-0.2
			c0.1,0,0.4,0.3,0.4,0.4c0,1,0.2,2-0.9,2.6c-0.2,0.1-0.4,0.5-0.5,0.7c-0.7,1.7-1.3,3.3-2,5c-0.1,0.1-0.2,0.3-0.3,0.4
			c-1.8,2-1.2,4.5-1.5,6.8c0,0.1,0.2,0.3,0.2,0.4c0,0.7,0.3,1.5,0,2c-0.5,0.9-0.6,1,0.4,1.3c0.4,0.1,1,0.3,1.1,0.6
			c0.4,1,0.5,2.2-0.1,3.2C37,53.8,37,54.3,37,55c0,1.2,0.7,2.5-0.2,3.7c-0.4,0.5-0.9,1-1.4,1.4c-0.8,0.7-1.2,1.8-2.3,2.2
			c-0.5,0.2-0.8,0.6-0.9,1.3c0,0.4-0.4,0.7-0.6,1.1c-0.2,0.3-0.4,0.5-0.4,0.8c-0.2,1.5-0.6,2.9-2.2,3.6c-0.2,0.1-0.4,0.4-0.5,0.7
			c-0.5,2.2-1.8,3.8-3.8,4.7c-1.9,0.8-2.4,2.4-3.1,4c-0.5,1.1-1.3,1.8-2.5,1.8c-0.2,0-0.6,0.1-0.7,0.2c-0.4,1-0.8,1.9-1,2.9
			c-0.1,0.5-0.2,0.8-0.7,0.8c-1.1,0.1-2.2,0.1-3.3,0.2c-0.3,0-0.5,0.3-0.8,0.4c0.7,0.8,0.2,1.9,0.5,2.7c0.2,0.6,0,0.8-0.5,0.9
			c-2.7,1-4.3,3-5.2,5.5c-0.5,1.3-1.1,2.3-2.2,3.1c-0.5,0.4-1,0.9-1.5,1.4c-0.1,0.1-0.1,0.6,0,0.7c0.8,0.6,1.6,1,2.4,1.6
			c-0.4,0.7-1,1.3-1.2,1.9c-0.4,1.1-1.4,2-0.9,3.4c0,0.1-0.1,0.4-0.2,0.4c-0.7,0.1-0.7,0.7-0.8,1.2c-0.5,2.2-1,4.5-2.5,6.3
			c-0.6,0.7-0.3,1,0.6,1.2c0.6,0.1,1.4,0.4,1.6,0.8c0.5,1.2,0.9,2.4,1.2,3.7c0.2,1.1,0.2,2.3,1.7,2.5c0.1,0,0.1,0.1,0.2,0.1
			c0.9,0.5,1.9,1,2.8,1.5c0.3,0.1,0.5,0.4,0.7,0.5c0.5,0.3,1,0.7,1.5,0.8c0.8,0.3,1.6,0.4,2.2,1.2c0.3,0.5,0.8,0.9,1.3,1.2
			c0.6,0.4,1.3-0.1,1.1-0.8c-0.4-1.3,0.1-2.2,0.9-3.1c0.1-0.1,0.1-0.4,0.1-0.6c0-0.2-0.2-0.5-0.1-0.7c0.3-1.4,0.8-2.6,2.2-3.2
			c0.6-0.3,1-0.7,1.6-1c0.5-0.3,1-0.7,1.5-0.7c1,0,2,0,2.9,0.8c0.2,0.2,0.6,0.2,0.9,0.4c0.3,0.1,0.5,0.2,0.8,0.3
			c-0.2,0.2-0.3,0.5-0.5,0.6c-1.5,1.1-1.7,2.7-0.5,3.8c0.3,0.3,0.8,0.3,1.1,0.6c0.3,0.2,0.5,0.5,0.7,0.7c-0.2,0.2-0.4,0.6-0.7,0.7
			c-1,0.2-1.5,1-2,1.8c-0.2,0.4-0.4,0.6-0.9,0.6c-1.4-0.1-1.9,0.4-1.5,1.7c0.2,0.9-0.1,1.4-0.8,1.6c-0.6,0.2-1.4,0.5-1.9,0.3
			c-1.3-0.5-2.6-1.3-3.8-2c-0.8-0.4-1.2-1.3-2.3-1.4c-0.7,0-1.2,0.2-1.4,0.8c-0.2,0.5-0.3,1.1,0.4,1.5c0.5,0.3,1,0.6,1.6,0.8
			c1.2,0.5,1.5,0.9,1.6,2.2c0,0.2,0.2,0.6,0.5,0.7c0.9,0.3,1.9,0.5,2.8,0.8c0.8,0.3,1.6,0.7,2.4,1c0.8,0.2,1.4,0.4,1.8,1.3
			c0.2,0.4,0.8,0.7,1.2,0.7c0.3,0,0.8-0.5,1-0.8c0.3-0.4,0.5-1,0.8-1.5c0.1-0.3,0.2-0.6,0.4-1c0.1-0.3,0.2-0.6,0.4-0.7
			c0.8-0.7,1.8-0.5,2.7-0.5c0.1,0,0.4,0.5,0.3,0.8c-0.1,0.7-0.3,1.3-0.5,2c-0.5,2.2-1,4.3-0.3,6.5c-0.2,0.5-0.3,1.1-0.3,1.6
			c0,0.4,0,0.8,0,1.2c0,0.4,0,0.8,0,1.2c0.1,1.2,1.1,2.3,0.7,3.7c-0.2,0.7,0.7,1.4,1.6,1.2c0.9-0.2,1.7,0.2,2.1,0.8
			c0.5,1,1.1,2,1,3.3c-0.1,1,0.9,1.5,1.8,1.1c0.2-0.1,0.5-0.1,0.8-0.1c1.3,0.2,2.7,0,3.9,0.8c0.1,0,0.2,0,0.3,0c1,0,1.9,0,2.9,0
			c0.2,0,0.4,0,0.5,0.2c1.2,1.3,2.8,0.5,4.1,0.9c0,0,0.1,0,0.2-0.1c0.6-0.3,1.3-0.5,1.8-0.8c0.4-0.2,0.6-0.8,1.1-0.9
			c1.2-0.4,2.4-0.8,3.7-0.5c0.5,0.1,1,0.1,1.4,0.1c0.2,0,0.6-0.1,0.7-0.3c0.4-1.1,0.8-2.2,1.2-3.3c0-0.1,0-0.3-0.1-0.3
			c-0.6-0.5-0.4-1-0.3-1.6c0.1-0.7,0.2-1.4,0.2-2c0.1-1.1,0.1-2.2,0.9-3.1c0.2-0.2,0.2-0.7,0.3-1c0-0.9,0-1.7,0-2.6
			c0-0.1,0.2-0.3,0.2-0.4c0-0.4,0-0.7,0-1.1c0-0.2-0.1-0.5,0-0.7c0.2-0.7,0.4-1.4,0.5-2.1c0.1-0.6,0.3-1,1-1.1
			c0.6,0,1.1-0.5,1.7-0.4c0.6,0.1,1.3,0.1,1.6,0.9c0.4,1.4,1.7,2,2.8,2.7c0.5,0.3,1.1,0.1,1.5-0.3c0.3-0.4,0.7-0.7,1.1-1
			c0.9-0.7,1-1.2,0.6-2.2c-0.1-0.2-0.1-0.4-0.1-0.6c0.1-0.6,0.2-1.3,0.2-1.9c0-0.1-0.3-0.4-0.6-0.4c-0.2-0.1-0.5,0-0.8,0
			c0.2-1.7,0.3-3.2,1.2-4.7c0.4-0.7,0.6-1.1,1.5-1c0.6,0.1,0.6-0.1,0.5-0.8c-0.2-0.9-1.4-1.4-0.9-2.6c-0.8-1.2-0.6-2.5-0.5-3.7
			c0.1-1.4,0.2-2.8,0.6-4.1c0.3-0.9,0.4-1.8,0.4-2.7c0-0.3-0.4-0.5-0.5-0.8c-0.2,0.2-0.5,0.4-0.6,0.6c-0.2,0.5-0.4,1-0.5,1.4
			c-0.7-0.5-1.3-1-1.9-1.4c-0.1-0.1-0.5,0.1-0.6,0.2c-0.1,0.2-0.1,0.5,0,0.7c0.1,0.1,0.3,0.2,0.5,0.3c-1.4,1.7-1.4,1.8-0.5,2.6
			c-1.5,2.3-1.7,5-2.1,7.9c-0.2-0.3-0.4-0.5-0.4-0.6c-0.1-0.9-0.1-1.7-0.2-2.6c-0.1-1.1-0.2-2.2-0.4-3.3c0-0.4-0.3-0.8-0.7-0.4
			c-0.7,0.7-1.9,1.1-1.8,2.5c0.1,0.7-0.9,1.5-1.3,1.2c-0.7-0.5-1.4-1-1.8-1.6c-0.7-0.9-1.2-2-1.8-3c-0.1,0-0.3,0-0.4,0
			c-0.1,0.5-0.5,1-0.4,1.5c0.1,0.6,0.4,1.2,0.8,1.6c0.5,0.6,0.8,1.1,0.8,1.9c0,0.8,0.3,1.7,0.4,2.5c0.2,1,0.3,2,0.5,3
			c0.1,0.9,0.2,1.7,0.2,2.6c0,0.7-0.2,1.3-0.4,2.2c-0.3,0.1-0.8,0.4-1.3,0.6c-1.1,0.3-1.2,0.5-0.6,1.4c0.4,0.6,1,1.3,0.4,2.2
			c-0.1,0.1,0,0.3,0,0.4c0,0.5-0.1,1,0.1,1.5c0.4,1.2-0.4,2.6,0.5,3.7c0.1,0.1,0,0.4-0.1,0.6c-0.6,1.7-1.6,3.1-2.6,4.6
			c-0.5,0.7-0.7,1.5-1.6,1.4c-0.4-0.5-0.7-0.9-1-1.4c-0.2-0.3-0.4-0.6-0.5-0.9c-0.2-1.1-0.2-1.1-1.2-0.7c-1.1,0.4-1.1,0.9-0.6,2
			c0.3,0.5,0.4,1.2,0.4,1.8c0,0.6-0.3,1.2-0.5,1.9c-0.6-0.1-1.3-0.3-2.2-0.5c0,0.6-0.3,1.2,0,1.6c0.3,0.5,0.7,1.2,1.6,0.9
			c0.7-0.2,1,0.1,0.8,0.8c-0.2,1-0.8,1.5-1.6,1.9c-0.8,0.4-1.2,0.2-1.7-0.5c-0.5-0.8-1.2-1.6-1.7-2.4c-0.2-0.3-0.5-0.7-0.5-1
			c-0.1-1.1,0-2.2,0-3.3c-0.2,0-0.3-0.1-0.5-0.1c-0.2,0.3-0.4,0.5-0.5,0.8c-0.1,0.3,0,0.7-0.1,1c-0.5,1.5-1.1,2.9-1.8,4.7
			c-0.3-0.5-0.4-0.7-0.5-1c-0.1-0.4,0-0.8-0.2-1.1c-0.1-0.3-0.5-0.7-0.6-0.7c-0.3,0.1-0.6,0.4-0.8,0.7c-0.2,0.3-0.2,0.7-0.2,1
			c-0.4,0.1-0.8,0.2-1.1,0.2c-1.6,0.3-2.9-0.5-3.3-2c-0.1-0.4-0.1-0.6,0.4-0.8c1.3-0.4,2.1-1.7,1.8-3c-0.2-0.8-0.3-1.7-1.3-2.1
			c-0.1,0.7-0.3,1.4-0.4,2c-0.1,0.7,0,1.3,0,2c-0.1,0-0.2,0.1-0.3,0.1c-0.3-0.3-0.5-0.5-0.8-0.7c-0.4-0.3-0.8-0.7-1.2-0.7
			c-0.8,0-1-0.5-1.2-1c-0.2-0.5-0.2-1.1-0.3-1.6c-0.2-1.1-0.4-2.2-1.3-3.1c-0.4-0.4-0.7-1.2-0.8-1.8c-0.1-0.9-0.1-1.9,0-2.8
			c0.1-1,0.4-2.1,0.7-3.1c0.4-1.3,1.1-2.6,0.9-4.1c-0.1-0.8-0.2-1.7-0.2-2.5c0-1.4-0.4-2.7-0.9-3.7c0.5-1,1-2,1.4-2.9
			c0.2-0.4,0.1-1,0.4-1.2c0.7-0.8,0.5-1.6,0.1-2.3c-0.4-0.6-0.3-1.1,0-1.7c0.2-0.5,0.6-1,0.2-1.7c-0.6-0.9-0.5-1.4,0.3-2.2
			c0.1-0.2,0.3-0.6,0.2-0.6c-0.7-0.5-0.4-1.3-0.3-1.8c0.1-0.6,0.5-1.1,0.9-1.6c0.3-0.4,0.5-0.8-0.2-0.9c-0.7-0.1-1-0.6-0.9-1.2
			c0.2-1.2,0.5-2.4,0.9-3.6c0.3-0.9,0.4-1.6,0.2-2.5c-0.1-0.6,0-1.3,0.2-2c0.1-0.6-0.1-0.7-0.6-0.7c-0.6,0.1-1.3,0.1-1.9,0.1
			c-0.1-0.1-0.1-0.2-0.2-0.2c0.1-0.1,0.4-0.1,0.4-0.2c0.2-0.4,0.3-0.7,0.4-1.1c-0.4,0-0.8,0.1-1.2,0.1c-0.2,0-0.4,0.1-0.7,0.3
			c0.3-0.6,0.4-0.9,0.6-1.3c0.8-1.4,1.5-2.9,2.3-4.3c0.3-0.6,0.7-1.2,1-1.8c0.1-0.3,0.2-0.6,0.3-0.9c-0.3,0-0.7-0.2-1-0.1
			c-0.5,0.2-0.8,0.6-1.2,1c-0.7,0.7-1.4,1.5-2.2,2.3c-0.1-0.1-0.1-0.1-0.2-0.2c0.2-1.1,0.6-2.1,1.4-2.9c0.4-0.4,0.7-0.8,0.9-1.3
			c0.7-1.3,1.4-2.7,2.1-4c0.3-0.5,0.2-0.8-0.3-0.9c-0.2-0.1-0.6-0.1-0.7-0.2c-0.8-0.7-1-2.6-0.2-3.4c0.9-1,1.4-2,1.3-3.4
			c0-0.6,0.4-1.3,0.7-1.8c0.4-0.6,1-1,1.4-1.6c0.1-0.2,0-0.5,0.1-0.7c-0.2,0-0.5-0.1-0.7,0c-0.7,0.4-1.3,0.8-2,1.2
			c-0.2-0.3-0.4-0.7-0.7-1c-0.1-0.1-0.6-0.1-0.7,0.1c-0.5,0.6-0.8,1.3-1.3,2c-0.1,0.1-0.3,0.1-0.5,0.2c-0.1-0.2-0.2-0.4-0.2-0.5
			c-0.2-1.3,1.7-3.6,3-3.7c0.3,0,0.7-0.3,1-0.5c-0.2-0.3-0.4-0.6-0.6-0.7c-0.4-0.2-0.9-0.1-0.9-0.8c0-0.4-0.1-1,0.1-1.3
			c0.4-0.8,1-1.5,1.5-2.2c0.1-0.2,0.3-0.5,0.3-0.7c0.3-1.4,1.2-2.2,2.3-2.9c0.7-0.5,1.8-0.1,2.4,0.5c0.6,0.6,0.3,1.4,0.5,2
			c0.2,0.9,0.5,1.8,0.7,2.7c0.1,0.2,0.2,0.5,0.3,0.7c0.3-0.2,0.6-0.3,0.8-0.6c0.2-0.2,0.1-0.6,0.2-0.9c0.4-1.6,0.9-3.2,1.3-4.8
			c0.3-1.1,0.5-2.2,0.7-3.3c0.1-0.5,0.1-1.1,0.1-1.6c0-0.7,0-1.5-0.1-2.2c-0.1-0.5-0.1-1.1-0.4-1.4c-0.5-0.5-0.5-0.8-0.1-1.3
			c0.5-0.7,0.7-1.3-0.1-1.9C43.1,49.4,43,49.2,43,49c-0.4-1.8-0.7-3.6-0.5-5.4c0.1-0.9,0-1.9,0.3-2.7c0.4-1,1-2,1.6-2.9
			c0.6-0.9,1.1-1.6,0.4-2.7c-0.4-0.7-0.5-1.4,0.2-2.1c0.3-0.3,0.4-0.7,0.6-1.1c0.2-0.3,0.5-0.8,0.8-0.9C47,31,47,30.5,47.2,30
			c0.2-0.8,0.6-1.5,1-2.2c0.3-0.5,1-0.9,1.3-1.4c1.4-2,3.3-3.7,3.4-6c0.9-0.5,1.6-0.8,2.2-1.2c0.5-0.4,0.9-0.9,1.3-1.3
			c0.4-0.4,0.9-0.7,1.5-1.1c0.2,1-0.2,1.4-0.7,1.7c-1.7,1-2.1,3-3,4.5c-0.6,1-0.9,2.2-1.7,3.1c-0.6,0.7-0.7,1.6-0.6,2.4
			c0,0.2,0.2,0.5,0.3,0.6c0.2,0,0.5-0.1,0.7-0.3c0.2-0.2,0.2-0.5,0.3-0.8c0.2-0.5,0.3-0.9,0.5-1.4c0.1,0,0.2,0,0.2,0
			c-0.1,1,0.6,1.2,1.2,1.2c1.2,0,2.6,0.1,3.5-1.1c0.2-0.2,0.5-0.4,0.8-0.5c0.1,0.1,0.2,0.2,0.3,0.3c0.3,0.2,0.5,0.4,0.8,0.6
			c0.2-0.3,0.4-0.6,0.5-0.9c0.2-0.3,0.2-0.7,0.4-1c0.7-0.8,0.6-1.8,0.7-2.8c0-0.2-0.2-0.4-0.3-0.6c-0.1-0.1-0.4,0-0.5,0.1
			c-0.4,0.9-1.5,1.5-1.4,2.7c0,0.1-0.1,0.2-0.2,0.4c-0.1,0-0.1,0-0.2,0c0-0.7,0-1.4,0-2.1c0.2-0.3,0.6-0.5,0.8-0.8
			c0.4-0.8,0.7-1.7,1-2.6c0.2-0.6,0.4-1.2,0.6-1.8c0.1-0.3,0.1-0.7,0.3-0.9c0.7-1,0.7-1.7,0-2.5c-0.6,0.7-1.1,1.4-1.7,2
			c-0.6-0.1-1.2-0.1-1.8-0.2c0.1-0.2,0.2-0.5,0.2-0.8c0-0.3-0.1-0.5-0.2-0.8c-0.2,0.1-0.5,0.2-0.7,0.4c-0.2,0.1-0.3,0.3-0.7,0.6
			C57.2,14.8,57.1,14.4,57,14L57,14z M102.5,77.5c0.1-0.1,0.2-0.2,0.3-0.2c0.1,0,0.2,0,0.3,0.1c0.3,0,0.6,0.1,0.9,0.1
			c-0.1-0.3-0.1-0.6-0.2-0.8c-0.2-0.6-0.5-1.2-0.7-1.8c-0.4-1.2-0.9-2.5-1.3-3.7c-0.2-0.6-0.4-1.2-0.6-1.8c-0.1-0.4-0.1-0.9-0.3-1.2
			c-0.2-0.5-0.6-0.9-1-1.3c-0.6-0.6-0.5-0.8,0.2-1.1c0.5-0.2,1.2-0.5,1.3-0.9c0.4-1.6,0.9-3.3,0.9-5c0-0.9-0.1-1.9,0-2.9
			c0.2-2,0.5-3.9,1.3-5.8c0.2-0.4,0.2-0.9,0-1.2c-0.5-0.8-0.4-1.6-0.3-2.5c0.1-0.6-0.1-1.1-0.2-1.7c0-0.3-0.3-0.5-0.3-0.7
			c0.2-0.9-0.1-1.8-0.5-2.6c-0.8-1.3,0.6-2.8-0.3-4.1c-0.2-0.4,0.1-1.3-0.7-1.2c-0.6,0.1-1-0.4-1.5-0.5c0,0-0.1,0-0.2,0.1
			c-0.5,0.4-1,0.8-1.3,1.3c-0.6,0.7-1.1,0.9-1.8,0.3c-0.6-0.5-1.2-0.9-2-0.1c0.1-0.6,0.3-1,0.6-1.4c0.2-0.3,0.4-0.6,0.6-0.9
			c0.2-0.2,0.5-0.5,0.7-0.6c0.3-0.1,0.6-0.1,1-0.2c0.5-0.1,0.6-0.4,0.3-0.7c-0.6-0.7-1-1.4-1.1-2.4c-0.1-0.7-0.7-1.4-1-2.1
			c-0.4-0.8-0.8-1.5-1.2-2.3c-0.6-1-1.2-2-1.8-2.9c-0.1-0.1-0.2-0.4-0.3-0.4c-1-0.3-0.7-1.1-0.7-1.7c0.5-0.1,1-0.2,1.4-0.4
			c0.6-0.4,1.1-0.9,1.7-1.5c0.5,0.4,1,0.7,1.3,1.1c0.5,0.7,1,1.5,1.4,2.3c0.1,0.1,0,0.4-0.1,0.5c-0.2,0.1-0.4,0.1-0.6,0
			c-0.8-0.5-1.6-1-2.2-1.6c-0.7-0.7-1.2-0.5-1.8,0.2c0.2,0.1,0.4,0.1,0.5,0.3c0.8,0.6,1.6,1.1,2.2,1.9c0.8,1,1.7,2.1,3,2.2
			c1.6,0.1,2.4,1.2,3.4,2.1c0.2,0.2,0.5,0.4,0.7,0.5c0-0.3,0.2-0.7,0.1-1c-0.4-0.9-0.9-1.7-1.4-2.5c-0.9-1.3-2.1-2.4-2.8-3.7
			c-1.2-2.3-3-4.1-4.7-5.9c-0.4-0.4-1-0.6-1.4-1c-0.6-0.5-1.3-1-1.9-1.5c-0.1-0.1-0.1-0.5,0-0.5c0.6-0.5,1.1-1,2-0.7
			c0.3,0.1,0.7,0.2,1,0.2c0.2,0,0.4-0.2,0.6-0.3c-0.1-0.2-0.2-0.4-0.4-0.5c-0.4-0.1-0.9-0.1-1.3-0.2c-0.7-0.2-1.5-0.2-1.5-1.3
			c0-0.2-0.3-0.5-0.6-0.6c-0.6-0.3-1.3-0.4-1.9-0.6c-0.3-0.1-0.6-0.2-0.9-0.1c-0.5,0.1-0.9,0.1-0.9-0.6c0-0.2-0.2-0.5-0.3-0.7
			c0.2-0.2,0.4-0.3,0.6-0.4c0.1-0.1,0.2-0.4,0.2-0.5c-0.1-0.1-0.3-0.3-0.5-0.3c-0.7,0.1-1.4,0.3-2.2,0.4c0.1,0.1,0.1,0.1,0.2,0.2
			c-0.2,0.4-0.4,0.8-0.6,1.2c-0.1,0.3-0.3,0.8-0.2,0.8c0.9,0.7,1.1,2,2.5,2.2c0.9,0.1,1.2,0.8,1.2,1.7c0,0.3,0.2,0.6,0.2,0.9
			c0.2,0.6,0.5,1.2-0.5,1.4c-0.2,0-0.3,0.2-0.4,0.3c-0.2,0.2-0.4,0.4-0.6,0.5c-0.1,0-0.4-0.3-0.4-0.4c0-0.2,0.2-0.6,0.4-0.7
			c0.5-0.4,0.5-0.7,0.1-1.1c-1.1-1-2.2-2-3.3-3c-0.1-0.1-0.1-0.1-0.2-0.2c-0.8-1-1.2-2.2-3.1-2c-1.3,0.1-2.6,0.1-3.9,0.5
			c-0.2,0.1-0.3,0.3-0.5,0.4c0.2,0.2,0.3,0.4,0.5,0.5c0.4,0.1,0.8,0.1,1.2,0.2c0.7,0.1,1.4,0.2,2.1,0.3c0,0.1,0,0.2,0,0.3
			c-0.3,0.2-0.6,0.4-0.9,0.6c0-0.1,0-0.2,0-0.2c-0.5,0-1-0.2-1.3,0c-0.5,0.3,0,0.7,0.1,1c0.1,0.5-0.1,1-0.2,1.5c0,0.1-0.6,0-0.9,0
			c-0.8-0.2-1.3,0.3-1.2,1.1c0,0.3,0,0.6,0,1.1c-0.5-0.4-0.8-0.7-1.2-0.9c-0.7-0.3-1.4-0.4-2-0.6c-0.6-0.1-1.5,0.7-1.4,1.2
			c0.2,0.8,0.5,1.6,0.7,2.4c0.2,1,0.4,2,0.6,3c0.1,0.4,0.1,0.8,0.2,1.2c0.4-0.2,0.8-0.4,1.1-0.6c0.1,0,0.1-0.1,0.2-0.2
			c0.8-0.4,0.9-1,0.6-1.8c-0.1-0.3-0.3-0.5-0.3-0.7c-0.2-0.8-0.3-1.6-0.5-2.7c1.5,1.2,1.5,1.2,2.5,0.4c0.8,0.6,1.6,1.1,2.3,1.7
			c0.3,0.2,0.6,0.8,0.5,0.9c-0.4,0.6-0.9,1.1-1.4,1.6c-0.2-1.4-1.3-1-2.4-0.5c0.9,1.1,0,1.9-0.7,2.7c0.1,0.1,0.1,0.1,0.2,0.2
			c0.3-0.1,0.6-0.2,1-0.4c1.3,1,1.3,1,2.7,0.3c0.8,1,0.8,1,2.2,0.7c0.2,0,0.5,0,0.6,0.1c0.7,0.9,1.5,1.7,1.9,2.7
			c0.5,1.3,1.3,2.4,2.1,3.6c0.5,0.7,1.4,1.3,1.1,2.4c0,0.1,0,0.3,0.1,0.3c0.9,0.4,0.5,1,0.3,1.6c-0.2,0.8-0.5,1.6-0.4,2.3
			c0.2,0.8,0.9,1.4,1.4,2.2c0.3,0.4,0.6,0.9,0.7,1.4c0.1,0.3-0.2,0.8-0.5,0.9c-0.8,0.3-1.6,0.6-2.4,0.8c-0.3,0.1-0.6,0.2-1,0.4
			c0.2,0.2,0.2,0.4,0.3,0.5c0.7,0.5,1.4,1,2.1,1.6c0.9,0.7,0.8,1.4-0.2,1.9c-0.3,0.1-0.6,0.3-0.8,0.5c-0.9,0.8-0.9,0.8-0.1,1.7
			c0.1,0.2,0.2,0.4,0.2,0.6c0.3,1.7,0.6,3.4,0.9,5c0.1,0.7,0.2,1.4,0.3,2c0.1,0.6,0.1,1.2,0.1,1.8c0,0.6,0,1.2,0.1,1.9
			c0,1.1,0.1,2.1,0,3.2c0,0.2-0.3,0.4-0.5,0.4c-0.2,0-0.4-0.2-0.5-0.4c-0.1-0.2-0.2-0.4-0.2-0.6c0-0.9,0.2-1.9,0-2.8
			c-0.1-0.7-0.5-1.4-1-1.8c-0.5-0.5-0.9-0.1-1.1,0.6c-0.2,0.9-0.4,1.8-0.7,2.6c-0.1,0.3-0.5,0.4-0.8,0.7c-0.2-0.2-0.4-0.5-0.5-0.7
			c-0.2-0.4-0.3-0.8-0.6-1.1C79.2,60.1,79,59,78.7,58c-0.1-0.4-0.5-0.7-0.8-1.1c-0.1,0.4-0.1,0.8-0.2,1.5c-0.4,0.4-1.1,0.3-1.4-0.6
			c-0.2-0.5-0.2-1.1-0.2-1.7c0-0.9,0.1-1.8,0.1-2.6c0-0.7,0.1-1.3,0.8-1.8c0.6-0.4,0.5-1-0.1-1.3c-0.7-0.4-1.1-0.8-0.7-1.7
			c0.1-0.3-0.1-0.8-0.1-1.2c0-0.3,0-0.7,0.1-0.8c0.7-0.8,0.7-1.2,0-2c-0.3-0.4-0.6-1.2-0.5-1.7c0.2-0.5,0.1-0.8-0.2-1.3
			c-0.2-0.3-0.3-0.8-0.4-1.2c-0.5-1.5,0-3.2-0.8-4.7c-0.1-0.1,0.1-0.3,0.1-0.4c-0.1-0.4-0.2-0.8-0.4-1.1c-0.3-0.4-0.8-0.7-0.9-1.1
			c-0.3-0.9-0.5-1.9-0.7-2.9c-0.3-1.3-0.7-1.8-2-1.5c-1,0.2-2,0-2.9-0.5c-0.5-0.2-0.7-0.1-1,0.2c-0.6,0.6-1.2,1.2-2.1,0.5
			c-0.1-0.1-0.4-0.1-0.5,0c-0.4,0.3-0.8,0.7-1.3,0.9c-0.3,0.2-0.7,0.2-1.1,0.4c0-0.3,0.1-0.7,0.1-1c0-0.1,0.1-0.3,0.1-0.4
			c0-0.3,0-0.6,0-0.8c-0.4,0-0.9-0.1-1.1,0.1c-0.5,0.5-0.9,1.1-1.2,1.7c-0.1,0.2,0,0.6,0.2,0.8c0.2,0.3,0.6,0.4,0.8,0.7
			c0.2,0.3,0.4,1,0.3,1.1c-0.7,0.6-0.7,1.5-0.9,2.3c-0.3,1.3-0.3,1.3,0.5,1.9c0.1,0.8,0.2,1.4,0.2,2c0,0.8,0.2,1.6-0.6,2.3
			c-0.2,0.2-0.4,0.8-0.2,1.1c0.6,1,0,1.5-0.7,2c-0.6,0.6-0.9,1.2-0.5,2c0.1,0.2,0.1,0.5,0.1,0.8c0,0.1-0.1,0.1-0.1,0.2
			c-0.7-1-1.3-0.6-1.9,0c-0.1,0.1-0.3,0.3-0.4,0.3c-0.7,0.3-1,0.9-0.9,1.7c0,0.3-0.2,0.8-0.5,1c-0.4,0.3-0.9,0.4-1.4,0.5
			c-0.5,0.1-1.1,0.1-1,0.7c0,0.3,0.6,0.5,1,0.7c0.1,0,0.1,0.1,0.2,0.1c-0.1,0-0.2,0-0.2,0c0,0.6-0.2,1.2-0.1,1.7
			c0.1,0.7,0.3,1.5,0.4,2.2c0,0.3,0,0.8-0.1,0.8c-0.6,0.1-1.3,0.3-1.9,0.1c-0.3-0.1-0.5-0.8-0.6-1.3c-0.2-0.4-0.2-1-0.5-1.3
			c-0.5-0.5-0.7-1-0.3-1.7c0.1-0.2,0-0.6,0-1c-0.3,0-0.6,0.1-1,0.1c-0.3,0-0.6,0-0.8,0c-0.4,0-1-0.1-1.3,0.2
			c-0.2,0.2-0.2,0.8-0.1,1.3c0.1,0.8,0.4,1.7,0.5,2.5c0.2,1,0.4,2,0.6,2.9c0.1,0.3,0.2,0.7,0.3,1c0.4,1.4,0.8,2.8,1.3,4.2
			c0,0.1,0.7,0.3,0.7,0.2c0.3-0.6,0.8-1.2,0.6-1.7c-0.2-0.7-0.1-1.1,0.4-1.5c0.6-0.6,1.3-1.1,0.4-2.1c0.9-0.3,1.7-0.6,2.6-0.9
			c0.1,0,0.5,0.4,0.4,0.5c-0.1,0.3-0.3,0.7-0.6,0.9c-0.5,0.5-1.2,0.8-1.7,1.3c-0.2,0.2-0.2,0.9,0,1.2c0.2,0.3,0.8,0.4,1.2,0.4
			c0.9,0,1.4,0.4,1.6,1.3c0.1,0.3,0.2,0.5,0.3,0.7c0.5,1.1,1,2.1,1.6,3.2c0.1,0.2,0.4,0.4,0.6,0.6c0.2-0.2,0.5-0.4,0.5-0.6
			c0.1-0.3,0-0.7-0.1-1.1c-0.2-0.8-0.5-1.5-0.7-2.3c-0.1-0.2,0.1-0.7,0.2-0.8c0.2-0.1,0.6,0,0.9,0.1c0.3,0,0.6,0.1,0.9,0.2
			c0-0.3,0.1-0.7,0-1c-0.1-0.4-0.2-0.9-0.3-1.3c0.1,0,0.2-0.1,0.3-0.1c0.3,0.1,0.5,0.3,0.8,0.3c0.5,0.1,0.9,0,1.4,0.1
			c0-0.4,0-0.7-0.1-1.3c1-0.1,2.1-0.1,3.2-0.2c-0.1,0.5-0.2,0.8-0.2,1c0,0.3,0.2,0.5,0.2,0.8c0,0.9,0.4,1.2,1.2,0.8
			c0.2-0.1,0.3-0.2,0.5-0.1c0.7,0.3,0.9-0.2,1-0.7c0.1-0.4,0.4-0.8,0.5-1.2c0.1-0.4,0.3-0.7,0.2-1.1c0-1.3,0-1.3,1.2-0.9
			c-0.4,0.8,0,1,0.7,1c0.6,0,1.2,0.1,1.8,0.3c1.8,0.6,2.2,1.1,2,2.5c0,0.3-0.3,0.6-0.5,0.7c-0.1,0.1-0.4-0.1-0.6-0.2
			c-0.6-0.4-1.2-0.7-1.3-1.5c-1,0.1-1.1-0.8-1.6-1.3c-0.2-0.2-0.7-0.3-0.8-0.2c-0.2,0.2-0.3,0.6-0.4,0.9c-0.1,0.3-0.2,0.5-0.3,0.8
			c-0.2,0.6-0.5,1.2-0.4,1.8c0.1,0.6,0,0.7-0.4,0.9c-0.7,0.4-1.4,0.6-2.2,0.3c-0.6-0.2-1.1,0-1.3,0.6c-0.2,0.6,0.1,0.9,0.6,1.2
			c0.2,0.1,0.4,0.4,0.6,0.6c0.2,0.2,0.5,0.5,0.8,0.6c0.9,0.2,1.7,0.3,2.4,1.1c0.4,0.5,1,0.2,1.1-0.4c0-0.3,0-0.6,0.1-0.8
			c0.5-0.6,0.5-1.3,0.3-2c0-0.3,0.2-0.8,0.4-0.9c0.4-0.1,0.9-0.1,1.3,0.1c0.9,0.3,1,1.1,0.2,1.7c-0.2,0.1-0.4,0.3-0.5,0.5
			c-0.1,0.2-0.1,0.5-0.1,0.8c0.3,0,0.6,0.1,0.8,0c0.7-0.3,1.5-0.6,2.2-1c0.2-0.1,0.5-0.4,0.5-0.7c0.1-0.7,0.4-0.9,1.1-0.7
			c0.4,0.1,0.9,0.4,1.3,0.3c0.9-0.1,0.9,0.3,0.8,1c0,0.5,0,1.2,0.3,1.6c0.6,0.7,1,1.4,1.2,2.3c0.1,0.9,0.7,1.1,1.6,0.9
			c0.7-0.2,1.5-0.8,2.3,0c0.1,0.1,0.6,0,0.9-0.1c1-0.2,1.9-0.5,2.9-0.2c0.5,0.1,1.3,0,1.6-0.4c0.8-0.8,1.2-2,0.9-3.1
			c-0.3-1-0.3-1.9-0.3-2.9c0-0.8,0.2-1.4,0.8-1.9c0.8-0.7,1.7-1.4,2.4-2.1c0.7-0.6,1-1.4,0.8-2.4c-0.2-0.9,0-1.9,0.1-2.8
			c0-0.2,0.6-0.5,0.9-0.6c0.1,0,0.6,0.4,0.5,0.6c-0.1,0.7-0.2,1.4-0.6,2c-0.7,1-0.1,2-0.3,3c-0.1,0.4,0.9,1.1,1.5,1.6
			c0.3,0.3,0.7,0.6,0.9,0.9c0.4,0.7,0.8,1.4,1.1,2.1c0.3,0.7,0.6,1.5,0.5,2.2c-0.1,0.6-0.1,1,0.3,1.4c0.7,0.7,0.6,1.2-0.1,1.7
			c-0.5,0.4-0.5,0.8-0.3,1.3c0.8,1.7,1.5,3.3,2.3,4.9c-0.2,0.3-0.5,0.6-0.5,0.9c0.1,1,0.4,2,0.6,2.9c0.1,0.5,0.2,1.2,0,1.6
			c-0.4,0.8,0,1.2,0.3,1.8c0.4,0.7,0.5,1.6,0.6,2.4c0,0.1-0.4,0.2-0.5,0.4c-0.3,0.3-0.7,0.5-0.8,0.8c-0.1,0.8-0.5,0.9-1.1,0.8
			c-0.4,0-0.8-0.2-1.2-0.2c-0.2,0-0.6,0.4-0.5,0.6c0.3,0.7,0.7,1.3,1,2c0.1,0.3,0.3,0.5,0.4,0.8c0.2,0.6,0.3,1.2,0.4,1.8
			c-0.1,0.1-0.3,0.2-0.5,0.3c-0.8,0.8-1.6,1.6-2.4,2.3c-0.1,0.1-0.5,0.1-0.7-0.1c-0.4-0.2-0.7-0.9-1.1-0.3c-0.1,0.1,0.3,0.7,0.5,1.1
			c0,0.1,0.1,0.1,0.2,0.4c-0.5,0.3-1.1,0.6-1.7,0.8c-0.5,0.2-0.8,0.4-0.5,1c0.4,1.2-0.3,2.6-1.3,2.8c-1.1,0.2-1.2,0.3-1.1,1.5
			c0,0.2-0.1,0.3-0.1,0.5c0,1-0.9,2.2,0.5,2.9c-0.2,0.7-0.9,1.4,0,2.1c0.1,0.1,0,0.6-0.2,0.9c-0.2,0.4-0.4,0.7-0.7,1
			c-0.8-0.5-1.6-0.4-2.2,0.2c-1.4,1.2-2.8,2.5-4.2,3.8c-0.2,0.2-0.3,0.6-0.3,0.9c0.2,1-0.3,1.6-1.1,2.1c-0.3,0.2-0.6,0.4-0.8,0.6
			c-0.5,0-0.9,0-1.2,0.1c-0.6,0.3-1.1,0.7-1.7,0.9c-0.4,0.1-0.9,0-1.2-0.2c-0.1-0.1-0.2-0.7,0-1c0.6-1,0.1-1.7-0.4-2.4
			c-0.2-0.2-0.6-0.5-0.8-0.4c-0.3,0.1-0.4,0.5-0.5,0.8c-0.1,0.4,0,0.8-0.1,1.1c-0.4,1.2-0.1,2.4,0.4,3.6c0.1,0.2,0.2,0.5,0.1,0.6
			c-0.9,1.2-0.4,2.2,0.5,3c0.4,0.4,0.9,0.5,1.4,0.8c0.1-0.4,0.3-0.7,0.3-1.1c0.1-0.5,0.3-0.7,0.8-0.5c0.6,0.2,1.1,0.4,1.6-0.1
			c0.1-0.1,0.3-0.1,0.4,0c0.9,0.3,1.7,0.6,2.5,0.8c0,0.3-0.1,0.6-0.1,1c0,0,0.5,0.1,0.5,0.1c0.1-0.2,0.1-0.5,0.2-0.8
			c0.4,0.3,0.8,0.6,1.2,0.9c0.1,0.1,0.4,0,0.6,0c0-0.2,0-0.4-0.1-0.6c-0.4-0.7-1-1.3-1.4-2c-0.3-0.5,0.1-1.2,0.6-1.2
			c0.8,0,1.6,0,2.3-0.2c1-0.3,1.7,0,2.4,0.7c0.3,0.3,0.5,0.6,0.8,0.9c0.8,0.8,1.2,0.7,1.9,0c0.4-0.4,0.6-0.3,0.8,0.2
			c0.5,1.3,1,2.6,1.6,4c0.4,1,0.7,2.2,1.3,3.1c0.6,0.9,1,1.7,1.1,2.7c0.1,1.2,0.5,2.4,0.8,3.5c0.1,0.5,0.4,0.9,0.6,1.3
			c0.3,0.4,0.8,0.7,0.4,1.3c0,0.1,0.3,0.5,0.4,0.5c0.7,0,0.7,0.5,0.6,0.9c-0.5,1.1,0.1,2.2,0.3,3.2c0.1,0.4,0.2,0.7,0.2,1.1
			c0.1,2.1-0.7,4-1.4,6c-0.1,0.3-0.5,0.6-0.8,0.9c-0.3-0.6-0.4-1.1-0.6-1.4c-0.6-0.7-2.8-0.6-3.4,0.2c-0.4,0.6-0.9,0.6-1.3,0.2
			c-0.8-0.6-1.5-1.3-2.2-1.9c-0.3-0.2-0.8-0.3-1.2-0.5c0,0.4-0.1,0.9,0.1,1.2c0.2,0.4,0.3,0.7,0,1.1c-0.2,0.2-0.3,0.6-0.3,0.8
			c0.1,1-0.5,1.3-1.3,1.6c-0.3,0.1-0.6,0.2-0.8,0.4c-0.9,0.9-2,0.6-3.1,0.5c-0.3,0-0.7-0.3-0.7-0.5c0-1.4-0.6-2.5-1.6-3.4
			c-0.2-0.2-0.2-0.5-0.3-0.8c-0.3-0.8-0.5-1.7-1-2.4c-0.2-0.4-0.8-0.5-1.3-0.7c-0.2-0.1-0.6,0.2-0.7,0.4c-0.1,0.3,0,0.8,0.2,0.9
			c1.2,0.4,1.8,1.2,1.9,2.4c0,0.5,0.1,1.1-0.1,1.4c-0.3,0.3-0.9,0.2-1.4,0.2c-0.3,0-0.7,0-1-0.1c-0.8-0.2-1.7,0.2-2.2-0.9
			c-0.4-0.9-0.9-1.7-0.9-2.9c0-0.9-0.3-1.8,0.2-2.6c0,0-0.5-0.5-0.6-0.5c-0.3,0.2-0.8,0.5-0.8,0.8c-0.2,1-0.2,2-0.4,3.1
			c-0.1,0.4-0.2,0.8-0.3,1.3c-0.7-0.5-1.2-0.4-1.1,0c0.3,0.9,0.7,1.7,1.1,2.5c0.3,0.5,0.8,0.8,1.1,1.3c0.5,0.7,1.2,1.2,1.8,0.9
			c0.6-0.4,0.9,0,1.4,0.2c1.2,0.4,2.4,0.7,3.6,1c0.5,0.1,1,0.1,1.4,0.4c1.2,0.8,2.5,1.5,4,0.9c0.9-0.4,1.8-1,2.7-1.5
			c0.2-0.1,0.4-0.2,0.6-0.3c0.5-0.2,1-0.3,1.5-0.4c0.5-0.1,1-0.3,1.4-0.1c1.4,0.6,2.8,0.4,4-0.3c1.3-0.7,2.3-1.8,3.5-2.7
			c0.9-0.6,1.3-1.4,1.1-2.5c0-0.1,0-0.3,0.1-0.4c0.7-1,0.7-2.4,1.8-3.3c0.7-0.6,0.5-1.5-0.2-1.8c-0.7-0.3-0.7-0.7-0.7-1.3
			c0-0.4,0-0.9-0.1-1.3c-0.3-0.9-0.1-1.4,0.7-1.8c0.3-0.1,0.5-0.4,0.7-0.5c0.3-0.2,0.7-0.4,1-0.5c0.6-0.3,1.5-0.3,1.8-0.8
			c0.5-0.8,1-0.8,1.7-0.7c0.4,0.1,0.9,0.2,1.3,0.2c0.6,0,1.5,0,1.8-0.3c0.8-1,1.8-0.5,2.7-0.7c1-0.2,2-0.6,3-0.9
			c0.4-0.1,0.8-0.4,1.1-0.7c0.5-0.3,0.9-0.7,0.6-1.4c-0.2-0.4-0.2-1-0.3-1.4c-0.1-0.6-0.3-1.1-0.4-1.7c-0.1-0.6-0.3-1.3-0.2-1.9
			c0.5-1.9,0.3-2.5-1.1-3.9c-0.9-0.8-1.9-1.7-1.5-3.2c0.1-0.5-0.1-1.1-0.9-1.2c-1.4-0.2-2.7-0.6-4.1-0.8c-0.9-0.1-1.1-0.6-1.2-1.4
			c-0.1-0.8,0.2-1.2,1.2-1.2c-0.4-0.4-0.7-0.6-0.9-0.7c-0.8-0.5-1.1-1.3-1.1-2c0.1-1.1-0.1-1.7-1.2-1.9c0.1-0.2,0.1-0.4,0.2-0.5
			c0.4-1.1,0.2-1.3-0.9-1.5c-0.2,0-0.5-0.2-0.7-0.4c-0.5-0.6-0.5-1.2,0-1.9c0.3-0.4,0.6-0.8,0.1-1.3c-0.9-0.8-0.8-1.5,0.1-2.2
			c0.4-0.4,0.5-0.7,0.2-1.2c-0.4-0.6-0.6-1.2-0.8-1.9c-0.2-0.9-0.3-1.8,0.6-2.5c0.2-0.1,0.2-0.6,0.2-0.9c0-0.3-0.1-0.6-0.1-1
			c0-1,0-2-0.1-2.9c0-0.4-0.1-0.9-0.4-1.1c-0.4-0.4-0.4-0.6-0.2-1.1c0.4-0.8,0.3-1.6-0.5-2.1c-0.2-0.1-0.3-0.3-0.3-0.5
			c0.1-1.2,0.2-2.4,0.5-3.6c0.2-0.9,0.3-1.7-0.1-2.6c-0.1-0.2-0.2-0.6-0.1-0.8c0.3-1.4,0.1-1.7-1.1-2.5
			C103,78.6,102.8,78,102.5,77.5z M77,28.5c0.2,0.6,0.3,1.1,0.4,1.6c0.1,0.7,0.1,1.4,1,1.7c0.1,0,0.2,0.5,0.2,0.7
			c0,1.6,1.1,2.9,1.4,4.4c0,0.1,0.2,0.2,0.3,0.2c0.9,0.7,0.6,1.8,1.1,2.7c0.1,0.1-0.1,0.4-0.2,0.5c-0.1,0.2-0.3,0.3-0.4,0.5
			c-0.1,0.2-0.1,0.5-0.1,0.7c0.2,0,0.5,0,0.7,0c0.1,0,0.3-0.2,0.4-0.2c2.2,0.3,2.4-0.9,2.2-2.6c-0.1-0.4-0.1-0.9-0.3-1.2
			c-0.8-1-1.6-1.9-2.4-3c-0.7-0.9-1.7-1.8-1.5-3.2c0-0.3-0.2-0.6-0.3-0.8c-0.2-0.9-0.4-1.9-0.6-2.8c-0.1-0.5-0.4-1-0.5-1.5
			c-0.5,0.2-1,0.4-1.5,0.6c-0.3,0.1-0.6,0.3-0.8,0.2c-0.6-0.3-1.3-0.7-1.8-1.1c-0.4-0.3-0.9-0.5-1.2,0c-0.4,0.5-0.3,1.1,0.2,1.4
			c0.8,0.5,1.6,0.9,2.4,1.3c0.2,0.1,0.4,0,0.6-0.1C76.4,28.8,76.6,28.7,77,28.5z M55.3,109.3c-0.1,0-0.1,0-0.2,0
			c0.2-1.6,0.3-3.2,0.5-4.8c0.2-1.7,1.2-3.4,0.8-5.2c0-0.1,0.1-0.2,0.1-0.3c0.1-0.4,0.2-0.8,0.3-1.2c0.3-2.1-0.6-4.3,0.3-6.4
			c0.1-0.2-0.3-0.5-0.5-0.8c-0.2,0.2-0.5,0.3-0.5,0.6c-0.2,0.7-0.3,1.5-0.4,2.3c0,0.2-0.1,0.4-0.2,0.5c-0.8,0.3-0.6,0.9-0.5,1.5
			c0.1,0.9,0.3,1.9,0.3,2.8c0,0.6-0.1,1.3-0.2,2c-0.1,1.5-0.2,3-0.4,4.4c0,0.4-0.3,0.8-0.4,1.3c-0.2,1.1-0.4,2.2-0.4,3.3
			c0,0.5,0.1,1,0.3,1.5c0,0.1,0.7,0.2,0.8,0.1c0.2-0.4,0.2-0.8,0.3-1.2C55.3,109.4,55.3,109.4,55.3,109.3z M68.6,13.1
			c-0.1,0.1-0.1,0.2-0.2,0.2c-0.5,0-1,0-1.5,0.1c-0.7,0.2-1.4,0.4-2.1,0.6c-0.1,0-0.1,0.2-0.2,0.3c-0.4,0.6-0.8,1.2-1.3,1.8
			c-0.8,1-0.9,1.6-0.5,2.3c0.6,1.1,1.4,0.5,2.2,0.3c0.9-0.1,1.9-0.4,2.8-0.2c0.9,0.1,0.9-0.2,0.9-0.8c0-1.2,0.1-2.4,0.2-3.6
			C68.9,13.7,68.7,13.4,68.6,13.1z M53.8,38.7c-0.1,0-0.2,0-0.2-0.1c0.2-0.5,0.2-1.1,0.5-1.6c0.5-0.8,0.8-1.6,0.7-2.5
			c0-0.3-0.2-0.6-0.4-0.9c-0.3,0.2-0.7,0.3-0.9,0.5c-0.3,0.3-0.3,0.7-0.6,1c-1.1,1.1-1.3,1.9-0.7,3.4c0.1,0.2,0.1,0.6,0,0.7
			c-1.3,1-1,2.5-1,3.8c0,0.4,0,0.8,0.2,1.1c0.1,0.3,0.5,0.4,0.8,0.6c0.2-0.2,0.4-0.5,0.5-0.7c0.2-0.7,0.3-1.5,0.5-2.2
			C53.3,40.8,53.6,39.7,53.8,38.7z M70.4,140.9c-1-0.7-1.1,0.5-1.6,0.9c-0.1,0,0.3,0.7,0.4,1c0.1,0.3,0.3,0.6,0.4,0.9
			c0.1,0.5-0.1,1.2,0.2,1.5c0.6,0.8,0.7,1.6,0.7,2.5c0,0.5,0.5,1,0.8,1.4c0.3-0.4,0.8-0.9,0.8-1.3c0.2-1.9-0.1-3.8-0.7-5.7
			c-0.2-0.5-0.4-1.1,0.3-1.4c-0.3-0.4-0.5-0.7-0.9-1.1C70.8,140.2,70.6,140.5,70.4,140.9z M40.8,112c1.1,0.1,1.7,0.8,1.7,2
			c0,0.7,0.3,1.4,0.5,2.1c0.2,0.5,0.6,0.9,0.9,1.3c0.5,0.6,1,1.1,1.5,1.7c0.1,0.1,0.4,0.1,0.5,0.1c0.1,0,0.2-0.3,0.1-0.4
			c-0.4-0.6-0.8-1.2-1.2-1.9c-0.2-0.2-0.5-0.5-0.4-0.7c0.2-1-0.1-1.8-0.5-2.7c-0.5-1.1-0.8-2.4-1.3-3.6c-0.2-0.5-0.7-0.9-1.1-1.4
			c-0.1-0.1-0.5-0.2-0.6-0.1c-0.2,0.1-0.2,0.4-0.2,0.6C40.8,110,40.8,110.9,40.8,112z M46.3,64.8c-0.1,0.1-0.5,0.3-0.5,0.4
			c0.1,0.6,0.2,1.3,0.5,1.7c0.6,0.8,1.5,1.4,2.2,2.1c0.4,0.4,0.7,1,1.2,1.4c0.2,0.2,0.6,0.1,0.9,0.1c0-0.3,0-0.6-0.1-0.9
			c-0.1-0.3-0.4-0.6-0.5-0.9c-0.3-0.8-0.5-1.6-0.9-2.3C48.5,65.5,47.7,64.8,46.3,64.8z M77.5,109.2c-0.8,0.2-0.8,1.1-0.8,1.9
			c0.1,0.6-0.1,1-0.6,1.4c-0.5,0.4-1.1,0.8-1.2,1.5c1.6,0.2,2.8-1,2.7-2.8c0-0.4,0.3-0.9,0.4-1.3c0.1-0.3,0.5-0.7,0.4-0.9
			c-0.3-0.7,0.2-1.1,0.4-1.7c0.4-1.3,0.8-2.6,1.1-3.9c0-0.1-0.2-0.5-0.4-0.5c-0.2,0-0.5,0.2-0.5,0.4c-0.2,0.6-0.3,1.2-0.5,1.8
			c-0.2,0.8-0.5,1.7-0.7,2.5C77.9,107.9,77.7,108.4,77.5,109.2z M73.7,6.5c0.3-0.1,0.4-0.2,0.5-0.3c0.6-0.6,1.4-0.6,2.1-0.7
			C77,5.4,77.6,5,78.1,4.7c0.1-0.1,0.2-0.3,0.1-0.4c-0.2-0.5-0.4-1-0.8-1.4c-0.1-0.2-0.6-0.2-0.8-0.2c-1.4,0.4-2.1,1.6-3,2.6
			c-0.1,0.2-0.2,0.4-0.2,0.7C73.4,6.2,73.6,6.3,73.7,6.5z M92.3,90.4c-0.1-0.3-0.2-0.7-0.3-0.7c-0.2,0-0.5,0.1-0.6,0.2
			c-0.4,0.7-0.8,1.4-1,2.1c-0.3,1-0.4,2.1-0.7,3c-0.3,0.7-0.5,1.3,0.1,1.9c0.2,0.2,0.3,0.3,0.5,0.5c0.1-0.3,0.1-0.5,0.2-0.8
			c0.1-0.4,0.1-0.9,0.3-1.3c0.2-0.6,0.4-1.2,0.6-1.8c0.1-0.2,0-0.5,0.1-0.8C91.8,92,92.1,91.1,92.3,90.4z M79.3,38.5
			c-0.3-1-0.6-2.1-1-3.1c-0.1-0.2-0.5-0.4-0.7-0.6c-0.2,0.3-0.5,0.6-0.6,1c-0.1,0.2,0.2,0.6,0.1,0.9c-0.4,1.4,0.4,2.5,0.7,3.7
			c0,0.1,0.7,0.2,0.7,0.2C78.7,39.9,79,39.3,79.3,38.5z M51.8,65.7c0.3,0.6,0.5,1.1,0.7,1.5c0.1,0.2,0.4,0.4,0.5,0.3
			c0.2-0.1,0.3-0.3,0.4-0.5c0.2-0.7,0.2-1.5,0.4-2.1c0.2-0.7-0.1-0.9-0.6-0.8c-1.1,0.3-2.2,0.6-3.3,1.1c-0.2,0.1-0.4,0.8-0.3,1.1
			c0.3,0.5,0.8,0.6,1.3,0.2C51.2,66.2,51.5,66,51.8,65.7z M68.2,106c-0.4,0.2-0.8,0.3-0.9,0.6c-0.1,0.4-0.1,0.8-0.1,1.2
			c-0.1,1.1,0,2.4-1.3,3c-0.1,0,0,0.7,0.1,0.7c0.5,0.1,1.2,0.3,1.4,0.1c0.4-0.5,0.7-1.2,0.7-1.8C68.3,108.6,68.2,107.4,68.2,106z
			 M67,24.2c0.4,0.2,0.7,0.4,1.1,0.6c0.2-0.3,0.3-0.6,0.5-0.9c0.1-0.3,0.4-0.5,0.4-0.8c0.2-0.9,0.5-1.9,0.7-2.8
			c0-0.1-0.2-0.2-0.3-0.4c-0.4,0.3-0.8,0.5-1,0.8c-0.2,0.3-0.5,0.7-0.5,1C68,22.8,67.7,23.5,67,24.2z M89.1,147.9
			c-0.7-0.9-1.3-1.5-1.8-2c0,0-0.3,0-0.4,0.1c-0.6,0.5-1.2,1-1.8,1.5c-0.1,0.1,0.1,0.5,0.2,0.5c0.4,0.1,0.8,0.1,1.2,0
			c0.5-0.1,1-0.3,1.5,0.1C88.2,148.3,88.5,148,89.1,147.9z M64.1,26.1c0.2,0.4,0.3,0.7,0.5,1.1c0.4-0.2,0.9-0.4,1.2-0.8
			c0.3-0.4,0.6-0.8,0.7-1.3c0.1-0.3,0.1-0.7,0-0.9C66.4,24.1,66,24,65.7,24C64.8,24.1,64.2,25,64.1,26.1z M57.7,40.5
			c-1,0-1.5,0.7-1.6,1.4c-0.1,0.7-0.4,1.2-0.7,1.7c-0.4,0.6-0.1,1.5,0.3,1.6c0.8,0.1,0.9-0.5,1.1-1.1C57,42.9,57.3,41.7,57.7,40.5z
			 M99.9,34c-0.1,0.1-0.2,0.1-0.3,0.2c0.3,0.3,0.6,1,0.8,0.9c0.5-0.1,1-0.4,1.4-0.7c0,0-0.1-0.5-0.2-0.5c-0.8-0.1-0.7-0.6-0.7-1.2
			c0-0.3-0.5-0.6-0.8-0.8c-0.1-0.1-0.6,0.1-0.6,0.1c0,0.3,0,0.7,0,1.1C99.5,33.5,99.7,33.7,99.9,34z M78.8,76.2
			c0.4-0.4,0.6-0.6,0.7-0.8c0.5-0.9,1-1.9,1.5-2.8c0.1-0.1-0.3-0.6-0.3-0.6c-0.4,0.2-1,0.3-1.2,0.7c-0.4,0.9-0.7,1.8-1,2.8
			C78.5,75.6,78.7,75.8,78.8,76.2z M45.9,37.4c0.1,0,0.3,0,0.4,0c0.2-0.4,0.5-0.7,0.6-1.1c0.3-0.8,0.6-1.7,0.9-2.6
			c0.1-0.2,0.1-0.5,0.1-0.8c-0.3,0.1-0.7,0.1-0.8,0.3c-0.6,1.1-1.1,2.3-1.5,3.4C45.5,36.9,45.8,37.2,45.9,37.4z M85.5,87.4
			c-1.4-0.1-2.1,0.4-2.1,1.1c0,0.6,0,1.3,0,1.9c0,0.3,0.3,0.5,0.5,0.8c0.2-0.3,0.5-0.5,0.5-0.8C84.5,89.4,84.1,88.3,85.5,87.4z
			 M49.2,35.1c0.1,0.1,0.2,0.3,0.3,0.3c0.2,0,0.6,0,0.7-0.2c0.5-0.5,1-1.1,1.4-1.8c0.1-0.2,0.1-0.5,0-0.7c0-0.1-0.3-0.2-0.5-0.1
			C50.4,32.8,49.2,34.3,49.2,35.1z M82.9,57.1c0.4-0.5,0.5-2.4,0.1-2.9c-0.1-0.2-0.4-0.4-0.6-0.4c-0.2,0-0.5,0.3-0.6,0.5
			C81.5,55.1,82.1,56.5,82.9,57.1z M85.9,104.3c0.2,0.7,0.3,1.5,0.6,2.1c0.1,0.3,0.7,0.3,1.1,0.5c0.1-0.3,0.3-0.7,0.3-1
			c0-0.4-0.3-0.7-0.4-1.1C87.2,104.3,86.5,104.1,85.9,104.3z M88.3,125.2c0.1,0,0.3,0,0.4,0c0.2-0.4,0.5-0.9,0.7-1.3
			c0.4-1.5-1.4-0.1-1.5-1c-0.2,0.2-0.7,0.4-0.7,0.5C87.6,124,87.9,124.6,88.3,125.2z M83.7,110.4c0,0-0.2-0.2-0.3-0.3
			c-0.4,0.4-0.9,0.8-1.1,1.3c-0.1,0.2,0.4,1,0.6,1C83.9,112.2,83.5,111.2,83.7,110.4z M57.5,115.8c-0.4-0.3-0.7-0.8-0.8-0.7
			c-0.4,0.2-0.9,0.5-1.2,0.9c-0.1,0.1,0.4,0.6,0.7,0.9C56.5,116.6,56.9,116.3,57.5,115.8z M74,89.7c0.2,0.5,0.4,1,0.7,1.3
			c0.1,0.2,0.6,0,0.9,0.1c0-0.2,0.1-0.5,0-0.7c-0.2-0.3-0.4-0.6-0.7-0.9c-0.1-0.2-0.3-0.4-0.5-0.5C74.3,89.2,74.2,89.4,74,89.7z
			 M74.3,97.4c-0.2,0.3-0.4,0.5-0.6,0.7c0.2,0.1,0.4,0.4,0.5,0.3c0.3-0.1,0.7-0.3,0.7-0.5c0.1-0.5-0.1-1-0.2-1.5
			c0-0.1-0.5-0.2-0.6-0.1c-0.1,0.1-0.2,0.4-0.2,0.6C73.9,97.1,74.2,97.3,74.3,97.4z M92.5,145.8c0.2-0.1,0.4-0.1,0.6-0.2
			c0.2-0.2,0.4-0.4,0.6-0.7c-0.3-0.1-0.5-0.2-0.8-0.2c-0.3,0-0.7,0-1,0c-0.2,0-0.4,0.2-0.6,0.3c0.2,0.2,0.3,0.4,0.5,0.5
			C92,145.7,92.3,145.7,92.5,145.8z M74.5,11.5c-0.6-0.9-1.1-1-1.8-0.7c-0.2,0.1-0.4,0.4-0.5,0.7c0,0.1,0.2,0.4,0.3,0.4
			C73.1,11.7,73.7,11.6,74.5,11.5z M63,23.5c0.5-0.6,0.8-1.1,1.2-1.7c0,0-0.2-0.3-0.3-0.3c-0.5-0.1-1.4,1-1.3,1.4
			C62.6,23.1,62.8,23.2,63,23.5z M82,6.5c1,0.5,1,0.5,1.6-0.6c-1.1,0.5-2.2,0.2-3.1,1C81.3,7.8,81.6,7,82,6.5z M70.3,111.7
			c-0.9-0.3-1.2,0.1-1.4,0.6c-0.1,0.2,0,0.4,0,0.6c0.2,0,0.6,0,0.7-0.1C69.9,112.5,70.1,112.1,70.3,111.7z M80.7,4.7
			c0.1,0,0.2,0.1,0.2,0.1c0.4-0.2,0.8-0.3,1.2-0.6c0.1-0.1,0.1-0.4,0.1-0.6c-0.4,0.1-0.9,0.1-1.3,0.2C80.8,4,80.8,4.5,80.7,4.7z
			 M44.9,43.7c-0.2-0.3-0.4-0.5-0.6-0.7c-0.2,0.5-0.4,0.9-0.5,1.4c0,0.1,0.2,0.2,0.4,0.4C44.4,44.5,44.6,44.1,44.9,43.7z M45.2,40.5
			c-0.4,0.6-0.9,1.1-0.7,2.1C45.4,41.9,45.6,41.3,45.2,40.5z M73.4,144.6c0.2-0.1,0.3-0.2,0.5-0.3c-0.1-0.4-0.3-0.8-0.4-1.2
			c-0.3,0.2-0.5,0.4-0.8,0.5C72.9,144,73.1,144.3,73.4,144.6z M89.1,74.3c-0.1,0-0.3,0-0.4,0c0,0.3-0.2,0.7-0.1,0.8
			c0.3,0.2,0.7,0.2,1.1,0.3C89.5,75,89.3,74.6,89.1,74.3z M86.8,103c0.4-0.5,0.6-0.8,0.9-1.1c-0.2-0.1-0.4-0.2-0.5-0.1
			C86.8,101.9,86.4,102.2,86.8,103z M41.3,107.3c0.1-0.1,0.1-0.3,0.2-0.4c-0.2-0.1-0.6-0.3-0.6-0.2c-0.2,0.2-0.4,0.5-0.5,0.8
			c0,0.1,0.2,0.2,0.3,0.4C40.9,107.7,41.1,107.5,41.3,107.3z M95,144.7c-0.1,0.1-0.2,0.2-0.4,0.2c0.1,0.3,0.2,0.6,0.4,0.8
			c0.1,0.1,0.4-0.2,0.6-0.3C95.5,145.2,95.2,144.9,95,144.7z"/>
		<path d="M102.5,77.5c0.3,0.5,0.5,1.1,0.9,1.4c1.1,0.8,1.3,1.1,1.1,2.5c0,0.3,0,0.6,0.1,0.8c0.4,0.9,0.3,1.7,0.1,2.6
			c-0.3,1.2-0.4,2.4-0.5,3.6c0,0.1,0.2,0.4,0.3,0.5c0.8,0.6,0.9,1.3,0.5,2.1c-0.2,0.5-0.2,0.7,0.2,1.1c0.3,0.3,0.3,0.7,0.4,1.1
			c0.1,1,0,2,0.1,2.9c0,0.3,0.1,0.6,0.1,1c0,0.3,0,0.7-0.2,0.9c-0.9,0.7-0.8,1.6-0.6,2.5c0.1,0.7,0.4,1.3,0.8,1.9
			c0.3,0.5,0.3,0.8-0.2,1.2c-0.9,0.7-0.9,1.4-0.1,2.2c0.5,0.5,0.2,1-0.1,1.3c-0.5,0.7-0.5,1.3,0,1.9c0.2,0.2,0.4,0.4,0.7,0.4
			c1.1,0.2,1.3,0.4,0.9,1.5c0,0.1-0.1,0.3-0.2,0.5c1.1,0.2,1.3,0.8,1.2,1.9c-0.1,0.7,0.2,1.6,1.1,2c0.3,0.2,0.5,0.4,0.9,0.7
			c-1-0.1-1.3,0.4-1.2,1.2c0.1,0.8,0.3,1.3,1.2,1.4c1.4,0.2,2.7,0.6,4.1,0.8c0.9,0.1,1,0.7,0.9,1.2c-0.3,1.5,0.7,2.4,1.5,3.2
			c1.4,1.3,1.6,2,1.1,3.9c-0.2,0.6,0.1,1.2,0.2,1.9c0.1,0.6,0.2,1.1,0.4,1.7c0.1,0.5,0.1,1,0.3,1.4c0.4,0.8,0,1.1-0.6,1.4
			c-0.4,0.2-0.7,0.5-1.1,0.7c-1,0.4-2,0.7-3,0.9c-0.9,0.2-1.9-0.3-2.7,0.7c-0.3,0.4-1.2,0.3-1.8,0.3c-0.4,0-0.9-0.1-1.3-0.2
			c-0.7-0.1-1.2-0.2-1.7,0.7c-0.2,0.4-1.2,0.5-1.8,0.8c-0.4,0.1-0.7,0.3-1,0.5c-0.3,0.2-0.4,0.4-0.7,0.5c-0.9,0.3-1.1,0.9-0.7,1.8
			c0.2,0.4,0.2,0.9,0.1,1.3c-0.1,0.6,0,1.1,0.7,1.3c0.7,0.3,0.9,1.2,0.2,1.8c-1,0.9-1.1,2.2-1.8,3.3c-0.1,0.1-0.2,0.3-0.1,0.4
			c0.3,1.1-0.2,1.8-1.1,2.5c-1.2,0.9-2.2,2-3.5,2.7c-1.2,0.7-2.6,0.9-4,0.3c-0.4-0.2-0.9,0-1.4,0.1c-0.5,0.1-1,0.3-1.5,0.4
			c-0.2,0.1-0.4,0.2-0.6,0.3c-0.9,0.5-1.8,1.1-2.7,1.5c-1.5,0.6-2.8,0-4-0.9c-0.4-0.3-1-0.3-1.4-0.4c-1.2-0.3-2.4-0.6-3.6-1
			c-0.5-0.2-0.8-0.6-1.4-0.2c-0.6,0.4-1.3-0.1-1.8-0.9c-0.3-0.5-0.8-0.8-1.1-1.3c-0.4-0.8-0.8-1.6-1.1-2.5c-0.1-0.4,0.4-0.4,1.1,0
			c0.1-0.5,0.3-0.9,0.3-1.3c0.1-1,0.2-2.1,0.4-3.1c0.1-0.3,0.5-0.6,0.8-0.8c0.1,0,0.6,0.4,0.6,0.5c-0.5,0.9-0.2,1.7-0.2,2.6
			c0,1.2,0.5,1.9,0.9,2.9c0.5,1.1,1.4,0.7,2.2,0.9c0.3,0.1,0.7,0.1,1,0.1c0.5,0,1.1,0,1.4-0.2c0.2-0.3,0.2-0.9,0.1-1.4
			c-0.1-1.2-0.7-2-1.9-2.4c-0.2-0.1-0.2-0.6-0.2-0.9c0.1-0.2,0.5-0.4,0.7-0.4c0.5,0.1,1.1,0.3,1.3,0.7c0.4,0.7,0.7,1.6,1,2.4
			c0.1,0.3,0.1,0.6,0.3,0.8c1,0.9,1.6,2,1.6,3.4c0,0.2,0.4,0.5,0.7,0.5c1.1,0.1,2.2,0.3,3.1-0.5c0.2-0.2,0.5-0.3,0.8-0.4
			c0.7-0.3,1.3-0.6,1.3-1.6c0-0.3,0.1-0.6,0.3-0.8c0.3-0.4,0.2-0.7,0-1.1c-0.2-0.3-0.1-0.8-0.1-1.2c0.4,0.2,0.8,0.2,1.2,0.5
			c0.8,0.6,1.5,1.3,2.2,1.9c0.5,0.4,0.9,0.4,1.3-0.2c0.6-0.8,2.8-0.9,3.4-0.2c0.3,0.3,0.4,0.8,0.6,1.4c0.3-0.3,0.7-0.5,0.8-0.9
			c0.7-1.9,1.5-3.8,1.4-6c0-0.4-0.2-0.7-0.2-1.1c-0.2-1.1-0.8-2.1-0.3-3.2c0.2-0.4,0.1-0.9-0.6-0.9c-0.2,0-0.5-0.5-0.4-0.5
			c0.4-0.6-0.1-0.9-0.4-1.3c-0.3-0.4-0.5-0.9-0.6-1.3c-0.3-1.2-0.7-2.3-0.8-3.5c-0.1-1.1-0.5-1.9-1.1-2.7c-0.6-0.9-0.8-2.1-1.3-3.1
			c-0.5-1.3-1.1-2.6-1.6-4c-0.2-0.5-0.4-0.6-0.8-0.2c-0.7,0.8-1.2,0.8-1.9,0c-0.3-0.3-0.5-0.6-0.8-0.9c-0.7-0.7-1.4-1-2.4-0.7
			c-0.7,0.2-1.6,0.2-2.3,0.2c-0.5,0-0.9,0.7-0.6,1.2c0.4,0.7,0.9,1.3,1.4,2c0.1,0.1,0.1,0.4,0.1,0.6c-0.2,0-0.4,0.1-0.6,0
			c-0.4-0.3-0.8-0.6-1.2-0.9c0,0.3-0.1,0.5-0.2,0.8c0,0-0.5,0-0.5-0.1c0-0.4,0-0.7,0.1-1c-0.8-0.3-1.7-0.6-2.5-0.8
			c-0.1,0-0.3,0-0.4,0c-0.5,0.5-1,0.3-1.6,0.1c-0.5-0.2-0.7,0-0.8,0.5c-0.1,0.4-0.2,0.7-0.3,1.1c-0.5-0.3-1-0.4-1.4-0.8
			c-0.8-0.9-1.3-1.9-0.5-3c0.1-0.1,0-0.4-0.1-0.6c-0.5-1.2-0.7-2.3-0.4-3.6c0.1-0.4,0-0.8,0.1-1.1c0.1-0.3,0.3-0.7,0.5-0.8
			c0.2-0.1,0.6,0.2,0.8,0.4c0.5,0.7,1.1,1.5,0.4,2.4c-0.2,0.2-0.1,0.9,0,1c0.4,0.2,0.9,0.3,1.2,0.2c0.6-0.2,1.1-0.7,1.7-0.9
			c0.3-0.1,0.7-0.1,1.2-0.1c0.2-0.1,0.5-0.4,0.8-0.6c0.8-0.5,1.3-1.1,1.1-2.1c0-0.3,0.1-0.7,0.3-0.9c1.4-1.3,2.8-2.5,4.2-3.8
			c0.7-0.5,1.5-0.6,2.2-0.2c0.2-0.3,0.5-0.6,0.7-1c0.1-0.3,0.3-0.8,0.2-0.9c-0.9-0.7-0.3-1.4,0-2.1c-1.4-0.8-0.4-1.9-0.5-2.9
			c0-0.2,0.1-0.4,0.1-0.5c-0.1-1.2,0-1.3,1.1-1.5c1-0.2,1.7-1.6,1.3-2.8c-0.2-0.7,0-0.8,0.5-1c0.6-0.2,1.1-0.6,1.7-0.8
			c-0.1-0.3-0.2-0.3-0.2-0.4c-0.2-0.4-0.6-1-0.5-1.1c0.5-0.5,0.8,0.1,1.1,0.3c0.2,0.1,0.6,0.2,0.7,0.1c0.8-0.7,1.6-1.5,2.4-2.3
			c0.2-0.2,0.4-0.3,0.5-0.3c-0.2-0.7-0.3-1.3-0.4-1.8c-0.1-0.3-0.3-0.6-0.4-0.8c-0.3-0.7-0.7-1.3-1-2c0-0.1,0.3-0.5,0.5-0.6
			c0.4,0,0.8,0.1,1.2,0.2c0.6,0.1,1,0,1.1-0.8c0-0.3,0.5-0.6,0.8-0.8c0.2-0.1,0.5-0.3,0.5-0.4c-0.2-0.8-0.3-1.7-0.6-2.4
			c-0.3-0.6-0.8-1-0.3-1.8c0.2-0.4,0.1-1.1,0-1.6c-0.2-1-0.4-1.9-0.6-2.9c0-0.3,0.3-0.6,0.5-0.9c-0.7-1.6-1.5-3.3-2.3-4.9
			c-0.2-0.5-0.2-0.9,0.3-1.3c0.8-0.6,0.8-1,0.1-1.7c-0.4-0.4-0.5-0.8-0.3-1.4c0.1-0.7-0.2-1.5-0.5-2.2c-0.3-0.7-0.7-1.5-1.1-2.1
			c-0.2-0.4-0.6-0.6-0.9-0.9c-0.5-0.5-1.5-1.1-1.5-1.6c0.1-1-0.4-2,0.3-3c0.4-0.6,0.5-1.3,0.6-2c0-0.2-0.4-0.7-0.5-0.6
			c-0.3,0.1-0.9,0.3-0.9,0.6c-0.1,0.9-0.3,1.9-0.1,2.8c0.2,1-0.2,1.8-0.8,2.4c-0.8,0.8-1.6,1.4-2.4,2.1c-0.6,0.5-0.8,1.1-0.8,1.9
			c0,1,0.1,1.9,0.3,2.9c0.3,1.1-0.1,2.3-0.9,3.1c-0.3,0.3-1.2,0.5-1.6,0.4c-1-0.3-1.9,0-2.9,0.2c-0.3,0.1-0.8,0.2-0.9,0.1
			c-0.8-0.9-1.5-0.2-2.3,0c-0.9,0.2-1.5,0-1.6-0.9c-0.1-0.9-0.6-1.6-1.2-2.3c-0.3-0.3-0.3-1-0.3-1.6c0.1-0.7,0-1.1-0.8-1
			c-0.4,0-0.9-0.2-1.3-0.3c-0.6-0.2-1,0-1.1,0.7c0,0.2-0.3,0.5-0.5,0.7c-0.7,0.4-1.4,0.7-2.2,1c-0.2,0.1-0.5,0-0.8,0
			c0-0.3,0-0.6,0.1-0.8c0.1-0.2,0.3-0.3,0.5-0.5c0.7-0.6,0.7-1.3-0.2-1.7c-0.4-0.1-0.9-0.2-1.3-0.1c-0.2,0.1-0.4,0.6-0.4,0.9
			c0.1,0.7,0.2,1.4-0.3,2c-0.1,0.2-0.1,0.5-0.1,0.8c-0.1,0.7-0.7,0.9-1.1,0.4c-0.7-0.8-1.5-0.9-2.4-1.1c-0.3-0.1-0.5-0.4-0.8-0.6
			c-0.2-0.2-0.4-0.4-0.6-0.6c-0.5-0.3-0.8-0.6-0.6-1.2c0.2-0.6,0.8-0.8,1.3-0.6c0.8,0.3,1.5,0.1,2.2-0.3c0.4-0.2,0.5-0.4,0.4-0.9
			c-0.1-0.6,0.2-1.2,0.4-1.8c0.1-0.3,0.2-0.5,0.3-0.8c0.1-0.3,0.2-0.7,0.4-0.9c0.1-0.1,0.6,0.1,0.8,0.2c0.5,0.5,0.7,1.4,1.6,1.3
			c0.1,0.8,0.7,1.1,1.3,1.5c0.2,0.1,0.5,0.3,0.6,0.2c0.2-0.2,0.5-0.5,0.5-0.7c0.2-1.4-0.2-1.9-2-2.5c-0.6-0.2-1.2-0.3-1.8-0.3
			c-0.7,0-1.2-0.2-0.7-1c-1.2-0.4-1.2-0.4-1.2,0.9c0,0.4-0.1,0.8-0.2,1.1c-0.1,0.4-0.4,0.8-0.5,1.2c-0.2,0.5-0.3,1-1,0.7
			c-0.1,0-0.3,0.1-0.5,0.1c-0.8,0.4-1.2,0.1-1.2-0.8c0-0.3-0.2-0.5-0.2-0.8c0-0.3,0.1-0.5,0.2-1c-1.1,0.1-2.2,0.1-3.2,0.2
			c0,0.5,0.1,0.9,0.1,1.3c-0.5,0-0.9,0-1.4-0.1c-0.3,0-0.5-0.2-0.8-0.3c-0.1,0-0.2,0.1-0.3,0.1c0.1,0.4,0.3,0.9,0.3,1.3
			c0,0.3,0,0.7,0,1c-0.3-0.1-0.6-0.1-0.9-0.2c-0.3,0-0.7-0.2-0.9-0.1c-0.2,0.1-0.3,0.5-0.2,0.8c0.2,0.8,0.5,1.5,0.7,2.3
			c0.1,0.3,0.2,0.7,0.1,1.1c-0.1,0.2-0.3,0.4-0.5,0.6c-0.2-0.2-0.5-0.3-0.6-0.6c-0.6-1-1.1-2.1-1.6-3.2c-0.1-0.2-0.2-0.5-0.3-0.7
			c-0.2-0.9-0.7-1.2-1.6-1.3c-0.4,0-1-0.2-1.2-0.4c-0.2-0.3-0.3-1,0-1.2c0.5-0.5,1.1-0.8,1.7-1.3c0.3-0.2,0.5-0.6,0.6-0.9
			c0-0.1-0.3-0.5-0.4-0.5c-0.8,0.2-1.6,0.5-2.6,0.9c0.9,1,0.1,1.5-0.4,2.1c-0.4,0.4-0.6,0.8-0.4,1.5c0.1,0.5-0.4,1.1-0.6,1.7
			c0,0-0.6-0.1-0.7-0.2c-0.5-1.4-0.9-2.8-1.3-4.2c-0.1-0.3-0.3-0.7-0.3-1c-0.2-1-0.4-2-0.6-2.9c-0.2-0.8-0.4-1.7-0.5-2.5
			c-0.1-0.4-0.1-1,0.1-1.3c0.2-0.2,0.8-0.1,1.3-0.2c0.3,0,0.6,0,0.8,0c0.3,0,0.6-0.1,1-0.1c0,0.3,0.2,0.7,0,1
			c-0.4,0.7-0.3,1.1,0.3,1.7c0.3,0.3,0.3,0.8,0.5,1.3c0.2,0.4,0.3,1.2,0.6,1.3c0.6,0.2,1.3,0,1.9-0.1c0.1,0,0.2-0.5,0.1-0.8
			c-0.1-0.7-0.3-1.5-0.4-2.2c0-0.6,0.1-1.2,0.1-1.7c0.1,0,0.2,0,0.2,0c-0.1,0-0.1-0.1-0.2-0.1c-0.3-0.2-0.9-0.4-1-0.7
			c-0.1-0.6,0.5-0.6,1-0.7c0.5-0.1,1-0.2,1.4-0.5c0.3-0.2,0.5-0.7,0.5-1c-0.1-0.8,0.2-1.3,0.9-1.7c0.2-0.1,0.3-0.2,0.4-0.3
			c0.6-0.5,1.2-1,1.9,0c0-0.1,0.1-0.1,0.1-0.2c0-0.3,0-0.5-0.1-0.8c-0.4-0.8-0.1-1.4,0.5-2c0.6-0.5,1.3-1,0.7-2
			c-0.1-0.2,0-0.9,0.2-1.1c0.8-0.6,0.6-1.5,0.6-2.3c0-0.6-0.1-1.3-0.2-2c-0.8-0.6-0.8-0.6-0.5-1.9c0.2-0.8,0.1-1.7,0.9-2.3
			c0.1-0.1-0.1-0.7-0.3-1.1c-0.2-0.3-0.6-0.4-0.8-0.7c-0.1-0.2-0.3-0.6-0.2-0.8c0.3-0.6,0.7-1.2,1.2-1.7c0.2-0.2,0.7-0.1,1.1-0.1
			c0,0.3,0.1,0.6,0,0.8c0,0.1-0.1,0.3-0.1,0.4c-0.1,0.3-0.1,0.7-0.1,1c0.4-0.1,0.8-0.2,1.1-0.4c0.5-0.3,0.8-0.6,1.3-0.9
			c0.1-0.1,0.4-0.1,0.5,0c0.9,0.7,1.5,0,2.1-0.5c0.3-0.3,0.5-0.4,1-0.2c0.9,0.4,1.8,0.6,2.9,0.5c1.3-0.2,1.7,0.2,2,1.5
			c0.2,1,0.4,1.9,0.7,2.9c0.1,0.4,0.7,0.7,0.9,1.1c0.2,0.3,0.3,0.7,0.4,1.1c0,0.1-0.1,0.3-0.1,0.4c0.8,1.5,0.3,3.2,0.8,4.7
			c0.1,0.4,0.2,0.8,0.4,1.2c0.3,0.4,0.3,0.7,0.2,1.3c-0.1,0.5,0.1,1.2,0.5,1.7c0.7,0.9,0.8,1.2,0,2c-0.2,0.2-0.1,0.5-0.1,0.8
			c0,0.4,0.2,0.9,0.1,1.2c-0.4,0.9,0,1.3,0.7,1.7c0.6,0.3,0.7,0.9,0.1,1.3c-0.6,0.5-0.8,1.1-0.8,1.8c0,0.9-0.1,1.8-0.1,2.6
			c0,0.6,0,1.2,0.2,1.7c0.3,0.9,0.9,1,1.4,0.6c0.1-0.7,0.2-1.1,0.2-1.5c0.3,0.4,0.7,0.7,0.8,1.1c0.3,1,0.5,2.1,1.3,2.9
			c0.3,0.3,0.4,0.7,0.6,1.1c0.2,0.3,0.3,0.5,0.5,0.7c0.3-0.2,0.7-0.4,0.8-0.7c0.3-0.8,0.5-1.7,0.7-2.6c0.1-0.7,0.6-1.1,1.1-0.6
			c0.5,0.5,0.9,1.2,1,1.8c0.2,0.9,0,1.9,0,2.8c0,0.2,0,0.4,0.2,0.6c0.1,0.2,0.4,0.4,0.5,0.4c0.2,0,0.5-0.3,0.5-0.4
			c0-1.1,0-2.1,0-3.2c0-0.6,0-1.2-0.1-1.9c0-0.6-0.1-1.2-0.1-1.8c-0.1-0.7-0.2-1.4-0.3-2c-0.3-1.7-0.6-3.4-0.9-5
			c0-0.2-0.1-0.4-0.2-0.6c-0.7-0.9-0.7-0.9,0.1-1.7c0.2-0.2,0.5-0.4,0.8-0.5c1-0.5,1-1.2,0.2-1.9c-0.7-0.5-1.4-1-2.1-1.6
			c-0.1-0.1-0.2-0.2-0.3-0.5c0.4-0.1,0.7-0.3,1-0.4c0.8-0.3,1.7-0.5,2.4-0.8c0.3-0.1,0.5-0.6,0.5-0.9c-0.1-0.5-0.4-1-0.7-1.4
			c-0.5-0.7-1.2-1.4-1.4-2.2c-0.2-0.7,0.2-1.6,0.4-2.3c0.2-0.6,0.7-1.2-0.3-1.6c-0.1,0-0.1-0.2-0.1-0.3c0.3-1.1-0.6-1.6-1.1-2.4
			c-0.8-1.2-1.6-2.2-2.1-3.6c-0.4-1-1.2-1.8-1.9-2.7c-0.1-0.1-0.4-0.2-0.6-0.1c-1.4,0.3-1.4,0.3-2.2-0.7c-1.4,0.7-1.4,0.7-2.7-0.3
			c-0.3,0.1-0.6,0.3-1,0.4c-0.1-0.1-0.1-0.1-0.2-0.2c0.7-0.8,1.6-1.5,0.7-2.7c1.1-0.6,2.1-0.9,2.4,0.5c0.5-0.6,1-1.1,1.4-1.6
			c0.1-0.2-0.2-0.7-0.5-0.9c-0.7-0.6-1.5-1.1-2.3-1.7c-1,0.8-1,0.8-2.5-0.4c0.2,1,0.4,1.9,0.5,2.7c0.1,0.3,0.2,0.5,0.3,0.7
			c0.3,0.8,0.3,1.4-0.6,1.8c-0.1,0-0.1,0.1-0.2,0.2c-0.4,0.2-0.8,0.4-1.1,0.6c-0.1-0.4-0.1-0.8-0.2-1.2c-0.2-1-0.4-2-0.6-3
			c-0.2-0.8-0.5-1.6-0.7-2.4c-0.1-0.5,0.9-1.3,1.4-1.2c0.7,0.2,1.4,0.3,2,0.6c0.4,0.1,0.7,0.5,1.2,0.9c0-0.5,0-0.8,0-1.1
			c-0.1-0.8,0.4-1.3,1.2-1.1c0.3,0.1,0.8,0.1,0.9,0c0.1-0.5,0.3-1.1,0.2-1.5c-0.1-0.4-0.6-0.8-0.1-1c0.3-0.2,0.9,0,1.3,0
			c0,0.1,0,0.2,0,0.2c0.3-0.2,0.6-0.4,0.9-0.6c0-0.1,0-0.2,0-0.3c-0.7-0.1-1.4-0.2-2.1-0.3c-0.4-0.1-0.8-0.1-1.2-0.2
			c-0.2,0-0.3-0.3-0.5-0.5c0.2-0.1,0.3-0.3,0.5-0.4c1.3-0.4,2.6-0.3,3.9-0.5c1.9-0.2,2.3,1,3.1,2c0.1,0.1,0.1,0.1,0.2,0.2
			c1.1,1,2.2,2,3.3,3c0.4,0.4,0.4,0.7-0.1,1.1c-0.2,0.1-0.3,0.5-0.4,0.7c0,0.1,0.3,0.5,0.4,0.4c0.2-0.1,0.4-0.3,0.6-0.5
			c0.1-0.1,0.3-0.3,0.4-0.3c1-0.2,0.6-0.9,0.5-1.4c-0.1-0.3-0.3-0.6-0.2-0.9c0-0.9-0.3-1.6-1.2-1.7c-1.3-0.2-1.6-1.5-2.5-2.2
			c-0.1-0.1,0.1-0.6,0.2-0.8c0.2-0.4,0.4-0.8,0.6-1.2c-0.1-0.1-0.1-0.1-0.2-0.2c0.7-0.1,1.4-0.3,2.2-0.4c0.2,0,0.4,0.1,0.5,0.3
			c0.1,0.1,0,0.3-0.2,0.5c-0.2,0.2-0.4,0.3-0.6,0.4c0.1,0.3,0.3,0.5,0.3,0.7c0.1,0.6,0.4,0.7,0.9,0.6c0.3-0.1,0.6,0,0.9,0.1
			c0.6,0.2,1.3,0.4,1.9,0.6c0.3,0.1,0.6,0.4,0.6,0.6c0,1.1,0.8,1.1,1.5,1.3c0.4,0.1,0.9,0.1,1.3,0.2c0.2,0,0.3,0.3,0.4,0.5
			c-0.2,0.1-0.4,0.3-0.6,0.3c-0.4,0-0.7-0.1-1-0.2c-0.9-0.3-1.5,0.2-2,0.7c-0.1,0.1-0.1,0.4,0,0.5c0.6,0.5,1.2,1,1.9,1.5
			c0.5,0.3,1.1,0.6,1.4,1c1.7,1.9,3.5,3.6,4.7,5.9c0.7,1.3,1.9,2.4,2.8,3.7c0.6,0.8,1,1.7,1.4,2.5c0.1,0.3,0,0.7-0.1,1
			c-0.2-0.2-0.5-0.3-0.7-0.5c-1-0.9-1.8-2-3.4-2.1c-1.3-0.1-2.2-1.2-3-2.2c-0.6-0.7-1.5-1.3-2.2-1.9c-0.1-0.1-0.4-0.2-0.5-0.3
			c0.6-0.7,1.1-0.9,1.8-0.2c0.6,0.6,1.5,1.1,2.2,1.6c0.1,0.1,0.4,0.1,0.6,0c0.1,0,0.2-0.3,0.1-0.5c-0.5-0.8-0.9-1.6-1.4-2.3
			c-0.3-0.4-0.8-0.7-1.3-1.1C94,21,93.5,21.6,92.9,22c-0.4,0.2-0.9,0.3-1.4,0.4c0.1,0.6-0.2,1.4,0.7,1.7c0.1,0,0.2,0.3,0.3,0.4
			c0.6,1,1.2,1.9,1.8,2.9c0.4,0.7,0.8,1.5,1.2,2.3c0.4,0.7,0.9,1.4,1,2.1c0.1,1,0.5,1.7,1.1,2.4c0.3,0.3,0.2,0.7-0.3,0.7
			c-0.3,0-0.7,0-1,0.2c-0.3,0.1-0.5,0.3-0.7,0.6c-0.2,0.3-0.4,0.6-0.6,0.9c-0.2,0.4-0.4,0.9-0.6,1.4c0.8-0.8,1.4-0.4,2,0.1
			c0.7,0.6,1.2,0.4,1.8-0.3c0.4-0.5,0.9-0.9,1.3-1.3c0,0,0.1-0.1,0.2-0.1c0.5,0.1,0.8,0.6,1.5,0.5c0.8-0.1,0.5,0.8,0.7,1.2
			c0.9,1.4-0.5,2.8,0.3,4.1c0.4,0.8,0.7,1.6,0.5,2.6c0,0.2,0.2,0.5,0.3,0.7c0.1,0.6,0.3,1.1,0.2,1.7c-0.1,0.9-0.2,1.7,0.3,2.5
			c0.2,0.3,0.1,0.9,0,1.2c-0.8,1.9-1.1,3.8-1.3,5.8c-0.1,1,0,1.9,0,2.9c0,1.7-0.5,3.3-0.9,5c-0.1,0.4-0.8,0.7-1.3,0.9
			c-0.7,0.3-0.8,0.5-0.2,1.1c0.4,0.4,0.7,0.8,1,1.3c0.2,0.4,0.2,0.8,0.3,1.2c0.2,0.6,0.4,1.2,0.6,1.8c0.4,1.2,0.9,2.5,1.3,3.7
			c0.2,0.6,0.5,1.2,0.7,1.8c0.1,0.3,0.1,0.6,0.2,0.8c-0.3,0-0.6-0.1-0.9-0.1c-0.1,0-0.2,0-0.3-0.1C102.7,77.4,102.6,77.5,102.5,77.5
			z M115.1,126.3c0.1-0.1,0.1-0.2,0.2-0.3c-1.2-0.4-1-1.2-0.9-2c0.2-0.8-0.1-1.3-0.9-1.6c-0.4-0.1-0.7-0.2-1.1-0.4
			c-0.2-0.1-0.5-0.4-0.4-0.6c0.2-0.8-0.3-1.2-0.9-1.5c-0.7-0.4-1.3-0.5-2,0.1c-0.6,0.5-1.2,0.9-1.8,1.5c-0.8,0.9-1.8,0.8-2.8,0.4
			c-0.2-0.1-0.5-0.3-0.7-0.3c-1.2,0.3-2.4,0.5-3.5,1c-1,0.4-1.2,1.2-1,2.3c0,0.1-0.1,0.3-0.1,0.4c-0.2,1.5-0.5,3.1-0.1,4.6
			c0.2,0.9,0.4,1.8,0.4,2.8c0,1.3,0.2,2.4,1.3,3.3c0.1,0.1,0.3,0.3,0.3,0.5c0.1,0.6,0.4,0.6,0.9,0.5c0.5-0.1,1-0.3,1.4-0.3
			c1.3,0.1,2.3-1.1,1.8-2.2c-0.4-0.9-1-1.6-1.5-2.4c-0.4-0.6-0.3-0.9,0.5-1c0.2,0,0.4-0.1,0.6-0.1c0.6-0.1,0.9,0.1,0.9,0.7
			c0,0.5,0.2,1,0.4,1.4c0.2,0.4,0.7,0.7,0.9,1.1c0.4,0.9,0.9,0.7,1.6,0.4c0.4-0.2,0.8-0.3,1.2-0.4c0.4-0.1,0.8-0.1,1.3-0.2
			c-0.4-2.1-0.7-2.4-2.4-3.1c-0.4-0.2-0.8-0.4-1-0.7c-0.2-0.2-0.2-0.7-0.2-1c0-0.2,0.4-0.4,0.6-0.4c1-0.3,1.8,0.1,2.3,1.1
			c0.3,0.6,0.6,0.5,1,0.3c0.2-0.1,0.4-0.2,0.6-0.3c0.1,0.3,0.2,0.5,0.2,0.8c0.1,1.6,0.5,1.9,2.2,1.4c0.2-0.1,0.5-0.2,0.7-0.2
			c0.7-0.1,0.7-0.5,0.6-1.1c-0.1-0.6-0.2-1.1-0.4-1.8c-0.2,0-0.5-0.1-0.9-0.2c-0.5-0.2-1.1-0.3-1.6-0.6c-0.2-0.1-0.4-0.4-0.4-0.6
			c0-0.1,0.3-0.3,0.5-0.4C113.8,126.8,114.4,126.6,115.1,126.3z M60.3,54c-0.1,0-0.2,0-0.3,0.1c0.3,0.7,0.5,1.5,0.9,2.2
			c0.2,0.4,0.5,0.8,0.9,1c0.6,0.3,1.3,0.6,1.9,0.7c0.6,0.1,1.3-0.1,1.9-0.3c1-0.3,1.9-0.7,2.8-1.1c0.1,0,0.1-0.1,0.1-0.1
			c0.4-1.2,0.9-2.3,1.1-3.5c0.2-1.1,0.1-2.3,0.1-3.5c0-0.9,0-1.9-0.1-2.8c-0.1-0.5-0.3-1-0.6-1.5c-0.2-0.2-0.6-0.2-1-0.3
			c-0.9-0.2-1.9-0.3-2.8-0.5c-1.5-0.3-1.7,0-2,1.5c-0.2,0.8-0.2,1.8-1.1,2.4c-0.2,0.1-0.2,0.6-0.3,1c-0.2,0.6-0.2,1.3-0.5,1.8
			C60.4,52,60,52.9,60.3,54z M96.7,59.6c-0.2,0.6,0.5,1.4,1,1.3c0.5-0.2,1.3-0.3,1.1-1.2c-0.1-0.3,0.2-0.7,0.2-1.1
			c0-0.4,0-0.8,0-1.2c-0.1-1-0.3-2-0.3-3c0.1-1.9,0.4-3.8,0.5-5.7c0.1-0.7,0.1-1.5-0.1-2.2c-0.6-1.3-1.3-2.6-2-3.9
			c-0.1-0.2-0.7-0.5-0.8-0.4c-0.4,0.3-0.6,0.7-0.2,1.2c0.2,0.3,0.4,0.7,0.5,1.1c0.3,0.9,0.4,1.8,1,2.6c0.4,0.6,0.4,0.9,0.3,1.5
			c-0.2,0.6-0.4,1.4-0.2,2c0.2,0.8,0,1.3-0.5,1.8c-1,0.9-1,1.4,0,2.2c0.5,0.4,0.6,0.7,0.1,1.2c-0.2,0.2-0.5,0.5-0.6,0.7
			c-0.2,0.3-0.3,0.7-0.3,1C96.3,58.1,96.5,58.8,96.7,59.6z M72.5,35.8c-0.8,0.1-1.5,0.4-2.3,0.4c-2.1,0.1-4.2,0.3-6-1.2
			c-0.2-0.2-0.4-0.4-0.6-0.6c-0.4-0.3-0.7-0.3-0.8,0.2c-0.1,0.6-0.5,1.2,0,1.8c0.2,0.2,0.1,0.6,0,0.9c-0.4,0.8,0.1,0.8,0.7,1
			c0.8,0.2,1.5,0.6,2.3,0.8c0.4,0.1,1,0.4,1.3,0.2c0.9-0.5,1.7-0.4,2.6-0.2c0.8,0.2,1.2-0.2,1.2-1.1c0-0.3,0.2-0.7,0.4-0.8
			c0.4-0.1,0.8,0,1.3,0C72.6,36.8,72.5,36.3,72.5,35.8z M94.5,33.6c0.7,0.1,0.9-0.2,0.8-0.8c-0.1-0.9-0.1-1.9-0.8-2.6
			c-0.3-0.3-0.9-0.7-1.1-0.6c-0.6,0.3-1.2,0.8-1.7,1.3c-0.4,0.4-0.5,1,0,1.4C92.5,33,93.3,33.6,94.5,33.6z M82.4,69.1
			c0.2-0.9,0.4-1.7,0.6-2.5c0-0.2-0.1-0.5-0.3-0.6c-0.8-0.4-1.7-0.8-2.5-1.1c-0.2-0.1-0.6,0.1-0.8,0.2c-0.1,0.1,0,0.5,0.1,0.7
			c0.4,0.7,1.1,1.3,1.2,2C80.8,69.1,81.8,68.8,82.4,69.1z M84.4,18.9c0.3,1,0.8,1.1,1.8,0.9c0.3-0.1,0.6,0.1,0.9,0.1
			c-0.2,0.2-0.4,0.4-0.5,0.7c-0.2,0.4-0.4,0.8-0.3,1.2c0.1,0.3,0.6,0.5,0.9,0.6c0.4,0.2,0.9,0.4,1.4,0.4c0.1,0,0.5-0.3,0.5-0.4
			c-0.3-0.7-0.5-1.4-1-1.9c-0.5-0.6-0.9-1-0.6-1.8c0.1-0.2,0-0.4-0.1-0.7C86.4,18.3,85.4,18.6,84.4,18.9z M83.5,22.2
			c0.1-0.9-0.6-0.8-1.1-0.9c-0.2-0.1-0.5,0-0.8,0c0.1,0.2,0.2,0.5,0.3,0.7c0.1,0.1,0.2,0.3,0.3,0.4c0.3,0.2,0.5,0.5,0.8,0.7
			C83.2,22.8,83.3,22.5,83.5,22.2z"/>
		<path d="M57,13.9c0.1,0.4,0.2,0.8,0.3,1.5c0.3-0.3,0.5-0.4,0.7-0.6c0.2-0.1,0.5-0.2,0.7-0.4c0.1,0.3,0.2,0.5,0.2,0.8
			c0,0.3-0.2,0.6-0.2,0.8c0.6,0.1,1.2,0.2,1.8,0.2c0.5-0.6,1.1-1.3,1.7-2c0.8,0.8,0.7,1.5,0,2.5c-0.2,0.3-0.2,0.6-0.3,0.9
			c-0.2,0.6-0.4,1.2-0.6,1.8c-0.3,0.9-0.6,1.8-1,2.6c-0.2,0.3-0.5,0.6-0.8,0.8c0,0.7,0,1.4,0,2.1c0.1,0,0.1,0,0.2,0
			c0.1-0.1,0.2-0.2,0.2-0.4c-0.2-1.2,0.9-1.8,1.4-2.7c0-0.1,0.4-0.2,0.5-0.1c0.2,0.1,0.3,0.4,0.3,0.6c-0.1,1,0,1.9-0.7,2.8
			c-0.2,0.3-0.3,0.7-0.4,1c-0.2,0.3-0.3,0.6-0.5,0.9c-0.3-0.2-0.5-0.4-0.8-0.6c-0.1-0.1-0.1-0.1-0.3-0.3c-0.3,0.2-0.6,0.3-0.8,0.5
			c-0.9,1.2-2.2,1.1-3.5,1.1c-0.6,0-1.3-0.2-1.2-1.2c-0.1,0-0.2,0-0.2,0c-0.2,0.5-0.3,0.9-0.5,1.4c-0.1,0.3-0.2,0.6-0.3,0.8
			c-0.1,0.2-0.5,0.3-0.7,0.3c-0.1,0-0.3-0.4-0.3-0.6c-0.1-0.9,0.1-1.7,0.6-2.4c0.8-0.9,1.1-2.1,1.7-3.1c0.9-1.5,1.3-3.5,3-4.5
			c0.5-0.3,0.9-0.8,0.7-1.7c-0.6,0.4-1.1,0.8-1.5,1.1c-0.5,0.4-0.8,1-1.3,1.3c-0.6,0.4-1.3,0.7-2.2,1.2c-0.1,2.3-2,4-3.4,6
			c-0.4,0.5-1,0.9-1.3,1.4c-0.4,0.7-0.8,1.4-1,2.2c-0.1,0.6-0.2,1-0.8,1.2c-0.3,0.1-0.6,0.6-0.8,0.9c-0.2,0.3-0.3,0.8-0.6,1.1
			c-0.7,0.7-0.7,1.4-0.2,2.1c0.7,1.1,0.2,1.8-0.4,2.7c-0.6,0.9-1.2,1.9-1.6,2.9c-0.3,0.8-0.2,1.8-0.3,2.7c-0.1,1.8,0.1,3.6,0.5,5.4
			c0,0.2,0.1,0.4,0.2,0.5c0.8,0.6,0.6,1.2,0.1,1.9c-0.3,0.5-0.4,0.8,0.1,1.3c0.3,0.3,0.3,0.9,0.4,1.4c0.1,0.7,0.1,1.5,0.1,2.2
			c0,0.5,0,1.1-0.1,1.6c-0.2,1.1-0.4,2.2-0.7,3.3c-0.4,1.6-0.9,3.2-1.3,4.8c-0.1,0.3-0.1,0.6-0.2,0.9c-0.2,0.3-0.5,0.4-0.8,0.6
			c-0.1-0.2-0.2-0.5-0.3-0.7c-0.3-0.9-0.5-1.8-0.7-2.7c-0.2-0.7,0.2-1.4-0.5-2c-0.6-0.6-1.7-1-2.4-0.5c-1.1,0.7-2,1.5-2.3,2.9
			c0,0.3-0.2,0.5-0.3,0.7c-0.5,0.7-1.1,1.4-1.5,2.2c-0.2,0.4-0.1,0.9-0.1,1.3c-0.1,0.7,0.5,0.6,0.9,0.8c0.3,0.1,0.4,0.5,0.6,0.7
			c-0.3,0.2-0.7,0.5-1,0.5c-1.3,0.1-3.2,2.4-3,3.7c0,0.2,0.1,0.3,0.2,0.5c0.2-0.1,0.4-0.1,0.5-0.2c0.4-0.6,0.8-1.3,1.3-2
			c0.1-0.1,0.6-0.2,0.7-0.1c0.3,0.3,0.5,0.7,0.7,1c0.7-0.4,1.3-0.8,2-1.2c0.2-0.1,0.5,0,0.7,0c0,0.2,0.1,0.6-0.1,0.7
			c-0.4,0.6-1,1-1.4,1.6c-0.4,0.5-0.8,1.2-0.7,1.8c0,1.4-0.4,2.4-1.3,3.4c-0.8,0.8-0.7,2.7,0.2,3.4c0.2,0.2,0.5,0.1,0.7,0.2
			c0.5,0.2,0.6,0.4,0.3,0.9c-0.8,1.3-1.4,2.7-2.1,4c-0.3,0.5-0.5,0.9-0.9,1.3c-0.9,0.8-1.2,1.8-1.4,2.9c0.1,0.1,0.1,0.1,0.2,0.2
			c0.7-0.8,1.4-1.5,2.2-2.3c0.4-0.4,0.8-0.8,1.2-1c0.2-0.1,0.6,0,1,0.1c-0.1,0.3-0.2,0.6-0.3,0.9c-0.3,0.6-0.7,1.2-1,1.8
			c-0.8,1.4-1.6,2.9-2.3,4.3c-0.2,0.4-0.3,0.7-0.6,1.3c0.4-0.1,0.6-0.2,0.7-0.3c0.4-0.1,0.8-0.1,1.2-0.1c-0.1,0.4-0.3,0.8-0.4,1.1
			c0,0.1-0.3,0.1-0.4,0.2c0.1,0.1,0.1,0.2,0.2,0.2c0.6,0,1.3-0.1,1.9-0.1c0.5,0,0.7,0.1,0.6,0.7c-0.1,0.6-0.3,1.3-0.2,2
			c0.1,0.9,0.1,1.7-0.2,2.5c-0.4,1.1-0.7,2.4-0.9,3.6c-0.1,0.6,0.1,1.1,0.9,1.2c0.7,0.1,0.4,0.5,0.2,0.9c-0.4,0.5-0.8,1.1-0.9,1.6
			c-0.1,0.6-0.5,1.3,0.3,1.8c0.1,0-0.1,0.5-0.2,0.6c-0.8,0.8-0.9,1.2-0.3,2.2c0.4,0.7,0,1.2-0.2,1.7c-0.3,0.6-0.3,1,0,1.7
			c0.4,0.7,0.7,1.5-0.1,2.3c-0.3,0.3-0.2,0.8-0.4,1.2c-0.4,1-0.9,1.9-1.4,2.9c0.5,1.1,0.9,2.3,0.9,3.7c0,0.8,0.1,1.7,0.2,2.5
			c0.2,1.5-0.4,2.8-0.9,4.1c-0.3,1-0.6,2.1-0.7,3.1c-0.1,0.9-0.1,1.9,0,2.8c0.1,0.6,0.4,1.3,0.8,1.8c0.9,0.9,1.1,2,1.3,3.1
			c0.1,0.5,0.1,1.1,0.3,1.6c0.2,0.5,0.4,1,1.2,1c0.4,0,0.8,0.4,1.2,0.7c0.3,0.2,0.5,0.5,0.8,0.7c0.1,0,0.2-0.1,0.3-0.1
			c0-0.7-0.1-1.3,0-2c0.1-0.7,0.2-1.3,0.4-2c1,0.5,1.1,1.4,1.3,2.1c0.3,1.3-0.5,2.6-1.8,3c-0.5,0.1-0.5,0.4-0.4,0.8
			c0.4,1.4,1.7,2.2,3.3,2c0.3-0.1,0.7-0.1,1.1-0.2c0.1-0.3,0.1-0.7,0.2-1c0.2-0.3,0.5-0.6,0.8-0.7c0.2,0,0.5,0.4,0.6,0.7
			c0.1,0.3,0.1,0.8,0.2,1.1c0.1,0.3,0.3,0.5,0.5,1c0.7-1.8,1.2-3.2,1.8-4.7c0.1-0.3,0-0.7,0.1-1c0.1-0.3,0.3-0.5,0.5-0.8
			c0.2,0,0.3,0.1,0.5,0.1c0,1.1,0,2.2,0,3.3c0,0.4,0.3,0.7,0.5,1c0.6,0.8,1.2,1.6,1.7,2.4c0.5,0.8,0.9,1,1.7,0.5
			c0.8-0.4,1.4-1,1.6-1.9c0.2-0.8-0.1-1-0.8-0.8c-0.8,0.2-1.3-0.5-1.6-0.9c-0.2-0.4,0-1.1,0-1.6c0.9,0.2,1.6,0.4,2.2,0.5
			c0.2-0.7,0.5-1.3,0.5-1.9c0-0.6-0.1-1.3-0.4-1.8c-0.6-1.1-0.5-1.5,0.6-2c1-0.4,1-0.4,1.2,0.7c0.1,0.3,0.3,0.6,0.5,0.9
			c0.3,0.4,0.6,0.9,1,1.4c0.9,0.2,1.1-0.7,1.6-1.4c1-1.4,2-2.9,2.6-4.6c0.1-0.2,0.2-0.5,0.1-0.6c-0.8-1.2-0.1-2.5-0.5-3.7
			c-0.1-0.5,0-1-0.1-1.5c0-0.1-0.1-0.3,0-0.4c0.6-0.9,0-1.5-0.4-2.2c-0.6-0.9-0.5-1.2,0.6-1.4c0.5-0.1,1-0.4,1.3-0.6
			c0.2-0.9,0.4-1.5,0.4-2.2c0-0.9-0.1-1.7-0.2-2.6c-0.1-1-0.3-2-0.5-3c-0.1-0.8-0.4-1.7-0.4-2.5c0-0.9-0.3-1.4-0.8-1.9
			c-0.4-0.5-0.7-1.1-0.8-1.6c-0.1-0.5,0.2-1,0.4-1.5c0.1,0,0.3,0,0.4,0c0.6,1,1.1,2.1,1.8,3c0.5,0.6,1.2,1.1,1.8,1.6
			c0.4,0.3,1.4-0.5,1.3-1.2c-0.1-1.4,1.1-1.7,1.8-2.5c0.3-0.4,0.6,0,0.7,0.4c0.1,1.1,0.3,2.2,0.4,3.3c0.1,0.9,0.1,1.7,0.2,2.6
			c0,0.1,0.2,0.3,0.4,0.6c0.4-2.8,0.6-5.5,2.1-7.9c-0.9-0.8-0.9-0.9,0.5-2.6c-0.2-0.1-0.4-0.1-0.5-0.3c-0.1-0.2-0.1-0.5,0-0.7
			c0.1-0.1,0.5-0.3,0.6-0.2c0.6,0.4,1.2,0.9,1.9,1.4c0.1-0.3,0.3-0.9,0.5-1.4c0.1-0.2,0.4-0.4,0.6-0.6c0.2,0.3,0.5,0.5,0.5,0.8
			c0,0.9-0.1,1.8-0.4,2.7c-0.4,1.3-0.6,2.7-0.6,4.1c-0.1,1.3-0.3,2.6,0.5,3.7c-0.5,1.1,0.8,1.6,0.9,2.6c0.1,0.7,0.1,0.9-0.5,0.8
			c-0.9-0.2-1.1,0.3-1.5,1c-0.9,1.5-1,3-1.2,4.7c0.3,0,0.5-0.1,0.8,0c0.2,0.1,0.6,0.3,0.6,0.4c0,0.6-0.2,1.3-0.2,1.9
			c0,0.2,0,0.4,0.1,0.6c0.4,1.1,0.3,1.6-0.6,2.2c-0.4,0.3-0.8,0.7-1.1,1c-0.4,0.5-1,0.7-1.5,0.3c-1.1-0.7-2.4-1.3-2.8-2.7
			c-0.2-0.8-1-0.8-1.6-0.9c-0.5-0.1-1.1,0.4-1.7,0.4c-0.7,0.1-0.9,0.5-1,1.1c-0.1,0.7-0.4,1.4-0.5,2.1c-0.1,0.2,0,0.5,0,0.7
			c0,0.4,0,0.7,0,1.1c0,0.1-0.2,0.3-0.2,0.4c0,0.9,0,1.7,0,2.6c0,0.3-0.1,0.8-0.3,1c-0.8,0.9-0.8,2-0.9,3.1c-0.1,0.7-0.1,1.4-0.2,2
			c-0.1,0.6-0.3,1.2,0.3,1.6c0.1,0.1,0.1,0.2,0.1,0.3c-0.4,1.1-0.8,2.2-1.2,3.3c-0.1,0.2-0.4,0.3-0.7,0.3c-0.5,0-1,0-1.4-0.1
			c-1.3-0.3-2.5,0.1-3.7,0.5c-0.4,0.1-0.7,0.7-1.1,0.9c-0.6,0.3-1.2,0.5-1.8,0.8c-0.1,0-0.1,0.1-0.2,0.1c-1.3-0.4-3,0.4-4.1-0.9
			c-0.1-0.1-0.3-0.2-0.5-0.2c-1,0-1.9,0-2.9,0c-0.1,0-0.2,0-0.3,0c-1.2-0.8-2.6-0.6-3.9-0.8c-0.2,0-0.5,0-0.8,0.1
			c-1,0.4-1.9-0.1-1.8-1.1c0.1-1.3-0.5-2.3-1-3.3c-0.4-0.7-1.2-1-2.1-0.8c-0.8,0.2-1.8-0.5-1.6-1.2c0.4-1.4-0.6-2.5-0.7-3.7
			c0-0.4,0-0.8,0-1.2c0-0.4-0.1-0.8,0-1.2c0-0.5,0.1-1.1,0.3-1.6c-0.7-2.2-0.2-4.3,0.3-6.5c0.2-0.7,0.4-1.3,0.5-2
			c0-0.3-0.2-0.8-0.3-0.8c-0.9,0-1.9-0.2-2.7,0.5c-0.2,0.2-0.3,0.5-0.4,0.7c-0.1,0.3-0.2,0.7-0.4,1c-0.2,0.5-0.5,1-0.8,1.5
			c-0.3,0.4-0.7,0.8-1,0.8c-0.4,0-1-0.4-1.2-0.7c-0.4-0.8-1-1.1-1.8-1.3c-0.8-0.2-1.6-0.7-2.4-1c-0.9-0.3-1.9-0.5-2.8-0.8
			c-0.2-0.1-0.4-0.4-0.5-0.7c-0.1-1.3-0.4-1.7-1.6-2.2c-0.5-0.2-1-0.6-1.6-0.8c-0.7-0.4-0.6-1-0.4-1.5c0.2-0.6,0.8-0.9,1.4-0.8
			c1,0,1.5,0.9,2.3,1.4c1.3,0.7,2.5,1.5,3.8,2c0.5,0.2,1.3-0.1,1.9-0.3c0.7-0.2,1.1-0.7,0.8-1.6c-0.4-1.3,0.1-1.8,1.5-1.7
			c0.5,0,0.7-0.1,0.9-0.6c0.4-0.8,0.9-1.6,2-1.8c0.3-0.1,0.5-0.5,0.7-0.7c-0.2-0.2-0.5-0.5-0.7-0.7c-0.3-0.2-0.8-0.3-1.1-0.6
			c-1.2-1-1-2.7,0.5-3.8c0.2-0.2,0.4-0.4,0.5-0.6c-0.3-0.1-0.5-0.2-0.8-0.3c-0.3-0.1-0.7-0.2-0.9-0.4c-0.8-0.8-1.9-0.8-2.9-0.8
			c-0.5,0-1,0.4-1.5,0.7c-0.5,0.3-1,0.8-1.6,1c-1.4,0.6-2,1.8-2.2,3.2c0,0.2,0.1,0.5,0.1,0.7c0,0.2,0,0.5-0.1,0.6
			c-0.9,0.9-1.3,1.8-0.9,3.1c0.2,0.7-0.5,1.2-1.1,0.8c-0.5-0.3-1-0.7-1.3-1.2c-0.6-0.8-1.4-1-2.2-1.2c-0.5-0.2-1-0.5-1.5-0.8
			c-0.3-0.2-0.5-0.4-0.7-0.5c-0.9-0.5-1.9-1-2.8-1.5c-0.1,0-0.1-0.1-0.2-0.1c-1.5-0.2-1.5-1.4-1.7-2.5c-0.2-1.3-0.6-2.5-1.2-3.7
			c-0.2-0.4-1-0.7-1.6-0.8c-1-0.2-1.2-0.4-0.6-1.2c1.6-1.8,2-4.1,2.5-6.3c0.1-0.5,0.1-1,0.8-1.2c0.1,0,0.3-0.3,0.2-0.4
			c-0.5-1.3,0.5-2.3,0.9-3.4c0.2-0.7,0.8-1.3,1.2-1.9c-0.8-0.5-1.6-1-2.4-1.6c-0.1-0.1-0.1-0.6,0-0.7c0.5-0.5,1-1,1.5-1.4
			c1.1-0.8,1.7-1.8,2.2-3.1c0.9-2.6,2.5-4.6,5.2-5.5c0.5-0.2,0.7-0.3,0.5-0.9c-0.3-0.9,0.2-1.9-0.5-2.7c0.3-0.1,0.5-0.4,0.8-0.4
			c1.1-0.1,2.2-0.1,3.3-0.2c0.5,0,0.6-0.3,0.7-0.8c0.2-1,0.6-2,1-2.9c0.1-0.2,0.5-0.2,0.7-0.2c1.2,0,2-0.7,2.5-1.8
			c0.7-1.6,1.2-3.2,3.1-4c2-0.9,3.4-2.4,3.8-4.7c0.1-0.3,0.3-0.6,0.5-0.7c1.6-0.7,2-2,2.2-3.6c0-0.3,0.3-0.5,0.4-0.8
			c0.2-0.4,0.6-0.7,0.6-1.1c0-0.7,0.3-1.2,0.9-1.3c1.2-0.4,1.5-1.5,2.3-2.2c0.5-0.5,1.1-0.9,1.4-1.4c0.9-1.1,0.2-2.4,0.2-3.7
			c0-0.7,0-1.2,0.3-1.8c0.6-1,0.5-2.1,0.1-3.2c-0.1-0.3-0.7-0.5-1.1-0.6c-1-0.3-0.9-0.4-0.4-1.3c0.3-0.5,0-1.3,0-2
			c0-0.1-0.2-0.3-0.2-0.4c0.2-2.3-0.3-4.8,1.5-6.8c0.1-0.1,0.2-0.2,0.3-0.4c0.7-1.7,1.3-3.4,2-5c0.1-0.3,0.3-0.6,0.5-0.7
			c1.1-0.6,0.9-1.6,0.9-2.6c0-0.1-0.2-0.4-0.4-0.4c-0.9,0-1.8,0-2.6,0.2c-0.7,0.1-1.3,0.5-2.1,0.8c-0.3-0.4-0.2-0.9,0.1-1.5
			c0.9-2,1.7-3.9,2.6-5.9c0.3-0.6,0.8-1.1,1.3-1.5c0.2-0.1,0.7,0,1,0.2c0.1,0.1,0.2,0.6,0.1,0.8c-0.4,0.9-1,1.8-1.4,2.7
			c-0.3,0.6-0.5,1.2-0.6,1.8c-0.1,0.3,0.1,0.8,0.3,0.9c0.4,0.1,1,0.2,1.2-0.1c0.6-0.6,1.2-0.7,2-0.4c0.2,0.1,0.7-0.1,0.8-0.3
			c1.3-1.5,2.6-3,3.1-4.9c0.1-0.3-0.1-0.7-0.4-0.9c-0.2-0.1-0.7-0.1-0.9,0.1c-0.9,0.8-1.7,1.6-2.4,2.5c-0.2,0.3-0.2,0.7-0.3,1.1
			c-0.1,0.5-0.3,1.1-0.9,0.9c-0.3-0.1-0.6-0.8-0.5-1.1c0.4-0.9,1-1.8,1.5-2.7c0.6-1,1.7-1.9,1.6-3.3c0-0.3,0.2-0.6,0.5-0.8
			c1-1.1,2.1-2.1,3.2-3.1c0.1-0.1,0.2-0.2,0.3-0.4c-0.6-0.8-1.3,0.2-1.6,0c-0.8,1-1.5,1.8-2.2,2.7c-0.2,0.3-0.4,0.7-0.6,0.9
			c-0.6,0.5-1.2,0.9-1.8,1.2c0,0-0.4-0.3-0.4-0.4c0.1-0.5,0.1-1.1,0.4-1.5c0.5-0.7,1.4-1.1,1.8-1.8c1-1.7,2.7-2.9,4-4.3
			c1.3-1.4,2.6-2.8,4-4.1c0.9-0.8,2.1-1.3,3.2-1.8c0.4-0.2,1,0.2,1.4,0.5c0.1,0-0.2,0.7-0.3,1.2c0,0,0.1,0.1,0.2,0.1
			c0.8-0.3,1.5-0.5,2.3-0.2c0.1,0.1,0.5-0.2,0.5-0.3c0-0.2-0.1-0.5-0.3-0.7C57.8,5.8,57,5,56.1,4.1c-0.2-0.2-0.3-0.6-0.3-0.9
			c0-0.2,0.4-0.3,0.7-0.4c0.3-0.1,0.6,0,0.9,0c1.1,0,1.1,0,0.9,1c0,0,0,0.1,0,0.1C58.2,4.5,59.8,6,60.4,6c0.4,0,0.8,0.1,1.2,0.3
			c0.7,0.5,2.5,0.3,3-0.4c0.1-0.2,0.1-0.6,0-0.8c-0.3-0.6-1.8-1.1-2.4-0.9c-0.9,0.5-1.6,0.2-2.2-0.5c-0.2-0.2-0.5-0.4-0.6-0.6
			c-0.2-0.2-0.5-0.6-0.4-0.7c0.2-0.2,0.5-0.5,0.7-0.5c0.4-0.1,0.9,0,1.3,0.1c0.8,0.2,1.3-0.1,1.5-0.8c0.1-0.3,0.3-0.6,0.6-1.2
			c0.4,0.7,0.7,1.1,1,1.6c0.4,0.7,0.7,1.4,1.7,1.4c0.2,0,0.6,0.4,0.6,0.6c-0.3,1.6,1,2.2,1.9,3.1C68.4,6.9,68.7,7,69,7.2
			c0.5-0.6,0.6-1.1,0.4-1.9c-0.3-1-0.2-2-0.9-2.9c-0.1-0.1,0.1-0.3,0.1-0.6c0.8,0.4,1.4,0.7,2,0.9c0.4-0.1,0.8-0.1,1.2-0.2
			c-0.2,0.3-0.4,0.6-0.6,1c-0.1,0.2-0.3,0.4-0.3,0.6c-0.1,1.6-0.1,3.2-0.2,4.8c0,0.5-0.3,1-0.6,1.5c-0.3,0.5-0.8,0.4-1.2,0
			c-0.6-0.6-1.3-1.2-1.9-1.8c-1.1,0.9-1.1,0.9-2.2,0.1c-0.6-0.5-1.2-0.4-1.6,0c-0.7,0.8-1.2,1.7-1.7,2.6c0,0.1,0.1,0.3,0.2,0.4
			c0.6-0.3,1-1.2,1.7-0.2c-0.2,0.3-0.3,0.6-0.6,0.8c-0.4,0.4-0.8,0.7-1.4,0.4c-1-0.6-1.9-0.4-2.7,0.5C58.4,13.8,57.8,14.3,57,13.9
			c0.1-0.3,0.4-0.6,0.4-1c0-0.3-0.3-0.8-0.5-0.8c-1,0.1-2,0.1-2.8,0.5c-1.2,0.6-2.2,1.4-3.2,2.3c-0.5,0.4-0.9,1-1.4,1.5
			c0.1,0.1,0.1,0.2,0.2,0.2c0.2-0.1,0.5-0.1,0.7-0.2c0.5-0.1,1-0.4,1.5-0.3c0.8,0,1.1-0.4,1.4-1C54.2,13.5,55.4,12.8,57,13.9z
			 M52.9,150.4c0-0.1,0-0.2-0.1-0.2c-0.3,0.2-0.7,0.2-0.9,0.5c-0.6,1.1-0.5,2.3-0.2,3.3c0.3,1.1,0.7,1.1,2.2,0.8
			c1-0.2,1.8-0.8,2-1.7c0.1-0.8-0.4-1.7-0.7-2.5c0-0.1-0.2-0.1-0.3-0.2C54.3,150.4,53.6,150.4,52.9,150.4z M25.4,117
			c1.8,0,3.5,0,4.8-1.4c-0.3-0.9-0.3-0.9-1.2-0.6c-0.4,0.1-0.9,0.2-1.4,0.2C26.4,115.1,25.8,115.7,25.4,117z M53.7,8.7
			C53,9,52.4,9.1,52.1,9.5c-0.4,0.3-0.5,1-0.8,1.4c-0.5,0.6-1.1,1.1-1.7,1.7c-0.5,0.5-1.3,0.9-1,1.8c0.9-0.8,1.7-1.7,2.6-2.5
			c0.2-0.2,0.4-0.2,0.6-0.3C52.7,10.9,53.6,10.3,53.7,8.7z M56.1,23.5c0.2-0.3,0.3-0.5,0.4-0.6c0.3-0.7,0.5-1.5,1.6-1.3
			c0.1,0,0.2-0.3,0.4-0.5c-0.2-0.1-0.5-0.4-0.7-0.4C56.7,20.7,55.8,22.2,56.1,23.5z M19.6,113.2c0,0.1,0,0.2,0,0.3
			c0.9,0.4,1.7,0.4,2.8,0c-0.2-0.4-0.4-0.6-0.5-0.8C21.1,112.9,20.3,113,19.6,113.2z M22.7,135.1c0.8-0.4,0.9-0.9,0.7-1.5
			c0-0.1-0.6,0-0.9,0C22.5,134.2,22.6,134.6,22.7,135.1z"/>
		<path d="M77,28.5c-0.4,0.2-0.7,0.3-1,0.3c-0.2,0.1-0.4,0.1-0.6,0.1c-0.8-0.4-1.7-0.8-2.4-1.3c-0.5-0.3-0.6-0.9-0.2-1.4
			c0.4-0.5,0.8-0.3,1.2,0c0.6,0.4,1.2,0.8,1.8,1.1c0.2,0.1,0.6-0.1,0.8-0.2c0.5-0.2,1-0.4,1.5-0.6c0.2,0.5,0.4,1,0.5,1.5
			c0.2,0.9,0.4,1.8,0.6,2.8c0.1,0.3,0.3,0.6,0.3,0.8c-0.2,1.4,0.8,2.2,1.5,3.2c0.8,1,1.7,1.9,2.4,3c0.2,0.3,0.3,0.8,0.3,1.2
			c0.2,1.7,0,2.9-2.2,2.6c-0.1,0-0.3,0.2-0.4,0.2c-0.2,0-0.5,0-0.7,0c0-0.2,0-0.5,0.1-0.7c0.1-0.2,0.3-0.3,0.4-0.5
			c0.1-0.2,0.3-0.4,0.2-0.5c-0.5-0.8-0.2-2-1.1-2.7C80.2,37.1,80,37,80,36.9c-0.4-1.5-1.4-2.8-1.4-4.4c0-0.2-0.1-0.7-0.2-0.7
			c-0.9-0.3-0.8-1-1-1.7C77.4,29.6,77.2,29.1,77,28.5z"/>
		<path d="M55.3,109.3c0,0.1,0,0.1,0,0.2c-0.1,0.4-0.2,0.8-0.3,1.2c-0.1,0.1-0.7,0-0.8-0.1c-0.2-0.5-0.3-1-0.3-1.5
			c0.1-1.1,0.3-2.2,0.4-3.3c0.1-0.4,0.3-0.8,0.4-1.3c0.2-1.5,0.3-2.9,0.4-4.4c0.1-0.7,0.2-1.3,0.2-2c0-0.9-0.2-1.9-0.3-2.8
			c-0.1-0.6-0.2-1.2,0.5-1.5c0.1,0,0.1-0.3,0.2-0.5c0.1-0.8,0.3-1.5,0.4-2.3c0.1-0.2,0.4-0.4,0.5-0.6c0.2,0.3,0.6,0.7,0.5,0.8
			c-0.9,2.1,0,4.3-0.3,6.4c-0.1,0.4-0.2,0.8-0.3,1.2c0,0.1-0.2,0.2-0.1,0.3c0.4,1.8-0.5,3.5-0.8,5.2c-0.2,1.6-0.4,3.2-0.5,4.8
			C55.1,109.3,55.2,109.3,55.3,109.3z"/>
		<path d="M68.6,13.1c0.1,0.3,0.3,0.6,0.3,1c0,1.2-0.1,2.4-0.2,3.6c0,0.6,0,1-0.9,0.8c-0.9-0.1-1.8,0.1-2.8,0.2
			c-0.8,0.1-1.6,0.7-2.2-0.3c-0.4-0.7-0.3-1.3,0.5-2.3c0.5-0.6,0.8-1.2,1.3-1.8c0.1-0.1,0.1-0.3,0.2-0.3c0.7-0.2,1.4-0.4,2.1-0.6
			c0.5-0.1,1-0.1,1.5-0.1C68.5,13.2,68.6,13.2,68.6,13.1z"/>
		<path d="M53.8,38.7c-0.3,1.1-0.5,2.1-0.8,3.2c-0.2,0.7-0.3,1.5-0.5,2.2c-0.1,0.3-0.3,0.5-0.5,0.7c-0.3-0.2-0.6-0.4-0.8-0.6
			c-0.2-0.3-0.2-0.8-0.2-1.1c0-1.4-0.3-2.8,1-3.8c0.1-0.1,0.1-0.5,0-0.7c-0.6-1.5-0.4-2.2,0.7-3.4c0.3-0.3,0.3-0.7,0.6-1
			c0.2-0.2,0.6-0.4,0.9-0.5c0.1,0.3,0.3,0.6,0.4,0.9c0.1,0.9-0.2,1.7-0.7,2.5c-0.3,0.5-0.4,1-0.5,1.6C53.7,38.6,53.8,38.6,53.8,38.7
			z"/>
		<path d="M70.4,140.9c0.2-0.4,0.4-0.7,0.6-1.2c0.4,0.5,0.6,0.8,0.9,1.1c-0.7,0.3-0.5,0.8-0.3,1.4c0.6,1.8,0.9,3.7,0.7,5.7
			c0,0.5-0.6,0.9-0.8,1.3c-0.3-0.5-0.8-1-0.8-1.4c0-0.9,0-1.7-0.7-2.5c-0.3-0.3-0.1-1-0.2-1.5c-0.1-0.3-0.3-0.6-0.4-0.9
			c-0.2-0.3-0.5-1-0.4-1C69.4,141.4,69.5,140.3,70.4,140.9z"/>
		<path d="M40.8,112c0-1.1,0-2,0-2.9c0-0.2,0.1-0.5,0.2-0.6c0.1-0.1,0.5,0,0.6,0.1c0.4,0.4,0.9,0.8,1.1,1.4c0.5,1.2,0.8,2.4,1.3,3.6
			c0.4,0.9,0.7,1.7,0.5,2.7c-0.1,0.2,0.3,0.5,0.4,0.7c0.4,0.6,0.8,1.2,1.2,1.9c0.1,0.1,0,0.4-0.1,0.4c-0.2,0-0.4,0-0.5-0.1
			c-0.5-0.5-1-1.1-1.5-1.7c-0.3-0.4-0.7-0.8-0.9-1.3c-0.3-0.7-0.5-1.4-0.5-2.1C42.5,112.8,42,112.1,40.8,112z"/>
		<path d="M46.3,64.8c1.4,0,2.2,0.8,2.8,1.7c0.4,0.7,0.6,1.5,0.9,2.3c0.1,0.3,0.4,0.6,0.5,0.9c0.1,0.3,0.1,0.6,0.1,0.9
			c-0.3,0-0.7,0.1-0.9-0.1c-0.4-0.4-0.7-1-1.2-1.4c-0.7-0.7-1.6-1.3-2.2-2.1c-0.4-0.4-0.4-1.1-0.5-1.7C45.8,65,46.2,64.8,46.3,64.8z
			"/>
		<path d="M77.5,109.2c0.2-0.7,0.3-1.3,0.4-1.8c0.2-0.8,0.5-1.7,0.7-2.5c0.2-0.6,0.3-1.2,0.5-1.8c0.1-0.2,0.4-0.4,0.5-0.4
			c0.2,0,0.4,0.4,0.4,0.5c-0.3,1.3-0.7,2.6-1.1,3.9c-0.2,0.6-0.6,1-0.4,1.7c0.1,0.2-0.2,0.6-0.4,0.9c-0.2,0.4-0.5,0.9-0.4,1.3
			c0.1,1.9-1.1,3.1-2.7,2.8c0.1-0.8,0.7-1.1,1.2-1.5c0.4-0.4,0.6-0.7,0.6-1.4C76.7,110.3,76.7,109.4,77.5,109.2z"/>
		<path d="M73.7,6.5c-0.1-0.2-0.3-0.3-0.3-0.5c0-0.2,0.1-0.5,0.2-0.7c0.9-1,1.6-2.2,3-2.6c0.3-0.1,0.7,0,0.8,0.2
			c0.3,0.4,0.5,0.9,0.8,1.4c0.1,0.1,0,0.4-0.1,0.4C77.6,5,77,5.4,76.4,5.5c-0.7,0.2-1.5,0.1-2.1,0.7C74.2,6.3,74,6.4,73.7,6.5z"/>
		<path d="M92.3,90.4c-0.3,0.8-0.6,1.6-0.8,2.4c-0.1,0.2,0,0.5-0.1,0.8c-0.2,0.6-0.4,1.2-0.6,1.8c-0.1,0.4-0.2,0.9-0.3,1.3
			c-0.1,0.3-0.1,0.5-0.2,0.8c-0.2-0.2-0.3-0.3-0.5-0.5c-0.7-0.6-0.4-1.2-0.1-1.9c0.4-1,0.4-2,0.7-3c0.2-0.7,0.6-1.4,1-2.1
			c0.1-0.1,0.4-0.2,0.6-0.2C92.1,89.7,92.2,90,92.3,90.4z"/>
		<path d="M79.3,38.5c-0.3,0.8-0.6,1.4-0.9,2c0,0.1-0.7-0.1-0.7-0.2c-0.2-1.2-1.1-2.3-0.7-3.7c0.1-0.2-0.2-0.6-0.1-0.9
			c0.1-0.3,0.4-0.6,0.6-1c0.3,0.2,0.6,0.3,0.7,0.6C78.7,36.5,79,37.5,79.3,38.5z"/>
		<path d="M51.8,65.7c-0.3,0.3-0.6,0.5-0.9,0.7c-0.5,0.3-1.1,0.2-1.3-0.2c-0.1-0.2,0.1-1,0.3-1.1c1.1-0.4,2.2-0.8,3.3-1.1
			c0.5-0.1,0.8,0.2,0.6,0.8c-0.2,0.7-0.3,1.4-0.4,2.1c0,0.2-0.2,0.5-0.4,0.5c-0.1,0-0.4-0.1-0.5-0.3C52.3,66.8,52.1,66.3,51.8,65.7z
			"/>
		<path d="M68.2,106c0,1.4,0.1,2.6,0,3.8c-0.1,0.6-0.3,1.3-0.7,1.8c-0.2,0.2-0.9,0-1.4-0.1c-0.1,0-0.2-0.7-0.1-0.7
			c1.3-0.6,1.1-1.9,1.3-3c0.1-0.4,0-0.9,0.1-1.2C67.4,106.3,67.8,106.2,68.2,106z"/>
		<path d="M67,24.2c0.8-0.7,1-1.4,0.9-2.3c0-0.3,0.2-0.8,0.5-1c0.3-0.3,0.6-0.5,1-0.8c0.1,0.1,0.3,0.3,0.3,0.4
			c-0.2,0.9-0.4,1.9-0.7,2.8c-0.1,0.3-0.3,0.5-0.4,0.8c-0.2,0.3-0.3,0.6-0.5,0.9C67.7,24.7,67.3,24.5,67,24.2z"/>
		<path d="M89.1,147.9c-0.5,0.1-0.9,0.4-1,0.3c-0.5-0.4-1-0.2-1.5-0.1c-0.4,0.1-0.8,0-1.2,0c-0.1,0-0.3-0.5-0.2-0.5
			c0.6-0.5,1.2-1,1.8-1.5c0.1-0.1,0.4-0.2,0.4-0.1C87.8,146.4,88.3,147,89.1,147.9z"/>
		<path d="M64.1,26.1c0.1-1.1,0.7-2,1.5-2.1c0.3,0,0.7,0.1,0.9,0.2c0.1,0.2,0.1,0.6,0,0.9c-0.2,0.5-0.4,1-0.7,1.3
			c-0.3,0.3-0.8,0.5-1.2,0.8C64.5,26.8,64.3,26.5,64.1,26.1z"/>
		<path d="M57.7,40.5c-0.3,1.3-0.6,2.4-1,3.6c-0.2,0.6-0.3,1.2-1.1,1.1c-0.4,0-0.6-1-0.3-1.6c0.3-0.5,0.7-1,0.7-1.7
			C56.1,41.2,56.7,40.4,57.7,40.5z"/>
		<path d="M99.9,34c-0.1-0.3-0.3-0.5-0.4-0.8c-0.1-0.3-0.1-0.7,0-1.1c0-0.1,0.4-0.2,0.6-0.1c0.3,0.2,0.8,0.5,0.8,0.8
			c0,0.6,0,1.1,0.7,1.2c0.1,0,0.3,0.5,0.2,0.5c-0.5,0.3-0.9,0.6-1.4,0.7c-0.2,0-0.5-0.6-0.8-0.9C99.7,34.1,99.8,34.1,99.9,34z"/>
		<path d="M78.8,76.2c-0.1-0.4-0.3-0.6-0.2-0.8c0.3-0.9,0.5-1.9,1-2.8c0.2-0.3,0.8-0.5,1.2-0.7c0,0,0.4,0.5,0.3,0.6
			c-0.5,1-1,1.9-1.5,2.8C79.4,75.6,79.2,75.8,78.8,76.2z"/>
		<path d="M45.9,37.4c-0.1-0.2-0.4-0.5-0.3-0.7c0.5-1.2,1-2.3,1.5-3.4c0.1-0.2,0.5-0.2,0.8-0.3c0,0.3,0,0.5-0.1,0.8
			c-0.3,0.9-0.6,1.7-0.9,2.6c-0.2,0.4-0.4,0.7-0.6,1.1C46.2,37.5,46,37.4,45.9,37.4z"/>
		<path d="M85.5,87.4c-1.3,0.9-1,2-1.1,3c0,0.3-0.4,0.5-0.5,0.8c-0.2-0.3-0.4-0.5-0.5-0.8c-0.1-0.6,0-1.3,0-1.9
			C83.3,87.8,84.1,87.3,85.5,87.4z"/>
		<path d="M49.2,35.1c0-0.8,1.2-2.3,1.9-2.4c0.2,0,0.4,0,0.5,0.1c0.1,0.2,0.1,0.5,0,0.7c-0.4,0.6-0.9,1.2-1.4,1.8
			c-0.1,0.2-0.5,0.2-0.7,0.2C49.3,35.5,49.2,35.2,49.2,35.1z"/>
		<path d="M82.9,57.1c-0.8-0.6-1.4-2-1.1-2.8c0.1-0.2,0.4-0.5,0.6-0.5c0.2,0,0.5,0.2,0.6,0.4C83.4,54.6,83.2,56.5,82.9,57.1z"/>
		<path d="M85.9,104.3c0.5-0.2,1.3,0,1.5,0.6c0.1,0.4,0.4,0.7,0.4,1.1c0,0.3-0.2,0.7-0.3,1c-0.4-0.2-1-0.2-1.1-0.5
			C86.2,105.8,86.1,105.1,85.9,104.3z"/>
		<path d="M88.3,125.2c-0.4-0.6-0.8-1.2-1.1-1.9c0,0,0.4-0.3,0.7-0.5c0.1,0.9,1.9-0.5,1.5,1c-0.1,0.5-0.4,0.9-0.7,1.3
			C88.6,125.2,88.5,125.2,88.3,125.2z"/>
		<path d="M83.7,110.4c-0.1,0.8,0.3,1.8-0.8,1.9c-0.2,0-0.7-0.8-0.6-1c0.2-0.5,0.7-0.9,1.1-1.3C83.5,110.2,83.6,110.3,83.7,110.4z"
			/>
		<path d="M57.5,115.8c-0.5,0.5-0.9,0.8-1.3,1.1c-0.2-0.3-0.7-0.9-0.7-0.9c0.3-0.4,0.7-0.7,1.2-0.9C56.7,115,57.1,115.5,57.5,115.8z
			"/>
		<path d="M74,89.7c0.2-0.3,0.3-0.6,0.4-0.8c0.2,0.2,0.3,0.3,0.5,0.5c0.2,0.3,0.5,0.6,0.7,0.9c0.1,0.2,0,0.5,0,0.7
			c-0.3,0-0.8,0.1-0.9-0.1C74.4,90.7,74.3,90.2,74,89.7z"/>
		<path d="M74.3,97.4c-0.1-0.1-0.4-0.3-0.4-0.4c0-0.2,0-0.5,0.2-0.6c0.2-0.1,0.6,0,0.6,0.1c0.1,0.5,0.2,1,0.2,1.5
			c0,0.2-0.5,0.4-0.7,0.5c-0.1,0-0.3-0.2-0.5-0.3C73.9,97.9,74,97.7,74.3,97.4z"/>
		<path d="M92.5,145.8c-0.3-0.1-0.5-0.1-0.7-0.2c-0.2-0.1-0.3-0.3-0.5-0.5c0.2-0.1,0.4-0.3,0.6-0.3c0.3-0.1,0.7-0.1,1,0
			c0.3,0,0.5,0.1,0.8,0.2c-0.2,0.2-0.3,0.5-0.6,0.7C92.9,145.7,92.7,145.7,92.5,145.8z"/>
		<path d="M74.5,11.5c-0.7,0.1-1.3,0.3-2,0.4c-0.1,0-0.3-0.3-0.3-0.4c0.1-0.3,0.2-0.6,0.5-0.7C73.3,10.5,73.9,10.6,74.5,11.5z"/>
		<path d="M63,23.5c-0.3-0.3-0.4-0.4-0.4-0.5c-0.1-0.5,0.8-1.5,1.3-1.4c0.1,0,0.4,0.3,0.3,0.3C63.9,22.4,63.5,22.9,63,23.5z"/>
		<path d="M82,6.5c-0.4,0.5-0.7,1.3-1.6,0.4c0.9-0.8,2.1-0.5,3.1-1C83,6.9,83,7,82,6.5z"/>
		<path d="M70.3,111.7c-0.3,0.4-0.4,0.9-0.7,1.2c-0.1,0.1-0.5,0.1-0.7,0.1c0-0.2-0.1-0.5,0-0.6C69.1,111.8,69.5,111.4,70.3,111.7z"
			/>
		<path d="M80.7,4.7c0.1-0.3,0.1-0.7,0.3-0.8c0.4-0.2,0.8-0.2,1.3-0.2c0,0.2,0,0.5-0.1,0.6c-0.4,0.2-0.8,0.4-1.2,0.6
			C80.8,4.8,80.8,4.8,80.7,4.7z"/>
		<path d="M44.9,43.7c-0.3,0.4-0.5,0.7-0.8,1.1c-0.1-0.1-0.4-0.3-0.4-0.4c0.1-0.5,0.3-1,0.5-1.4C44.5,43.2,44.7,43.4,44.9,43.7z"/>
		<path d="M45.2,40.5c0.4,0.8,0.1,1.4-0.7,2.1C44.4,41.6,44.9,41,45.2,40.5z"/>
		<path d="M73.4,144.6c-0.2-0.3-0.5-0.6-0.7-0.9c0.3-0.2,0.5-0.4,0.8-0.5c0.1,0.4,0.3,0.8,0.4,1.2C73.7,144.4,73.6,144.5,73.4,144.6
			z"/>
		<path d="M89.1,74.3c0.2,0.4,0.4,0.8,0.6,1.1c-0.4-0.1-0.8-0.1-1.1-0.3c-0.1-0.1,0-0.5,0.1-0.8C88.8,74.3,88.9,74.3,89.1,74.3z"/>
		<path d="M86.8,103c-0.4-0.8-0.1-1.1,0.4-1.3c0.1-0.1,0.4,0.1,0.5,0.1C87.5,102.2,87.2,102.6,86.8,103z"/>
		<path d="M41.3,107.3c-0.2,0.2-0.4,0.4-0.7,0.6c-0.1-0.1-0.3-0.3-0.3-0.4c0.1-0.3,0.3-0.6,0.5-0.8c0.1-0.1,0.4,0.1,0.6,0.2
			C41.4,107.1,41.4,107.2,41.3,107.3z"/>
		<path d="M95,144.7c0.2,0.3,0.5,0.5,0.7,0.8c-0.2,0.1-0.6,0.3-0.6,0.3c-0.2-0.2-0.3-0.5-0.4-0.8C94.7,144.8,94.9,144.8,95,144.7z"
			/>
		<path fill="#FFFFFF" d="M115.1,126.3c-0.6,0.2-1.3,0.5-1.9,0.7c-0.2,0.1-0.5,0.3-0.5,0.4c0,0.2,0.2,0.5,0.4,0.6
			c0.5,0.2,1,0.4,1.6,0.6c0.4,0.1,0.7,0.2,0.9,0.2c0.2,0.7,0.3,1.3,0.4,1.8c0.1,0.5,0.1,0.9-0.6,1.1c-0.2,0-0.5,0.1-0.7,0.2
			c-1.6,0.5-2,0.2-2.2-1.4c0-0.2-0.1-0.5-0.2-0.8c-0.3,0.2-0.5,0.3-0.6,0.3c-0.4,0.2-0.7,0.2-1-0.3c-0.5-1-1.3-1.4-2.3-1.1
			c-0.2,0.1-0.6,0.3-0.6,0.4c0,0.3,0,0.7,0.2,1c0.3,0.3,0.7,0.5,1,0.7c1.7,0.8,2,1.1,2.4,3.1c-0.4,0.1-0.9,0.1-1.3,0.2
			c-0.4,0.1-0.9,0.2-1.2,0.4c-0.7,0.4-1.2,0.5-1.6-0.4c-0.2-0.4-0.6-0.7-0.9-1.1c-0.2-0.4-0.4-0.9-0.4-1.4c-0.1-0.7-0.4-0.8-0.9-0.7
			c-0.2,0-0.4,0.1-0.6,0.1c-0.7,0.1-0.9,0.4-0.5,1c0.5,0.8,1.1,1.6,1.5,2.4c0.5,1.2-0.5,2.3-1.8,2.2c-0.5,0-1,0.2-1.4,0.3
			c-0.5,0.1-0.8,0.1-0.9-0.5c0-0.2-0.2-0.4-0.3-0.5c-1.1-0.8-1.3-2-1.3-3.3c0-0.9-0.2-1.9-0.4-2.8c-0.4-1.6-0.2-3.1,0.1-4.6
			c0-0.1,0.1-0.3,0.1-0.4c-0.2-1.1,0-1.9,1-2.3c1.1-0.5,2.3-0.7,3.5-1c0.2,0,0.4,0.2,0.7,0.3c1,0.4,1.9,0.5,2.8-0.4
			c0.5-0.6,1.2-1,1.8-1.5c0.7-0.6,1.3-0.4,2-0.1c0.6,0.3,1.1,0.7,0.9,1.5c0,0.2,0.2,0.5,0.4,0.6c0.3,0.2,0.7,0.3,1.1,0.4
			c0.8,0.3,1,0.8,0.9,1.6c-0.2,0.8-0.4,1.6,0.9,2C115.2,126.1,115.1,126.2,115.1,126.3z M105.8,129c-0.3,0.2-0.5,0.3-0.6,0.5
			c-0.1,0.1-0.1,0.5,0,0.6c0.5,0.4,1,1,1.7,0.6c0.2-0.1,0.4-0.6,0.4-0.6C106.8,129.7,106.3,129.4,105.8,129z"/>
		<path fill="#FFFFFF" d="M60.3,54c-0.3-1.1,0.1-2,0.8-2.9c0.4-0.4,0.4-1.2,0.5-1.8c0.1-0.3,0.1-0.8,0.3-1c0.9-0.6,0.9-1.5,1.1-2.4
			c0.3-1.5,0.6-1.7,2-1.5c0.9,0.2,1.9,0.3,2.8,0.5c0.3,0.1,0.8,0.1,1,0.3c0.3,0.4,0.5,0.9,0.6,1.5c0.1,0.9,0.1,1.8,0.1,2.8
			c0,1.2,0.1,2.3-0.1,3.5c-0.2,1.2-0.7,2.3-1.1,3.5c0,0.1-0.1,0.1-0.1,0.1c-0.9,0.4-1.9,0.8-2.8,1.1c-0.6,0.2-1.3,0.4-1.9,0.3
			c-0.7-0.1-1.3-0.4-1.9-0.7c-0.4-0.2-0.7-0.6-0.9-1c-0.3-0.7-0.6-1.5-0.9-2.2C60.1,54.1,60.2,54,60.3,54z M68.6,49.8
			c-0.1-0.1-0.4-0.3-0.6-0.3c-0.5,0-1,0.1-1.5,0.2c-0.2,0.1-0.3,0.4-0.5,0.6c0.2,0.1,0.4,0.3,0.5,0.3c0.2,0.1,0.5,0.1,0.7,0.2
			C68,51.3,68.5,51,68.6,49.8z M64.7,55.3c0.1,0.1,0.3,0.2,0.4,0.3c0.2-0.3,0.5-0.5,0.7-0.8c0-0.1-0.3-0.3-0.5-0.5
			C65.1,54.6,64.9,55,64.7,55.3z M66.3,53c-0.5-0.2-0.7-0.4-0.9-0.5c-0.2,0-0.3,0.3-0.5,0.4c0.2,0.1,0.3,0.3,0.5,0.3
			C65.7,53.4,65.9,53.2,66.3,53z"/>
		<path fill="#FFFFFF" d="M96.7,59.6c-0.1-0.7-0.3-1.4-0.4-2.1c0-0.3,0.2-0.7,0.3-1c0.2-0.3,0.4-0.5,0.6-0.7
			c0.5-0.5,0.3-0.8-0.1-1.2c-1-0.8-1-1.3,0-2.2c0.6-0.5,0.8-1,0.5-1.8c-0.2-0.6,0-1.4,0.2-2c0.2-0.6,0.1-0.9-0.3-1.5
			c-0.5-0.7-0.6-1.7-1-2.6c-0.1-0.4-0.3-0.8-0.5-1.1c-0.4-0.5-0.2-0.9,0.2-1.2c0.1-0.1,0.7,0.2,0.8,0.4c0.7,1.3,1.5,2.5,2,3.9
			c0.3,0.6,0.2,1.4,0.1,2.2c-0.1,1.9-0.4,3.8-0.5,5.7c0,1,0.2,2,0.3,3c0,0.4,0,0.8,0,1.2c0,0.4-0.3,0.8-0.2,1.1
			c0.2,0.9-0.5,1-1.1,1.2C97.2,61,96.5,60.2,96.7,59.6z"/>
		<path fill="#FFFFFF" d="M72.5,35.8c0.1,0.5,0.1,1,0.2,1.4c-0.5,0-0.9-0.1-1.3,0C71.2,37.3,71,37.7,71,38c0,0.9-0.3,1.3-1.2,1.1
			c-0.9-0.2-1.7-0.4-2.6,0.2c-0.3,0.2-0.9-0.1-1.3-0.2c-0.8-0.2-1.5-0.6-2.3-0.8c-0.5-0.2-1-0.2-0.7-1c0.1-0.2,0.1-0.7,0-0.9
			c-0.6-0.6-0.1-1.2,0-1.8c0.1-0.5,0.4-0.5,0.8-0.2c0.2,0.2,0.4,0.4,0.6,0.6c1.8,1.5,3.9,1.3,6,1.2C71,36.1,71.7,35.9,72.5,35.8z"/>
		<path fill="#FFFFFF" d="M94.5,33.6c-1.1,0-1.9-0.6-2.7-1.3c-0.5-0.5-0.4-1,0-1.4c0.5-0.5,1.1-1,1.7-1.3c0.2-0.1,0.8,0.3,1.1,0.6
			c0.7,0.7,0.6,1.7,0.8,2.6C95.4,33.5,95.1,33.7,94.5,33.6z"/>
		<path fill="#FFFFFF" d="M82.4,69.1c-0.7-0.3-1.7,0-1.8-1.3c-0.1-0.7-0.8-1.3-1.2-2c-0.1-0.2-0.2-0.6-0.1-0.7
			c0.2-0.2,0.6-0.3,0.8-0.2c0.9,0.3,1.7,0.7,2.5,1.1c0.2,0.1,0.3,0.4,0.3,0.6C82.8,67.4,82.6,68.2,82.4,69.1z"/>
		<path fill="#FFFFFF" d="M84.4,18.9c1-0.3,2-0.5,3-0.8c0,0.3,0.1,0.5,0.1,0.7c-0.3,0.8,0.1,1.2,0.6,1.8c0.5,0.5,0.7,1.3,1,1.9
			c0,0-0.4,0.4-0.5,0.4c-0.5-0.1-1-0.2-1.4-0.4c-0.3-0.2-0.9-0.4-0.9-0.6c-0.1-0.4,0.2-0.8,0.3-1.2c0.1-0.2,0.3-0.4,0.5-0.7
			c-0.3,0-0.6-0.2-0.9-0.1C85.1,20,84.7,19.8,84.4,18.9z"/>
		<path fill="#FFFFFF" d="M83.5,22.2c-0.1,0.3-0.3,0.6-0.4,0.9c-0.3-0.2-0.5-0.5-0.8-0.7c-0.1-0.1-0.2-0.3-0.3-0.4
			c-0.1-0.2-0.2-0.5-0.3-0.7c0.3,0,0.5-0.1,0.8,0C82.9,21.4,83.6,21.3,83.5,22.2z"/>
		<path fill="#FFFFFF" d="M52.9,150.4c0.7,0,1.4,0,2,0c0.1,0,0.3,0.1,0.3,0.2c0.3,0.8,0.8,1.7,0.7,2.5c-0.1,0.9-0.9,1.5-2,1.7
			c-1.5,0.3-1.8,0.3-2.2-0.8c-0.3-1.1-0.4-2.3,0.2-3.3c0.1-0.2,0.6-0.3,0.9-0.5C52.9,150.2,52.9,150.3,52.9,150.4z"/>
		<path fill="#FFFFFF" d="M57,13.9c-1.7-1.1-2.9-0.4-3.7,1.2c-0.3,0.6-0.6,1-1.4,1c-0.5,0-1,0.2-1.5,0.3c-0.2,0.1-0.5,0.1-0.7,0.2
			c-0.1-0.1-0.1-0.2-0.2-0.2c0.5-0.5,0.9-1.1,1.4-1.5c1-0.8,2.1-1.7,3.2-2.3c0.8-0.4,1.9-0.4,2.8-0.5c0.2,0,0.5,0.5,0.5,0.8
			C57.4,13.3,57.2,13.6,57,13.9C57,14,57,13.9,57,13.9z"/>
		<path fill="#FFFFFF" d="M25.4,117c0.4-1.3,1-1.8,2.2-1.8c0.5,0,0.9-0.1,1.4-0.2c0.9-0.3,0.9-0.3,1.2,0.6
			C28.9,117,27.2,117,25.4,117z"/>
		<path fill="#FFFFFF" d="M53.7,8.7c0,1.6-1,2.2-1.8,2.8c-0.2,0.1-0.4,0.2-0.6,0.3c-0.9,0.8-1.7,1.6-2.6,2.5c-0.3-1,0.5-1.3,1-1.8
			c0.6-0.5,1.2-1.1,1.7-1.7c0.3-0.4,0.4-1,0.8-1.4C52.4,9.1,53,9,53.7,8.7z"/>
		<path fill="#FFFFFF" d="M56.1,23.5c-0.4-1.3,0.5-2.8,1.6-2.9c0.2,0,0.5,0.3,0.7,0.4c-0.1,0.2-0.3,0.5-0.4,0.5
			c-1.1-0.2-1.3,0.7-1.6,1.3C56.4,23,56.3,23.2,56.1,23.5z"/>
		<path fill="#FFFFFF" d="M19.6,113.2c0.7-0.2,1.4-0.3,2.3-0.5c0.1,0.2,0.3,0.4,0.5,0.8c-1,0.4-1.9,0.3-2.8,0
			C19.6,113.4,19.6,113.3,19.6,113.2z"/>
		<path fill="#FFFFFF" d="M22.7,135.1c-0.1-0.5-0.2-1-0.3-1.4c0.3,0,0.9-0.2,0.9,0C23.6,134.2,23.4,134.7,22.7,135.1z"/>
		<path d="M105.8,129c0.5,0.4,1,0.7,1.5,1c0,0-0.2,0.5-0.4,0.6c-0.7,0.4-1.2-0.2-1.7-0.6c-0.1-0.1-0.1-0.4,0-0.6
			C105.2,129.3,105.5,129.2,105.8,129z"/>
		<path d="M68.6,49.8c0,1.2-0.5,1.5-1.4,1c-0.2-0.1-0.5-0.1-0.7-0.2c-0.2-0.1-0.4-0.2-0.5-0.3c0.1-0.2,0.3-0.5,0.5-0.6
			c0.5-0.2,1-0.2,1.5-0.2C68.2,49.5,68.4,49.7,68.6,49.8z"/>
		<path d="M64.7,55.3c0.2-0.3,0.4-0.7,0.6-1c0.2,0.2,0.5,0.5,0.5,0.5c-0.2,0.3-0.5,0.5-0.7,0.8C65,55.5,64.8,55.4,64.7,55.3z"/>
		<path d="M66.3,53c-0.4,0.2-0.6,0.3-0.8,0.3c-0.2,0-0.4-0.2-0.5-0.3c0.2-0.1,0.3-0.4,0.5-0.4C65.6,52.6,65.8,52.8,66.3,53z"/>
	</g>
</g>
</svg>
