<?xml version="1.0" encoding="utf-8"?>
<!-- Generator: Adobe Illustrator 18.1.1, SVG Export Plug-In . SVG Version: 6.00 Build 0)  -->
<svg version="1.1" id="Layer_1" xmlns="http://www.w3.org/2000/svg" xmlns:xlink="http://www.w3.org/1999/xlink" x="0px" y="0px"
	 viewBox="0 0 140.5 199.8" enable-background="new 0 0 140.5 199.8" xml:space="preserve">
<g>
	<g>
		<g>
			<g>
				<path d="M132.5,6.3c-4.7-3.7-10.9-5.7-17.5-5.7c-6.6,0-12.8,2-17.5,5.7c-4.7,3.7-7.3,8.7-7.3,14c0,3.2,1,6.4,2.8,9.2
					c1.7,2.6,4.2,4.9,7.1,6.6c-0.1,1-0.9,3.7-4.8,7.1c-0.2,0.2-0.3,0.4-0.2,0.7c0.1,0.3,0.3,0.4,0.6,0.5c0,0,0.6,0.1,1.6,0.1
					c2.9,0,8.8-0.6,16.1-4.4c0.6,0,1.1,0,1.7,0c6.6,0,12.8-2,17.5-5.7c4.7-3.7,7.3-8.7,7.3-14C139.9,15,137.3,10.1,132.5,6.3
					L132.5,6.3z M132.5,6.3"/>
				<path fill="#FFFFFF" d="M97.3,45c-1,0-1.6-0.1-1.7-0.1c-0.5-0.1-0.9-0.4-1.1-0.9c-0.1-0.5,0-1,0.4-1.3c3.3-2.8,4.3-5.2,4.5-6.3
					c-2.9-1.8-5.2-4-6.9-6.6c-1.9-2.9-2.9-6.2-2.9-9.5c0-5.5,2.7-10.6,7.6-14.5C102,2.1,108.3,0,115.1,0s13.1,2.1,17.9,5.9
					c4.9,3.8,7.6,9,7.6,14.5c0,5.5-2.7,10.6-7.6,14.5c-5.1,4.1-12.1,6.2-19.4,5.8C106.2,44.4,100.2,45,97.3,45z M115.1,1.2
					c-6.5,0-12.5,2-17.1,5.6c-4.6,3.6-7.1,8.4-7.1,13.5c0,3.1,0.9,6.1,2.7,8.8c1.7,2.5,4,4.7,6.9,6.4l0.3,0.2l-0.1,0.4
					c-0.2,1.1-1,4-5,7.4l0,0.7l0.1-0.6c0.1,0,0.6,0.1,1.5,0.1c2.8,0,8.6-0.6,15.8-4.3l0.1-0.1l0.2,0c7.1,0.4,13.8-1.6,18.7-5.5
					c4.6-3.6,7.1-8.4,7.1-13.5c0-5.1-2.5-9.9-7.1-13.5C127.6,3.2,121.5,1.2,115.1,1.2z"/>
			</g>
		</g>
	</g>
	<g>
		<path fill="#FFFFFF" d="M105.2,15c0.2-0.1,0.5-0.1,0.7,0s0.4,0.3,0.6,0.5c0.2,0.3,0.2,0.9-0.1,1.6c-0.2,0.4-0.3,0.8-0.4,1.1
			c-0.1,0.3-0.2,0.8-0.3,1.4c-0.1,0.3-0.1,1.1-0.2,2.2c0,0.5-0.1,0.8-0.2,1c-0.1,0.3-0.3,0.5-0.6,0.5s-0.5,0-0.8-0.1
			c-0.2-0.1-0.6-0.4-1.2-0.8c-0.6-0.5-1.1-0.9-1.5-1.2c-0.2-0.2-0.4-0.3-0.5-0.3s-0.2,0.1-0.3,0.2c-0.1,0.2-0.3,0.5-0.6,1
			c-0.4,0.7-0.6,1.2-0.8,1.4s-0.3,0.5-0.4,0.6s-0.3,0.1-0.4,0.1c-0.2,0-0.4-0.1-0.6-0.2c-0.2-0.1-0.3-0.2-0.4-0.3
			c-0.1-0.1-0.2-0.3-0.2-0.6c-0.1-0.7-0.4-1.5-0.6-2.5c-0.3-1-0.5-1.8-0.7-2.3c0-0.1-0.1-0.3-0.1-0.4c-0.1-0.2-0.1-0.3-0.2-0.5
			c-0.1-0.2-0.1-0.3-0.2-0.5c-0.1-0.3-0.2-0.6-0.2-0.7c0-0.2,0-0.4,0.1-0.5c0.1-0.3,0.3-0.4,0.7-0.4c0.2,0,0.4,0.1,0.6,0.2
			c0.2,0.1,0.4,0.3,0.5,0.4c0.1,0.1,0.3,0.6,0.6,1.5c0.3,1,0.6,1.6,0.7,1.9c0.1,0.3,0.2,0.4,0.2,0.4c0.1,0,0.2-0.2,0.6-0.7
			c0.3-0.4,0.5-0.7,0.7-0.8c0.2-0.1,0.4-0.2,0.6-0.2c0.2,0,0.4,0.1,0.7,0.3c0.3,0.2,0.5,0.4,0.7,0.6c0.4,0.4,0.8,0.8,1.1,1.2
			c0.4,0.4,0.6,0.6,0.6,0.6c0.1,0,0.3-0.7,0.6-2.1c0.3-1.4,0.5-2.3,0.6-2.9c0-0.2,0.1-0.3,0.2-0.5C104.9,15.1,105,15,105.2,15z"/>
		<path fill="#FFFFFF" d="M111.9,15.4c0.2,0,0.3,0,0.4-0.1c0,0,0.2,0,0.4,0.1c0.5,0.1,0.9,0.3,1.1,0.6c0.4,0.4,0.7,0.9,1.1,1.5
			c0.4,0.6,0.6,1.2,0.7,1.6c0.1,0.7,0.1,1.3,0,1.9s-0.4,1.1-0.8,1.6c-0.2,0.2-0.4,0.4-0.8,0.6c-0.3,0.2-0.6,0.4-0.9,0.5
			c-0.3,0.1-0.8,0.2-1.5,0.3l-1.1,0.2l-0.6-0.1c-0.7-0.1-1.3-0.4-1.7-0.9c-0.7-0.6-1.1-1.4-1.2-2.2c-0.1-0.9,0-1.7,0.4-2.4
			c0.1-0.3,0.3-0.6,0.6-0.9c0.3-0.3,0.4-0.5,0.5-0.6c0.1-0.1,0.2-0.2,0.4-0.3c0.3-0.3,0.8-0.6,1.4-0.9
			C110.9,15.7,111.4,15.5,111.9,15.4z M112.8,17.5c-0.2-0.1-0.5-0.1-0.8,0c-0.4,0.1-0.7,0.2-1.1,0.5c-0.2,0.1-0.5,0.4-0.9,0.8
			c-0.4,0.4-0.7,0.7-0.8,0.9c-0.1,0.2-0.2,0.5-0.3,0.8c-0.1,0.2-0.1,0.4-0.1,0.5c0,0.1,0,0.2,0,0.4c0.1,0.3,0.2,0.5,0.4,0.6
			c0.2,0.1,0.5,0.2,0.9,0.2c0.8,0,1.5-0.2,2.3-0.5c0.7-0.3,1.2-0.8,1.5-1.3c0.1-0.1,0.1-0.3,0.1-0.4c0-0.1,0-0.3,0-0.6
			c0-0.5,0-0.8-0.1-0.9c-0.1-0.1-0.2-0.3-0.5-0.6S112.9,17.5,112.8,17.5z"/>
		<path fill="#FFFFFF" d="M120.9,15.4c0.2,0,0.3,0,0.4-0.1c0,0,0.2,0,0.4,0.1c0.5,0.1,0.9,0.3,1.1,0.6c0.4,0.4,0.7,0.9,1.1,1.5
			c0.4,0.6,0.6,1.2,0.7,1.6c0.1,0.7,0.1,1.3,0,1.9s-0.4,1.1-0.8,1.6c-0.2,0.2-0.4,0.4-0.8,0.6c-0.3,0.2-0.6,0.4-0.9,0.5
			c-0.3,0.1-0.8,0.2-1.5,0.3l-1.1,0.2l-0.6-0.1c-0.7-0.1-1.3-0.4-1.7-0.9c-0.7-0.6-1.1-1.4-1.2-2.2c-0.1-0.9,0-1.7,0.4-2.4
			c0.1-0.3,0.3-0.6,0.6-0.9c0.3-0.3,0.4-0.5,0.5-0.6c0.1-0.1,0.2-0.2,0.4-0.3c0.3-0.3,0.8-0.6,1.4-0.9
			C119.9,15.7,120.4,15.5,120.9,15.4z M121.8,17.5c-0.2-0.1-0.5-0.1-0.8,0c-0.4,0.1-0.7,0.2-1.1,0.5c-0.2,0.1-0.5,0.4-0.9,0.8
			c-0.4,0.4-0.7,0.7-0.8,0.9c-0.1,0.2-0.2,0.5-0.3,0.8c-0.1,0.2-0.1,0.4-0.1,0.5c0,0.1,0,0.2,0,0.4c0.1,0.3,0.2,0.5,0.4,0.6
			c0.2,0.1,0.5,0.2,0.9,0.2c0.8,0,1.5-0.2,2.3-0.5c0.7-0.3,1.2-0.8,1.5-1.3c0.1-0.1,0.1-0.3,0.1-0.4c0-0.1,0-0.3,0-0.6
			c0-0.5,0-0.8-0.1-0.9c-0.1-0.1-0.2-0.3-0.5-0.6S122,17.5,121.8,17.5z"/>
		<path fill="#FFFFFF" d="M125.4,15.3c0.1,0,0.8-0.1,2-0.1s2.1,0,2.7,0.1c0.5,0,0.9,0.1,1.1,0.2c0.2,0.1,0.5,0.2,0.7,0.4
			c0.1,0.1,0.2,0.2,0.2,0.2c0,0.1,0.1,0.2,0.1,0.3c0,0.3,0,0.5-0.2,0.7c-0.2,0.1-0.5,0.2-1,0.1c-0.4-0.1-0.7-0.1-0.9-0.1
			c-0.3-0.1-0.8-0.1-1.5-0.1s-1.2,0.1-1.2,0.1c0,0-0.1,0.1-0.1,0.3s0,0.3,0,0.5s0,0.3,0,0.3c0,0.1,0,0.2,0,0.2s0.1,0.1,0.2,0.1
			c0.1,0.1,0.6,0.1,1.3,0.2c0.6,0,1,0,1.2,0.1c0.2,0.1,0.4,0.2,0.5,0.4c0.2,0.2,0.2,0.5,0.1,0.8c0,0.2-0.1,0.3-0.2,0.3
			c-0.1,0.1-0.3,0.1-0.5,0.1c-0.2,0-0.6,0-1.2,0.1l-1.5,0l0,0.2c0,0.1,0,0.2-0.1,0.4c0,0.8-0.1,1.4-0.1,1.7c0,0.2,0,0.4-0.1,0.6
			c-0.1,0.2-0.2,0.3-0.2,0.3c-0.1,0-0.2,0-0.4,0c-0.2,0-0.4-0.1-0.5-0.2c-0.2-0.1-0.3-0.3-0.4-0.5s-0.2-0.5-0.2-0.9
			c-0.1-0.4-0.1-0.7-0.1-1s0.1-1.1,0.2-2.3c0-0.4,0-0.9-0.1-1.3c-0.1-0.6-0.2-1.1-0.2-1.3s0-0.4,0.1-0.6
			C125.1,15.4,125.3,15.3,125.4,15.3z"/>
		<path fill="#FFFFFF" d="M133.2,14.7c0.1-0.1,0.2-0.1,0.4-0.1c0.2,0,0.3,0,0.4,0.1c0.1,0,0.2,0.2,0.4,0.5c0.2,0.3,0.3,0.5,0.4,0.7
			c0.1,0.2,0.2,0.8,0.3,1.6c0.1,0.9,0.1,1.6,0.1,2.1c0,0.5,0,0.9-0.2,1.1s-0.3,0.3-0.6,0.3c-0.2,0-0.4,0-0.5-0.1
			c-0.1-0.1-0.2-0.3-0.4-0.5c-0.2-0.4-0.4-0.8-0.4-1.3s-0.1-1.3-0.2-2.6c0-0.7,0-1.1,0-1.3C133,15,133.1,14.8,133.2,14.7z
			 M134.1,22.9c0.2-0.2,0.4-0.2,0.8,0c0.3,0.2,0.6,0.4,0.7,0.7c0.1,0.3,0.1,0.6-0.1,0.8c-0.2,0.2-0.5,0.2-0.9,0
			c-0.3-0.2-0.5-0.5-0.6-0.7C133.9,23.3,134,23.1,134.1,22.9z"/>
	</g>
</g>
<g>
	<g>
		<g>
			<polygon fill="#FFFFFF" points="38.4,64.7 43.5,57.5 53.7,47.8 55.9,44.5 58.2,44.1 58.9,43.7 63.3,43.5 63.1,41.3 68.5,43.2 
				69.8,44.5 71.8,43.9 76.9,44 78.1,45.1 80.9,45.2 82.1,45.5 83.5,47.2 84.1,48.9 88.2,53.1 95.1,61.3 99.8,66.9 102.6,70.7 
				102.6,71 102,78.5 101.8,95.6 99.1,105.3 101.8,118.4 102.4,148.6 97.5,160.9 101.8,186.5 92.3,193.8 85.1,196.2 72.5,191.9 
				70.6,189 69.3,184.1 65.9,180.8 61,170.3 58.1,183.2 55.5,196.2 48.2,199 34.7,196.2 28.9,183 29.1,178.4 29.4,172.8 19.6,173.6 
				11.8,171.6 3.9,162.1 27.8,117.5 33.7,103.2 40.4,100.4 39.5,81.7 41.5,70.8 			"/>
		</g>
	</g>
	<g>
		<g>
			<path fill="#FFFFFF" d="M57,55.2c0.8,0.3,1.3-0.2,1.8-0.7c0.8-0.9,1.7-1.1,2.7-0.5c0.6,0.3,1,0,1.4-0.4c0.2-0.2,0.4-0.5,0.6-0.8
				c-0.7-0.9-1.2,0-1.7,0.2c-0.1-0.2-0.2-0.3-0.2-0.4c0.5-0.9,1-1.8,1.7-2.6c0.3-0.4,1-0.5,1.6,0C65.9,51,65.9,51,67,50
				c0.6,0.6,1.3,1.2,1.9,1.8c0.4,0.4,0.9,0.5,1.2,0c0.3-0.4,0.5-1,0.6-1.5c0.1-1.6,0.1-3.2,0.2-4.8c0-0.2,0.2-0.4,0.3-0.6
				c0.2-0.3,0.4-0.6,0.6-1C71.4,44,71,44,70.6,44.1c-0.6-0.3-1.3-0.6-2-0.9c-0.1,0.2-0.2,0.5-0.1,0.6c0.8,0.8,0.6,1.9,0.9,2.9
				c0.2,0.8,0.1,1.3-0.4,1.9c-0.3-0.2-0.5-0.3-0.7-0.5c-0.9-0.9-2.2-1.5-1.9-3.1c0-0.2-0.4-0.6-0.6-0.6c-1,0-1.3-0.7-1.7-1.4
				c-0.3-0.5-0.6-0.9-1-1.6c-0.3,0.6-0.5,0.9-0.6,1.2c-0.2,0.8-0.7,1-1.5,0.8c-0.4-0.1-0.9-0.2-1.3-0.1c-0.3,0-0.6,0.3-0.7,0.5
				c-0.1,0.1,0.2,0.5,0.4,0.7c0.2,0.2,0.5,0.4,0.6,0.6c0.6,0.7,1.3,1,2.2,0.5c0.6-0.3,2.1,0.3,2.4,0.9c0.1,0.2,0.1,0.6,0,0.8
				c-0.5,0.7-2.3,0.9-3,0.4c-0.3-0.2-0.8-0.3-1.2-0.3c-0.6,0-2.2-1.5-2.1-2.1c0,0,0-0.1,0-0.1c0.3-1.1,0.3-1.1-0.9-1
				c-0.3,0-0.6,0-0.9,0c-0.3,0.1-0.7,0.2-0.7,0.4c-0.1,0.3,0.1,0.7,0.3,0.9c0.8,0.9,1.7,1.7,2.5,2.5c0.2,0.2,0.3,0.5,0.3,0.7
				c0,0.1-0.4,0.4-0.5,0.3c-0.8-0.3-1.6-0.1-2.3,0.2c-0.1,0-0.2-0.1-0.2-0.1c0.1-0.5,0.4-1.1,0.3-1.2c-0.4-0.3-1.1-0.7-1.4-0.5
				c-1.1,0.5-2.3,1-3.2,1.8c-1.4,1.2-2.7,2.7-4,4.1c-1.3,1.4-3,2.6-4,4.3c-0.4,0.7-1.3,1.2-1.8,1.8c-0.3,0.4-0.4,1-0.4,1.5
				c0,0.1,0.3,0.4,0.4,0.4c0.6-0.4,1.3-0.8,1.8-1.2c0.3-0.2,0.4-0.6,0.6-0.9c0.7-0.9,1.4-1.8,2.2-2.7c0.3,0.2,1-0.8,1.6,0
				c-0.1,0.2-0.2,0.3-0.3,0.4c-1.1,1-2.1,2.1-3.2,3.1c-0.2,0.2-0.5,0.6-0.5,0.8c0.1,1.4-1,2.2-1.6,3.3c-0.5,0.9-1.1,1.7-1.5,2.7
				c-0.1,0.3,0.2,1,0.5,1.1c0.6,0.2,0.8-0.4,0.9-0.9c0.1-0.4,0.1-0.8,0.3-1.1c0.8-0.9,1.6-1.7,2.4-2.5c0.2-0.2,0.7-0.2,0.9-0.1
				c0.2,0.2,0.5,0.7,0.4,0.9c-0.5,1.9-1.8,3.5-3.1,4.9c-0.2,0.2-0.6,0.4-0.8,0.3c-0.8-0.3-1.3-0.2-2,0.4c-0.2,0.2-0.9,0.2-1.2,0.1
				c-0.2-0.1-0.3-0.6-0.3-0.9c0.1-0.6,0.3-1.3,0.6-1.8c0.4-0.9,1-1.8,1.4-2.7c0.1-0.2,0.1-0.7-0.1-0.8c-0.3-0.2-0.8-0.3-1-0.2
				c-0.5,0.4-1,0.9-1.3,1.5c-0.9,1.9-1.7,3.9-2.6,5.9c-0.2,0.6-0.4,1.1-0.1,1.5c0.8-0.3,1.4-0.7,2.1-0.8c0.8-0.2,1.7-0.2,2.6-0.2
				c0.1,0,0.4,0.3,0.4,0.4c0,1,0.2,2-0.9,2.6c-0.2,0.1-0.4,0.5-0.5,0.7c-0.7,1.7-1.3,3.3-2,5c-0.1,0.1-0.2,0.3-0.3,0.4
				c-1.8,2-1.2,4.5-1.5,6.8c0,0.1,0.2,0.3,0.2,0.4c0,0.7,0.3,1.5,0,2c-0.5,0.9-0.6,1,0.4,1.3c0.4,0.1,1,0.3,1.1,0.6
				c0.4,1,0.5,2.2-0.1,3.2C37,95,37,95.6,37,96.2c0,1.2,0.7,2.5-0.2,3.7c-0.4,0.5-0.9,1-1.4,1.4c-0.8,0.7-1.2,1.8-2.3,2.2
				c-0.5,0.2-0.8,0.6-0.9,1.3c0,0.4-0.4,0.7-0.6,1.1c-0.2,0.3-0.4,0.5-0.4,0.8c-0.2,1.5-0.6,2.9-2.2,3.6c-0.2,0.1-0.4,0.4-0.5,0.7
				c-0.5,2.2-1.8,3.8-3.8,4.7c-1.9,0.8-2.4,2.4-3.1,4c-0.5,1.1-1.3,1.8-2.5,1.8c-0.2,0-0.6,0.1-0.7,0.2c-0.4,1-0.8,1.9-1,2.9
				c-0.1,0.5-0.2,0.8-0.7,0.8c-1.1,0.1-2.2,0.1-3.3,0.2c-0.3,0-0.5,0.3-0.8,0.4c0.7,0.8,0.2,1.9,0.5,2.7c0.2,0.6,0,0.8-0.5,0.9
				c-2.7,1-4.3,3-5.2,5.5c-0.5,1.3-1.1,2.3-2.2,3.1c-0.5,0.4-1,0.9-1.5,1.4c-0.1,0.1-0.1,0.6,0,0.7c0.8,0.6,1.6,1,2.4,1.6
				c-0.4,0.7-1,1.3-1.2,1.9c-0.4,1.1-1.4,2-0.9,3.4c0,0.1-0.1,0.4-0.2,0.4c-0.7,0.1-0.7,0.7-0.8,1.2c-0.5,2.2-1,4.5-2.5,6.3
				c-0.6,0.7-0.3,1,0.6,1.2c0.6,0.1,1.4,0.4,1.6,0.8c0.5,1.2,0.9,2.4,1.2,3.7c0.2,1.1,0.2,2.3,1.7,2.5c0.1,0,0.1,0.1,0.2,0.1
				c0.9,0.5,1.9,1,2.8,1.5c0.3,0.1,0.5,0.4,0.7,0.5c0.5,0.3,1,0.7,1.5,0.8c0.8,0.3,1.6,0.4,2.2,1.2c0.3,0.5,0.8,0.9,1.3,1.2
				c0.6,0.4,1.3-0.1,1.1-0.8c-0.4-1.3,0.1-2.2,0.9-3.1c0.1-0.1,0.1-0.4,0.1-0.6c0-0.2-0.2-0.5-0.1-0.7c0.3-1.4,0.8-2.6,2.2-3.2
				c0.6-0.3,1-0.7,1.6-1c0.5-0.3,1-0.7,1.5-0.7c1,0,2,0,2.9,0.8c0.2,0.2,0.6,0.2,0.9,0.4c0.3,0.1,0.5,0.2,0.8,0.3
				c-0.2,0.2-0.3,0.5-0.5,0.6c-1.5,1.1-1.7,2.7-0.5,3.8c0.3,0.3,0.8,0.3,1.1,0.6c0.3,0.2,0.5,0.5,0.7,0.7c-0.2,0.2-0.4,0.6-0.7,0.7
				c-1,0.2-1.5,1-2,1.8c-0.2,0.4-0.4,0.6-0.9,0.6c-1.4-0.1-1.9,0.4-1.5,1.7c0.2,0.9-0.1,1.4-0.8,1.6c-0.6,0.2-1.4,0.5-1.9,0.3
				c-1.3-0.5-2.6-1.3-3.8-2c-0.8-0.4-1.2-1.3-2.3-1.4c-0.7,0-1.2,0.2-1.4,0.8c-0.2,0.5-0.3,1.1,0.4,1.5c0.5,0.3,1,0.6,1.6,0.8
				c1.2,0.5,1.5,0.9,1.6,2.2c0,0.2,0.2,0.6,0.5,0.7c0.9,0.3,1.9,0.5,2.8,0.8c0.8,0.3,1.6,0.7,2.4,1c0.8,0.2,1.4,0.4,1.8,1.3
				c0.2,0.4,0.8,0.7,1.2,0.7c0.3,0,0.8-0.5,1-0.8c0.3-0.4,0.5-1,0.8-1.5c0.1-0.3,0.2-0.6,0.4-1c0.1-0.3,0.2-0.6,0.4-0.7
				c0.8-0.7,1.8-0.5,2.7-0.5c0.1,0,0.4,0.5,0.3,0.8c-0.1,0.7-0.3,1.3-0.5,2c-0.5,2.2-1,4.3-0.3,6.5c-0.2,0.5-0.3,1.1-0.3,1.6
				c0,0.4,0,0.8,0,1.2c0,0.4,0,0.8,0,1.2c0.1,1.2,1.1,2.3,0.7,3.7c-0.2,0.7,0.7,1.4,1.6,1.2c0.9-0.2,1.7,0.2,2.1,0.8
				c0.5,1,1.1,2,1,3.3c-0.1,1,0.9,1.5,1.8,1.1c0.2-0.1,0.5-0.1,0.8-0.1c1.3,0.2,2.7,0,3.9,0.8c0.1,0,0.2,0,0.3,0c1,0,1.9,0,2.9,0
				c0.2,0,0.4,0,0.5,0.2c1.2,1.3,2.8,0.5,4.1,0.9c0,0,0.1,0,0.2-0.1c0.6-0.3,1.3-0.5,1.8-0.8c0.4-0.2,0.6-0.8,1.1-0.9
				c1.2-0.4,2.4-0.8,3.7-0.5c0.5,0.1,1,0.1,1.4,0.1c0.2,0,0.6-0.1,0.7-0.3c0.4-1.1,0.8-2.2,1.2-3.3c0-0.1,0-0.3-0.1-0.3
				c-0.6-0.5-0.4-1-0.3-1.6c0.1-0.7,0.2-1.4,0.2-2c0.1-1.1,0.1-2.2,0.9-3.1c0.2-0.2,0.2-0.7,0.3-1c0-0.9,0-1.7,0-2.6
				c0-0.1,0.2-0.3,0.2-0.4c0-0.4,0-0.7,0-1.1c0-0.2-0.1-0.5,0-0.7c0.2-0.7,0.4-1.4,0.5-2.1c0.1-0.6,0.3-1,1-1.1
				c0.6,0,1.1-0.5,1.7-0.4c0.6,0.1,1.3,0.1,1.6,0.9c0.4,1.4,1.7,2,2.8,2.7c0.5,0.3,1.1,0.1,1.5-0.3c0.3-0.4,0.7-0.7,1.1-1
				c0.9-0.7,1-1.2,0.6-2.2c-0.1-0.2-0.1-0.4-0.1-0.6c0.1-0.6,0.2-1.3,0.2-1.9c0-0.1-0.3-0.4-0.6-0.4c-0.2-0.1-0.5,0-0.8,0
				c0.2-1.7,0.3-3.2,1.2-4.7c0.4-0.7,0.6-1.1,1.5-1c0.6,0.1,0.6-0.1,0.5-0.8c-0.2-0.9-1.4-1.4-0.9-2.6c-0.8-1.2-0.6-2.5-0.5-3.7
				c0.1-1.4,0.2-2.8,0.6-4.1c0.3-0.9,0.4-1.8,0.4-2.7c0-0.3-0.4-0.5-0.5-0.8c-0.2,0.2-0.5,0.4-0.6,0.6c-0.2,0.5-0.4,1-0.5,1.4
				c-0.7-0.5-1.3-1-1.9-1.4c-0.1-0.1-0.5,0.1-0.6,0.2c-0.1,0.2-0.1,0.5,0,0.7c0.1,0.1,0.3,0.2,0.5,0.3c-1.4,1.7-1.4,1.8-0.5,2.6
				c-1.5,2.3-1.7,5-2.1,7.9c-0.2-0.3-0.4-0.5-0.4-0.6c-0.1-0.9-0.1-1.7-0.2-2.6c-0.1-1.1-0.2-2.2-0.4-3.3c0-0.4-0.3-0.8-0.7-0.4
				c-0.7,0.7-1.9,1.1-1.8,2.5c0.1,0.7-0.9,1.5-1.3,1.2c-0.7-0.5-1.4-1-1.8-1.6c-0.7-0.9-1.2-2-1.8-3c-0.1,0-0.3,0-0.4,0
				c-0.1,0.5-0.5,1-0.4,1.5c0.1,0.6,0.4,1.2,0.8,1.6c0.5,0.6,0.8,1.1,0.8,1.9c0,0.8,0.3,1.7,0.4,2.5c0.2,1,0.3,2,0.5,3
				c0.1,0.9,0.2,1.7,0.2,2.6c0,0.7-0.2,1.3-0.4,2.2c-0.3,0.1-0.8,0.4-1.3,0.6c-1.1,0.3-1.2,0.5-0.6,1.4c0.4,0.6,1,1.3,0.4,2.2
				c-0.1,0.1,0,0.3,0,0.4c0,0.5-0.1,1,0.1,1.5c0.4,1.2-0.4,2.6,0.5,3.7c0.1,0.1,0,0.4-0.1,0.6c-0.6,1.7-1.6,3.1-2.6,4.6
				c-0.5,0.7-0.7,1.5-1.6,1.4c-0.4-0.5-0.7-0.9-1-1.4c-0.2-0.3-0.4-0.6-0.5-0.9c-0.2-1.1-0.2-1.1-1.2-0.7c-1.1,0.4-1.1,0.9-0.6,2
				c0.3,0.5,0.4,1.2,0.4,1.8c0,0.6-0.3,1.2-0.5,1.9c-0.6-0.1-1.3-0.3-2.2-0.5c0,0.6-0.3,1.2,0,1.6c0.3,0.5,0.7,1.2,1.6,0.9
				c0.7-0.2,1,0.1,0.8,0.8c-0.2,1-0.8,1.5-1.6,1.9c-0.8,0.4-1.2,0.2-1.7-0.5c-0.5-0.8-1.2-1.6-1.7-2.4c-0.2-0.3-0.5-0.7-0.5-1
				c-0.1-1.1,0-2.2,0-3.3c-0.2,0-0.3-0.1-0.5-0.1c-0.2,0.3-0.4,0.5-0.5,0.8c-0.1,0.3,0,0.7-0.1,1c-0.5,1.5-1.1,2.9-1.8,4.7
				c-0.3-0.5-0.4-0.7-0.5-1c-0.1-0.4,0-0.8-0.2-1.1c-0.1-0.3-0.5-0.7-0.6-0.7c-0.3,0.1-0.6,0.4-0.8,0.7c-0.2,0.3-0.2,0.7-0.2,1
				c-0.4,0.1-0.8,0.2-1.1,0.2c-1.6,0.3-2.9-0.5-3.3-2c-0.1-0.4-0.1-0.6,0.4-0.8c1.3-0.4,2.1-1.7,1.8-3c-0.2-0.8-0.3-1.7-1.3-2.1
				c-0.1,0.7-0.3,1.4-0.4,2c-0.1,0.7,0,1.3,0,2c-0.1,0-0.2,0.1-0.3,0.1c-0.3-0.3-0.5-0.5-0.8-0.7c-0.4-0.3-0.8-0.7-1.2-0.7
				c-0.8,0-1-0.5-1.2-1c-0.2-0.5-0.2-1.1-0.3-1.6c-0.2-1.1-0.4-2.2-1.3-3.1c-0.4-0.4-0.7-1.2-0.8-1.8c-0.1-0.9-0.1-1.9,0-2.8
				c0.1-1,0.4-2.1,0.7-3.1c0.4-1.3,1.1-2.6,0.9-4.1c-0.1-0.8-0.2-1.7-0.2-2.5c0-1.4-0.4-2.7-0.9-3.7c0.5-1,1-2,1.4-2.9
				c0.2-0.4,0.1-1,0.4-1.2c0.7-0.8,0.5-1.6,0.1-2.3c-0.4-0.6-0.3-1.1,0-1.7c0.2-0.5,0.6-1,0.2-1.7c-0.6-0.9-0.5-1.4,0.3-2.2
				c0.1-0.2,0.3-0.6,0.2-0.6c-0.7-0.5-0.4-1.3-0.3-1.8c0.1-0.6,0.5-1.1,0.9-1.6c0.3-0.4,0.5-0.8-0.2-0.9c-0.7-0.1-1-0.6-0.9-1.2
				c0.2-1.2,0.5-2.4,0.9-3.6c0.3-0.9,0.4-1.6,0.2-2.5c-0.1-0.6,0-1.3,0.2-2c0.1-0.6-0.1-0.7-0.6-0.7c-0.6,0.1-1.3,0.1-1.9,0.1
				c-0.1-0.1-0.1-0.2-0.2-0.2c0.1-0.1,0.4-0.1,0.4-0.2c0.2-0.4,0.3-0.7,0.4-1.1c-0.4,0-0.8,0.1-1.2,0.1c-0.2,0-0.4,0.1-0.7,0.3
				c0.3-0.6,0.4-0.9,0.6-1.3c0.8-1.4,1.5-2.9,2.3-4.3c0.3-0.6,0.7-1.2,1-1.8c0.1-0.3,0.2-0.6,0.3-0.9c-0.3,0-0.7-0.2-1-0.1
				c-0.5,0.2-0.8,0.6-1.2,1c-0.7,0.7-1.4,1.5-2.2,2.3c-0.1-0.1-0.1-0.1-0.2-0.2c0.2-1.1,0.6-2.1,1.4-2.9c0.4-0.4,0.7-0.8,0.9-1.3
				c0.7-1.3,1.4-2.7,2.1-4c0.3-0.5,0.2-0.8-0.3-0.9c-0.2-0.1-0.6-0.1-0.7-0.2c-0.8-0.7-1-2.6-0.2-3.4c0.9-1,1.4-2,1.3-3.4
				c0-0.6,0.4-1.3,0.7-1.8c0.4-0.6,1-1,1.4-1.6c0.1-0.2,0-0.5,0.1-0.7c-0.2,0-0.5-0.1-0.7,0c-0.7,0.4-1.3,0.8-2,1.2
				c-0.2-0.3-0.4-0.7-0.7-1c-0.1-0.1-0.6-0.1-0.7,0.1c-0.5,0.6-0.8,1.3-1.3,2c-0.1,0.1-0.3,0.1-0.5,0.2c-0.1-0.2-0.2-0.4-0.2-0.5
				c-0.2-1.3,1.7-3.6,3-3.7c0.3,0,0.7-0.3,1-0.5c-0.2-0.3-0.4-0.6-0.6-0.7c-0.4-0.2-0.9-0.1-0.9-0.8c0-0.4-0.1-1,0.1-1.3
				c0.4-0.8,1-1.5,1.5-2.2c0.1-0.2,0.3-0.5,0.3-0.7c0.3-1.4,1.2-2.2,2.3-2.9c0.7-0.5,1.8-0.1,2.4,0.5c0.6,0.6,0.3,1.4,0.5,2
				c0.2,0.9,0.5,1.8,0.7,2.7c0.1,0.2,0.2,0.5,0.3,0.7c0.3-0.2,0.6-0.3,0.8-0.6c0.2-0.2,0.1-0.6,0.2-0.9c0.4-1.6,0.9-3.2,1.3-4.8
				c0.3-1.1,0.5-2.2,0.7-3.3c0.1-0.5,0.1-1.1,0.1-1.6c0-0.7,0-1.5-0.1-2.2c-0.1-0.5-0.1-1.1-0.4-1.4c-0.5-0.5-0.5-0.8-0.1-1.3
				c0.5-0.7,0.7-1.3-0.1-1.9c-0.1-0.1-0.2-0.3-0.2-0.5c-0.4-1.8-0.7-3.6-0.5-5.4c0.1-0.9,0-1.9,0.3-2.7c0.4-1,1-2,1.6-2.9
				c0.6-0.9,1.1-1.6,0.4-2.7c-0.4-0.7-0.5-1.4,0.2-2.1c0.3-0.3,0.4-0.7,0.6-1.1c0.2-0.3,0.5-0.8,0.8-0.9c0.6-0.2,0.7-0.7,0.8-1.2
				c0.2-0.8,0.6-1.5,1-2.2c0.3-0.5,1-0.9,1.3-1.4c1.4-2,3.3-3.7,3.4-6c0.9-0.5,1.6-0.8,2.2-1.2c0.5-0.4,0.9-0.9,1.3-1.3
				c0.4-0.4,0.9-0.7,1.5-1.1c0.2,1-0.2,1.4-0.7,1.7c-1.7,1-2.1,3-3,4.5c-0.6,1-0.9,2.2-1.7,3.1c-0.6,0.7-0.7,1.6-0.6,2.4
				c0,0.2,0.2,0.5,0.3,0.6c0.2,0,0.5-0.1,0.7-0.3c0.2-0.2,0.2-0.5,0.3-0.8c0.2-0.5,0.3-0.9,0.5-1.4c0.1,0,0.2,0,0.2,0
				c-0.1,1,0.6,1.2,1.2,1.2c1.2,0,2.6,0.1,3.5-1.1c0.2-0.2,0.5-0.4,0.8-0.5c0.1,0.1,0.2,0.2,0.3,0.3c0.3,0.2,0.5,0.4,0.8,0.6
				c0.2-0.3,0.4-0.6,0.5-0.9c0.2-0.3,0.2-0.7,0.4-1c0.7-0.8,0.6-1.8,0.7-2.8c0-0.2-0.2-0.4-0.3-0.6c-0.1-0.1-0.4,0-0.5,0.1
				c-0.4,0.9-1.5,1.5-1.4,2.7c0,0.1-0.1,0.2-0.2,0.4c-0.1,0-0.1,0-0.2,0c0-0.7,0-1.4,0-2.1c0.2-0.3,0.6-0.5,0.8-0.8
				c0.4-0.8,0.7-1.7,1-2.6c0.2-0.6,0.4-1.2,0.6-1.8c0.1-0.3,0.1-0.7,0.3-0.9c0.7-1,0.7-1.7,0-2.5c-0.6,0.7-1.1,1.4-1.7,2
				c-0.6-0.1-1.2-0.1-1.8-0.2c0.1-0.2,0.2-0.5,0.2-0.8c0-0.3-0.1-0.5-0.2-0.8c-0.2,0.1-0.5,0.2-0.7,0.4c-0.2,0.1-0.3,0.3-0.7,0.6
				C57.2,56.1,57.1,55.6,57,55.2L57,55.2z M102.5,118.8c0.1-0.1,0.2-0.2,0.3-0.2c0.1,0,0.2,0,0.3,0.1c0.3,0,0.6,0.1,0.9,0.1
				c-0.1-0.3-0.1-0.6-0.2-0.8c-0.2-0.6-0.5-1.2-0.7-1.8c-0.4-1.2-0.9-2.5-1.3-3.7c-0.2-0.6-0.4-1.2-0.6-1.8
				c-0.1-0.4-0.1-0.9-0.3-1.2c-0.2-0.5-0.6-0.9-1-1.3c-0.6-0.6-0.5-0.8,0.2-1.1c0.5-0.2,1.2-0.5,1.3-0.9c0.4-1.6,0.9-3.3,0.9-5
				c0-0.9-0.1-1.9,0-2.9c0.2-2,0.5-3.9,1.3-5.8c0.2-0.4,0.2-0.9,0-1.2c-0.5-0.8-0.4-1.6-0.3-2.5c0.1-0.6-0.1-1.1-0.2-1.7
				c0-0.3-0.3-0.5-0.3-0.7c0.2-0.9-0.1-1.8-0.5-2.6c-0.8-1.3,0.6-2.8-0.3-4.1c-0.2-0.4,0.1-1.3-0.7-1.2c-0.6,0.1-1-0.4-1.5-0.5
				c0,0-0.1,0-0.2,0.1c-0.5,0.4-1,0.8-1.3,1.3c-0.6,0.7-1.1,0.9-1.8,0.3c-0.6-0.5-1.2-0.9-2-0.1c0.1-0.6,0.3-1,0.6-1.4
				c0.2-0.3,0.4-0.6,0.6-0.9c0.2-0.2,0.5-0.5,0.7-0.6c0.3-0.1,0.6-0.1,1-0.2c0.5-0.1,0.6-0.4,0.3-0.7c-0.6-0.7-1-1.4-1.1-2.4
				c-0.1-0.7-0.7-1.4-1-2.1c-0.4-0.8-0.8-1.5-1.2-2.3c-0.6-1-1.2-2-1.8-2.9c-0.1-0.1-0.2-0.4-0.3-0.4c-1-0.3-0.7-1.1-0.7-1.7
				c0.5-0.1,1-0.2,1.4-0.4c0.6-0.4,1.1-0.9,1.7-1.5c0.5,0.4,1,0.7,1.3,1.1c0.5,0.7,1,1.5,1.4,2.3c0.1,0.1,0,0.4-0.1,0.5
				c-0.2,0.1-0.4,0.1-0.6,0c-0.8-0.5-1.6-1-2.2-1.6c-0.7-0.7-1.2-0.5-1.8,0.2c0.2,0.1,0.4,0.1,0.5,0.3c0.8,0.6,1.6,1.1,2.2,1.9
				c0.8,1,1.7,2.1,3,2.2c1.6,0.1,2.4,1.2,3.4,2.1c0.2,0.2,0.5,0.4,0.7,0.5c0-0.3,0.2-0.7,0.1-1c-0.4-0.9-0.9-1.7-1.4-2.5
				c-0.9-1.3-2.1-2.4-2.8-3.7c-1.2-2.3-3-4.1-4.7-5.9c-0.4-0.4-1-0.6-1.4-1c-0.6-0.5-1.3-1-1.9-1.5c-0.1-0.1-0.1-0.5,0-0.5
				c0.6-0.5,1.1-1,2-0.7c0.3,0.1,0.7,0.2,1,0.2c0.2,0,0.4-0.2,0.6-0.3c-0.1-0.2-0.2-0.4-0.4-0.5c-0.4-0.1-0.9-0.1-1.3-0.2
				c-0.7-0.2-1.5-0.2-1.5-1.3c0-0.2-0.3-0.5-0.6-0.6c-0.6-0.3-1.3-0.4-1.9-0.6c-0.3-0.1-0.6-0.2-0.9-0.1c-0.5,0.1-0.9,0.1-0.9-0.6
				c0-0.2-0.2-0.5-0.3-0.7c0.2-0.2,0.4-0.3,0.6-0.4c0.1-0.1,0.2-0.4,0.2-0.5c-0.1-0.1-0.3-0.3-0.5-0.3c-0.7,0.1-1.4,0.3-2.2,0.4
				c0.1,0.1,0.1,0.1,0.2,0.2c-0.2,0.4-0.4,0.8-0.6,1.2c-0.1,0.3-0.3,0.8-0.2,0.8c0.9,0.7,1.1,2,2.5,2.2c0.9,0.1,1.2,0.8,1.2,1.7
				c0,0.3,0.2,0.6,0.2,0.9c0.2,0.6,0.5,1.2-0.5,1.4c-0.2,0-0.3,0.2-0.4,0.3c-0.2,0.2-0.4,0.4-0.6,0.5c-0.1,0-0.4-0.3-0.4-0.4
				c0-0.2,0.2-0.6,0.4-0.7c0.5-0.4,0.5-0.7,0.1-1.1c-1.1-1-2.2-2-3.3-3c-0.1-0.1-0.1-0.1-0.2-0.2c-0.8-1-1.2-2.2-3.1-2
				c-1.3,0.1-2.6,0.1-3.9,0.5c-0.2,0.1-0.3,0.3-0.5,0.4c0.2,0.2,0.3,0.4,0.5,0.5c0.4,0.1,0.8,0.1,1.2,0.2c0.7,0.1,1.4,0.2,2.1,0.3
				c0,0.1,0,0.2,0,0.3c-0.3,0.2-0.6,0.4-0.9,0.6c0-0.1,0-0.2,0-0.2c-0.5,0-1-0.2-1.3,0c-0.5,0.3,0,0.7,0.1,1c0.1,0.5-0.1,1-0.2,1.5
				c0,0.1-0.6,0-0.9,0c-0.8-0.2-1.3,0.3-1.2,1.1c0,0.3,0,0.6,0,1.1c-0.5-0.4-0.8-0.7-1.2-0.9c-0.7-0.3-1.4-0.4-2-0.6
				c-0.6-0.1-1.5,0.7-1.4,1.2c0.2,0.8,0.5,1.6,0.7,2.4c0.2,1,0.4,2,0.6,3c0.1,0.4,0.1,0.8,0.2,1.2c0.4-0.2,0.8-0.4,1.1-0.6
				c0.1,0,0.1-0.1,0.2-0.2c0.8-0.4,0.9-1,0.6-1.8c-0.1-0.3-0.3-0.5-0.3-0.7c-0.2-0.8-0.3-1.6-0.5-2.7c1.5,1.2,1.5,1.2,2.5,0.4
				c0.8,0.6,1.6,1.1,2.3,1.7c0.3,0.2,0.6,0.8,0.5,0.9c-0.4,0.6-0.9,1.1-1.4,1.6c-0.2-1.4-1.3-1-2.4-0.5c0.9,1.1,0,1.9-0.7,2.7
				c0.1,0.1,0.1,0.1,0.2,0.2c0.3-0.1,0.6-0.2,1-0.4c1.3,1,1.3,1,2.7,0.3c0.8,1,0.8,1,2.2,0.7c0.2,0,0.5,0,0.6,0.1
				c0.7,0.9,1.5,1.7,1.9,2.7c0.5,1.3,1.3,2.4,2.1,3.6c0.5,0.7,1.4,1.3,1.1,2.4c0,0.1,0,0.3,0.1,0.3c0.9,0.4,0.5,1,0.3,1.6
				c-0.2,0.8-0.5,1.6-0.4,2.3c0.2,0.8,0.9,1.4,1.4,2.2c0.3,0.4,0.6,0.9,0.7,1.4c0.1,0.3-0.2,0.8-0.5,0.9c-0.8,0.3-1.6,0.6-2.4,0.8
				c-0.3,0.1-0.6,0.2-1,0.4c0.2,0.2,0.2,0.4,0.3,0.5c0.7,0.5,1.4,1,2.1,1.6c0.9,0.7,0.8,1.4-0.2,1.9c-0.3,0.1-0.6,0.3-0.8,0.5
				c-0.9,0.8-0.9,0.8-0.1,1.7c0.1,0.2,0.2,0.4,0.2,0.6c0.3,1.7,0.6,3.4,0.9,5c0.1,0.7,0.2,1.4,0.3,2c0.1,0.6,0.1,1.2,0.1,1.8
				c0,0.6,0,1.2,0.1,1.9c0,1.1,0.1,2.1,0,3.2c0,0.2-0.3,0.4-0.5,0.4c-0.2,0-0.4-0.2-0.5-0.4c-0.1-0.2-0.2-0.4-0.2-0.6
				c0-0.9,0.2-1.9,0-2.8c-0.1-0.7-0.5-1.4-1-1.8c-0.5-0.5-0.9-0.1-1.1,0.6c-0.2,0.9-0.4,1.8-0.7,2.6c-0.1,0.3-0.5,0.4-0.8,0.7
				c-0.2-0.2-0.4-0.5-0.5-0.7c-0.2-0.4-0.3-0.8-0.6-1.1c-0.9-0.8-1.1-1.8-1.3-2.9c-0.1-0.4-0.5-0.7-0.8-1.1
				c-0.1,0.4-0.1,0.8-0.2,1.5c-0.4,0.4-1.1,0.3-1.4-0.6c-0.2-0.5-0.2-1.1-0.2-1.7c0-0.9,0.1-1.8,0.1-2.6c0-0.7,0.1-1.3,0.8-1.8
				c0.6-0.4,0.5-1-0.1-1.3c-0.7-0.4-1.1-0.8-0.7-1.7c0.1-0.3-0.1-0.8-0.1-1.2c0-0.3,0-0.7,0.1-0.8c0.7-0.8,0.7-1.2,0-2
				c-0.3-0.4-0.6-1.2-0.5-1.7c0.2-0.5,0.1-0.8-0.2-1.3c-0.2-0.3-0.3-0.8-0.4-1.2c-0.5-1.5,0-3.2-0.8-4.7c-0.1-0.1,0.1-0.3,0.1-0.4
				c-0.1-0.4-0.2-0.8-0.4-1.1c-0.3-0.4-0.8-0.7-0.9-1.1c-0.3-0.9-0.5-1.9-0.7-2.9c-0.3-1.3-0.7-1.8-2-1.5c-1,0.2-2,0-2.9-0.5
				c-0.5-0.2-0.7-0.1-1,0.2c-0.6,0.6-1.2,1.2-2.1,0.5c-0.1-0.1-0.4-0.1-0.5,0c-0.4,0.3-0.8,0.7-1.3,0.9c-0.3,0.2-0.7,0.2-1.1,0.4
				c0-0.3,0.1-0.7,0.1-1c0-0.1,0.1-0.3,0.1-0.4c0-0.3,0-0.6,0-0.8c-0.4,0-0.9-0.1-1.1,0.1c-0.5,0.5-0.9,1.1-1.2,1.7
				c-0.1,0.2,0,0.6,0.2,0.8c0.2,0.3,0.6,0.4,0.8,0.7c0.2,0.3,0.4,1,0.3,1.1c-0.7,0.6-0.7,1.5-0.9,2.3c-0.3,1.3-0.3,1.3,0.5,1.9
				c0.1,0.8,0.2,1.4,0.2,2c0,0.8,0.2,1.6-0.6,2.3c-0.2,0.2-0.4,0.8-0.2,1.1c0.6,1,0,1.5-0.7,2c-0.6,0.6-0.9,1.2-0.5,2
				c0.1,0.2,0.1,0.5,0.1,0.8c0,0.1-0.1,0.1-0.1,0.2c-0.7-1-1.3-0.6-1.9,0c-0.1,0.1-0.3,0.3-0.4,0.3c-0.7,0.3-1,0.9-0.9,1.7
				c0,0.3-0.2,0.8-0.5,1c-0.4,0.3-0.9,0.4-1.4,0.5c-0.5,0.1-1.1,0.1-1,0.7c0,0.3,0.6,0.5,1,0.7c0.1,0,0.1,0.1,0.2,0.1
				c-0.1,0-0.2,0-0.2,0c0,0.6-0.2,1.2-0.1,1.7c0.1,0.7,0.3,1.5,0.4,2.2c0,0.3,0,0.8-0.1,0.8c-0.6,0.1-1.3,0.3-1.9,0.1
				c-0.3-0.1-0.5-0.8-0.6-1.3c-0.2-0.4-0.2-1-0.5-1.3c-0.5-0.5-0.7-1-0.3-1.7c0.1-0.2,0-0.6,0-1c-0.3,0-0.6,0.1-1,0.1
				c-0.3,0-0.6,0-0.8,0c-0.4,0-1-0.1-1.3,0.2c-0.2,0.2-0.2,0.8-0.1,1.3c0.1,0.8,0.4,1.7,0.5,2.5c0.2,1,0.4,2,0.6,2.9
				c0.1,0.3,0.2,0.7,0.3,1c0.4,1.4,0.8,2.8,1.3,4.2c0,0.1,0.7,0.3,0.7,0.2c0.3-0.6,0.8-1.2,0.6-1.7c-0.2-0.7-0.1-1.1,0.4-1.5
				c0.6-0.6,1.3-1.1,0.4-2.1c0.9-0.3,1.7-0.6,2.6-0.9c0.1,0,0.5,0.4,0.4,0.5c-0.1,0.3-0.3,0.7-0.6,0.9c-0.5,0.5-1.2,0.8-1.7,1.3
				c-0.2,0.2-0.2,0.9,0,1.2c0.2,0.3,0.8,0.4,1.2,0.4c0.9,0,1.4,0.4,1.6,1.3c0.1,0.3,0.2,0.5,0.3,0.7c0.5,1.1,1,2.1,1.6,3.2
				c0.1,0.2,0.4,0.4,0.6,0.6c0.2-0.2,0.5-0.4,0.5-0.6c0.1-0.3,0-0.7-0.1-1.1c-0.2-0.8-0.5-1.5-0.7-2.3c-0.1-0.2,0.1-0.7,0.2-0.8
				c0.2-0.1,0.6,0,0.9,0.1c0.3,0,0.6,0.1,0.9,0.2c0-0.3,0.1-0.7,0-1c-0.1-0.4-0.2-0.9-0.3-1.3c0.1,0,0.2-0.1,0.3-0.1
				c0.3,0.1,0.5,0.3,0.8,0.3c0.5,0.1,0.9,0,1.4,0.1c0-0.4,0-0.7-0.1-1.3c1-0.1,2.1-0.1,3.2-0.2c-0.1,0.5-0.2,0.8-0.2,1
				c0,0.3,0.2,0.5,0.2,0.8c0,0.9,0.4,1.2,1.2,0.8c0.2-0.1,0.3-0.2,0.5-0.1c0.7,0.3,0.9-0.2,1-0.7c0.1-0.4,0.4-0.8,0.5-1.2
				c0.1-0.4,0.3-0.7,0.2-1.1c0-1.3,0-1.3,1.2-0.9c-0.4,0.8,0,1,0.7,1c0.6,0,1.2,0.1,1.8,0.3c1.8,0.6,2.2,1.1,2,2.5
				c0,0.3-0.3,0.6-0.5,0.7c-0.1,0.1-0.4-0.1-0.6-0.2c-0.6-0.4-1.2-0.7-1.3-1.5c-1,0.1-1.1-0.8-1.6-1.3c-0.2-0.2-0.7-0.3-0.8-0.2
				c-0.2,0.2-0.3,0.6-0.4,0.9c-0.1,0.3-0.2,0.5-0.3,0.8c-0.2,0.6-0.5,1.2-0.4,1.8c0.1,0.6,0,0.7-0.4,0.9c-0.7,0.4-1.4,0.6-2.2,0.3
				c-0.6-0.2-1.1,0-1.3,0.6c-0.2,0.6,0.1,0.9,0.6,1.2c0.2,0.1,0.4,0.4,0.6,0.6c0.2,0.2,0.5,0.5,0.8,0.6c0.9,0.2,1.7,0.3,2.4,1.1
				c0.4,0.5,1,0.2,1.1-0.4c0-0.3,0-0.6,0.1-0.8c0.5-0.6,0.5-1.3,0.3-2c0-0.3,0.2-0.8,0.4-0.9c0.4-0.1,0.9-0.1,1.3,0.1
				c0.9,0.3,1,1.1,0.2,1.7c-0.2,0.1-0.4,0.3-0.5,0.5c-0.1,0.2-0.1,0.5-0.1,0.8c0.3,0,0.6,0.1,0.8,0c0.7-0.3,1.5-0.6,2.2-1
				c0.2-0.1,0.5-0.4,0.5-0.7c0.1-0.7,0.4-0.9,1.1-0.7c0.4,0.1,0.9,0.4,1.3,0.3c0.9-0.1,0.9,0.3,0.8,1c0,0.5,0,1.2,0.3,1.6
				c0.6,0.7,1,1.4,1.2,2.3c0.1,0.9,0.7,1.1,1.6,0.9c0.7-0.2,1.5-0.8,2.3,0c0.1,0.1,0.6,0,0.9-0.1c1-0.2,1.9-0.5,2.9-0.2
				c0.5,0.1,1.3,0,1.6-0.4c0.8-0.8,1.2-2,0.9-3.1c-0.3-1-0.3-1.9-0.3-2.9c0-0.8,0.2-1.4,0.8-1.9c0.8-0.7,1.7-1.4,2.4-2.1
				c0.7-0.6,1-1.4,0.8-2.4c-0.2-0.9,0-1.9,0.1-2.8c0-0.2,0.6-0.5,0.9-0.6c0.1,0,0.6,0.4,0.5,0.6c-0.1,0.7-0.2,1.4-0.6,2
				c-0.7,1-0.1,2-0.3,3c-0.1,0.4,0.9,1.1,1.5,1.6c0.3,0.3,0.7,0.6,0.9,0.9c0.4,0.7,0.8,1.4,1.1,2.1c0.3,0.7,0.6,1.5,0.5,2.2
				c-0.1,0.6-0.1,1,0.3,1.4c0.7,0.7,0.6,1.2-0.1,1.7c-0.5,0.4-0.5,0.8-0.3,1.3c0.8,1.7,1.5,3.3,2.3,4.9c-0.2,0.3-0.5,0.6-0.5,0.9
				c0.1,1,0.4,2,0.6,2.9c0.1,0.5,0.2,1.2,0,1.6c-0.4,0.8,0,1.2,0.3,1.8c0.4,0.7,0.5,1.6,0.6,2.4c0,0.1-0.4,0.2-0.5,0.4
				c-0.3,0.3-0.7,0.5-0.8,0.8c-0.1,0.8-0.5,0.9-1.1,0.8c-0.4,0-0.8-0.2-1.2-0.2c-0.2,0-0.6,0.4-0.5,0.6c0.3,0.7,0.7,1.3,1,2
				c0.1,0.3,0.3,0.5,0.4,0.8c0.2,0.6,0.3,1.2,0.4,1.8c-0.1,0.1-0.3,0.2-0.5,0.3c-0.8,0.8-1.6,1.6-2.4,2.3c-0.1,0.1-0.5,0.1-0.7-0.1
				c-0.4-0.2-0.7-0.9-1.1-0.3c-0.1,0.1,0.3,0.7,0.5,1.1c0,0.1,0.1,0.1,0.2,0.4c-0.5,0.3-1.1,0.6-1.7,0.8c-0.5,0.2-0.8,0.4-0.5,1
				c0.4,1.2-0.3,2.6-1.3,2.8c-1.1,0.2-1.2,0.3-1.1,1.5c0,0.2-0.1,0.3-0.1,0.5c0,1-0.9,2.2,0.5,2.9c-0.2,0.7-0.9,1.4,0,2.1
				c0.1,0.1,0,0.6-0.2,0.9c-0.2,0.4-0.4,0.7-0.7,1c-0.8-0.5-1.6-0.4-2.2,0.2c-1.4,1.2-2.8,2.5-4.2,3.8c-0.2,0.2-0.3,0.6-0.3,0.9
				c0.2,1-0.3,1.6-1.1,2.1c-0.3,0.2-0.6,0.4-0.8,0.6c-0.5,0-0.9,0-1.2,0.1c-0.6,0.3-1.1,0.7-1.7,0.9c-0.4,0.1-0.9,0-1.2-0.2
				c-0.1-0.1-0.2-0.7,0-1c0.6-1,0.1-1.7-0.4-2.4c-0.2-0.2-0.6-0.5-0.8-0.4c-0.3,0.1-0.4,0.5-0.5,0.8c-0.1,0.4,0,0.8-0.1,1.1
				c-0.4,1.2-0.1,2.4,0.4,3.6c0.1,0.2,0.2,0.5,0.1,0.6c-0.9,1.2-0.4,2.2,0.5,3c0.4,0.4,0.9,0.5,1.4,0.8c0.1-0.4,0.3-0.7,0.3-1.1
				c0.1-0.5,0.3-0.7,0.8-0.5c0.6,0.2,1.1,0.4,1.6-0.1c0.1-0.1,0.3-0.1,0.4,0c0.9,0.3,1.7,0.6,2.5,0.8c0,0.3-0.1,0.6-0.1,1
				c0,0,0.5,0.1,0.5,0.1c0.1-0.2,0.1-0.5,0.2-0.8c0.4,0.3,0.8,0.6,1.2,0.9c0.1,0.1,0.4,0,0.6,0c0-0.2,0-0.4-0.1-0.6
				c-0.4-0.7-1-1.3-1.4-2c-0.3-0.5,0.1-1.2,0.6-1.2c0.8,0,1.6,0,2.3-0.2c1-0.3,1.7,0,2.4,0.7c0.3,0.3,0.5,0.6,0.8,0.9
				c0.8,0.8,1.2,0.7,1.9,0c0.4-0.4,0.6-0.3,0.8,0.2c0.5,1.3,1,2.6,1.6,4c0.4,1,0.7,2.2,1.3,3.1c0.6,0.9,1,1.7,1.1,2.7
				c0.1,1.2,0.5,2.4,0.8,3.5c0.1,0.5,0.4,0.9,0.6,1.3c0.3,0.4,0.8,0.7,0.4,1.3c0,0.1,0.3,0.5,0.4,0.5c0.7,0,0.7,0.5,0.6,0.9
				c-0.5,1.1,0.1,2.2,0.3,3.2c0.1,0.4,0.2,0.7,0.2,1.1c0.1,2.1-0.7,4-1.4,6c-0.1,0.3-0.5,0.6-0.8,0.9c-0.3-0.6-0.4-1.1-0.6-1.4
				c-0.6-0.7-2.8-0.6-3.4,0.2c-0.4,0.6-0.9,0.6-1.3,0.2c-0.8-0.6-1.5-1.3-2.2-1.9c-0.3-0.2-0.8-0.3-1.2-0.5c0,0.4-0.1,0.9,0.1,1.2
				c0.2,0.4,0.3,0.7,0,1.1c-0.2,0.2-0.3,0.6-0.3,0.8c0.1,1-0.5,1.3-1.3,1.6c-0.3,0.1-0.6,0.2-0.8,0.4c-0.9,0.9-2,0.6-3.1,0.5
				c-0.3,0-0.7-0.3-0.7-0.5c0-1.4-0.6-2.5-1.6-3.4c-0.2-0.2-0.2-0.5-0.3-0.8c-0.3-0.8-0.5-1.7-1-2.4c-0.2-0.4-0.8-0.5-1.3-0.7
				c-0.2-0.1-0.6,0.2-0.7,0.4c-0.1,0.3,0,0.8,0.2,0.9c1.2,0.4,1.8,1.2,1.9,2.4c0,0.5,0.1,1.1-0.1,1.4c-0.3,0.3-0.9,0.2-1.4,0.2
				c-0.3,0-0.7,0-1-0.1c-0.8-0.2-1.7,0.2-2.2-0.9c-0.4-0.9-0.9-1.7-0.9-2.9c0-0.9-0.3-1.8,0.2-2.6c0,0-0.5-0.5-0.6-0.5
				c-0.3,0.2-0.8,0.5-0.8,0.8c-0.2,1-0.2,2-0.4,3.1c-0.1,0.4-0.2,0.8-0.3,1.3c-0.7-0.5-1.2-0.4-1.1,0c0.3,0.9,0.7,1.7,1.1,2.5
				c0.3,0.5,0.8,0.8,1.1,1.3c0.5,0.7,1.2,1.2,1.8,0.9c0.6-0.4,0.9,0,1.4,0.2c1.2,0.4,2.4,0.7,3.6,1c0.5,0.1,1,0.1,1.4,0.4
				c1.2,0.8,2.5,1.5,4,0.9c0.9-0.4,1.8-1,2.7-1.5c0.2-0.1,0.4-0.2,0.6-0.3c0.5-0.2,1-0.3,1.5-0.4c0.5-0.1,1-0.3,1.4-0.1
				c1.4,0.6,2.8,0.4,4-0.3c1.3-0.7,2.3-1.8,3.5-2.7c0.9-0.6,1.3-1.4,1.1-2.5c0-0.1,0-0.3,0.1-0.4c0.7-1,0.7-2.4,1.8-3.3
				c0.7-0.6,0.5-1.5-0.2-1.8c-0.7-0.3-0.7-0.7-0.7-1.3c0-0.4,0-0.9-0.1-1.3c-0.3-0.9-0.1-1.4,0.7-1.8c0.3-0.1,0.5-0.4,0.7-0.5
				c0.3-0.2,0.7-0.4,1-0.5c0.6-0.3,1.5-0.3,1.8-0.8c0.5-0.8,1-0.8,1.7-0.7c0.4,0.1,0.9,0.2,1.3,0.2c0.6,0,1.5,0,1.8-0.3
				c0.8-1,1.8-0.5,2.7-0.7c1-0.2,2-0.6,3-0.9c0.4-0.1,0.8-0.4,1.1-0.7c0.5-0.3,0.9-0.7,0.6-1.4c-0.2-0.4-0.2-1-0.3-1.4
				c-0.1-0.6-0.3-1.1-0.4-1.7c-0.1-0.6-0.3-1.3-0.2-1.9c0.5-1.9,0.3-2.5-1.1-3.9c-0.9-0.8-1.9-1.7-1.5-3.2c0.1-0.5-0.1-1.1-0.9-1.2
				c-1.4-0.2-2.7-0.6-4.1-0.8c-0.9-0.1-1.1-0.6-1.2-1.4c-0.1-0.8,0.2-1.2,1.2-1.2c-0.4-0.4-0.7-0.6-0.9-0.7c-0.8-0.5-1.1-1.3-1.1-2
				c0.1-1.1-0.1-1.7-1.2-1.9c0.1-0.2,0.1-0.4,0.2-0.5c0.4-1.1,0.2-1.3-0.9-1.5c-0.2,0-0.5-0.2-0.7-0.4c-0.5-0.6-0.5-1.2,0-1.9
				c0.3-0.4,0.6-0.8,0.1-1.3c-0.9-0.8-0.8-1.5,0.1-2.2c0.4-0.4,0.5-0.7,0.2-1.2c-0.4-0.6-0.6-1.2-0.8-1.9c-0.2-0.9-0.3-1.8,0.6-2.5
				c0.2-0.1,0.2-0.6,0.2-0.9c0-0.3-0.1-0.6-0.1-1c0-1,0-2-0.1-2.9c0-0.4-0.1-0.9-0.4-1.1c-0.4-0.4-0.4-0.6-0.2-1.1
				c0.4-0.8,0.3-1.6-0.5-2.1c-0.2-0.1-0.3-0.3-0.3-0.5c0.1-1.2,0.2-2.4,0.5-3.6c0.2-0.9,0.3-1.7-0.1-2.6c-0.1-0.2-0.2-0.6-0.1-0.8
				c0.3-1.4,0.1-1.7-1.1-2.5C103,119.9,102.8,119.3,102.5,118.8z M77,69.8c0.2,0.6,0.3,1.1,0.4,1.6c0.1,0.7,0.1,1.4,1,1.7
				c0.1,0,0.2,0.5,0.2,0.7c0,1.6,1.1,2.9,1.4,4.4c0,0.1,0.2,0.2,0.3,0.2c0.9,0.7,0.6,1.8,1.1,2.7c0.1,0.1-0.1,0.4-0.2,0.5
				c-0.1,0.2-0.3,0.3-0.4,0.5c-0.1,0.2-0.1,0.5-0.1,0.7c0.2,0,0.5,0,0.7,0c0.1,0,0.3-0.2,0.4-0.2c2.2,0.3,2.4-0.9,2.2-2.6
				c-0.1-0.4-0.1-0.9-0.3-1.2c-0.8-1-1.6-1.9-2.4-3c-0.7-0.9-1.7-1.8-1.5-3.2c0-0.3-0.2-0.6-0.3-0.8c-0.2-0.9-0.4-1.9-0.6-2.8
				c-0.1-0.5-0.4-1-0.5-1.5c-0.5,0.2-1,0.4-1.5,0.6c-0.3,0.1-0.6,0.3-0.8,0.2c-0.6-0.3-1.3-0.7-1.8-1.1c-0.4-0.3-0.9-0.5-1.2,0
				c-0.4,0.5-0.3,1.1,0.2,1.4c0.8,0.5,1.6,0.9,2.4,1.3c0.2,0.1,0.4,0,0.6-0.1C76.4,70.1,76.6,69.9,77,69.8z M55.3,150.6
				c-0.1,0-0.1,0-0.2,0c0.2-1.6,0.3-3.2,0.5-4.8c0.2-1.7,1.2-3.4,0.8-5.2c0-0.1,0.1-0.2,0.1-0.3c0.1-0.4,0.2-0.8,0.3-1.2
				c0.3-2.1-0.6-4.3,0.3-6.4c0.1-0.2-0.3-0.5-0.5-0.8c-0.2,0.2-0.5,0.3-0.5,0.6c-0.2,0.7-0.3,1.5-0.4,2.3c0,0.2-0.1,0.4-0.2,0.5
				c-0.8,0.3-0.6,0.9-0.5,1.5c0.1,0.9,0.3,1.9,0.3,2.8c0,0.6-0.1,1.3-0.2,2c-0.1,1.5-0.2,3-0.4,4.4c0,0.4-0.3,0.8-0.4,1.3
				c-0.2,1.1-0.4,2.2-0.4,3.3c0,0.5,0.1,1,0.3,1.5c0,0.1,0.7,0.2,0.8,0.1c0.2-0.4,0.2-0.8,0.3-1.2C55.3,150.7,55.3,150.6,55.3,150.6
				z M68.6,54.4c-0.1,0.1-0.1,0.2-0.2,0.2c-0.5,0-1,0-1.5,0.1c-0.7,0.2-1.4,0.4-2.1,0.6c-0.1,0-0.1,0.2-0.2,0.3
				c-0.4,0.6-0.8,1.2-1.3,1.8c-0.8,1-0.9,1.6-0.5,2.3c0.6,1.1,1.4,0.5,2.2,0.3c0.9-0.1,1.9-0.4,2.8-0.2c0.9,0.1,0.9-0.2,0.9-0.8
				c0-1.2,0.1-2.4,0.2-3.6C68.9,55,68.7,54.7,68.6,54.4z M53.8,79.9c-0.1,0-0.2,0-0.2-0.1c0.2-0.5,0.2-1.1,0.5-1.6
				c0.5-0.8,0.8-1.6,0.7-2.5c0-0.3-0.2-0.6-0.4-0.9c-0.3,0.2-0.7,0.3-0.9,0.5c-0.3,0.3-0.3,0.7-0.6,1c-1.1,1.1-1.3,1.9-0.7,3.4
				c0.1,0.2,0.1,0.6,0,0.7c-1.3,1-1,2.5-1,3.8c0,0.4,0,0.8,0.2,1.1c0.1,0.3,0.5,0.4,0.8,0.6c0.2-0.2,0.4-0.5,0.5-0.7
				c0.2-0.7,0.3-1.5,0.5-2.2C53.3,82.1,53.6,81,53.8,79.9z M70.4,182.2c-1-0.7-1.1,0.5-1.6,0.9c-0.1,0,0.3,0.7,0.4,1
				c0.1,0.3,0.3,0.6,0.4,0.9c0.1,0.5-0.1,1.2,0.2,1.5c0.6,0.8,0.7,1.6,0.7,2.5c0,0.5,0.5,1,0.8,1.4c0.3-0.4,0.8-0.9,0.8-1.3
				c0.2-1.9-0.1-3.8-0.7-5.7c-0.2-0.5-0.4-1.1,0.3-1.4c-0.3-0.4-0.5-0.7-0.9-1.1C70.8,181.5,70.6,181.8,70.4,182.2z M40.8,153.3
				c1.1,0.1,1.7,0.8,1.7,2c0,0.7,0.3,1.4,0.5,2.1c0.2,0.5,0.6,0.9,0.9,1.3c0.5,0.6,1,1.1,1.5,1.7c0.1,0.1,0.4,0.1,0.5,0.1
				c0.1,0,0.2-0.3,0.1-0.4c-0.4-0.6-0.8-1.2-1.2-1.9c-0.2-0.2-0.5-0.5-0.4-0.7c0.2-1-0.1-1.8-0.5-2.7c-0.5-1.1-0.8-2.4-1.3-3.6
				c-0.2-0.5-0.7-0.9-1.1-1.4c-0.1-0.1-0.5-0.2-0.6-0.1c-0.2,0.1-0.2,0.4-0.2,0.6C40.8,151.3,40.8,152.2,40.8,153.3z M46.3,106.1
				c-0.1,0.1-0.5,0.3-0.5,0.4c0.1,0.6,0.2,1.3,0.5,1.7c0.6,0.8,1.5,1.4,2.2,2.1c0.4,0.4,0.7,1,1.2,1.4c0.2,0.2,0.6,0.1,0.9,0.1
				c0-0.3,0-0.6-0.1-0.9c-0.1-0.3-0.4-0.6-0.5-0.9c-0.3-0.8-0.5-1.6-0.9-2.3C48.5,106.8,47.7,106,46.3,106.1z M77.5,150.5
				c-0.8,0.2-0.8,1.1-0.8,1.9c0.1,0.6-0.1,1-0.6,1.4c-0.5,0.4-1.1,0.8-1.2,1.5c1.6,0.2,2.8-1,2.7-2.8c0-0.4,0.3-0.9,0.4-1.3
				c0.1-0.3,0.5-0.7,0.4-0.9c-0.3-0.7,0.2-1.1,0.4-1.7c0.4-1.3,0.8-2.6,1.1-3.9c0-0.1-0.2-0.5-0.4-0.5c-0.2,0-0.5,0.2-0.5,0.4
				c-0.2,0.6-0.3,1.2-0.5,1.8c-0.2,0.8-0.5,1.7-0.7,2.5C77.9,149.2,77.7,149.7,77.5,150.5z M73.7,47.8c0.3-0.1,0.4-0.2,0.5-0.3
				c0.6-0.6,1.4-0.6,2.1-0.7c0.6-0.1,1.2-0.5,1.8-0.8c0.1-0.1,0.2-0.3,0.1-0.4c-0.2-0.5-0.4-1-0.8-1.4c-0.1-0.2-0.6-0.2-0.8-0.2
				c-1.4,0.4-2.1,1.6-3,2.6c-0.1,0.2-0.2,0.4-0.2,0.7C73.4,47.5,73.6,47.6,73.7,47.8z M92.3,131.7c-0.1-0.3-0.2-0.7-0.3-0.7
				c-0.2,0-0.5,0.1-0.6,0.2c-0.4,0.7-0.8,1.4-1,2.1c-0.3,1-0.4,2.1-0.7,3c-0.3,0.7-0.5,1.3,0.1,1.9c0.2,0.2,0.3,0.3,0.5,0.5
				c0.1-0.3,0.1-0.5,0.2-0.8c0.1-0.4,0.1-0.9,0.3-1.3c0.2-0.6,0.4-1.2,0.6-1.8c0.1-0.2,0-0.5,0.1-0.8
				C91.8,133.2,92.1,132.4,92.3,131.7z M79.3,79.8c-0.3-1-0.6-2.1-1-3.1c-0.1-0.2-0.5-0.4-0.7-0.6c-0.2,0.3-0.5,0.6-0.6,1
				c-0.1,0.2,0.2,0.6,0.1,0.9c-0.4,1.4,0.4,2.5,0.7,3.7c0,0.1,0.7,0.2,0.7,0.2C78.7,81.2,79,80.6,79.3,79.8z M51.8,107
				c0.3,0.6,0.5,1.1,0.7,1.5c0.1,0.2,0.4,0.4,0.5,0.3c0.2-0.1,0.3-0.3,0.4-0.5c0.2-0.7,0.2-1.5,0.4-2.1c0.2-0.7-0.1-0.9-0.6-0.8
				c-1.1,0.3-2.2,0.6-3.3,1.1c-0.2,0.1-0.4,0.8-0.3,1.1c0.3,0.5,0.8,0.6,1.3,0.2C51.2,107.5,51.5,107.3,51.8,107z M68.2,147.3
				c-0.4,0.2-0.8,0.3-0.9,0.6c-0.1,0.4-0.1,0.8-0.1,1.2c-0.1,1.1,0,2.4-1.3,3c-0.1,0,0,0.7,0.1,0.7c0.5,0.1,1.2,0.3,1.4,0.1
				c0.4-0.5,0.7-1.2,0.7-1.8C68.3,149.9,68.2,148.7,68.2,147.3z M67,65.5c0.4,0.2,0.7,0.4,1.1,0.6c0.2-0.3,0.3-0.6,0.5-0.9
				c0.1-0.3,0.4-0.5,0.4-0.8c0.2-0.9,0.5-1.9,0.7-2.8c0-0.1-0.2-0.2-0.3-0.4c-0.4,0.3-0.8,0.5-1,0.8c-0.2,0.3-0.5,0.7-0.5,1
				C68,64.1,67.7,64.8,67,65.5z M89.1,189.2c-0.7-0.9-1.3-1.5-1.8-2c0,0-0.3,0-0.4,0.1c-0.6,0.5-1.2,1-1.8,1.5
				c-0.1,0.1,0.1,0.5,0.2,0.5c0.4,0.1,0.8,0.1,1.2,0c0.5-0.1,1-0.3,1.5,0.1C88.2,189.5,88.5,189.3,89.1,189.2z M64.1,67.4
				c0.2,0.4,0.3,0.7,0.5,1.1c0.4-0.2,0.9-0.4,1.2-0.8c0.3-0.4,0.6-0.8,0.7-1.3c0.1-0.3,0.1-0.7,0-0.9c-0.2-0.2-0.6-0.3-0.9-0.2
				C64.8,65.4,64.2,66.3,64.1,67.4z M57.7,81.7c-1,0-1.5,0.7-1.6,1.4c-0.1,0.7-0.4,1.2-0.7,1.7c-0.4,0.6-0.1,1.5,0.3,1.6
				c0.8,0.1,0.9-0.5,1.1-1.1C57,84.2,57.3,83,57.7,81.7z M99.9,75.3c-0.1,0.1-0.2,0.1-0.3,0.2c0.3,0.3,0.6,1,0.8,0.9
				c0.5-0.1,1-0.4,1.4-0.7c0,0-0.1-0.5-0.2-0.5c-0.8-0.1-0.7-0.6-0.7-1.2c0-0.3-0.5-0.6-0.8-0.8c-0.1-0.1-0.6,0.1-0.6,0.1
				c0,0.3,0,0.7,0,1.1C99.5,74.7,99.7,75,99.9,75.3z M78.8,117.5c0.4-0.4,0.6-0.6,0.7-0.8c0.5-0.9,1-1.9,1.5-2.8
				c0.1-0.1-0.3-0.6-0.3-0.6c-0.4,0.2-1,0.3-1.2,0.7c-0.4,0.9-0.7,1.8-1,2.8C78.5,116.9,78.7,117.1,78.8,117.5z M45.9,78.7
				c0.1,0,0.3,0,0.4,0c0.2-0.4,0.5-0.7,0.6-1.1c0.3-0.8,0.6-1.7,0.9-2.6c0.1-0.2,0.1-0.5,0.1-0.8c-0.3,0.1-0.7,0.1-0.8,0.3
				c-0.6,1.1-1.1,2.3-1.5,3.4C45.5,78.2,45.8,78.5,45.9,78.7z M85.5,128.7c-1.4-0.1-2.1,0.4-2.1,1.1c0,0.6,0,1.3,0,1.9
				c0,0.3,0.3,0.5,0.5,0.8c0.2-0.3,0.5-0.5,0.5-0.8C84.5,130.7,84.1,129.5,85.5,128.7z M49.2,76.4c0.1,0.1,0.2,0.3,0.3,0.3
				c0.2,0,0.6,0,0.7-0.2c0.5-0.5,1-1.1,1.4-1.8c0.1-0.2,0.1-0.5,0-0.7c0-0.1-0.3-0.2-0.5-0.1C50.4,74.1,49.2,75.6,49.2,76.4z
				 M82.9,98.4c0.4-0.5,0.5-2.4,0.1-2.9c-0.1-0.2-0.4-0.4-0.6-0.4c-0.2,0-0.5,0.3-0.6,0.5C81.5,96.4,82.1,97.8,82.9,98.4z
				 M85.9,145.6c0.2,0.7,0.3,1.5,0.6,2.1c0.1,0.3,0.7,0.3,1.1,0.5c0.1-0.3,0.3-0.7,0.3-1c0-0.4-0.3-0.7-0.4-1.1
				C87.2,145.6,86.5,145.4,85.9,145.6z M88.3,166.5c0.1,0,0.3,0,0.4,0c0.2-0.4,0.5-0.9,0.7-1.3c0.4-1.5-1.4-0.1-1.5-1
				c-0.2,0.2-0.7,0.4-0.7,0.5C87.6,165.3,87.9,165.9,88.3,166.5z M83.7,151.7c0,0-0.2-0.2-0.3-0.3c-0.4,0.4-0.9,0.8-1.1,1.3
				c-0.1,0.2,0.4,1,0.6,1C83.9,153.5,83.5,152.5,83.7,151.7z M57.5,157.1c-0.4-0.3-0.7-0.8-0.8-0.7c-0.4,0.2-0.9,0.5-1.2,0.9
				c-0.1,0.1,0.4,0.6,0.7,0.9C56.5,157.9,56.9,157.5,57.5,157.1z M74,131c0.2,0.5,0.4,1,0.7,1.3c0.1,0.2,0.6,0,0.9,0.1
				c0-0.2,0.1-0.5,0-0.7c-0.2-0.3-0.4-0.6-0.7-0.9c-0.1-0.2-0.3-0.4-0.5-0.5C74.3,130.5,74.2,130.7,74,131z M74.3,138.7
				c-0.2,0.3-0.4,0.5-0.6,0.7c0.2,0.1,0.4,0.4,0.5,0.3c0.3-0.1,0.7-0.3,0.7-0.5c0.1-0.5-0.1-1-0.2-1.5c0-0.1-0.5-0.2-0.6-0.1
				c-0.1,0.1-0.2,0.4-0.2,0.6C73.9,138.4,74.2,138.5,74.3,138.7z M92.5,187.1c0.2-0.1,0.4-0.1,0.6-0.2c0.2-0.2,0.4-0.4,0.6-0.7
				c-0.3-0.1-0.5-0.2-0.8-0.2c-0.3,0-0.7,0-1,0c-0.2,0-0.4,0.2-0.6,0.3c0.2,0.2,0.3,0.4,0.5,0.5C92,187,92.3,187,92.5,187.1z
				 M74.5,52.8c-0.6-0.9-1.1-1-1.8-0.7c-0.2,0.1-0.4,0.4-0.5,0.7c0,0.1,0.2,0.4,0.3,0.4C73.1,53,73.7,52.9,74.5,52.8z M63,64.8
				c0.5-0.6,0.8-1.1,1.2-1.7c0,0-0.2-0.3-0.3-0.3c-0.5-0.1-1.4,1-1.3,1.4C62.6,64.4,62.8,64.5,63,64.8z M82,47.8
				c1,0.5,1,0.5,1.6-0.6c-1.1,0.5-2.2,0.2-3.1,1C81.3,49.1,81.6,48.3,82,47.8z M70.3,153c-0.9-0.3-1.2,0.1-1.4,0.6
				c-0.1,0.2,0,0.4,0,0.6c0.2,0,0.6,0,0.7-0.1C69.9,153.8,70.1,153.4,70.3,153z M80.7,46c0.1,0,0.2,0.1,0.2,0.1
				c0.4-0.2,0.8-0.3,1.2-0.6c0.1-0.1,0.1-0.4,0.1-0.6c-0.4,0.1-0.9,0.1-1.3,0.2C80.8,45.3,80.8,45.7,80.7,46z M44.9,85
				c-0.2-0.3-0.4-0.5-0.6-0.7c-0.2,0.5-0.4,0.9-0.5,1.4c0,0.1,0.2,0.2,0.4,0.4C44.4,85.7,44.6,85.4,44.9,85z M45.2,81.8
				c-0.4,0.6-0.9,1.1-0.7,2.1C45.4,83.2,45.6,82.6,45.2,81.8z M73.4,185.9c0.2-0.1,0.3-0.2,0.5-0.3c-0.1-0.4-0.3-0.8-0.4-1.2
				c-0.3,0.2-0.5,0.4-0.8,0.5C72.9,185.3,73.1,185.6,73.4,185.9z M89.1,115.5c-0.1,0-0.3,0-0.4,0c0,0.3-0.2,0.7-0.1,0.8
				c0.3,0.2,0.7,0.2,1.1,0.3C89.5,116.3,89.3,115.9,89.1,115.5z M86.8,144.3c0.4-0.5,0.6-0.8,0.9-1.1c-0.2-0.1-0.4-0.2-0.5-0.1
				C86.8,143.2,86.4,143.4,86.8,144.3z M41.3,148.6c0.1-0.1,0.1-0.3,0.2-0.4c-0.2-0.1-0.6-0.3-0.6-0.2c-0.2,0.2-0.4,0.5-0.5,0.8
				c0,0.1,0.2,0.2,0.3,0.4C40.9,149,41.1,148.8,41.3,148.6z M95,186c-0.1,0.1-0.2,0.2-0.4,0.2c0.1,0.3,0.2,0.6,0.4,0.8
				c0.1,0.1,0.4-0.2,0.6-0.3C95.5,186.5,95.2,186.2,95,186z"/>
		</g>
		<g>
			<path d="M102.5,118.8c0.3,0.5,0.5,1.1,0.9,1.4c1.1,0.8,1.3,1.1,1.1,2.5c0,0.3,0,0.6,0.1,0.8c0.4,0.9,0.3,1.7,0.1,2.6
				c-0.3,1.2-0.4,2.4-0.5,3.6c0,0.1,0.2,0.4,0.3,0.5c0.8,0.6,0.9,1.3,0.5,2.1c-0.2,0.5-0.2,0.7,0.2,1.1c0.3,0.3,0.3,0.7,0.4,1.1
				c0.1,1,0,2,0.1,2.9c0,0.3,0.1,0.6,0.1,1c0,0.3,0,0.7-0.2,0.9c-0.9,0.7-0.8,1.6-0.6,2.5c0.1,0.7,0.4,1.3,0.8,1.9
				c0.3,0.5,0.3,0.8-0.2,1.2c-0.9,0.7-0.9,1.4-0.1,2.2c0.5,0.5,0.2,1-0.1,1.3c-0.5,0.7-0.5,1.3,0,1.9c0.2,0.2,0.4,0.4,0.7,0.4
				c1.1,0.2,1.3,0.4,0.9,1.5c0,0.1-0.1,0.3-0.2,0.5c1.1,0.2,1.3,0.8,1.2,1.9c-0.1,0.7,0.2,1.6,1.1,2c0.3,0.2,0.5,0.4,0.9,0.7
				c-1-0.1-1.3,0.4-1.2,1.2c0.1,0.8,0.3,1.3,1.2,1.4c1.4,0.2,2.7,0.6,4.1,0.8c0.9,0.1,1,0.7,0.9,1.2c-0.3,1.5,0.7,2.4,1.5,3.2
				c1.4,1.3,1.6,2,1.1,3.9c-0.2,0.6,0.1,1.2,0.2,1.9c0.1,0.6,0.2,1.1,0.4,1.7c0.1,0.5,0.1,1,0.3,1.4c0.4,0.8,0,1.1-0.6,1.4
				c-0.4,0.2-0.7,0.5-1.1,0.7c-1,0.4-2,0.7-3,0.9c-0.9,0.2-1.9-0.3-2.7,0.7c-0.3,0.4-1.2,0.3-1.8,0.3c-0.4,0-0.9-0.1-1.3-0.2
				c-0.7-0.1-1.2-0.2-1.7,0.7c-0.2,0.4-1.2,0.5-1.8,0.8c-0.4,0.1-0.7,0.3-1,0.5c-0.3,0.2-0.4,0.4-0.7,0.5c-0.9,0.3-1.1,0.9-0.7,1.8
				c0.2,0.4,0.2,0.9,0.1,1.3c-0.1,0.6,0,1.1,0.7,1.3c0.7,0.3,0.9,1.2,0.2,1.8c-1,0.9-1.1,2.2-1.8,3.3c-0.1,0.1-0.2,0.3-0.1,0.4
				c0.3,1.1-0.2,1.8-1.1,2.5c-1.2,0.9-2.2,2-3.5,2.7c-1.2,0.7-2.6,0.9-4,0.3c-0.4-0.2-0.9,0-1.4,0.1c-0.5,0.1-1,0.3-1.5,0.4
				c-0.2,0.1-0.4,0.2-0.6,0.3c-0.9,0.5-1.8,1.1-2.7,1.5c-1.5,0.6-2.8,0-4-0.9c-0.4-0.3-1-0.3-1.4-0.4c-1.2-0.3-2.4-0.6-3.6-1
				c-0.5-0.2-0.8-0.6-1.4-0.2c-0.6,0.4-1.3-0.1-1.8-0.9c-0.3-0.5-0.8-0.8-1.1-1.3c-0.4-0.8-0.8-1.6-1.1-2.5c-0.1-0.4,0.4-0.4,1.1,0
				c0.1-0.5,0.3-0.9,0.3-1.3c0.1-1,0.2-2.1,0.4-3.1c0.1-0.3,0.5-0.6,0.8-0.8c0.1,0,0.6,0.4,0.6,0.5c-0.5,0.9-0.2,1.7-0.2,2.6
				c0,1.2,0.5,1.9,0.9,2.9c0.5,1.1,1.4,0.7,2.2,0.9c0.3,0.1,0.7,0.1,1,0.1c0.5,0,1.1,0,1.4-0.2c0.2-0.3,0.2-0.9,0.1-1.4
				c-0.1-1.2-0.7-2-1.9-2.4c-0.2-0.1-0.2-0.6-0.2-0.9c0.1-0.2,0.5-0.4,0.7-0.4c0.5,0.1,1.1,0.3,1.3,0.7c0.4,0.7,0.7,1.6,1,2.4
				c0.1,0.3,0.1,0.6,0.3,0.8c1,0.9,1.6,2,1.6,3.4c0,0.2,0.4,0.5,0.7,0.5c1.1,0.1,2.2,0.3,3.1-0.5c0.2-0.2,0.5-0.3,0.8-0.4
				c0.7-0.3,1.3-0.6,1.3-1.6c0-0.3,0.1-0.6,0.3-0.8c0.3-0.4,0.2-0.7,0-1.1c-0.2-0.3-0.1-0.8-0.1-1.2c0.4,0.2,0.8,0.2,1.2,0.5
				c0.8,0.6,1.5,1.3,2.2,1.9c0.5,0.4,0.9,0.4,1.3-0.2c0.6-0.8,2.8-0.9,3.4-0.2c0.3,0.3,0.4,0.8,0.6,1.4c0.3-0.3,0.7-0.5,0.8-0.9
				c0.7-1.9,1.5-3.8,1.4-6c0-0.4-0.2-0.7-0.2-1.1c-0.2-1.1-0.8-2.1-0.3-3.2c0.2-0.4,0.1-0.9-0.6-0.9c-0.2,0-0.5-0.5-0.4-0.5
				c0.4-0.6-0.1-0.9-0.4-1.3c-0.3-0.4-0.5-0.9-0.6-1.3c-0.3-1.2-0.7-2.3-0.8-3.5c-0.1-1.1-0.5-1.9-1.1-2.7c-0.6-0.9-0.8-2.1-1.3-3.1
				c-0.5-1.3-1.1-2.6-1.6-4c-0.2-0.5-0.4-0.6-0.8-0.2c-0.7,0.8-1.2,0.8-1.9,0c-0.3-0.3-0.5-0.6-0.8-0.9c-0.7-0.7-1.4-1-2.4-0.7
				c-0.7,0.2-1.6,0.2-2.3,0.2c-0.5,0-0.9,0.7-0.6,1.2c0.4,0.7,0.9,1.3,1.4,2c0.1,0.1,0.1,0.4,0.1,0.6c-0.2,0-0.4,0.1-0.6,0
				c-0.4-0.3-0.8-0.6-1.2-0.9c0,0.3-0.1,0.5-0.2,0.8c0,0-0.5,0-0.5-0.1c0-0.4,0-0.7,0.1-1c-0.8-0.3-1.7-0.6-2.5-0.8
				c-0.1,0-0.3,0-0.4,0c-0.5,0.5-1,0.3-1.6,0.1c-0.5-0.2-0.7,0-0.8,0.5c-0.1,0.4-0.2,0.7-0.3,1.1c-0.5-0.3-1-0.4-1.4-0.8
				c-0.8-0.9-1.3-1.9-0.5-3c0.1-0.1,0-0.4-0.1-0.6c-0.5-1.2-0.7-2.3-0.4-3.6c0.1-0.4,0-0.8,0.1-1.1c0.1-0.3,0.3-0.7,0.5-0.8
				c0.2-0.1,0.6,0.2,0.8,0.4c0.5,0.7,1.1,1.5,0.4,2.4c-0.2,0.2-0.1,0.9,0,1c0.4,0.2,0.9,0.3,1.2,0.2c0.6-0.2,1.1-0.7,1.7-0.9
				c0.3-0.1,0.7-0.1,1.2-0.1c0.2-0.1,0.5-0.4,0.8-0.6c0.8-0.5,1.3-1.1,1.1-2.1c0-0.3,0.1-0.7,0.3-0.9c1.4-1.3,2.8-2.5,4.2-3.8
				c0.7-0.5,1.5-0.6,2.2-0.2c0.2-0.3,0.5-0.6,0.7-1c0.1-0.3,0.3-0.8,0.2-0.9c-0.9-0.7-0.3-1.4,0-2.1c-1.4-0.8-0.4-1.9-0.5-2.9
				c0-0.2,0.1-0.4,0.1-0.5c-0.1-1.2,0-1.3,1.1-1.5c1-0.2,1.7-1.6,1.3-2.8c-0.2-0.7,0-0.8,0.5-1c0.6-0.2,1.1-0.6,1.7-0.8
				c-0.1-0.3-0.2-0.3-0.2-0.4c-0.2-0.4-0.6-1-0.5-1.1c0.5-0.5,0.8,0.1,1.1,0.3c0.2,0.1,0.6,0.2,0.7,0.1c0.8-0.7,1.6-1.5,2.4-2.3
				c0.2-0.2,0.4-0.3,0.5-0.3c-0.2-0.7-0.3-1.3-0.4-1.8c-0.1-0.3-0.3-0.6-0.4-0.8c-0.3-0.7-0.7-1.3-1-2c0-0.1,0.3-0.5,0.5-0.6
				c0.4,0,0.8,0.1,1.2,0.2c0.6,0.1,1,0,1.1-0.8c0-0.3,0.5-0.6,0.8-0.8c0.2-0.1,0.5-0.3,0.5-0.4c-0.2-0.8-0.3-1.7-0.6-2.4
				c-0.3-0.6-0.8-1-0.3-1.8c0.2-0.4,0.1-1.1,0-1.6c-0.2-1-0.4-1.9-0.6-2.9c0-0.3,0.3-0.6,0.5-0.9c-0.7-1.6-1.5-3.3-2.3-4.9
				c-0.2-0.5-0.2-0.9,0.3-1.3c0.8-0.6,0.8-1,0.1-1.7c-0.4-0.4-0.5-0.8-0.3-1.4c0.1-0.7-0.2-1.5-0.5-2.2c-0.3-0.7-0.7-1.5-1.1-2.1
				c-0.2-0.4-0.6-0.6-0.9-0.9c-0.5-0.5-1.5-1.1-1.5-1.6c0.1-1-0.4-2,0.3-3c0.4-0.6,0.5-1.3,0.6-2c0-0.2-0.4-0.7-0.5-0.6
				c-0.3,0.1-0.9,0.3-0.9,0.6c-0.1,0.9-0.3,1.9-0.1,2.8c0.2,1-0.2,1.8-0.8,2.4c-0.8,0.8-1.6,1.4-2.4,2.1c-0.6,0.5-0.8,1.1-0.8,1.9
				c0,1,0.1,1.9,0.3,2.9c0.3,1.1-0.1,2.3-0.9,3.1c-0.3,0.3-1.2,0.5-1.6,0.4c-1-0.3-1.9,0-2.9,0.2c-0.3,0.1-0.8,0.2-0.9,0.1
				c-0.8-0.9-1.5-0.2-2.3,0c-0.9,0.2-1.5,0-1.6-0.9c-0.1-0.9-0.6-1.6-1.2-2.3c-0.3-0.3-0.3-1-0.3-1.6c0.1-0.7,0-1.1-0.8-1
				c-0.4,0-0.9-0.2-1.3-0.3c-0.6-0.2-1,0-1.1,0.7c0,0.2-0.3,0.5-0.5,0.7c-0.7,0.4-1.4,0.7-2.2,1c-0.2,0.1-0.5,0-0.8,0
				c0-0.3,0-0.6,0.1-0.8c0.1-0.2,0.3-0.3,0.5-0.5c0.7-0.6,0.7-1.3-0.2-1.7c-0.4-0.1-0.9-0.2-1.3-0.1c-0.2,0.1-0.4,0.6-0.4,0.9
				c0.1,0.7,0.2,1.4-0.3,2c-0.1,0.2-0.1,0.5-0.1,0.8c-0.1,0.7-0.7,0.9-1.1,0.4c-0.7-0.8-1.5-0.9-2.4-1.1c-0.3-0.1-0.5-0.4-0.8-0.6
				c-0.2-0.2-0.4-0.4-0.6-0.6c-0.5-0.3-0.8-0.6-0.6-1.2c0.2-0.6,0.8-0.8,1.3-0.6c0.8,0.3,1.5,0.1,2.2-0.3c0.4-0.2,0.5-0.4,0.4-0.9
				c-0.1-0.6,0.2-1.2,0.4-1.8c0.1-0.3,0.2-0.5,0.3-0.8c0.1-0.3,0.2-0.7,0.4-0.9c0.1-0.1,0.6,0.1,0.8,0.2c0.5,0.5,0.7,1.4,1.6,1.3
				c0.1,0.8,0.7,1.1,1.3,1.5c0.2,0.1,0.5,0.3,0.6,0.2c0.2-0.2,0.5-0.5,0.5-0.7c0.2-1.4-0.2-1.9-2-2.5c-0.6-0.2-1.2-0.3-1.8-0.3
				c-0.7,0-1.2-0.2-0.7-1c-1.2-0.4-1.2-0.4-1.2,0.9c0,0.4-0.1,0.8-0.2,1.1c-0.1,0.4-0.4,0.8-0.5,1.2c-0.2,0.5-0.3,1-1,0.7
				c-0.1,0-0.3,0.1-0.5,0.1c-0.8,0.4-1.2,0.1-1.2-0.8c0-0.3-0.2-0.5-0.2-0.8c0-0.3,0.1-0.5,0.2-1c-1.1,0.1-2.2,0.1-3.2,0.2
				c0,0.5,0.1,0.9,0.1,1.3c-0.5,0-0.9,0-1.4-0.1c-0.3,0-0.5-0.2-0.8-0.3c-0.1,0-0.2,0.1-0.3,0.1c0.1,0.4,0.3,0.9,0.3,1.3
				c0,0.3,0,0.7,0,1c-0.3-0.1-0.6-0.1-0.9-0.2c-0.3,0-0.7-0.2-0.9-0.1c-0.2,0.1-0.3,0.5-0.2,0.8c0.2,0.8,0.5,1.5,0.7,2.3
				c0.1,0.3,0.2,0.7,0.1,1.1c-0.1,0.2-0.3,0.4-0.5,0.6c-0.2-0.2-0.5-0.3-0.6-0.6c-0.6-1-1.1-2.1-1.6-3.2c-0.1-0.2-0.2-0.5-0.3-0.7
				c-0.2-0.9-0.7-1.2-1.6-1.3c-0.4,0-1-0.2-1.2-0.4c-0.2-0.3-0.3-1,0-1.2c0.5-0.5,1.1-0.8,1.7-1.3c0.3-0.2,0.5-0.6,0.6-0.9
				c0-0.1-0.3-0.5-0.4-0.5c-0.8,0.2-1.6,0.5-2.6,0.9c0.9,1,0.1,1.5-0.4,2.1c-0.4,0.4-0.6,0.8-0.4,1.5c0.1,0.5-0.4,1.1-0.6,1.7
				c0,0-0.6-0.1-0.7-0.2c-0.5-1.4-0.9-2.8-1.3-4.2c-0.1-0.3-0.3-0.7-0.3-1c-0.2-1-0.4-2-0.6-2.9c-0.2-0.8-0.4-1.7-0.5-2.5
				c-0.1-0.4-0.1-1,0.1-1.3c0.2-0.2,0.8-0.1,1.3-0.2c0.3,0,0.6,0,0.8,0c0.3,0,0.6-0.1,1-0.1c0,0.3,0.2,0.7,0,1
				c-0.4,0.7-0.3,1.1,0.3,1.7c0.3,0.3,0.3,0.8,0.5,1.3c0.2,0.4,0.3,1.2,0.6,1.3c0.6,0.2,1.3,0,1.9-0.1c0.1,0,0.2-0.5,0.1-0.8
				c-0.1-0.7-0.3-1.5-0.4-2.2c0-0.6,0.1-1.2,0.1-1.7c0.1,0,0.2,0,0.2,0c-0.1,0-0.1-0.1-0.2-0.1c-0.3-0.2-0.9-0.4-1-0.7
				c-0.1-0.6,0.5-0.6,1-0.7c0.5-0.1,1-0.2,1.4-0.5c0.3-0.2,0.5-0.7,0.5-1c-0.1-0.8,0.2-1.3,0.9-1.7c0.2-0.1,0.3-0.2,0.4-0.3
				c0.6-0.5,1.2-1,1.9,0c0-0.1,0.1-0.1,0.1-0.2c0-0.3,0-0.5-0.1-0.8c-0.4-0.8-0.1-1.4,0.5-2c0.6-0.5,1.3-1,0.7-2
				c-0.1-0.2,0-0.9,0.2-1.1c0.8-0.6,0.6-1.5,0.6-2.3c0-0.6-0.1-1.3-0.2-2c-0.8-0.6-0.8-0.6-0.5-1.9c0.2-0.8,0.1-1.7,0.9-2.3
				c0.1-0.1-0.1-0.7-0.3-1.1c-0.2-0.3-0.6-0.4-0.8-0.7c-0.1-0.2-0.3-0.6-0.2-0.8c0.3-0.6,0.7-1.2,1.2-1.7c0.2-0.2,0.7-0.1,1.1-0.1
				c0,0.3,0.1,0.6,0,0.8c0,0.1-0.1,0.3-0.1,0.4c-0.1,0.3-0.1,0.7-0.1,1c0.4-0.1,0.8-0.2,1.1-0.4c0.5-0.3,0.8-0.6,1.3-0.9
				c0.1-0.1,0.4-0.1,0.5,0c0.9,0.7,1.5,0,2.1-0.5c0.3-0.3,0.5-0.4,1-0.2c0.9,0.4,1.8,0.6,2.9,0.5c1.3-0.2,1.7,0.2,2,1.5
				c0.2,1,0.4,1.9,0.7,2.9c0.1,0.4,0.7,0.7,0.9,1.1c0.2,0.3,0.3,0.7,0.4,1.1c0,0.1-0.1,0.3-0.1,0.4c0.8,1.5,0.3,3.2,0.8,4.7
				c0.1,0.4,0.2,0.8,0.4,1.2c0.3,0.4,0.3,0.7,0.2,1.3c-0.1,0.5,0.1,1.2,0.5,1.7c0.7,0.9,0.8,1.2,0,2c-0.2,0.2-0.1,0.5-0.1,0.8
				c0,0.4,0.2,0.9,0.1,1.2c-0.4,0.9,0,1.3,0.7,1.7c0.6,0.3,0.7,0.9,0.1,1.3c-0.6,0.5-0.8,1.1-0.8,1.8c0,0.9-0.1,1.8-0.1,2.6
				c0,0.6,0,1.2,0.2,1.7c0.3,0.9,0.9,1,1.4,0.6c0.1-0.7,0.2-1.1,0.2-1.5c0.3,0.4,0.7,0.7,0.8,1.1c0.3,1,0.5,2.1,1.3,2.9
				c0.3,0.3,0.4,0.7,0.6,1.1c0.2,0.3,0.3,0.5,0.5,0.7c0.3-0.2,0.7-0.4,0.8-0.7c0.3-0.8,0.5-1.7,0.7-2.6c0.1-0.7,0.6-1.1,1.1-0.6
				c0.5,0.5,0.9,1.2,1,1.8c0.2,0.9,0,1.9,0,2.8c0,0.2,0,0.4,0.2,0.6c0.1,0.2,0.4,0.4,0.5,0.4c0.2,0,0.5-0.3,0.5-0.4
				c0-1.1,0-2.1,0-3.2c0-0.6,0-1.2-0.1-1.9c0-0.6-0.1-1.2-0.1-1.8c-0.1-0.7-0.2-1.4-0.3-2c-0.3-1.7-0.6-3.4-0.9-5
				c0-0.2-0.1-0.4-0.2-0.6c-0.7-0.9-0.7-0.9,0.1-1.7c0.2-0.2,0.5-0.4,0.8-0.5c1-0.5,1-1.2,0.2-1.9c-0.7-0.5-1.4-1-2.1-1.6
				c-0.1-0.1-0.2-0.2-0.3-0.5c0.4-0.1,0.7-0.3,1-0.4c0.8-0.3,1.7-0.5,2.4-0.8c0.3-0.1,0.5-0.6,0.5-0.9c-0.1-0.5-0.4-1-0.7-1.4
				c-0.5-0.7-1.2-1.4-1.4-2.2c-0.2-0.7,0.2-1.6,0.4-2.3c0.2-0.6,0.7-1.2-0.3-1.6c-0.1,0-0.1-0.2-0.1-0.3c0.3-1.1-0.6-1.6-1.1-2.4
				c-0.8-1.2-1.6-2.2-2.1-3.6c-0.4-1-1.2-1.8-1.9-2.7c-0.1-0.1-0.4-0.2-0.6-0.1c-1.4,0.3-1.4,0.3-2.2-0.7c-1.4,0.7-1.4,0.7-2.7-0.3
				c-0.3,0.1-0.6,0.3-1,0.4c-0.1-0.1-0.1-0.1-0.2-0.2c0.7-0.8,1.6-1.5,0.7-2.7c1.1-0.6,2.1-0.9,2.4,0.5c0.5-0.6,1-1.1,1.4-1.6
				c0.1-0.2-0.2-0.7-0.5-0.9c-0.7-0.6-1.5-1.1-2.3-1.7c-1,0.8-1,0.8-2.5-0.4c0.2,1,0.4,1.9,0.5,2.7c0.1,0.3,0.2,0.5,0.3,0.7
				c0.3,0.8,0.3,1.4-0.6,1.8c-0.1,0-0.1,0.1-0.2,0.2c-0.4,0.2-0.8,0.4-1.1,0.6C71.1,63.8,71,63.4,71,63c-0.2-1-0.4-2-0.6-3
				c-0.2-0.8-0.5-1.6-0.7-2.4c-0.1-0.5,0.9-1.3,1.4-1.2c0.7,0.2,1.4,0.3,2,0.6c0.4,0.1,0.7,0.5,1.2,0.9c0-0.5,0-0.8,0-1.1
				c-0.1-0.8,0.4-1.3,1.2-1.1c0.3,0.1,0.8,0.1,0.9,0c0.1-0.5,0.3-1.1,0.2-1.5c-0.1-0.4-0.6-0.8-0.1-1c0.3-0.2,0.9,0,1.3,0
				c0,0.1,0,0.2,0,0.2c0.3-0.2,0.6-0.4,0.9-0.6c0-0.1,0-0.2,0-0.3c-0.7-0.1-1.4-0.2-2.1-0.3c-0.4-0.1-0.8-0.1-1.2-0.2
				c-0.2,0-0.3-0.3-0.5-0.5c0.2-0.1,0.3-0.3,0.5-0.4c1.3-0.4,2.6-0.3,3.9-0.5c1.9-0.2,2.3,1,3.1,2c0.1,0.1,0.1,0.1,0.2,0.2
				c1.1,1,2.2,2,3.3,3c0.4,0.4,0.4,0.7-0.1,1.1c-0.2,0.1-0.3,0.5-0.4,0.7c0,0.1,0.3,0.5,0.4,0.4c0.2-0.1,0.4-0.3,0.6-0.5
				c0.1-0.1,0.3-0.3,0.4-0.3c1-0.2,0.6-0.9,0.5-1.4c-0.1-0.3-0.3-0.6-0.2-0.9c0-0.9-0.3-1.6-1.2-1.7c-1.3-0.2-1.6-1.5-2.5-2.2
				c-0.1-0.1,0.1-0.6,0.2-0.8c0.2-0.4,0.4-0.8,0.6-1.2c-0.1-0.1-0.1-0.1-0.2-0.2c0.7-0.1,1.4-0.3,2.2-0.4c0.2,0,0.4,0.1,0.5,0.3
				c0.1,0.1,0,0.3-0.2,0.5c-0.2,0.2-0.4,0.3-0.6,0.4c0.1,0.3,0.3,0.5,0.3,0.7c0.1,0.6,0.4,0.7,0.9,0.6c0.3-0.1,0.6,0,0.9,0.1
				c0.6,0.2,1.3,0.4,1.9,0.6c0.3,0.1,0.6,0.4,0.6,0.6c0,1.1,0.8,1.1,1.5,1.3c0.4,0.1,0.9,0.1,1.3,0.2c0.2,0,0.3,0.3,0.4,0.5
				c-0.2,0.1-0.4,0.3-0.6,0.3c-0.4,0-0.7-0.1-1-0.2c-0.9-0.3-1.5,0.2-2,0.7c-0.1,0.1-0.1,0.4,0,0.5c0.6,0.5,1.2,1,1.9,1.5
				c0.5,0.3,1.1,0.6,1.4,1c1.7,1.9,3.5,3.6,4.7,5.9c0.7,1.3,1.9,2.4,2.8,3.7c0.6,0.8,1,1.7,1.4,2.5c0.1,0.3,0,0.7-0.1,1
				c-0.2-0.2-0.5-0.3-0.7-0.5c-1-0.9-1.8-2-3.4-2.1c-1.3-0.1-2.2-1.2-3-2.2c-0.6-0.7-1.5-1.3-2.2-1.9c-0.1-0.1-0.4-0.2-0.5-0.3
				c0.6-0.7,1.1-0.9,1.8-0.2c0.6,0.6,1.5,1.1,2.2,1.6c0.1,0.1,0.4,0.1,0.6,0c0.1,0,0.2-0.3,0.1-0.5c-0.5-0.8-0.9-1.6-1.4-2.3
				c-0.3-0.4-0.8-0.7-1.3-1.1c-0.6,0.5-1.1,1.1-1.7,1.5c-0.4,0.2-0.9,0.3-1.4,0.4c0.1,0.6-0.2,1.4,0.7,1.7c0.1,0,0.2,0.3,0.3,0.4
				c0.6,1,1.2,1.9,1.8,2.9c0.4,0.7,0.8,1.5,1.2,2.3c0.4,0.7,0.9,1.4,1,2.1c0.1,1,0.5,1.7,1.1,2.4c0.3,0.3,0.2,0.7-0.3,0.7
				c-0.3,0-0.7,0-1,0.2c-0.3,0.1-0.5,0.3-0.7,0.6c-0.2,0.3-0.4,0.6-0.6,0.9c-0.2,0.4-0.4,0.9-0.6,1.4c0.8-0.8,1.4-0.4,2,0.1
				c0.7,0.6,1.2,0.4,1.8-0.3c0.4-0.5,0.9-0.9,1.3-1.3c0,0,0.1-0.1,0.2-0.1c0.5,0.1,0.8,0.6,1.5,0.5c0.8-0.1,0.5,0.8,0.7,1.2
				c0.9,1.4-0.5,2.8,0.3,4.1c0.4,0.8,0.7,1.6,0.5,2.6c0,0.2,0.2,0.5,0.3,0.7c0.1,0.6,0.3,1.1,0.2,1.7c-0.1,0.9-0.2,1.7,0.3,2.5
				c0.2,0.3,0.1,0.9,0,1.2c-0.8,1.9-1.1,3.8-1.3,5.8c-0.1,1,0,1.9,0,2.9c0,1.7-0.5,3.3-0.9,5c-0.1,0.4-0.8,0.7-1.3,0.9
				c-0.7,0.3-0.8,0.5-0.2,1.1c0.4,0.4,0.7,0.8,1,1.3c0.2,0.4,0.2,0.8,0.3,1.2c0.2,0.6,0.4,1.2,0.6,1.8c0.4,1.2,0.9,2.5,1.3,3.7
				c0.2,0.6,0.5,1.2,0.7,1.8c0.1,0.3,0.1,0.6,0.2,0.8c-0.3,0-0.6-0.1-0.9-0.1c-0.1,0-0.2,0-0.3-0.1
				C102.7,118.7,102.6,118.7,102.5,118.8z M115.1,167.6c0.1-0.1,0.1-0.2,0.2-0.3c-1.2-0.4-1-1.2-0.9-2c0.2-0.8-0.1-1.3-0.9-1.6
				c-0.4-0.1-0.7-0.2-1.1-0.4c-0.2-0.1-0.5-0.4-0.4-0.6c0.2-0.8-0.3-1.2-0.9-1.5c-0.7-0.4-1.3-0.5-2,0.1c-0.6,0.5-1.2,0.9-1.8,1.5
				c-0.8,0.9-1.8,0.8-2.8,0.4c-0.2-0.1-0.5-0.3-0.7-0.3c-1.2,0.3-2.4,0.5-3.5,1c-1,0.4-1.2,1.2-1,2.3c0,0.1-0.1,0.3-0.1,0.4
				c-0.2,1.5-0.5,3.1-0.1,4.6c0.2,0.9,0.4,1.8,0.4,2.8c0,1.3,0.2,2.4,1.3,3.3c0.1,0.1,0.3,0.3,0.3,0.5c0.1,0.6,0.4,0.6,0.9,0.5
				c0.5-0.1,1-0.3,1.4-0.3c1.3,0.1,2.3-1.1,1.8-2.2c-0.4-0.9-1-1.6-1.5-2.4c-0.4-0.6-0.3-0.9,0.5-1c0.2,0,0.4-0.1,0.6-0.1
				c0.6-0.1,0.9,0.1,0.9,0.7c0,0.5,0.2,1,0.4,1.4c0.2,0.4,0.7,0.7,0.9,1.1c0.4,0.9,0.9,0.7,1.6,0.4c0.4-0.2,0.8-0.3,1.2-0.4
				c0.4-0.1,0.8-0.1,1.3-0.2c-0.4-2.1-0.7-2.4-2.4-3.1c-0.4-0.2-0.8-0.4-1-0.7c-0.2-0.2-0.2-0.7-0.2-1c0-0.2,0.4-0.4,0.6-0.4
				c1-0.3,1.8,0.1,2.3,1.1c0.3,0.6,0.6,0.5,1,0.3c0.2-0.1,0.4-0.2,0.6-0.3c0.1,0.3,0.2,0.5,0.2,0.8c0.1,1.6,0.5,1.9,2.2,1.4
				c0.2-0.1,0.5-0.2,0.7-0.2c0.7-0.1,0.7-0.5,0.6-1.1c-0.1-0.6-0.2-1.1-0.4-1.8c-0.2,0-0.5-0.1-0.9-0.2c-0.5-0.2-1.1-0.3-1.6-0.6
				c-0.2-0.1-0.4-0.4-0.4-0.6c0-0.1,0.3-0.3,0.5-0.4C113.8,168.1,114.4,167.9,115.1,167.6z M60.3,95.3c-0.1,0-0.2,0-0.3,0.1
				c0.3,0.7,0.5,1.5,0.9,2.2c0.2,0.4,0.5,0.8,0.9,1c0.6,0.3,1.3,0.6,1.9,0.7c0.6,0.1,1.3-0.1,1.9-0.3c1-0.3,1.9-0.7,2.8-1.1
				c0.1,0,0.1-0.1,0.1-0.1c0.4-1.2,0.9-2.3,1.1-3.5c0.2-1.1,0.1-2.3,0.1-3.5c0-0.9,0-1.9-0.1-2.8c-0.1-0.5-0.3-1-0.6-1.5
				c-0.2-0.2-0.6-0.2-1-0.3c-0.9-0.2-1.9-0.3-2.8-0.5c-1.5-0.3-1.7,0-2,1.5c-0.2,0.8-0.2,1.8-1.1,2.4c-0.2,0.1-0.2,0.6-0.3,1
				c-0.2,0.6-0.2,1.3-0.5,1.8C60.4,93.3,60,94.2,60.3,95.3z M96.7,100.8c-0.2,0.6,0.5,1.4,1,1.3c0.5-0.2,1.3-0.3,1.1-1.2
				c-0.1-0.3,0.2-0.7,0.2-1.1c0-0.4,0-0.8,0-1.2c-0.1-1-0.3-2-0.3-3c0.1-1.9,0.4-3.8,0.5-5.7c0.1-0.7,0.1-1.5-0.1-2.2
				c-0.6-1.3-1.3-2.6-2-3.9c-0.1-0.2-0.7-0.5-0.8-0.4c-0.4,0.3-0.6,0.7-0.2,1.2c0.2,0.3,0.4,0.7,0.5,1.1c0.3,0.9,0.4,1.8,1,2.6
				c0.4,0.6,0.4,0.9,0.3,1.5c-0.2,0.6-0.4,1.4-0.2,2c0.2,0.8,0,1.3-0.5,1.8c-1,0.9-1,1.4,0,2.2c0.5,0.4,0.6,0.7,0.1,1.2
				c-0.2,0.2-0.5,0.5-0.6,0.7c-0.2,0.3-0.3,0.7-0.3,1C96.3,99.4,96.5,100.1,96.7,100.8z M72.5,77.1c-0.8,0.1-1.5,0.4-2.3,0.4
				c-2.1,0.1-4.2,0.3-6-1.2c-0.2-0.2-0.4-0.4-0.6-0.6c-0.4-0.3-0.7-0.3-0.8,0.2c-0.1,0.6-0.5,1.2,0,1.8c0.2,0.2,0.1,0.6,0,0.9
				c-0.4,0.8,0.1,0.8,0.7,1c0.8,0.2,1.5,0.6,2.3,0.8c0.4,0.1,1,0.4,1.3,0.2c0.9-0.5,1.7-0.4,2.6-0.2c0.8,0.2,1.2-0.2,1.2-1.1
				c0-0.3,0.2-0.7,0.4-0.8c0.4-0.1,0.8,0,1.3,0C72.6,78.1,72.5,77.6,72.5,77.1z M94.5,74.9c0.7,0.1,0.9-0.2,0.8-0.8
				c-0.1-0.9-0.1-1.9-0.8-2.6c-0.3-0.3-0.9-0.7-1.1-0.6c-0.6,0.3-1.2,0.8-1.7,1.3c-0.4,0.4-0.5,1,0,1.4
				C92.5,74.3,93.3,74.9,94.5,74.9z M82.4,110.4c0.2-0.9,0.4-1.7,0.6-2.5c0-0.2-0.1-0.5-0.3-0.6c-0.8-0.4-1.7-0.8-2.5-1.1
				c-0.2-0.1-0.6,0.1-0.8,0.2c-0.1,0.1,0,0.5,0.1,0.7c0.4,0.7,1.1,1.3,1.2,2C80.8,110.4,81.8,110.1,82.4,110.4z M84.4,60.2
				c0.3,1,0.8,1.1,1.8,0.9c0.3-0.1,0.6,0.1,0.9,0.1c-0.2,0.2-0.4,0.4-0.5,0.7c-0.2,0.4-0.4,0.8-0.3,1.2c0.1,0.3,0.6,0.5,0.9,0.6
				c0.4,0.2,0.9,0.4,1.4,0.4c0.1,0,0.5-0.3,0.5-0.4c-0.3-0.7-0.5-1.4-1-1.9c-0.5-0.6-0.9-1-0.6-1.8c0.1-0.2,0-0.4-0.1-0.7
				C86.4,59.6,85.4,59.9,84.4,60.2z M83.5,63.5c0.1-0.9-0.6-0.8-1.1-0.9c-0.2-0.1-0.5,0-0.8,0c0.1,0.2,0.2,0.5,0.3,0.7
				c0.1,0.1,0.2,0.3,0.3,0.4c0.3,0.2,0.5,0.5,0.8,0.7C83.2,64.1,83.3,63.8,83.5,63.5z"/>
		</g>
		<g>
			<path d="M57,55.2c0.1,0.4,0.2,0.8,0.3,1.5c0.3-0.3,0.5-0.4,0.7-0.6c0.2-0.1,0.5-0.2,0.7-0.4c0.1,0.3,0.2,0.5,0.2,0.8
				c0,0.3-0.2,0.6-0.2,0.8c0.6,0.1,1.2,0.2,1.8,0.2c0.5-0.6,1.1-1.3,1.7-2c0.8,0.8,0.7,1.5,0,2.5c-0.2,0.3-0.2,0.6-0.3,0.9
				c-0.2,0.6-0.4,1.2-0.6,1.8c-0.3,0.9-0.6,1.8-1,2.6c-0.2,0.3-0.5,0.6-0.8,0.8c0,0.7,0,1.4,0,2.1c0.1,0,0.1,0,0.2,0
				c0.1-0.1,0.2-0.2,0.2-0.4c-0.2-1.2,0.9-1.8,1.4-2.7c0-0.1,0.4-0.2,0.5-0.1c0.2,0.1,0.3,0.4,0.3,0.6c-0.1,1,0,1.9-0.7,2.8
				c-0.2,0.3-0.3,0.7-0.4,1c-0.2,0.3-0.3,0.6-0.5,0.9c-0.3-0.2-0.5-0.4-0.8-0.6c-0.1-0.1-0.1-0.1-0.3-0.3c-0.3,0.2-0.6,0.3-0.8,0.5
				c-0.9,1.2-2.2,1.1-3.5,1.1c-0.6,0-1.3-0.2-1.2-1.2c-0.1,0-0.2,0-0.2,0c-0.2,0.5-0.3,0.9-0.5,1.4c-0.1,0.3-0.2,0.6-0.3,0.8
				c-0.1,0.2-0.5,0.3-0.7,0.3c-0.1,0-0.3-0.4-0.3-0.6c-0.1-0.9,0.1-1.7,0.6-2.4c0.8-0.9,1.1-2.1,1.7-3.1c0.9-1.5,1.3-3.5,3-4.5
				c0.5-0.3,0.9-0.8,0.7-1.7c-0.6,0.4-1.1,0.8-1.5,1.1c-0.5,0.4-0.8,1-1.3,1.3c-0.6,0.4-1.3,0.7-2.2,1.2c-0.1,2.3-2,4-3.4,6
				c-0.4,0.5-1,0.9-1.3,1.4c-0.4,0.7-0.8,1.4-1,2.2c-0.1,0.6-0.2,1-0.8,1.2c-0.3,0.1-0.6,0.6-0.8,0.9c-0.2,0.3-0.3,0.8-0.6,1.1
				c-0.7,0.7-0.7,1.4-0.2,2.1c0.7,1.1,0.2,1.8-0.4,2.7c-0.6,0.9-1.2,1.9-1.6,2.9c-0.3,0.8-0.2,1.8-0.3,2.7c-0.1,1.8,0.1,3.6,0.5,5.4
				c0,0.2,0.1,0.4,0.2,0.5c0.8,0.6,0.6,1.2,0.1,1.9c-0.3,0.5-0.4,0.8,0.1,1.3c0.3,0.3,0.3,0.9,0.4,1.4c0.1,0.7,0.1,1.5,0.1,2.2
				c0,0.5,0,1.1-0.1,1.6c-0.2,1.1-0.4,2.2-0.7,3.3c-0.4,1.6-0.9,3.2-1.3,4.8c-0.1,0.3-0.1,0.6-0.2,0.9c-0.2,0.3-0.5,0.4-0.8,0.6
				c-0.1-0.2-0.2-0.5-0.3-0.7c-0.3-0.9-0.5-1.8-0.7-2.7c-0.2-0.7,0.2-1.4-0.5-2c-0.6-0.6-1.7-1-2.4-0.5c-1.1,0.7-2,1.5-2.3,2.9
				c0,0.3-0.2,0.5-0.3,0.7c-0.5,0.7-1.1,1.4-1.5,2.2c-0.2,0.4-0.1,0.9-0.1,1.3c-0.1,0.7,0.5,0.6,0.9,0.8c0.3,0.1,0.4,0.5,0.6,0.7
				c-0.3,0.2-0.7,0.5-1,0.5c-1.3,0.1-3.2,2.4-3,3.7c0,0.2,0.1,0.3,0.2,0.5c0.2-0.1,0.4-0.1,0.5-0.2c0.4-0.6,0.8-1.3,1.3-2
				c0.1-0.1,0.6-0.2,0.7-0.1c0.3,0.3,0.5,0.7,0.7,1c0.7-0.4,1.3-0.8,2-1.2c0.2-0.1,0.5,0,0.7,0c0,0.2,0.1,0.6-0.1,0.7
				c-0.4,0.6-1,1-1.4,1.6c-0.4,0.5-0.8,1.2-0.7,1.8c0,1.4-0.4,2.4-1.3,3.4c-0.8,0.8-0.7,2.7,0.2,3.4c0.2,0.2,0.5,0.1,0.7,0.2
				c0.5,0.2,0.6,0.4,0.3,0.9c-0.8,1.3-1.4,2.7-2.1,4c-0.3,0.5-0.5,0.9-0.9,1.3c-0.9,0.8-1.2,1.8-1.4,2.9c0.1,0.1,0.1,0.1,0.2,0.2
				c0.7-0.8,1.4-1.5,2.2-2.3c0.4-0.4,0.8-0.8,1.2-1c0.2-0.1,0.6,0,1,0.1c-0.1,0.3-0.2,0.6-0.3,0.9c-0.3,0.6-0.7,1.2-1,1.8
				c-0.8,1.4-1.6,2.9-2.3,4.3c-0.2,0.4-0.3,0.7-0.6,1.3c0.4-0.1,0.6-0.2,0.7-0.3c0.4-0.1,0.8-0.1,1.2-0.1c-0.1,0.4-0.3,0.8-0.4,1.1
				c0,0.1-0.3,0.1-0.4,0.2c0.1,0.1,0.1,0.2,0.2,0.2c0.6,0,1.3-0.1,1.9-0.1c0.5,0,0.7,0.1,0.6,0.7c-0.1,0.6-0.3,1.3-0.2,2
				c0.1,0.9,0.1,1.7-0.2,2.5c-0.4,1.1-0.7,2.4-0.9,3.6c-0.1,0.6,0.1,1.1,0.9,1.2c0.7,0.1,0.4,0.5,0.2,0.9c-0.4,0.5-0.8,1.1-0.9,1.6
				c-0.1,0.6-0.5,1.3,0.3,1.8c0.1,0-0.1,0.5-0.2,0.6c-0.8,0.8-0.9,1.2-0.3,2.2c0.4,0.7,0,1.2-0.2,1.7c-0.3,0.6-0.3,1,0,1.7
				c0.4,0.7,0.7,1.5-0.1,2.3c-0.3,0.3-0.2,0.8-0.4,1.2c-0.4,1-0.9,1.9-1.4,2.9c0.5,1.1,0.9,2.3,0.9,3.7c0,0.8,0.1,1.7,0.2,2.5
				c0.2,1.5-0.4,2.8-0.9,4.1c-0.3,1-0.6,2.1-0.7,3.1c-0.1,0.9-0.1,1.9,0,2.8c0.1,0.6,0.4,1.3,0.8,1.8c0.9,0.9,1.1,2,1.3,3.1
				c0.1,0.5,0.1,1.1,0.3,1.6c0.2,0.5,0.4,1,1.2,1c0.4,0,0.8,0.4,1.2,0.7c0.3,0.2,0.5,0.5,0.8,0.7c0.1,0,0.2-0.1,0.3-0.1
				c0-0.7-0.1-1.3,0-2c0.1-0.7,0.2-1.3,0.4-2c1,0.5,1.1,1.4,1.3,2.1c0.3,1.3-0.5,2.6-1.8,3c-0.5,0.1-0.5,0.4-0.4,0.8
				c0.4,1.4,1.7,2.2,3.3,2c0.3-0.1,0.7-0.1,1.1-0.2c0.1-0.3,0.1-0.7,0.2-1c0.2-0.3,0.5-0.6,0.8-0.7c0.2,0,0.5,0.4,0.6,0.7
				c0.1,0.3,0.1,0.8,0.2,1.1c0.1,0.3,0.3,0.5,0.5,1c0.7-1.8,1.2-3.2,1.8-4.7c0.1-0.3,0-0.7,0.1-1c0.1-0.3,0.3-0.5,0.5-0.8
				c0.2,0,0.3,0.1,0.5,0.1c0,1.1,0,2.2,0,3.3c0,0.4,0.3,0.7,0.5,1c0.6,0.8,1.2,1.6,1.7,2.4c0.5,0.8,0.9,1,1.7,0.5
				c0.8-0.4,1.4-1,1.6-1.9c0.2-0.8-0.1-1-0.8-0.8c-0.8,0.2-1.3-0.5-1.6-0.9c-0.2-0.4,0-1.1,0-1.6c0.9,0.2,1.6,0.4,2.2,0.5
				c0.2-0.7,0.5-1.3,0.5-1.9c0-0.6-0.1-1.3-0.4-1.8c-0.6-1.1-0.5-1.5,0.6-2c1-0.4,1-0.4,1.2,0.7c0.1,0.3,0.3,0.6,0.5,0.9
				c0.3,0.4,0.6,0.9,1,1.4c0.9,0.2,1.1-0.7,1.6-1.4c1-1.4,2-2.9,2.6-4.6c0.1-0.2,0.2-0.5,0.1-0.6c-0.8-1.2-0.1-2.5-0.5-3.7
				c-0.1-0.5,0-1-0.1-1.5c0-0.1-0.1-0.3,0-0.4c0.6-0.9,0-1.5-0.4-2.2c-0.6-0.9-0.5-1.2,0.6-1.4c0.5-0.1,1-0.4,1.3-0.6
				c0.2-0.9,0.4-1.5,0.4-2.2c0-0.9-0.1-1.7-0.2-2.6c-0.1-1-0.3-2-0.5-3c-0.1-0.8-0.4-1.7-0.4-2.5c0-0.9-0.3-1.4-0.8-1.9
				c-0.4-0.5-0.7-1.1-0.8-1.6c-0.1-0.5,0.2-1,0.4-1.5c0.1,0,0.3,0,0.4,0c0.6,1,1.1,2.1,1.8,3c0.5,0.6,1.2,1.1,1.8,1.6
				c0.4,0.3,1.4-0.5,1.3-1.2c-0.1-1.4,1.1-1.7,1.8-2.5c0.3-0.4,0.6,0,0.7,0.4c0.1,1.1,0.3,2.2,0.4,3.3c0.1,0.9,0.1,1.7,0.2,2.6
				c0,0.1,0.2,0.3,0.4,0.6c0.4-2.8,0.6-5.5,2.1-7.9c-0.9-0.8-0.9-0.9,0.5-2.6c-0.2-0.1-0.4-0.1-0.5-0.3c-0.1-0.2-0.1-0.5,0-0.7
				c0.1-0.1,0.5-0.3,0.6-0.2c0.6,0.4,1.2,0.9,1.9,1.4c0.1-0.3,0.3-0.9,0.5-1.4c0.1-0.2,0.4-0.4,0.6-0.6c0.2,0.3,0.5,0.5,0.5,0.8
				c0,0.9-0.1,1.8-0.4,2.7c-0.4,1.3-0.6,2.7-0.6,4.1c-0.1,1.3-0.3,2.6,0.5,3.7c-0.5,1.1,0.8,1.6,0.9,2.6c0.1,0.7,0.1,0.9-0.5,0.8
				c-0.9-0.2-1.1,0.3-1.5,1c-0.9,1.5-1,3-1.2,4.7c0.3,0,0.5-0.1,0.8,0c0.2,0.1,0.6,0.3,0.6,0.4c0,0.6-0.2,1.3-0.2,1.9
				c0,0.2,0,0.4,0.1,0.6c0.4,1.1,0.3,1.6-0.6,2.2c-0.4,0.3-0.8,0.7-1.1,1c-0.4,0.5-1,0.7-1.5,0.3c-1.1-0.7-2.4-1.3-2.8-2.7
				c-0.2-0.8-1-0.8-1.6-0.9c-0.5-0.1-1.1,0.4-1.7,0.4c-0.7,0.1-0.9,0.5-1,1.1c-0.1,0.7-0.4,1.4-0.5,2.1c-0.1,0.2,0,0.5,0,0.7
				c0,0.4,0,0.7,0,1.1c0,0.1-0.2,0.3-0.2,0.4c0,0.9,0,1.7,0,2.6c0,0.3-0.1,0.8-0.3,1c-0.8,0.9-0.8,2-0.9,3.1c-0.1,0.7-0.1,1.4-0.2,2
				c-0.1,0.6-0.3,1.2,0.3,1.6c0.1,0.1,0.1,0.2,0.1,0.3c-0.4,1.1-0.8,2.2-1.2,3.3c-0.1,0.2-0.4,0.3-0.7,0.3c-0.5,0-1,0-1.4-0.1
				c-1.3-0.3-2.5,0.1-3.7,0.5c-0.4,0.1-0.7,0.7-1.1,0.9c-0.6,0.3-1.2,0.5-1.8,0.8c-0.1,0-0.1,0.1-0.2,0.1c-1.3-0.4-3,0.4-4.1-0.9
				c-0.1-0.1-0.3-0.2-0.5-0.2c-1,0-1.9,0-2.9,0c-0.1,0-0.2,0-0.3,0c-1.2-0.8-2.6-0.6-3.9-0.8c-0.2,0-0.5,0-0.8,0.1
				c-1,0.4-1.9-0.1-1.8-1.1c0.1-1.3-0.5-2.3-1-3.3c-0.4-0.7-1.2-1-2.1-0.8c-0.8,0.2-1.8-0.5-1.6-1.2c0.4-1.4-0.6-2.5-0.7-3.7
				c0-0.4,0-0.8,0-1.2c0-0.4-0.1-0.8,0-1.2c0-0.5,0.1-1.1,0.3-1.6c-0.7-2.2-0.2-4.3,0.3-6.5c0.2-0.7,0.4-1.3,0.5-2
				c0-0.3-0.2-0.8-0.3-0.8c-0.9,0-1.9-0.2-2.7,0.5c-0.2,0.2-0.3,0.5-0.4,0.7c-0.1,0.3-0.2,0.7-0.4,1c-0.2,0.5-0.5,1-0.8,1.5
				c-0.3,0.4-0.7,0.8-1,0.8c-0.4,0-1-0.4-1.2-0.7c-0.4-0.8-1-1.1-1.8-1.3c-0.8-0.2-1.6-0.7-2.4-1c-0.9-0.3-1.9-0.5-2.8-0.8
				c-0.2-0.1-0.4-0.4-0.5-0.7c-0.1-1.3-0.4-1.7-1.6-2.2c-0.5-0.2-1-0.6-1.6-0.8c-0.7-0.4-0.6-1-0.4-1.5c0.2-0.6,0.8-0.9,1.4-0.8
				c1,0,1.5,0.9,2.3,1.4c1.3,0.7,2.5,1.5,3.8,2c0.5,0.2,1.3-0.1,1.9-0.3c0.7-0.2,1.1-0.7,0.8-1.6c-0.4-1.3,0.1-1.8,1.5-1.7
				c0.5,0,0.7-0.1,0.9-0.6c0.4-0.8,0.9-1.6,2-1.8c0.3-0.1,0.5-0.5,0.7-0.7c-0.2-0.2-0.5-0.5-0.7-0.7c-0.3-0.2-0.8-0.3-1.1-0.6
				c-1.2-1-1-2.7,0.5-3.8c0.2-0.2,0.4-0.4,0.5-0.6c-0.3-0.1-0.5-0.2-0.8-0.3c-0.3-0.1-0.7-0.2-0.9-0.4c-0.8-0.8-1.9-0.8-2.9-0.8
				c-0.5,0-1,0.4-1.5,0.7c-0.5,0.3-1,0.8-1.6,1c-1.4,0.6-2,1.8-2.2,3.2c0,0.2,0.1,0.5,0.1,0.7c0,0.2,0,0.5-0.1,0.6
				c-0.9,0.9-1.3,1.8-0.9,3.1c0.2,0.7-0.5,1.2-1.1,0.8c-0.5-0.3-1-0.7-1.3-1.2c-0.6-0.8-1.4-1-2.2-1.2c-0.5-0.2-1-0.5-1.5-0.8
				c-0.3-0.2-0.5-0.4-0.7-0.5c-0.9-0.5-1.9-1-2.8-1.5c-0.1,0-0.1-0.1-0.2-0.1c-1.5-0.2-1.5-1.4-1.7-2.5c-0.2-1.3-0.6-2.5-1.2-3.7
				c-0.2-0.4-1-0.7-1.6-0.8c-1-0.2-1.2-0.4-0.6-1.2c1.6-1.8,2-4.1,2.5-6.3c0.1-0.5,0.1-1,0.8-1.2c0.1,0,0.3-0.3,0.2-0.4
				c-0.5-1.3,0.5-2.3,0.9-3.4c0.2-0.7,0.8-1.3,1.2-1.9c-0.8-0.5-1.6-1-2.4-1.6c-0.1-0.1-0.1-0.6,0-0.7c0.5-0.5,1-1,1.5-1.4
				c1.1-0.8,1.7-1.8,2.2-3.1c0.9-2.6,2.5-4.6,5.2-5.5c0.5-0.2,0.7-0.3,0.5-0.9c-0.3-0.9,0.2-1.9-0.5-2.7c0.3-0.1,0.5-0.4,0.8-0.4
				c1.1-0.1,2.2-0.1,3.3-0.2c0.5,0,0.6-0.3,0.7-0.8c0.2-1,0.6-2,1-2.9c0.1-0.2,0.5-0.2,0.7-0.2c1.2,0,2-0.7,2.5-1.8
				c0.7-1.6,1.2-3.2,3.1-4c2-0.9,3.4-2.4,3.8-4.7c0.1-0.3,0.3-0.6,0.5-0.7c1.6-0.7,2-2,2.2-3.6c0-0.3,0.3-0.5,0.4-0.8
				c0.2-0.4,0.6-0.7,0.6-1.1c0-0.7,0.3-1.2,0.9-1.3c1.2-0.4,1.5-1.5,2.3-2.2c0.5-0.5,1.1-0.9,1.4-1.4c0.9-1.1,0.2-2.4,0.2-3.7
				c0-0.7,0-1.2,0.3-1.8c0.6-1,0.5-2.1,0.1-3.2c-0.1-0.3-0.7-0.5-1.1-0.6c-1-0.3-0.9-0.4-0.4-1.3c0.3-0.5,0-1.3,0-2
				c0-0.1-0.2-0.3-0.2-0.4c0.2-2.3-0.3-4.8,1.5-6.8c0.1-0.1,0.2-0.2,0.3-0.4c0.7-1.7,1.3-3.4,2-5c0.1-0.3,0.3-0.6,0.5-0.7
				c1.1-0.6,0.9-1.6,0.9-2.6c0-0.1-0.2-0.4-0.4-0.4c-0.9,0-1.8,0-2.6,0.2c-0.7,0.1-1.3,0.5-2.1,0.8c-0.3-0.4-0.2-0.9,0.1-1.5
				c0.9-2,1.7-3.9,2.6-5.9c0.3-0.6,0.8-1.1,1.3-1.5c0.2-0.1,0.7,0,1,0.2c0.1,0.1,0.2,0.6,0.1,0.8c-0.4,0.9-1,1.8-1.4,2.7
				c-0.3,0.6-0.5,1.2-0.6,1.8c-0.1,0.3,0.1,0.8,0.3,0.9c0.4,0.1,1,0.2,1.2-0.1c0.6-0.6,1.2-0.7,2-0.4c0.2,0.1,0.7-0.1,0.8-0.3
				c1.3-1.5,2.6-3,3.1-4.9c0.1-0.3-0.1-0.7-0.4-0.9c-0.2-0.1-0.7-0.1-0.9,0.1c-0.9,0.8-1.7,1.6-2.4,2.5c-0.2,0.3-0.2,0.7-0.3,1.1
				c-0.1,0.5-0.3,1.1-0.9,0.9c-0.3-0.1-0.6-0.8-0.5-1.1c0.4-0.9,1-1.8,1.5-2.7c0.6-1,1.7-1.9,1.6-3.3c0-0.3,0.2-0.6,0.5-0.8
				c1-1.1,2.1-2.1,3.2-3.1c0.1-0.1,0.2-0.2,0.3-0.4c-0.6-0.8-1.3,0.2-1.6,0c-0.8,1-1.5,1.8-2.2,2.7c-0.2,0.3-0.4,0.7-0.6,0.9
				c-0.6,0.5-1.2,0.9-1.8,1.2c0,0-0.4-0.3-0.4-0.4c0.1-0.5,0.1-1.1,0.4-1.5c0.5-0.7,1.4-1.1,1.8-1.8c1-1.7,2.7-2.9,4-4.3
				c1.3-1.4,2.6-2.8,4-4.1c0.9-0.8,2.1-1.3,3.2-1.8c0.4-0.2,1,0.2,1.4,0.5c0.1,0-0.2,0.7-0.3,1.2c0,0,0.1,0.1,0.2,0.1
				c0.8-0.3,1.5-0.5,2.3-0.2c0.1,0.1,0.5-0.2,0.5-0.3c0-0.2-0.1-0.5-0.3-0.7c-0.8-0.9-1.7-1.7-2.5-2.5c-0.2-0.2-0.3-0.6-0.3-0.9
				c0-0.2,0.4-0.3,0.7-0.4c0.3-0.1,0.6,0,0.9,0c1.1,0,1.1,0,0.9,1c0,0,0,0.1,0,0.1c-0.1,0.6,1.5,2.1,2.1,2.1c0.4,0,0.8,0.1,1.2,0.3
				c0.7,0.5,2.5,0.3,3-0.4c0.1-0.2,0.1-0.6,0-0.8c-0.3-0.6-1.8-1.1-2.4-0.9C61.2,46,60.6,45.7,60,45c-0.2-0.2-0.5-0.4-0.6-0.6
				c-0.2-0.2-0.5-0.6-0.4-0.7c0.2-0.2,0.5-0.5,0.7-0.5c0.4-0.1,0.9,0,1.3,0.1c0.8,0.2,1.3-0.1,1.5-0.8c0.1-0.3,0.3-0.6,0.6-1.2
				c0.4,0.7,0.7,1.1,1,1.6c0.4,0.7,0.7,1.4,1.7,1.4c0.2,0,0.6,0.4,0.6,0.6c-0.3,1.6,1,2.2,1.9,3.1c0.2,0.2,0.4,0.3,0.7,0.5
				c0.5-0.6,0.6-1.1,0.4-1.9c-0.3-1-0.2-2-0.9-2.9c-0.1-0.1,0.1-0.3,0.1-0.6c0.8,0.4,1.4,0.7,2,0.9c0.4-0.1,0.8-0.1,1.2-0.2
				c-0.2,0.3-0.4,0.6-0.6,1c-0.1,0.2-0.3,0.4-0.3,0.6c-0.1,1.6-0.1,3.2-0.2,4.8c0,0.5-0.3,1-0.6,1.5c-0.3,0.5-0.8,0.4-1.2,0
				c-0.6-0.6-1.3-1.2-1.9-1.8c-1.1,0.9-1.1,0.9-2.2,0.1c-0.6-0.5-1.2-0.4-1.6,0c-0.7,0.8-1.2,1.7-1.7,2.6c0,0.1,0.1,0.3,0.2,0.4
				c0.6-0.3,1-1.2,1.7-0.2c-0.2,0.3-0.3,0.6-0.6,0.8c-0.4,0.4-0.8,0.7-1.4,0.4c-1-0.6-1.9-0.4-2.7,0.5C58.4,55.1,57.8,55.5,57,55.2
				c0.1-0.3,0.4-0.6,0.4-1c0-0.3-0.3-0.8-0.5-0.8c-1,0.1-2,0.1-2.8,0.5c-1.2,0.6-2.2,1.4-3.2,2.3c-0.5,0.4-0.9,1-1.4,1.5
				c0.1,0.1,0.1,0.2,0.2,0.2c0.2-0.1,0.5-0.1,0.7-0.2c0.5-0.1,1-0.4,1.5-0.3c0.8,0,1.1-0.4,1.4-1C54.2,54.8,55.4,54.1,57,55.2z
				 M52.9,191.7c0-0.1,0-0.2-0.1-0.2c-0.3,0.2-0.7,0.2-0.9,0.5c-0.6,1.1-0.5,2.3-0.2,3.3c0.3,1.1,0.7,1.1,2.2,0.8
				c1-0.2,1.8-0.8,2-1.7c0.1-0.8-0.4-1.7-0.7-2.5c0-0.1-0.2-0.1-0.3-0.2C54.3,191.7,53.6,191.7,52.9,191.7z M25.4,158.3
				c1.8,0,3.5,0,4.8-1.4c-0.3-0.9-0.3-0.9-1.2-0.6c-0.4,0.1-0.9,0.2-1.4,0.2C26.4,156.4,25.8,157,25.4,158.3z M53.7,50
				c-0.7,0.3-1.2,0.4-1.6,0.8c-0.4,0.3-0.5,1-0.8,1.4c-0.5,0.6-1.1,1.1-1.7,1.7c-0.5,0.5-1.3,0.9-1,1.8c0.9-0.8,1.7-1.7,2.6-2.5
				c0.2-0.2,0.4-0.2,0.6-0.3C52.7,52.2,53.6,51.5,53.7,50z M56.1,64.8c0.2-0.3,0.3-0.5,0.4-0.6c0.3-0.7,0.5-1.5,1.6-1.3
				c0.1,0,0.2-0.3,0.4-0.5c-0.2-0.1-0.5-0.4-0.7-0.4C56.7,62,55.8,63.5,56.1,64.8z M19.6,154.5c0,0.1,0,0.2,0,0.3
				c0.9,0.4,1.7,0.4,2.8,0c-0.2-0.4-0.4-0.6-0.5-0.8C21.1,154.2,20.3,154.3,19.6,154.5z M22.7,176.4c0.8-0.4,0.9-0.9,0.7-1.5
				c0-0.1-0.6,0-0.9,0C22.5,175.4,22.6,175.9,22.7,176.4z"/>
		</g>
		<g>
			<path d="M77,69.8c-0.4,0.2-0.7,0.3-1,0.3c-0.2,0.1-0.4,0.1-0.6,0.1c-0.8-0.4-1.7-0.8-2.4-1.3c-0.5-0.3-0.6-0.9-0.2-1.4
				c0.4-0.5,0.8-0.3,1.2,0c0.6,0.4,1.2,0.8,1.8,1.1c0.2,0.1,0.6-0.1,0.8-0.2c0.5-0.2,1-0.4,1.5-0.6c0.2,0.5,0.4,1,0.5,1.5
				c0.2,0.9,0.4,1.8,0.6,2.8c0.1,0.3,0.3,0.6,0.3,0.8c-0.2,1.4,0.8,2.2,1.5,3.2c0.8,1,1.7,1.9,2.4,3c0.2,0.3,0.3,0.8,0.3,1.2
				c0.2,1.7,0,2.9-2.2,2.6c-0.1,0-0.3,0.2-0.4,0.2c-0.2,0-0.5,0-0.7,0c0-0.2,0-0.5,0.1-0.7c0.1-0.2,0.3-0.3,0.4-0.5
				c0.1-0.2,0.3-0.4,0.2-0.5c-0.5-0.8-0.2-2-1.1-2.7c-0.1-0.1-0.2-0.1-0.3-0.2c-0.4-1.5-1.4-2.8-1.4-4.4c0-0.2-0.1-0.7-0.2-0.7
				c-0.9-0.3-0.8-1-1-1.7C77.4,70.9,77.2,70.4,77,69.8z"/>
		</g>
		<g>
			<path d="M55.3,150.6c0,0.1,0,0.1,0,0.2c-0.1,0.4-0.2,0.8-0.3,1.2c-0.1,0.1-0.7,0-0.8-0.1c-0.2-0.5-0.3-1-0.3-1.5
				c0.1-1.1,0.3-2.2,0.4-3.3c0.1-0.4,0.3-0.8,0.4-1.3c0.2-1.5,0.3-2.9,0.4-4.4c0.1-0.7,0.2-1.3,0.2-2c0-0.9-0.2-1.9-0.3-2.8
				c-0.1-0.6-0.2-1.2,0.5-1.5c0.1,0,0.1-0.3,0.2-0.5c0.1-0.8,0.3-1.5,0.4-2.3c0.1-0.2,0.4-0.4,0.5-0.6c0.2,0.3,0.6,0.7,0.5,0.8
				c-0.9,2.1,0,4.3-0.3,6.4c-0.1,0.4-0.2,0.8-0.3,1.2c0,0.1-0.2,0.2-0.1,0.3c0.4,1.8-0.5,3.5-0.8,5.2c-0.2,1.6-0.4,3.2-0.5,4.8
				C55.1,150.6,55.2,150.6,55.3,150.6z"/>
		</g>
		<g>
			<path d="M68.6,54.4c0.1,0.3,0.3,0.6,0.3,1c0,1.2-0.1,2.4-0.2,3.6c0,0.6,0,1-0.9,0.8C66.9,59.6,66,59.9,65,60
				c-0.8,0.1-1.6,0.7-2.2-0.3c-0.4-0.7-0.3-1.3,0.5-2.3c0.5-0.6,0.8-1.2,1.3-1.8c0.1-0.1,0.1-0.3,0.2-0.3c0.7-0.2,1.4-0.4,2.1-0.6
				c0.5-0.1,1-0.1,1.5-0.1C68.5,54.5,68.6,54.4,68.6,54.4z"/>
		</g>
		<g>
			<path d="M53.8,79.9c-0.3,1.1-0.5,2.1-0.8,3.2c-0.2,0.7-0.3,1.5-0.5,2.2c-0.1,0.3-0.3,0.5-0.5,0.7c-0.3-0.2-0.6-0.4-0.8-0.6
				c-0.2-0.3-0.2-0.8-0.2-1.1c0-1.4-0.3-2.8,1-3.8c0.1-0.1,0.1-0.5,0-0.7c-0.6-1.5-0.4-2.2,0.7-3.4c0.3-0.3,0.3-0.7,0.6-1
				c0.2-0.2,0.6-0.4,0.9-0.5c0.1,0.3,0.3,0.6,0.4,0.9c0.1,0.9-0.2,1.7-0.7,2.5c-0.3,0.5-0.4,1-0.5,1.6
				C53.7,79.9,53.8,79.9,53.8,79.9z"/>
		</g>
		<g>
			<path d="M70.4,182.2c0.2-0.4,0.4-0.7,0.6-1.2c0.4,0.5,0.6,0.8,0.9,1.1c-0.7,0.3-0.5,0.8-0.3,1.4c0.6,1.8,0.9,3.7,0.7,5.7
				c0,0.5-0.6,0.9-0.8,1.3c-0.3-0.5-0.8-1-0.8-1.4c0-0.9,0-1.7-0.7-2.5c-0.3-0.3-0.1-1-0.2-1.5c-0.1-0.3-0.3-0.6-0.4-0.9
				c-0.2-0.3-0.5-1-0.4-1C69.4,182.7,69.5,181.5,70.4,182.2z"/>
		</g>
		<g>
			<path d="M40.8,153.3c0-1.1,0-2,0-2.9c0-0.2,0.1-0.5,0.2-0.6c0.1-0.1,0.5,0,0.6,0.1c0.4,0.4,0.9,0.8,1.1,1.4
				c0.5,1.2,0.8,2.4,1.3,3.6c0.4,0.9,0.7,1.7,0.5,2.7c-0.1,0.2,0.3,0.5,0.4,0.7c0.4,0.6,0.8,1.2,1.2,1.9c0.1,0.1,0,0.4-0.1,0.4
				c-0.2,0-0.4,0-0.5-0.1c-0.5-0.5-1-1.1-1.5-1.7c-0.3-0.4-0.7-0.8-0.9-1.3c-0.3-0.7-0.5-1.4-0.5-2.1C42.5,154,42,153.4,40.8,153.3z
				"/>
		</g>
		<g>
			<path d="M46.3,106.1c1.4,0,2.2,0.8,2.8,1.7c0.4,0.7,0.6,1.5,0.9,2.3c0.1,0.3,0.4,0.6,0.5,0.9c0.1,0.3,0.1,0.6,0.1,0.9
				c-0.3,0-0.7,0.1-0.9-0.1c-0.4-0.4-0.7-1-1.2-1.4c-0.7-0.7-1.6-1.3-2.2-2.1c-0.4-0.4-0.4-1.1-0.5-1.7
				C45.8,106.3,46.2,106.1,46.3,106.1z"/>
		</g>
		<g>
			<path d="M77.5,150.5c0.2-0.7,0.3-1.3,0.4-1.8c0.2-0.8,0.5-1.7,0.7-2.5c0.2-0.6,0.3-1.2,0.5-1.8c0.1-0.2,0.4-0.4,0.5-0.4
				c0.2,0,0.4,0.4,0.4,0.5c-0.3,1.3-0.7,2.6-1.1,3.9c-0.2,0.6-0.6,1-0.4,1.7c0.1,0.2-0.2,0.6-0.4,0.9c-0.2,0.4-0.5,0.9-0.4,1.3
				c0.1,1.9-1.1,3.1-2.7,2.8c0.1-0.8,0.7-1.1,1.2-1.5c0.4-0.4,0.6-0.7,0.6-1.4C76.7,151.6,76.7,150.7,77.5,150.5z"/>
		</g>
		<g>
			<path d="M73.7,47.8c-0.1-0.2-0.3-0.3-0.3-0.5c0-0.2,0.1-0.5,0.2-0.7c0.9-1,1.6-2.2,3-2.6c0.3-0.1,0.7,0,0.8,0.2
				c0.3,0.4,0.5,0.9,0.8,1.4c0.1,0.1,0,0.4-0.1,0.4c-0.6,0.3-1.1,0.7-1.8,0.8c-0.7,0.2-1.5,0.1-2.1,0.7C74.2,47.6,74,47.7,73.7,47.8
				z"/>
		</g>
		<g>
			<path d="M92.3,131.7c-0.3,0.8-0.6,1.6-0.8,2.4c-0.1,0.2,0,0.5-0.1,0.8c-0.2,0.6-0.4,1.2-0.6,1.8c-0.1,0.4-0.2,0.9-0.3,1.3
				c-0.1,0.3-0.1,0.5-0.2,0.8c-0.2-0.2-0.3-0.3-0.5-0.5c-0.7-0.6-0.4-1.2-0.1-1.9c0.4-1,0.4-2,0.7-3c0.2-0.7,0.6-1.4,1-2.1
				c0.1-0.1,0.4-0.2,0.6-0.2C92.1,131,92.2,131.3,92.3,131.7z"/>
		</g>
		<g>
			<path d="M79.3,79.8c-0.3,0.8-0.6,1.4-0.9,2c0,0.1-0.7-0.1-0.7-0.2c-0.2-1.2-1.1-2.3-0.7-3.7c0.1-0.2-0.2-0.6-0.1-0.9
				c0.1-0.3,0.4-0.6,0.6-1c0.3,0.2,0.6,0.3,0.7,0.6C78.7,77.8,79,78.8,79.3,79.8z"/>
		</g>
		<g>
			<path d="M51.8,107c-0.3,0.3-0.6,0.5-0.9,0.7c-0.5,0.3-1.1,0.2-1.3-0.2c-0.1-0.2,0.1-1,0.3-1.1c1.1-0.4,2.2-0.8,3.3-1.1
				c0.5-0.1,0.8,0.2,0.6,0.8c-0.2,0.7-0.3,1.4-0.4,2.1c0,0.2-0.2,0.5-0.4,0.5c-0.1,0-0.4-0.1-0.5-0.3
				C52.3,108.1,52.1,107.6,51.8,107z"/>
		</g>
		<g>
			<path d="M68.2,147.3c0,1.4,0.1,2.6,0,3.8c-0.1,0.6-0.3,1.3-0.7,1.8c-0.2,0.2-0.9,0-1.4-0.1c-0.1,0-0.2-0.7-0.1-0.7
				c1.3-0.6,1.1-1.9,1.3-3c0.1-0.4,0-0.9,0.1-1.2C67.4,147.6,67.8,147.5,68.2,147.3z"/>
		</g>
		<g>
			<path d="M67,65.5c0.8-0.7,1-1.4,0.9-2.3c0-0.3,0.2-0.8,0.5-1c0.3-0.3,0.6-0.5,1-0.8c0.1,0.1,0.3,0.3,0.3,0.4
				c-0.2,0.9-0.4,1.9-0.7,2.8c-0.1,0.3-0.3,0.5-0.4,0.8c-0.2,0.3-0.3,0.6-0.5,0.9C67.7,66,67.3,65.8,67,65.5z"/>
		</g>
		<g>
			<path d="M89.1,189.2c-0.5,0.1-0.9,0.4-1,0.3c-0.5-0.4-1-0.2-1.5-0.1c-0.4,0.1-0.8,0-1.2,0c-0.1,0-0.3-0.5-0.2-0.5
				c0.6-0.5,1.2-1,1.8-1.5c0.1-0.1,0.4-0.2,0.4-0.1C87.8,187.7,88.3,188.3,89.1,189.2z"/>
		</g>
		<g>
			<path d="M64.1,67.4c0.1-1.1,0.7-2,1.5-2.1c0.3,0,0.7,0.1,0.9,0.2c0.1,0.2,0.1,0.6,0,0.9c-0.2,0.5-0.4,1-0.7,1.3
				c-0.3,0.3-0.8,0.5-1.2,0.8C64.5,68.1,64.3,67.8,64.1,67.4z"/>
		</g>
		<g>
			<path d="M57.7,81.7c-0.3,1.3-0.6,2.4-1,3.6c-0.2,0.6-0.3,1.2-1.1,1.1c-0.4,0-0.6-1-0.3-1.6c0.3-0.5,0.7-1,0.7-1.7
				C56.1,82.5,56.7,81.7,57.7,81.7z"/>
		</g>
		<g>
			<path d="M99.9,75.3c-0.1-0.3-0.3-0.5-0.4-0.8c-0.1-0.3-0.1-0.7,0-1.1c0-0.1,0.4-0.2,0.6-0.1c0.3,0.2,0.8,0.5,0.8,0.8
				c0,0.6,0,1.1,0.7,1.2c0.1,0,0.3,0.5,0.2,0.5c-0.5,0.3-0.9,0.6-1.4,0.7c-0.2,0-0.5-0.6-0.8-0.9C99.7,75.4,99.8,75.4,99.9,75.3z"/>
		</g>
		<g>
			<path d="M78.8,117.5c-0.1-0.4-0.3-0.6-0.2-0.8c0.3-0.9,0.5-1.9,1-2.8c0.2-0.3,0.8-0.5,1.2-0.7c0,0,0.4,0.5,0.3,0.6
				c-0.5,1-1,1.9-1.5,2.8C79.4,116.9,79.2,117.1,78.8,117.5z"/>
		</g>
		<g>
			<path d="M45.9,78.7c-0.1-0.2-0.4-0.5-0.3-0.7c0.5-1.2,1-2.3,1.5-3.4c0.1-0.2,0.5-0.2,0.8-0.3c0,0.3,0,0.5-0.1,0.8
				c-0.3,0.9-0.6,1.7-0.9,2.6c-0.2,0.4-0.4,0.7-0.6,1.1C46.2,78.7,46,78.7,45.9,78.7z"/>
		</g>
		<g>
			<path d="M85.5,128.7c-1.3,0.9-1,2-1.1,3c0,0.3-0.4,0.5-0.5,0.8c-0.2-0.3-0.4-0.5-0.5-0.8c-0.1-0.6,0-1.3,0-1.9
				C83.3,129.1,84.1,128.6,85.5,128.7z"/>
		</g>
		<g>
			<path d="M49.2,76.4c0-0.8,1.2-2.3,1.9-2.4c0.2,0,0.4,0,0.5,0.1c0.1,0.2,0.1,0.5,0,0.7c-0.4,0.6-0.9,1.2-1.4,1.8
				c-0.1,0.2-0.5,0.2-0.7,0.2C49.3,76.7,49.2,76.5,49.2,76.4z"/>
		</g>
		<g>
			<path d="M82.9,98.4c-0.8-0.6-1.4-2-1.1-2.8c0.1-0.2,0.4-0.5,0.6-0.5c0.2,0,0.5,0.2,0.6,0.4C83.4,95.9,83.2,97.8,82.9,98.4z"/>
		</g>
		<g>
			<path d="M85.9,145.6c0.5-0.2,1.3,0,1.5,0.6c0.1,0.4,0.4,0.7,0.4,1.1c0,0.3-0.2,0.7-0.3,1c-0.4-0.2-1-0.2-1.1-0.5
				C86.2,147.1,86.1,146.4,85.9,145.6z"/>
		</g>
		<g>
			<path d="M88.3,166.5c-0.4-0.6-0.8-1.2-1.1-1.9c0,0,0.4-0.3,0.7-0.5c0.1,0.9,1.9-0.5,1.5,1c-0.1,0.5-0.4,0.9-0.7,1.3
				C88.6,166.5,88.5,166.5,88.3,166.5z"/>
		</g>
		<g>
			<path d="M83.7,151.7c-0.1,0.8,0.3,1.8-0.8,1.9c-0.2,0-0.7-0.8-0.6-1c0.2-0.5,0.7-0.9,1.1-1.3C83.5,151.5,83.6,151.6,83.7,151.7z"
				/>
		</g>
		<g>
			<path d="M57.5,157.1c-0.5,0.5-0.9,0.8-1.3,1.1c-0.2-0.3-0.7-0.9-0.7-0.9c0.3-0.4,0.7-0.7,1.2-0.9
				C56.7,156.3,57.1,156.7,57.5,157.1z"/>
		</g>
		<g>
			<path d="M74,131c0.2-0.3,0.3-0.6,0.4-0.8c0.2,0.2,0.3,0.3,0.5,0.5c0.2,0.3,0.5,0.6,0.7,0.9c0.1,0.2,0,0.5,0,0.7
				c-0.3,0-0.8,0.1-0.9-0.1C74.4,132,74.3,131.5,74,131z"/>
		</g>
		<g>
			<path d="M74.3,138.7c-0.1-0.1-0.4-0.3-0.4-0.4c0-0.2,0-0.5,0.2-0.6c0.2-0.1,0.6,0,0.6,0.1c0.1,0.5,0.2,1,0.2,1.5
				c0,0.2-0.5,0.4-0.7,0.5c-0.1,0-0.3-0.2-0.5-0.3C73.9,139.2,74,139,74.3,138.7z"/>
		</g>
		<g>
			<path d="M92.5,187.1c-0.3-0.1-0.5-0.1-0.7-0.2c-0.2-0.1-0.3-0.3-0.5-0.5c0.2-0.1,0.4-0.3,0.6-0.3c0.3-0.1,0.7-0.1,1,0
				c0.3,0,0.5,0.1,0.8,0.2c-0.2,0.2-0.3,0.5-0.6,0.7C92.9,187,92.7,187,92.5,187.1z"/>
		</g>
		<g>
			<path d="M74.5,52.8c-0.7,0.1-1.3,0.3-2,0.4c-0.1,0-0.3-0.3-0.3-0.4c0.1-0.3,0.2-0.6,0.5-0.7C73.3,51.8,73.9,51.9,74.5,52.8z"/>
		</g>
		<g>
			<path d="M63,64.8c-0.3-0.3-0.4-0.4-0.4-0.5c-0.1-0.5,0.8-1.5,1.3-1.4c0.1,0,0.4,0.3,0.3,0.3C63.9,63.7,63.5,64.2,63,64.8z"/>
		</g>
		<g>
			<path d="M82,47.8c-0.4,0.5-0.7,1.3-1.6,0.4c0.9-0.8,2.1-0.5,3.1-1C83,48.2,83,48.2,82,47.8z"/>
		</g>
		<g>
			<path d="M70.3,153c-0.3,0.4-0.4,0.9-0.7,1.2c-0.1,0.1-0.5,0.1-0.7,0.1c0-0.2-0.1-0.5,0-0.6C69.1,153,69.5,152.7,70.3,153z"/>
		</g>
		<g>
			<path d="M80.7,46c0.1-0.3,0.1-0.7,0.3-0.8c0.4-0.2,0.8-0.2,1.3-0.2c0,0.2,0,0.5-0.1,0.6c-0.4,0.2-0.8,0.4-1.2,0.6
				C80.8,46.1,80.8,46.1,80.7,46z"/>
		</g>
		<g>
			<path d="M44.9,85c-0.3,0.4-0.5,0.7-0.8,1.1c-0.1-0.1-0.4-0.3-0.4-0.4c0.1-0.5,0.3-1,0.5-1.4C44.5,84.5,44.7,84.7,44.9,85z"/>
		</g>
		<g>
			<path d="M45.2,81.8c0.4,0.8,0.1,1.4-0.7,2.1C44.4,82.9,44.9,82.3,45.2,81.8z"/>
		</g>
		<g>
			<path d="M73.4,185.9c-0.2-0.3-0.5-0.6-0.7-0.9c0.3-0.2,0.5-0.4,0.8-0.5c0.1,0.4,0.3,0.8,0.4,1.2
				C73.7,185.7,73.6,185.8,73.4,185.9z"/>
		</g>
		<g>
			<path d="M89.1,115.5c0.2,0.4,0.4,0.8,0.6,1.1c-0.4-0.1-0.8-0.1-1.1-0.3c-0.1-0.1,0-0.5,0.1-0.8C88.8,115.6,88.9,115.6,89.1,115.5
				z"/>
		</g>
		<g>
			<path d="M86.8,144.3c-0.4-0.8-0.1-1.1,0.4-1.3c0.1-0.1,0.4,0.1,0.5,0.1C87.5,143.5,87.2,143.8,86.8,144.3z"/>
		</g>
		<g>
			<path d="M41.3,148.6c-0.2,0.2-0.4,0.4-0.7,0.6c-0.1-0.1-0.3-0.3-0.3-0.4c0.1-0.3,0.3-0.6,0.5-0.8c0.1-0.1,0.4,0.1,0.6,0.2
				C41.4,148.4,41.4,148.5,41.3,148.6z"/>
		</g>
		<g>
			<path d="M95,186c0.2,0.3,0.5,0.5,0.7,0.8c-0.2,0.1-0.6,0.3-0.6,0.3c-0.2-0.2-0.3-0.5-0.4-0.8C94.7,186.1,94.9,186,95,186z"/>
		</g>
		<g>
			<path fill="#FFFFFF" d="M115.1,167.6c-0.6,0.2-1.3,0.5-1.9,0.7c-0.2,0.1-0.5,0.3-0.5,0.4c0,0.2,0.2,0.5,0.4,0.6
				c0.5,0.2,1,0.4,1.6,0.6c0.4,0.1,0.7,0.2,0.9,0.2c0.2,0.7,0.3,1.3,0.4,1.8c0.1,0.5,0.1,0.9-0.6,1.1c-0.2,0-0.5,0.1-0.7,0.2
				c-1.6,0.5-2,0.2-2.2-1.4c0-0.2-0.1-0.5-0.2-0.8c-0.3,0.2-0.5,0.3-0.6,0.3c-0.4,0.2-0.7,0.2-1-0.3c-0.5-1-1.3-1.4-2.3-1.1
				c-0.2,0.1-0.6,0.3-0.6,0.4c0,0.3,0,0.7,0.2,1c0.3,0.3,0.7,0.5,1,0.7c1.7,0.8,2,1.1,2.4,3.1c-0.4,0.1-0.9,0.1-1.3,0.2
				c-0.4,0.1-0.9,0.2-1.2,0.4c-0.7,0.4-1.2,0.5-1.6-0.4c-0.2-0.4-0.6-0.7-0.9-1.1c-0.2-0.4-0.4-0.9-0.4-1.4
				c-0.1-0.7-0.4-0.8-0.9-0.7c-0.2,0-0.4,0.1-0.6,0.1c-0.7,0.1-0.9,0.4-0.5,1c0.5,0.8,1.1,1.6,1.5,2.4c0.5,1.2-0.5,2.3-1.8,2.2
				c-0.5,0-1,0.2-1.4,0.3c-0.5,0.1-0.8,0.1-0.9-0.5c0-0.2-0.2-0.4-0.3-0.5c-1.1-0.8-1.3-2-1.3-3.3c0-0.9-0.2-1.9-0.4-2.8
				c-0.4-1.6-0.2-3.1,0.1-4.6c0-0.1,0.1-0.3,0.1-0.4c-0.2-1.1,0-1.9,1-2.3c1.1-0.5,2.3-0.7,3.5-1c0.2,0,0.4,0.2,0.7,0.3
				c1,0.4,1.9,0.5,2.8-0.4c0.5-0.6,1.2-1,1.8-1.5c0.7-0.6,1.3-0.4,2-0.1c0.6,0.3,1.1,0.7,0.9,1.5c0,0.2,0.2,0.5,0.4,0.6
				c0.3,0.2,0.7,0.3,1.1,0.4c0.8,0.3,1,0.8,0.9,1.6c-0.2,0.8-0.4,1.6,0.9,2C115.2,167.4,115.1,167.5,115.1,167.6z M105.8,170.3
				c-0.3,0.2-0.5,0.3-0.6,0.5c-0.1,0.1-0.1,0.5,0,0.6c0.5,0.4,1,1,1.7,0.6c0.2-0.1,0.4-0.6,0.4-0.6
				C106.8,171,106.3,170.7,105.8,170.3z"/>
		</g>
		<g>
			<path fill="#FFFFFF" d="M60.3,95.3c-0.3-1.1,0.1-2,0.8-2.9c0.4-0.4,0.4-1.2,0.5-1.8c0.1-0.3,0.1-0.8,0.3-1
				c0.9-0.6,0.9-1.5,1.1-2.4c0.3-1.5,0.6-1.7,2-1.5c0.9,0.2,1.9,0.3,2.8,0.5c0.3,0.1,0.8,0.1,1,0.3c0.3,0.4,0.5,0.9,0.6,1.5
				c0.1,0.9,0.1,1.8,0.1,2.8c0,1.2,0.1,2.3-0.1,3.5c-0.2,1.2-0.7,2.3-1.1,3.5c0,0.1-0.1,0.1-0.1,0.1c-0.9,0.4-1.9,0.8-2.8,1.1
				c-0.6,0.2-1.3,0.4-1.9,0.3c-0.7-0.1-1.3-0.4-1.9-0.7c-0.4-0.2-0.7-0.6-0.9-1c-0.3-0.7-0.6-1.5-0.9-2.2
				C60.1,95.3,60.2,95.3,60.3,95.3z M68.6,91.1c-0.1-0.1-0.4-0.3-0.6-0.3c-0.5,0-1,0.1-1.5,0.2c-0.2,0.1-0.3,0.4-0.5,0.6
				c0.2,0.1,0.4,0.3,0.5,0.3c0.2,0.1,0.5,0.1,0.7,0.2C68,92.5,68.5,92.3,68.6,91.1z M64.7,96.6c0.1,0.1,0.3,0.2,0.4,0.3
				c0.2-0.3,0.5-0.5,0.7-0.8c0-0.1-0.3-0.3-0.5-0.5C65.1,95.9,64.9,96.2,64.7,96.6z M66.3,94.3c-0.5-0.2-0.7-0.4-0.9-0.5
				c-0.2,0-0.3,0.3-0.5,0.4c0.2,0.1,0.3,0.3,0.5,0.3C65.7,94.7,65.9,94.5,66.3,94.3z"/>
		</g>
		<g>
			<path fill="#FFFFFF" d="M96.7,100.8c-0.1-0.7-0.3-1.4-0.4-2.1c0-0.3,0.2-0.7,0.3-1c0.2-0.3,0.4-0.5,0.6-0.7
				c0.5-0.5,0.3-0.8-0.1-1.2c-1-0.8-1-1.3,0-2.2c0.6-0.5,0.8-1,0.5-1.8c-0.2-0.6,0-1.4,0.2-2c0.2-0.6,0.1-0.9-0.3-1.5
				c-0.5-0.7-0.6-1.7-1-2.6c-0.1-0.4-0.3-0.8-0.5-1.1c-0.4-0.5-0.2-0.9,0.2-1.2c0.1-0.1,0.7,0.2,0.8,0.4c0.7,1.3,1.5,2.5,2,3.9
				c0.3,0.6,0.2,1.4,0.1,2.2c-0.1,1.9-0.4,3.8-0.5,5.7c0,1,0.2,2,0.3,3c0,0.4,0,0.8,0,1.2c0,0.4-0.3,0.8-0.2,1.1
				c0.2,0.9-0.5,1-1.1,1.2C97.2,102.3,96.5,101.4,96.7,100.8z"/>
		</g>
		<g>
			<path fill="#FFFFFF" d="M72.5,77.1c0.1,0.5,0.1,1,0.2,1.4c-0.5,0-0.9-0.1-1.3,0C71.2,78.6,71,79,71,79.3c0,0.9-0.3,1.3-1.2,1.1
				c-0.9-0.2-1.7-0.4-2.6,0.2c-0.3,0.2-0.9-0.1-1.3-0.2c-0.8-0.2-1.5-0.6-2.3-0.8c-0.5-0.2-1-0.2-0.7-1c0.1-0.2,0.1-0.7,0-0.9
				c-0.6-0.6-0.1-1.2,0-1.8c0.1-0.5,0.4-0.5,0.8-0.2c0.2,0.2,0.4,0.4,0.6,0.6c1.8,1.5,3.9,1.3,6,1.2C71,77.4,71.7,77.2,72.5,77.1z"
				/>
		</g>
		<g>
			<path fill="#FFFFFF" d="M94.5,74.9c-1.1,0-1.9-0.6-2.7-1.3c-0.5-0.5-0.4-1,0-1.4c0.5-0.5,1.1-1,1.7-1.3c0.2-0.1,0.8,0.3,1.1,0.6
				c0.7,0.7,0.6,1.7,0.8,2.6C95.4,74.7,95.1,75,94.5,74.9z"/>
		</g>
		<g>
			<path fill="#FFFFFF" d="M82.4,110.4c-0.7-0.3-1.7,0-1.8-1.3c-0.1-0.7-0.8-1.3-1.2-2c-0.1-0.2-0.2-0.6-0.1-0.7
				c0.2-0.2,0.6-0.3,0.8-0.2c0.9,0.3,1.7,0.7,2.5,1.1c0.2,0.1,0.3,0.4,0.3,0.6C82.8,108.7,82.6,109.5,82.4,110.4z"/>
		</g>
		<g>
			<path fill="#FFFFFF" d="M84.4,60.2c1-0.3,2-0.5,3-0.8c0,0.3,0.1,0.5,0.1,0.7c-0.3,0.8,0.1,1.2,0.6,1.8c0.5,0.5,0.7,1.3,1,1.9
				c0,0-0.4,0.4-0.5,0.4c-0.5-0.1-1-0.2-1.4-0.4c-0.3-0.2-0.9-0.4-0.9-0.6c-0.1-0.4,0.2-0.8,0.3-1.2c0.1-0.2,0.3-0.4,0.5-0.7
				c-0.3,0-0.6-0.2-0.9-0.1C85.1,61.3,84.7,61.1,84.4,60.2z"/>
		</g>
		<g>
			<path fill="#FFFFFF" d="M83.5,63.5c-0.1,0.3-0.3,0.6-0.4,0.9c-0.3-0.2-0.5-0.5-0.8-0.7c-0.1-0.1-0.2-0.3-0.3-0.4
				c-0.1-0.2-0.2-0.5-0.3-0.7c0.3,0,0.5-0.1,0.8,0C82.9,62.7,83.6,62.6,83.5,63.5z"/>
		</g>
		<g>
			<path fill="#FFFFFF" d="M52.9,191.7c0.7,0,1.4,0,2,0c0.1,0,0.3,0.1,0.3,0.2c0.3,0.8,0.8,1.7,0.7,2.5c-0.1,0.9-0.9,1.5-2,1.7
				c-1.5,0.3-1.8,0.3-2.2-0.8c-0.3-1.1-0.4-2.3,0.2-3.3c0.1-0.2,0.6-0.3,0.9-0.5C52.9,191.5,52.9,191.6,52.9,191.7z"/>
		</g>
		<g>
			<path fill="#FFFFFF" d="M57,55.2c-1.7-1.1-2.9-0.4-3.7,1.2c-0.3,0.6-0.6,1-1.4,1c-0.5,0-1,0.2-1.5,0.3c-0.2,0.1-0.5,0.1-0.7,0.2
				c-0.1-0.1-0.1-0.2-0.2-0.2c0.5-0.5,0.9-1.1,1.4-1.5c1-0.8,2.1-1.7,3.2-2.3c0.8-0.4,1.9-0.4,2.8-0.5c0.2,0,0.5,0.5,0.5,0.8
				C57.4,54.6,57.2,54.9,57,55.2C57,55.2,57,55.2,57,55.2z"/>
		</g>
		<g>
			<path fill="#FFFFFF" d="M25.4,158.3c0.4-1.3,1-1.8,2.2-1.8c0.5,0,0.9-0.1,1.4-0.2c0.9-0.3,0.9-0.3,1.2,0.6
				C28.9,158.3,27.2,158.3,25.4,158.3z"/>
		</g>
		<g>
			<path fill="#FFFFFF" d="M53.7,50c0,1.6-1,2.2-1.8,2.8c-0.2,0.1-0.4,0.2-0.6,0.3c-0.9,0.8-1.7,1.6-2.6,2.5c-0.3-1,0.5-1.3,1-1.8
				c0.6-0.5,1.2-1.1,1.7-1.7c0.3-0.4,0.4-1,0.8-1.4C52.4,50.4,53,50.3,53.7,50z"/>
		</g>
		<g>
			<path fill="#FFFFFF" d="M56.1,64.8c-0.4-1.3,0.5-2.8,1.6-2.9c0.2,0,0.5,0.3,0.7,0.4c-0.1,0.2-0.3,0.5-0.4,0.5
				c-1.1-0.2-1.3,0.7-1.6,1.3C56.4,64.3,56.3,64.5,56.1,64.8z"/>
		</g>
		<g>
			<path fill="#FFFFFF" d="M19.6,154.5c0.7-0.2,1.4-0.3,2.3-0.5c0.1,0.2,0.3,0.4,0.5,0.8c-1,0.4-1.9,0.3-2.8,0
				C19.6,154.7,19.6,154.6,19.6,154.5z"/>
		</g>
		<g>
			<path fill="#FFFFFF" d="M22.7,176.4c-0.1-0.5-0.2-1-0.3-1.4c0.3,0,0.9-0.2,0.9,0C23.6,175.5,23.4,176,22.7,176.4z"/>
		</g>
		<g>
			<path d="M105.8,170.3c0.5,0.4,1,0.7,1.5,1c0,0-0.2,0.5-0.4,0.6c-0.7,0.4-1.2-0.2-1.7-0.6c-0.1-0.1-0.1-0.4,0-0.6
				C105.2,170.6,105.5,170.5,105.8,170.3z"/>
		</g>
		<g>
			<path d="M68.6,91.1c0,1.2-0.5,1.5-1.4,1C67,92,66.7,92,66.5,91.9c-0.2-0.1-0.4-0.2-0.5-0.3c0.1-0.2,0.3-0.5,0.5-0.6
				c0.5-0.2,1-0.2,1.5-0.2C68.2,90.7,68.4,91,68.6,91.1z"/>
		</g>
		<g>
			<path d="M64.7,96.6c0.2-0.3,0.4-0.7,0.6-1c0.2,0.2,0.5,0.5,0.5,0.5c-0.2,0.3-0.5,0.5-0.7,0.8C65,96.8,64.8,96.7,64.7,96.6z"/>
		</g>
		<g>
			<path d="M66.3,94.3c-0.4,0.2-0.6,0.3-0.8,0.3c-0.2,0-0.4-0.2-0.5-0.3c0.2-0.1,0.3-0.4,0.5-0.4C65.6,93.9,65.8,94.1,66.3,94.3z"/>
		</g>
	</g>
</g>
</svg>
